<?xml version="1.0" encoding="iso-8859-1"?>
<!-- Generator: Adobe Illustrator 19.0.0, SVG Export Plug-In . SVG Version: 6.00 Build 0)  -->
<svg version="1.1" id="Capa_1" xmlns="http://www.w3.org/2000/svg" xmlns:xlink="http://www.w3.org/1999/xlink" x="0px" y="0px"
	 viewBox="0 0 512 512" style="enable-background:new 0 0 512 512;" xml:space="preserve">
<circle style="fill:#F3D75C;" cx="256" cy="256" r="256"/>
<path style="fill:#8E64B6;" d="M475.909,343.761h-65.433v107.597h10.947c21.501-18.225,39.953-39.931,54.486-64.254V343.761z"/>
<path style="fill:#39375E;" d="M328.485,332.688v129.743c0,14.908,10.378,27.384,24.301,30.62
	c20.728-8.472,40.098-19.578,57.69-32.912V301.242h-50.545C342.564,301.242,328.485,315.321,328.485,332.688z"/>
<path style="fill:#272749;" d="M384.046,301.242h-24.115c-17.367,0-31.446,14.079-31.446,31.445V462.43
	c0,14.908,10.378,27.384,24.301,30.621c4.191-1.713,8.326-3.531,12.402-5.456c-7.643-5.737-12.588-14.873-12.588-25.165V332.688
	C352.6,315.321,366.679,301.242,384.046,301.242z"/>
<path style="fill:#A279C8;" d="M414.871,291.429h-20.847c-4.232,0-7.663,3.431-7.663,7.663v177.256
	c12.819-7.601,24.92-16.282,36.172-25.929V299.092C422.533,294.86,419.103,291.429,414.871,291.429z"/>
<g>
	<path style="fill:#8E64B6;" d="M386.361,299.092v177.256c4.092-2.426,8.116-4.955,12.057-7.599V299.092
		c0-4.232,3.431-7.663,7.663-7.663h-12.057C389.792,291.429,386.361,294.86,386.361,299.092z"/>
	<path style="fill:#8E64B6;" d="M37.437,389.346c14.318,23.418,32.3,44.347,53.14,62.011h12.293V343.761H37.437V389.346z"/>
</g>
<path style="fill:#39375E;" d="M443.173,430.624c16.842-18.045,31.103-38.524,42.201-60.857V268.988
	C485.374,142.51,382.477,39.614,256,39.614S26.626,142.511,26.626,268.988v100.778c11.098,22.333,25.359,42.813,42.201,60.857
	V268.988c0-103.207,83.966-187.172,187.173-187.172s187.173,83.966,187.173,187.172V430.624z"/>
<path style="fill:#272749;" d="M443.173,430.624c8.764-9.389,16.83-19.435,24.115-30.062V268.988
	c0-116.504-94.783-211.287-211.288-211.287S44.712,152.484,44.712,268.988v131.574c7.285,10.627,15.351,20.673,24.115,30.062
	V268.988c0-103.207,83.966-187.172,187.173-187.172s187.173,83.966,187.173,187.172V430.624z"/>
<path style="fill:#39375E;" d="M153.415,301.242H102.87V461.17c17.368,12.983,36.447,23.797,56.826,32.078
	c14.357-2.91,25.165-15.601,25.165-30.817V332.688C184.861,315.321,170.782,301.242,153.415,301.242z"/>
<path style="fill:#272749;" d="M102.87,461.17c14.905,11.142,31.066,20.694,48.23,28.414V301.242h-48.23
	C102.87,301.242,102.87,461.17,102.87,461.17z"/>
<path style="fill:#A279C8;" d="M119.322,291.429H98.475c-4.232,0-7.663,3.431-7.663,7.663v152.465
	c11.266,9.526,23.363,18.097,36.172,25.586V299.092C126.985,294.86,123.554,291.429,119.322,291.429z"/>
<path style="fill:#8E64B6;" d="M90.813,299.092v152.465c3.924,3.317,7.937,6.533,12.057,9.613V299.092
	c0-4.232,3.431-7.663,7.663-7.663H98.475C94.243,291.429,90.813,294.86,90.813,299.092z"/>
<path style="fill:#DD544C;" d="M126.337,83.414l24.068,30.702c4.235,5.402,11.808,6.888,17.739,3.434
	c25.84-15.05,55.859-23.677,87.856-23.677s62.016,8.627,87.855,23.676c5.931,3.454,13.504,1.968,17.739-3.434l24.068-30.702
	c5.088-6.49,3.38-15.963-3.646-20.281C345.312,40.579,302.149,27.557,256,27.557s-89.312,13.021-126.017,35.576
	C122.957,67.451,121.249,76.923,126.337,83.414z"/>
<path style="fill:#C63B38;" d="M382.432,63.42L361.594,90c-4.235,5.402-11.808,6.888-17.739,3.434
	C318.016,78.385,287.997,69.759,256,69.759s-62.016,8.627-87.855,23.675c-5.931,3.454-13.504,1.968-17.739-3.434l-20.837-26.58
	c-6.665,4.434-8.214,13.638-3.231,19.994l24.068,30.702c4.235,5.402,11.808,6.888,17.739,3.434
	C193.984,102.5,224.003,93.873,256,93.873s62.016,8.627,87.855,23.675c5.931,3.454,13.504,1.968,17.739-3.434l24.068-30.702
	C390.646,77.058,389.097,67.854,382.432,63.42z"/>
<g>
</g>
<g>
</g>
<g>
</g>
<g>
</g>
<g>
</g>
<g>
</g>
<g>
</g>
<g>
</g>
<g>
</g>
<g>
</g>
<g>
</g>
<g>
</g>
<g>
</g>
<g>
</g>
<g>
</g>
</svg>
