<?xml version="1.0" encoding="iso-8859-1"?>
<!-- Generator: Adobe Illustrator 19.0.0, SVG Export Plug-In . SVG Version: 6.00 Build 0)  -->
<svg version="1.1" id="Capa_1" xmlns="http://www.w3.org/2000/svg" xmlns:xlink="http://www.w3.org/1999/xlink" x="0px" y="0px"
	 viewBox="0 0 512 512" style="enable-background:new 0 0 512 512;" xml:space="preserve">
<circle style="fill:#39375E;" cx="256" cy="256" r="256"/>
<path style="fill:#FFFBEB;" d="M172.193,497.876c26.32,9.142,54.586,14.124,84.018,14.124c29.125,0,57.109-4.874,83.195-13.834
	L323.751,278H187.827L172.193,497.876z"/>
<path style="fill:#D8E0C9;" d="M323.751,278H217.827h-30l-3.378,47.5l-12.257,172.376c9.559,3.32,19.376,6.086,29.412,8.267
	L214.449,325.5h112.679L323.751,278z"/>
<rect x="186.3" y="179" style="fill:#FFFBEB;" width="139.82" height="112.5"/>
<polygon style="fill:#D8E0C9;" points="326.122,179 216.3,179 186.3,179 186.3,208 186.3,291.5 216.3,291.5 216.3,208 326.122,208 
	"/>
<g>
	<path style="fill:#E8C63A;" d="M315.911,162.69l195.854,82.711c-3.359-82.446-45.7-154.833-109.097-199.229L315.911,82.81V162.69z"
		/>
	<path style="fill:#E8C63A;" d="M0.235,245.401l195.854-82.711V82.81l-86.757-36.638C45.936,90.568,3.595,162.955,0.235,245.401z"/>
</g>
<rect x="186.3" y="66.5" style="fill:#F3D75C;" width="139.82" height="112.5"/>
<g>
	<rect x="186.3" y="71.5" style="fill:#E8C63A;" width="139.82" height="20.5"/>
	<path style="fill:#E8C63A;" d="M287.733,71.144h-63.044c-1.896,0-3.433,1.537-3.433,3.433v22.467c0,1.896,1.537,3.433,3.433,3.433
		h9.022v63.62h45v-63.62h9.022c1.896,0,3.433-1.537,3.433-3.433V74.577C291.167,72.681,289.63,71.144,287.733,71.144z"/>
</g>
<path style="fill:#D6B52B;" d="M221.256,74.577V92h69.911V74.577c0-1.357-0.794-2.52-1.937-3.077h-66.037
	C222.05,72.057,221.256,73.22,221.256,74.577z"/>
<path style="fill:#39375E;" d="M272.102,286.96H240.32c-1.165,0-2.109-0.944-2.109-2.109V237.54c0-9.941,8.059-18,18-18l0,0
	c9.941,0,18,8.059,18,18v47.311C274.211,286.016,273.267,286.96,272.102,286.96z"/>
<polygon style="fill:#DD544C;" points="177.696,420.484 333.882,420.484 329.58,359.979 181.998,359.979 "/>
<polygon style="fill:#C63B38;" points="211.998,359.979 181.998,359.979 177.696,420.484 207.696,420.484 "/>
<path style="fill:#DD544C;" d="M172.193,497.876c26.32,9.142,54.586,14.124,84.018,14.124c29.125,0,57.109-4.874,83.195-13.834
	l-1.221-17.177H173.393L172.193,497.876z"/>
<path style="fill:#C63B38;" d="M172.193,497.876c9.559,3.32,19.376,6.086,29.412,8.267l1.789-25.154h-30L172.193,497.876z"/>
<path style="fill:#DD544C;" d="M252.747,1.198l-91.148,71.595c-1.353,1.063-2.144,2.689-2.144,4.41l0,0
	c0,3.097,2.51,5.607,5.607,5.607h182.296c3.097,0,5.607-2.511,5.607-5.607l0,0c0-1.721-0.79-3.347-2.144-4.41L259.675,1.198
	C257.642-0.399,254.78-0.399,252.747,1.198z"/>
<path style="fill:#C63B38;" d="M270.956,10.059l-11.281-8.861c-2.033-1.597-4.894-1.597-6.927,0L161.6,72.793
	c-1.353,1.063-2.144,2.689-2.144,4.41c0,3.097,2.51,5.607,5.607,5.607h13.272L270.956,10.059z"/>
<rect x="248.71" y="253.25" style="fill:#DD544C;" width="15" height="44.758"/>
<polygon style="fill:#C63B38;" points="263.711,253.25 256.211,253.25 256.211,253.25 248.711,253.25 248.711,253.25 
	248.711,260.095 248.711,298.008 256.211,298.008 256.211,260.095 263.711,260.095 "/>
<rect x="213.76" y="253.25" style="fill:#DD544C;" width="15" height="44.758"/>
<polygon style="fill:#C63B38;" points="228.756,253.25 221.256,253.25 221.256,253.25 213.756,253.25 213.756,253.25 
	213.756,260.095 213.756,298.008 221.256,298.008 221.256,260.095 228.756,260.095 "/>
<rect x="283.67" y="253.25" style="fill:#DD544C;" width="15" height="44.758"/>
<polygon style="fill:#C63B38;" points="298.667,253.25 291.167,253.25 291.167,253.25 283.667,253.25 283.667,253.25 
	283.667,260.095 283.667,298.008 291.167,298.008 291.167,260.095 298.667,260.095 "/>
<rect x="178.8" y="253.25" style="fill:#DD544C;" width="15" height="44.789"/>
<polygon style="fill:#C63B38;" points="193.8,255.25 186.3,255.25 186.3,255.25 178.8,255.25 178.8,255.25 178.8,263.861 
	178.8,311.589 186.3,311.589 186.3,263.861 193.8,263.861 "/>
<rect x="318.62" y="253.25" style="fill:#DD544C;" width="15" height="44.789"/>
<polygon style="fill:#C63B38;" points="333.622,253.25 326.122,253.25 326.122,253.25 318.622,253.25 318.622,253.25 
	318.622,260.095 318.622,298.039 326.122,298.039 326.122,260.095 333.622,260.095 "/>
<path style="fill:#DD544C;" d="M340.181,312.333H171.397c-3.649,0-6.608-2.958-6.608-6.608v-22.591c0-3.649,2.958-6.608,6.608-6.608
	h168.785c3.649,0,6.608,2.958,6.608,6.608v22.591C346.789,309.375,343.831,312.333,340.181,312.333z"/>
<path style="fill:#C63B38;" d="M194.789,305.726v-22.591c0-3.649,2.958-6.608,6.608-6.608h-30c-3.649,0-6.608,2.958-6.608,6.608
	v22.591c0,3.649,2.958,6.608,6.608,6.608h30C197.747,312.333,194.789,309.375,194.789,305.726z"/>
<path style="fill:#DD544C;" d="M340.181,196.903H171.397c-3.649,0-6.608-2.958-6.608-6.608v-22.591c0-3.649,2.958-6.608,6.608-6.608
	h168.785c3.649,0,6.608,2.958,6.608,6.608v22.591C346.789,193.945,343.831,196.903,340.181,196.903z"/>
<path style="fill:#C63B38;" d="M194.789,190.296v-22.591c0-3.649,2.958-6.608,6.608-6.608h-30c-3.649,0-6.608,2.958-6.608,6.608
	v22.591c0,3.649,2.958,6.608,6.608,6.608h30C197.747,196.903,194.789,193.945,194.789,190.296z"/>
<path style="fill:#DD544C;" d="M338.122,255.25H173.455c-4.142,0-7.5-3.357-7.5-7.5s3.358-7.5,7.5-7.5h164.667
	c4.142,0,7.5,3.357,7.5,7.5S342.264,255.25,338.122,255.25z"/>
<path style="fill:#C63B38;" d="M195.955,247.75c0-4.143,3.358-7.5,7.5-7.5h-30c-4.142,0-7.5,3.357-7.5,7.5s3.358,7.5,7.5,7.5h30
	C199.313,255.25,195.955,251.893,195.955,247.75z"/>
<path style="fill:#DD544C;" d="M328.122,130.25H183.455c-4.142,0-7.5-3.357-7.5-7.5s3.358-7.5,7.5-7.5h144.667
	c4.142,0,7.5,3.357,7.5,7.5S332.264,130.25,328.122,130.25z"/>
<path style="fill:#C63B38;" d="M205.955,122.75c0-4.143,3.358-7.5,7.5-7.5h-30c-4.142,0-7.5,3.357-7.5,7.5s3.358,7.5,7.5,7.5h30
	C209.313,130.25,205.955,126.893,205.955,122.75z"/>
<g>
</g>
<g>
</g>
<g>
</g>
<g>
</g>
<g>
</g>
<g>
</g>
<g>
</g>
<g>
</g>
<g>
</g>
<g>
</g>
<g>
</g>
<g>
</g>
<g>
</g>
<g>
</g>
<g>
</g>
</svg>
