<?xml version="1.0" encoding="iso-8859-1"?>
<!-- Generator: Adobe Illustrator 19.0.0, SVG Export Plug-In . SVG Version: 6.00 Build 0)  -->
<svg version="1.1" id="Capa_1" xmlns="http://www.w3.org/2000/svg" xmlns:xlink="http://www.w3.org/1999/xlink" x="0px" y="0px"
	 viewBox="0 0 512 512" style="enable-background:new 0 0 512 512;" xml:space="preserve">
<path style="fill:#F3D75C;" d="M512,256c0,17.13-1.68,33.87-4.9,50.06c-3.9,19.72-10.08,38.62-18.24,56.42
	c-6.41,14.01-14.05,27.34-22.79,39.86c-11.39,16.33-24.65,31.27-39.45,44.52C381.34,487.36,321.54,512,256,512
	c-76.35,0-144.89-33.42-191.8-86.44c-4.42-5-8.65-10.18-12.68-15.52c-2.68-3.54-5.26-7.16-7.76-10.84
	c-10.97-16.25-20.14-33.82-27.2-52.44c-0.29-0.76-0.57-1.52-0.85-2.28c-3.4-9.22-6.28-18.68-8.61-28.37
	c-0.32-1.34-0.64-2.68-0.93-4.03c-3.68-16.43-5.77-33.47-6.12-50.93C0.02,259.44,0,257.72,0,256c0-2.74,0.04-5.47,0.13-8.19
	c0.2-6.51,0.65-12.96,1.34-19.34c0.02-0.2,0.04-0.41,0.06-0.61l0.01-0.01C15.55,99.71,124.13,0,256,0C397.38,0,512,114.62,512,256z"
	/>
<path style="fill:#70D587;" d="M65.503,427c46.865,52.174,114.844,85,190.497,85s143.632-32.826,190.497-85H65.503z"/>
<path style="fill:#39375E;" d="M507.05,306.06c-13-42.34-50.65-73.89-96.2-77.95c-0.01,0-0.01,0-0.02,0
	c-0.45-0.04-0.9-0.08-1.36-0.11c-0.47-0.04-0.94-0.08-1.41-0.11c-0.72-0.05-1.45-0.09-2.18-0.12c-0.7-0.03-1.4-0.06-2.1-0.08
	c-0.3-0.01-0.6-0.02-0.91-0.02c-0.67-0.01-1.34-0.02-2.02-0.02c-1.5,0-2.99,0.03-4.48,0.1c-0.37,0-0.73,0.02-1.1,0.04
	c-0.93,0.04-1.85,0.1-2.77,0.17c-0.92,0.07-1.84,0.15-2.75,0.24c-0.68,0.07-1.36,0.14-2.04,0.22c-0.63,0.07-1.26,0.15-1.88,0.24
	c-0.6,0.08-1.2,0.16-1.8,0.26c-0.8,0.12-1.6,0.25-2.4,0.39c-0.78,0.14-1.56,0.28-2.33,0.44c-0.12,0.01-0.23,0.03-0.34,0.06
	c-0.88,0.17-1.75,0.36-2.62,0.55c-0.64,0.15-1.28,0.3-1.92,0.46c-0.23,0.05-0.45,0.1-0.68,0.17c-0.49,0.12-0.98,0.24-1.47,0.38
	c-0.38,0.09-0.75,0.19-1.13,0.3c-0.45,0.12-0.91,0.25-1.36,0.38c-0.43,0.13-0.86,0.25-1.28,0.39c-0.41,0.12-0.82,0.24-1.22,0.37
	c-0.69,0.22-1.38,0.44-2.06,0.68c-0.69,0.23-1.37,0.47-2.05,0.72c-0.6,0.21-1.19,0.43-1.78,0.66c-0.52,0.19-1.04,0.39-1.55,0.59
	c-0.02,0.01-0.03,0.02-0.05,0.02c-0.78,0.32-1.56,0.64-2.34,0.96c-0.68,0.29-1.36,0.59-2.03,0.89c-0.21,0.09-0.41,0.19-0.62,0.28
	c-0.63,0.29-1.26,0.58-1.89,0.88c-0.1,0.05-0.2,0.1-0.3,0.15c-0.74,0.36-1.48,0.72-2.21,1.09c-0.04,0.03-0.09,0.05-0.13,0.07
	c-0.8,0.41-1.59,0.83-2.38,1.26c-0.79,0.42-1.57,0.86-2.34,1.31c-0.78,0.44-1.55,0.9-2.31,1.36c-0.73,0.44-1.45,0.89-2.17,1.36
	c-0.09,0.06-0.19,0.12-0.29,0.18c-0.54,0.35-1.07,0.7-1.6,1.05c-1.5,1-2.96,2.04-4.41,3.11c-0.44,0.32-0.87,0.65-1.3,0.98
	c-0.18,0.14-0.37,0.28-0.55,0.42c-0.44,0.34-0.87,0.68-1.3,1.03c-1.38,1.09-2.73,2.22-4.05,3.38c-0.42,0.37-0.83,0.74-1.24,1.11
	c-0.1,0.09-0.2,0.18-0.3,0.28c-0.62,0.55-1.23,1.12-1.83,1.7c-0.6,0.57-1.19,1.14-1.77,1.72c-0.1,0.1-0.2,0.2-0.29,0.3
	c-0.55,0.55-1.09,1.1-1.63,1.66c-1.91,2-3.75,4.08-5.51,6.22c-0.53,0.64-1.04,1.28-1.55,1.93c-0.52,0.66-1.04,1.33-1.55,2.01
	c-0.04,0.06-0.09,0.12-0.14,0.19c-0.51,0.68-1.01,1.38-1.51,2.08c-0.52,0.72-1.02,1.46-1.52,2.19c-0.5,0.74-0.99,1.49-1.48,2.24
	c-0.48,0.75-0.96,1.51-1.42,2.28c-0.46,0.76-0.91,1.53-1.36,2.3c-0.44,0.78-0.88,1.56-1.31,2.34c-0.86,1.58-1.68,3.18-2.45,4.8
	c-0.39,0.8-0.77,1.62-1.14,2.44c-0.36,0.79-0.71,1.58-1.05,2.38c-0.01,0.03-0.02,0.06-0.04,0.1c-0.35,0.83-0.69,1.66-1.02,2.5
	s-0.66,1.69-0.97,2.54s-0.61,1.71-0.9,2.57c-0.29,0.86-0.57,1.72-0.84,2.59s-0.53,1.75-0.78,2.63c-0.24,0.82-0.47,1.66-0.68,2.49
	c-0.03,0.12-0.06,0.23-0.09,0.34c-0.21,0.83-0.41,1.66-0.6,2.49c-0.21,0.9-0.41,1.8-0.59,2.7c-0.19,0.9-0.36,1.81-0.52,2.72
	c-0.15,0.82-0.29,1.63-0.41,2.45v0.01c-0.07,0.42-0.13,0.84-0.19,1.26c-0.06,0.4-0.12,0.81-0.17,1.22c-0.05,0.4-0.11,0.79-0.15,1.19
	c-0.06,0.5-0.12,1-0.17,1.51c-0.08,0.68-0.15,1.37-0.2,2.06c-0.1,1.01-0.18,2.03-0.23,3.06c-0.02,0.18-0.03,0.36-0.04,0.54
	c-0.02,0.39-0.04,0.79-0.06,1.19c-0.04,0.77-0.06,1.54-0.08,2.31c-0.03,0.96-0.04,1.91-0.04,2.87c0,61.36,49.74,111.1,111.1,111.1
	c0.71,0,1.41-0.01,2.11-0.03c0.38,0,0.75-0.01,1.12-0.02c0.46-0.01,0.92-0.03,1.37-0.05c0.24-0.01,0.47-0.02,0.7-0.03
	c1.58-0.07,3.14-0.18,4.7-0.32c5.36-0.47,10.61-1.33,15.72-2.54c48.96-11.61,85.38-55.6,85.38-108.11
	C511.95,327.37,510.24,316.4,507.05,306.06z M400.85,416.53c-42.89,0-77.78-34.89-77.78-77.78c0-31.74,19.11-59.1,46.43-71.17
	c6.03-2.68,12.46-4.6,19.18-5.65c3.97-0.64,8.03-0.96,12.17-0.96c42.89,0,77.78,34.89,77.78,77.78S443.74,416.53,400.85,416.53z"/>
<path style="fill:#272749;" d="M309.75,338.754c0-57.989,44.427-105.59,101.1-110.647c-3.295-0.294-6.629-0.453-10-0.453
	c-61.36,0-111.1,49.74-111.1,111.1s49.74,111.1,111.1,111.1c3.371,0,6.705-0.159,10-0.453
	C354.177,444.344,309.75,396.742,309.75,338.754z"/>
<path style="fill:#FFFBEB;" d="M402.71,247.67c-0.62-0.01-1.24-0.02-1.86-0.02c-0.78,0-1.56,0.01-2.34,0.03h-0.08
	c-0.71,0.02-1.42,0.05-2.13,0.08c-0.11,0.01-0.23,0.01-0.34,0.02c-0.7,0.04-1.39,0.08-2.08,0.14c-0.03,0-0.06,0-0.09,0.01
	c-0.57,0.03-1.14,0.08-1.7,0.14c-0.35,0.03-0.71,0.07-1.06,0.11c-0.3,0.03-0.61,0.06-0.91,0.1c-0.39,0.04-0.77,0.09-1.16,0.14
	c-1.4,0.19-2.79,0.4-4.17,0.64c-0.76,0.14-1.52,0.29-2.28,0.44c-0.74,0.16-1.48,0.32-2.21,0.49c-0.47,0.1-0.94,0.22-1.4,0.34
	c-0.45,0.1-0.89,0.22-1.33,0.34c-0.17,0.04-0.34,0.08-0.5,0.13c-0.59,0.16-1.16,0.32-1.74,0.49c-0.27,0.07-0.53,0.15-0.79,0.24
	c-0.51,0.15-1.02,0.31-1.52,0.47c-0.23,0.07-0.47,0.15-0.7,0.23c-0.68,0.22-1.37,0.46-2.04,0.7c-0.02,0-0.04,0.01-0.06,0.02
	c-0.64,0.23-1.27,0.46-1.9,0.71c-0.91,0.34-1.81,0.7-2.71,1.08c-1.1,0.47-2.2,0.95-3.28,1.46c-0.39,0.18-0.78,0.37-1.17,0.56
	c-4.58,2.22-8.95,4.82-13.06,7.75c-0.58,0.41-1.16,0.83-1.72,1.26c-0.56,0.41-1.11,0.83-1.65,1.26c-0.07,0.06-0.13,0.11-0.2,0.16
	c-0.54,0.42-1.07,0.85-1.6,1.29c-0.46,0.38-0.92,0.76-1.37,1.16c-0.76,0.65-1.51,1.31-2.25,2c-0.37,0.33-0.74,0.67-1.1,1.02
	c-1.19,1.13-2.36,2.29-3.49,3.49c-0.37,0.39-0.74,0.78-1.09,1.18c-0.6,0.64-1.18,1.3-1.75,1.96c-0.44,0.51-0.87,1.02-1.3,1.54
	c-0.49,0.6-0.98,1.21-1.47,1.82c-0.4,0.52-0.81,1.05-1.21,1.59c-0.02,0.02-0.04,0.05-0.06,0.09c-0.42,0.55-0.83,1.12-1.24,1.69
	c-1.28,1.8-2.51,3.65-3.66,5.56c-0.37,0.61-0.74,1.23-1.1,1.86c-0.32,0.55-0.63,1.1-0.94,1.66c-0.45,0.82-0.89,1.66-1.32,2.5
	c-0.22,0.45-0.45,0.9-0.66,1.35c-0.1,0.18-0.19,0.37-0.28,0.57c-0.27,0.57-0.54,1.14-0.8,1.71c-0.22,0.48-0.43,0.96-0.64,1.45
	c-0.15,0.34-0.3,0.69-0.44,1.04c-0.33,0.76-0.64,1.54-0.93,2.32c-0.17,0.43-0.34,0.87-0.5,1.31c-0.05,0.11-0.09,0.23-0.12,0.35
	c-0.19,0.48-0.36,0.97-0.52,1.46c-0.7,2-1.32,4.03-1.86,6.09c-0.1,0.37-0.2,0.74-0.29,1.11c-0.3,1.16-0.58,2.34-0.82,3.53
	c-0.09,0.41-0.18,0.82-0.25,1.23c-0.11,0.51-0.2,1.01-0.29,1.52c-0.09,0.47-0.17,0.95-0.24,1.42c-0.03,0.16-0.06,0.33-0.08,0.49
	c-0.08,0.46-0.14,0.92-0.21,1.38c-0.03,0.19-0.05,0.37-0.08,0.56c-0.04,0.33-0.09,0.67-0.13,1.01c-0.06,0.46-0.11,0.93-0.16,1.4
	c-0.03,0.28-0.06,0.56-0.09,0.85c-0.06,0.66-0.12,1.33-0.17,2c-0.06,0.71-0.1,1.42-0.14,2.14c-0.01,0.11-0.01,0.22-0.02,0.33
	c-0.03,0.72-0.06,1.45-0.08,2.18c-0.02,0.78-0.03,1.56-0.03,2.35c0,0.78,0.01,1.57,0.03,2.35c0.02,0.97,0.06,1.94,0.13,2.9
	c0.02,0.58,0.06,1.17,0.11,1.75c0.11,1.49,0.26,2.98,0.45,4.45c0.09,0.75,0.19,1.49,0.31,2.23c0.06,0.44,0.13,0.87,0.21,1.3
	c0.05,0.38,0.12,0.75,0.19,1.12c0.12,0.67,0.24,1.34,0.38,2c0.14,0.7,0.29,1.4,0.45,2.1c0.17,0.75,0.35,1.5,0.54,2.24
	c0.17,0.7,0.36,1.39,0.56,2.09c0,0.02,0.01,0.04,0.01,0.06c0.15,0.52,0.3,1.05,0.46,1.57c0.15,0.49,0.3,0.98,0.46,1.46
	c0.16,0.52,0.33,1.05,0.51,1.56c0.23,0.71,0.48,1.41,0.74,2.11c0.24,0.67,0.5,1.34,0.76,2.01c0.05,0.12,0.1,0.25,0.15,0.37
	c0.21,0.53,0.43,1.05,0.65,1.57c0.24,0.59,0.49,1.17,0.76,1.75c0.24,0.56,0.5,1.12,0.77,1.67c0.22,0.5,0.46,0.99,0.7,1.47
	c0.17,0.35,0.35,0.71,0.53,1.06c0.3,0.59,0.61,1.18,0.92,1.77c0.27,0.5,0.54,1,0.83,1.5c0.27,0.49,0.55,0.98,0.84,1.46
	c0.2,0.36,0.42,0.72,0.63,1.07c0.32,0.53,0.64,1.05,0.98,1.57c0.23,0.38,0.47,0.76,0.72,1.13c0.21,0.33,0.43,0.66,0.65,0.98
	c0.53,0.79,1.07,1.57,1.63,2.34c0.31,0.44,0.63,0.88,0.95,1.31c0.35,0.48,0.71,0.95,1.07,1.41c0.27,0.34,0.53,0.69,0.81,1.02
	c0.61,0.77,1.24,1.54,1.88,2.29c0.29,0.34,0.59,0.68,0.89,1.02c0.26,0.31,0.53,0.61,0.8,0.9c0.17,0.19,0.34,0.37,0.51,0.56
	c0.31,0.34,0.62,0.68,0.95,1.02c1.16,1.23,2.36,2.43,3.59,3.59c0.35,0.34,0.7,0.67,1.05,0.98c0.43,0.4,0.86,0.78,1.29,1.17
	c0.37,0.32,0.74,0.65,1.11,0.96c0.73,0.62,1.46,1.23,2.21,1.83c0.45,0.37,0.9,0.72,1.36,1.07c0.45,0.35,0.9,0.69,1.35,1.02
	c0.47,0.36,0.95,0.7,1.43,1.05c0.05,0.03,0.09,0.06,0.14,0.1c0.53,0.37,1.06,0.74,1.6,1.1c0.09,0.07,0.18,0.13,0.27,0.19
	c0.37,0.25,0.75,0.5,1.13,0.74c0.35,0.24,0.7,0.47,1.06,0.68c0.51,0.33,1.02,0.65,1.53,0.95c0.44,0.28,0.89,0.54,1.34,0.8
	c0.86,0.51,1.74,1,2.62,1.47c0.36,0.2,0.72,0.39,1.09,0.58c0.27,0.14,0.55,0.29,0.82,0.42c0.45,0.24,0.91,0.46,1.37,0.68
	c0.52,0.26,1.04,0.51,1.57,0.75c0.39,0.19,0.78,0.37,1.18,0.54c0.61,0.28,1.23,0.54,1.84,0.8c0.41,0.17,0.82,0.34,1.23,0.5
	c0.93,0.39,1.88,0.75,2.83,1.09c0.66,0.25,1.32,0.48,1.98,0.7c0.44,0.16,0.89,0.3,1.34,0.44c0.38,0.13,0.77,0.25,1.15,0.37
	c0.07,0.02,0.14,0.04,0.22,0.06c0.65,0.2,1.29,0.39,1.94,0.57c0.71,0.2,1.43,0.39,2.14,0.57c0.79,0.2,1.58,0.39,2.37,0.56
	c0.66,0.16,1.31,0.3,1.97,0.43c0.65,0.13,1.3,0.26,1.95,0.37c0.47,0.09,0.94,0.17,1.41,0.24c4.79,0.78,9.7,1.19,14.7,1.19
	c1.15,0,2.31-0.03,3.45-0.07h0.05c24.13-0.91,45.88-11.26,61.67-27.44c10.71-10.98,18.68-24.64,22.79-39.86
	c2.05-7.57,3.14-15.53,3.14-23.73C491.95,289.13,452.08,248.66,402.71,247.67z M400.85,416.53c-42.89,0-77.78-34.89-77.78-77.78
	c0-31.74,19.11-59.1,46.43-71.17c6.03-2.68,12.46-4.6,19.18-5.65c3.97-0.64,8.03-0.96,12.17-0.96c42.89,0,77.78,34.89,77.78,77.78
	S443.74,416.53,400.85,416.53z"/>
<path style="fill:#D8E0C9;" d="M316.75,338.754c0-49.067,38.986-89.18,87.6-91.026c-1.162-0.044-2.327-0.074-3.5-0.074
	c-50.23,0-91.1,40.86-91.1,91.1c0,50.23,40.87,91.1,91.1,91.1c1.173,0,2.338-0.03,3.5-0.074
	C355.736,427.934,316.75,387.811,316.75,338.754z"/>
<circle style="fill:#FFFBEB;" cx="400.85" cy="336.66" r="23.926"/>
<path style="fill:#D8E0C9;" d="M386.925,336.662c0-11.499,8.113-21.1,18.926-23.399c-1.613-0.343-3.285-0.527-5-0.527
	c-13.214,0-23.926,10.712-23.926,23.927c0,13.214,10.712,23.926,23.926,23.926c1.715,0,3.387-0.184,5-0.527
	C395.037,357.762,386.925,348.161,386.925,336.662z"/>
<path style="fill:#39375E;" d="M103.36,314.95c-3.78-17.35-11.62-33.18-22.48-46.46c-4.22-5.18-8.91-9.96-13.99-14.29
	c-17.02-14.52-38.49-23.98-62.07-26.09H4.79c-0.19-0.02-0.39-0.04-0.58-0.05c-0.21-0.01-0.42-0.02-0.62-0.04
	c-0.35-0.03-0.7-0.06-1.05-0.09c0,0-0.01-0.01-0.02,0c-0.325-0.029-0.658-0.056-0.984-0.076L1.53,227.86
	c-0.02,0.2-0.04,0.41-0.06,0.61c-0.69,6.38-1.14,12.83-1.34,19.34C0.04,250.53,0,253.26,0,256c0,1.72,0.02,3.44,0.05,5.15v0.004
	c15.96,1.049,30.602,6.946,42.5,16.226c5.28,4.11,10.02,8.89,14.08,14.21c6.07,7.93,10.64,17.05,13.3,26.95
	c1.71,6.32,2.64,12.97,2.66,19.82c0.01,0.13,0.01,0.26,0.01,0.39c0,24.365-11.266,46.153-28.858,60.423
	c0.006,0.009,0.012,0.018,0.018,0.027c2.5,3.68,5.08,7.3,7.76,10.84c4.024,5.331,8.247,10.503,12.659,15.496
	c25.443-20.351,41.741-51.67,41.741-86.786c0-1.33-0.02-2.65-0.08-3.96C105.61,328,104.77,321.37,103.36,314.95z"/>
<path style="fill:#272749;" d="M4.82,228.11c-1.14,0.1-2.27,0.22-3.4,0.36c0.02-0.2,0.04-0.41,0.06-0.61
	C2.6,227.92,3.71,228.01,4.82,228.11z"/>
<g>
	<path style="fill:#FFFBEB;" d="M43.742,399.173c0.006,0.009,0.012,0.018,0.018,0.027c2.494,3.671,5.068,7.282,7.741,10.814
		c20.962-16.701,34.419-42.439,34.419-71.264c0-0.61-0.01-1.21-0.02-1.82c-0.13-6.82-1.02-13.46-2.59-19.83
		c-3.14-12.86-9.02-24.66-16.99-34.74c-4.15-5.25-8.86-10.03-14.04-14.25c-14.408-11.75-32.45-19.167-52.15-20.296
		C0.04,250.533,0,253.261,0,256c0,1.72,0.02,3.44,0.05,5.15v0.004c15.96,1.049,30.602,6.946,42.5,16.226
		c5.28,4.11,10.02,8.89,14.08,14.21c6.07,7.93,10.64,17.05,13.3,26.95c1.71,6.32,2.64,12.97,2.66,19.82
		c0.01,0.13,0.01,0.26,0.01,0.39C72.6,363.115,61.334,384.903,43.742,399.173z"/>
	<path style="fill:#FFFBEB;" d="M128.618,177.897c-3.077,0-5.963-1.908-7.061-4.973l-17.298-48.277
		c-1.397-3.898,0.632-8.192,4.53-9.59c3.898-1.398,8.194,0.63,9.591,4.531l17.298,48.277c1.397,3.898-0.632,8.192-4.53,9.59
		C130.312,177.755,129.458,177.897,128.618,177.897z"/>
	<path style="fill:#FFFBEB;" d="M417.184,185.814h-18.503c-4.143,0-7.5-3.357-7.5-7.5s3.357-7.5,7.5-7.5h18.503
		c12.048,0,21.85-9.802,21.85-21.85s-9.802-21.85-21.85-21.85h-80.35c-4.143,0-7.5-3.357-7.5-7.5s3.357-7.5,7.5-7.5h80.35
		c20.319,0,36.85,16.53,36.85,36.85S437.504,185.814,417.184,185.814z"/>
</g>
<path style="fill:#D8E0C9;" d="M356.374,112.115h-19.54c-4.143,0-7.5,3.357-7.5,7.5s3.357,7.5,7.5,7.5h24.079L356.374,112.115z"/>
<path style="fill:#39375E;" d="M455.378,148.964c2.068,0,3.669,1.788,3.48,3.848c-1.949,21.28-19.895,38.002-41.674,38.002h-18.08
	c-6.538,0-12.286-4.84-12.871-11.351c-0.665-7.407,5.176-13.649,12.448-13.649h18.503c8.296,0,15.21-6.026,16.596-13.93
	c0.293-1.669,1.682-2.92,3.376-2.92H455.378z"/>
<path style="fill:#272749;" d="M406.233,179.463c-0.665-7.407,5.176-13.649,12.448-13.649h-20c-7.272,0-13.113,6.242-12.448,13.649
	c0.584,6.511,6.333,11.351,12.871,11.351h20C412.566,190.814,406.818,185.974,406.233,179.463z"/>
<path style="fill:#DD544C;" d="M404.33,313.65l-0.2-0.68l-15.45-51.04l-3.45-11.41l-0.44-1.46l-4.2-13.88l-1.63-5.37l-31.07-102.7
	l-2.39-7.89c-1.27-4.18-5.02-6.92-9.16-7.08h-0.06c-1.07-0.05-2.17,0.09-3.25,0.41c-5.29,1.6-8.27,7.18-6.67,12.46l11.21,37.06
	l-191.86,26.37l-7.68-21.42c-0.85-2.39-2.52-4.25-4.58-5.37c-2.43-1.35-5.4-1.68-8.21-0.67c-2.81,1-4.89,3.14-5.91,5.71
	c-0.87,2.19-0.98,4.69-0.13,7.08l8.18,22.81L66.89,254.2l-14.61,13.91l-9.73,9.27L6.162,312.041c0.003,0.013,0.005,0.026,0.008,0.04
	c0.29,1.35,0.61,2.69,0.93,4.03c2.33,9.688,5.209,19.146,8.608,28.365l1.792-0.195l55.09-5.92l13.31-1.43l19.94-2.14l37.91-4.07
	h0.01l15.24-1.64h0.01l8.42-0.9l6.1-0.66l8.33-0.89h0.03l0.2-0.03c0.09,0,0.17-0.02,0.25-0.03c0.16-0.02,0.31-0.04,0.46-0.07
	c0.16-0.03,0.32-0.07,0.47-0.1c0.11-0.02,0.21-0.04,0.31-0.07c0.26-0.07,0.52-0.15,0.77-0.24c0.02-0.01,0.03-0.01,0.05-0.01
	c0.05-0.02,0.09-0.04,0.14-0.06c0.22-0.09,0.45-0.18,0.67-0.28c0.09-0.04,0.18-0.09,0.28-0.14c0.18-0.09,0.36-0.19,0.54-0.29
	c0.09-0.05,0.18-0.1,0.26-0.15c0.24-0.15,0.47-0.3,0.7-0.47c0.09-0.07,0.17-0.14,0.26-0.21c0.1-0.08,0.21-0.16,0.31-0.25l0.97-0.84
	l10.2-8.8l6.41-5.53l11.61-10.02l128.67-111.03l14.37,47.47l2.65,8.76l3.17,10.5l0.87,2.87l3.02,9.97l15.49,51.18l3.14,10.39
	l3.15,10.41c1.31,4.32,5.28,7.1,9.57,7.1c0.96,0,1.93-0.14,2.9-0.43c5.28-1.6,8.27-7.18,6.67-12.46L404.33,313.65z M165.28,308.3
	l-8.42,0.9l-15.23,1.64h-0.01l-38.26,4.11l-20.05,2.15l-13.38,1.44l-46.87,5.03l33.57-31.98l9.69-9.23l14.56-13.87l53.87-51.32
	l23.86,66.58l5.17,14.43l2.86,7.96l0.69,1.94L165.28,308.3z M203.68,283.91l-11.6,10.01l-6.41,5.53l-0.14,0.12l-0.06-0.17
	l-2.86-7.97l-5.17-14.42l-24.84-69.33l165.81-22.78L203.68,283.91z"/>
<g>
	<path style="fill:#C63B38;" d="M185.49,324.81l-11.53-10.62l-6.63-6.11l-2.05,0.22l-8.42,0.9l-15.23,1.64h-0.01l-38.26,4.11
		l-20.05,2.15l-13.38,1.44l-46.87,5.03l33.57-31.98l9.69-9.23l14.56-13.87l53.87-51.32l-7.37-20.59L66.89,254.2l-14.61,13.91
		l-9.73,9.27L6.162,312.041c0.003,0.013,0.005,0.026,0.008,0.04c0.29,1.35,0.61,2.69,0.93,4.03
		c2.33,9.688,5.209,19.146,8.608,28.365l1.792-0.195l55.09-5.92l13.31-1.43l19.94-2.14l37.91-4.07h0.01l15.24-1.64h0.01l8.42-0.9
		l6.1-0.66l8.33-0.89h0.03l0.2-0.03c0.09,0,0.17-0.02,0.25-0.03c0.16-0.02,0.31-0.04,0.46-0.07c0.16-0.03,0.32-0.07,0.47-0.1
		c0.11-0.02,0.21-0.04,0.31-0.07c0.26-0.07,0.52-0.15,0.77-0.24c0.02-0.01,0.03-0.01,0.05-0.01c0.05-0.02,0.09-0.04,0.14-0.06
		c0.22-0.09,0.45-0.18,0.67-0.28c0.09-0.04,0.18-0.09,0.28-0.14c0.18-0.09,0.36-0.19,0.54-0.29l-0.1-0.09L185.49,324.81z"/>
	<polygon style="fill:#C63B38;" points="145.707,188.443 152.601,207.683 318.415,184.895 185.525,299.571 185.487,325.605 
		345.419,188.009 337.571,162.074 	"/>
</g>
<circle style="fill:#D8E0C9;" cx="181.03" cy="316.66" r="39.822"/>
<circle style="fill:#C7CEB6;" cx="181.03" cy="316.66" r="25.283"/>
<path id="SVGCleanerId_0" style="fill:#FFFBEB;" d="M181.026,404.031c-4.143,0-7.5-3.357-7.5-7.5v-79.869c0-4.143,3.357-7.5,7.5-7.5
	s7.5,3.357,7.5,7.5v79.869C188.526,400.673,185.169,404.031,181.026,404.031z"/>
<g>
	<path id="SVGCleanerId_0_1_" style="fill:#FFFBEB;" d="M181.026,404.031c-4.143,0-7.5-3.357-7.5-7.5v-79.869
		c0-4.143,3.357-7.5,7.5-7.5s7.5,3.357,7.5,7.5v79.869C188.526,400.673,185.169,404.031,181.026,404.031z"/>
</g>
<path style="fill:#D8E0C9;" d="M181.026,309.162c-4.143,0-7.5,3.357-7.5,7.5v24.152c2.37,0.735,4.889,1.132,7.5,1.132
	s5.13-0.396,7.5-1.132v-24.152C188.526,312.519,185.169,309.162,181.026,309.162z"/>
<path style="fill:#39375E;" d="M203.078,412.53h-44.103c-2.69,0-4.87-2.18-4.87-4.87v-15.02c0-2.69,2.18-4.87,4.87-4.87h44.103
	c2.69,0,4.87,2.18,4.87,4.87v15.02C207.948,410.35,205.767,412.53,203.078,412.53z"/>
<path style="fill:#272749;" d="M168.105,407.661v-15.02c0-2.689,2.18-4.87,4.87-4.87h-14c-2.69,0-4.87,2.18-4.87,4.87v15.02
	c0,2.689,2.18,4.87,4.87,4.87h14C170.285,412.531,168.105,410.35,168.105,407.661z"/>
<path style="fill:#39375E;" d="M149.593,131.452h-52.69c-11.793,0-21.354-9.56-21.354-21.354l0,0
	c0-13.669,12.665-23.819,26.006-20.841l51.425,11.48c7.105,1.586,12.157,7.891,12.157,15.17l0,0
	C165.137,124.492,158.178,131.452,149.593,131.452z"/>
<path style="fill:#272749;" d="M95.549,110.098c0-8.756,5.201-16.061,12.444-19.403l-6.437-1.437
	C88.215,86.28,75.55,96.429,75.55,110.099c0,11.793,9.56,21.354,21.354,21.354h20C105.109,131.451,95.549,121.891,95.549,110.098z"
	/>
<circle style="fill:#FFFBEB;" cx="181.03" cy="316.66" r="17.822"/>
<g>
</g>
<g>
</g>
<g>
</g>
<g>
</g>
<g>
</g>
<g>
</g>
<g>
</g>
<g>
</g>
<g>
</g>
<g>
</g>
<g>
</g>
<g>
</g>
<g>
</g>
<g>
</g>
<g>
</g>
</svg>
