<?xml version="1.0" encoding="iso-8859-1"?>
<!-- Generator: Adobe Illustrator 19.0.0, SVG Export Plug-In . SVG Version: 6.00 Build 0)  -->
<svg version="1.1" id="Capa_1" xmlns="http://www.w3.org/2000/svg" xmlns:xlink="http://www.w3.org/1999/xlink" x="0px" y="0px"
	 viewBox="0 0 512 512" style="enable-background:new 0 0 512 512;" xml:space="preserve">
<circle style="fill:#A279C8;" cx="256" cy="256" r="256"/>
<rect x="226.01" y="363.22" style="fill:#272749;" width="73.59" height="102.15"/>
<rect x="226.01" y="363.22" style="fill:#13132B;" width="73.59" height="22.546"/>
<path style="fill:#272749;" d="M139.378,30.987H88.63c-3.358,0-6.08,2.722-6.08,6.08v38.911c0,3.358,2.722,6.08,6.08,6.08h50.747
	c3.358,0,6.08-2.722,6.08-6.08V37.067C145.457,33.709,142.735,30.987,139.378,30.987z"/>
<path style="fill:#13132B;" d="M82.551,46.86v29.118c0,3.358,2.722,6.08,6.08,6.08h50.747c3.358,0,6.08-2.722,6.08-6.08V46.86
	H82.551z"/>
<g>
	<path style="fill:#272749;" d="M27.892,247.376v50.747c0,3.358,2.722,6.08,6.08,6.08h38.911c3.358,0,6.08-2.722,6.08-6.08v-50.747
		c0-3.358-2.722-6.08-6.08-6.08H33.972C30.614,241.296,27.892,244.018,27.892,247.376z"/>
	<path style="fill:#272749;" d="M441.365,376.105H84.242c-3.822,0-6.921-3.098-6.921-6.921v-34.012c0-3.822,3.098-6.921,6.921-6.921
		h357.123c3.822,0,6.921,3.098,6.921,6.921v34.012C448.285,373.006,445.187,376.105,441.365,376.105z"/>
</g>
<path style="fill:#13132B;" d="M441.365,328.252H84.242c-3.822,0-6.921,3.098-6.921,6.921v19.095h370.964v-19.095
	C448.285,331.35,445.187,328.252,441.365,328.252z"/>
<path style="fill:#39375E;" d="M450.193,344.605H75.414c-12.143,0-21.987-9.844-21.987-21.987V78.509
	c0-12.143,9.844-21.987,21.987-21.987h374.779c12.143,0,21.987,9.844,21.987,21.987v244.109
	C472.18,334.761,462.336,344.605,450.193,344.605z"/>
<path style="fill:#13132B;" d="M72.882,241.296H43.764v62.907h29.118c3.358,0,6.08-2.722,6.08-6.08v-50.747
	C78.962,244.018,76.24,241.296,72.882,241.296z"/>
<g>
	<path style="fill:#272749;" d="M94.838,322.618V78.509c0-12.143,9.844-21.987,21.987-21.987H75.414
		c-12.143,0-21.987,9.844-21.987,21.987v244.109c0,12.143,9.844,21.987,21.987,21.987h41.411
		C104.682,344.605,94.838,334.761,94.838,322.618z"/>
	<path style="fill:#272749;" d="M450.193,56.522H225.539c-0.415,2.082-0.637,4.233-0.637,6.436v207.286
		c0,18.12,14.742,32.862,32.862,32.862H465.05c2.449,0,4.833-0.278,7.13-0.788V78.509C472.18,66.366,462.336,56.522,450.193,56.522z
		"/>
</g>
<path style="fill:#39375E;" d="M465.05,289.302H257.764c-10.525,0-19.058-8.532-19.058-19.058V62.958
	c0-10.525,8.532-19.058,19.058-19.058H465.05c10.525,0,19.058,8.532,19.058,19.058v207.286
	C484.108,280.769,475.575,289.302,465.05,289.302z"/>
<path style="fill:#13132B;" d="M259.411,258.936V74.266c0-5.335,4.325-9.661,9.661-9.661h184.67c5.335,0,9.661,4.325,9.661,9.661
	v184.67c0,5.335-4.325,9.661-9.661,9.661h-184.67C263.736,268.597,259.411,264.271,259.411,258.936z"/>
<circle style="fill:#39375E;" cx="361.41" cy="166.6" r="85.44"/>
<circle style="fill:#D8E0C9;" cx="361.41" cy="166.6" r="64.14"/>
<circle style="fill:#272749;" cx="361.41" cy="166.6" r="39.3"/>
<g>
	<circle style="fill:#FFFBEB;" cx="383.95" cy="144.06" r="19.17"/>
	<path style="fill:#FFFBEB;" d="M202.579,209.555H89.554c-3.868,0-7.004-3.136-7.004-7.004V89.527c0-3.868,3.136-7.004,7.004-7.004
		h113.024c3.868,0,7.004,3.136,7.004,7.004v113.024C209.582,206.419,206.447,209.555,202.579,209.555z"/>
</g>
<path style="fill:#D8E0C9;" d="M110.158,202.551V89.527c0-3.868,3.136-7.004,7.004-7.004H89.554c-3.868,0-7.004,3.136-7.004,7.004
	v113.024c0,3.868,3.136,7.004,7.004,7.004h27.607C113.294,209.555,110.158,206.419,110.158,202.551z"/>
<circle style="fill:#DD544C;" cx="146.07" cy="272.75" r="38.02"/>
<path style="fill:#C63B38;" d="M121.852,272.749c0-18.638,13.416-34.133,31.116-37.381c-2.239-0.411-4.543-0.637-6.902-0.637
	c-20.997,0-38.018,17.021-38.018,38.018s17.021,38.018,38.018,38.018c2.358,0,4.662-0.225,6.902-0.637
	C135.268,306.882,121.852,291.388,121.852,272.749z"/>
<path style="fill:#39375E;" d="M320.304,481.013H198.518c-8.64,0-15.644-7.004-15.644-15.644l0,0c0-8.64,7.004-15.644,15.644-15.644
	h121.786c8.64,0,15.644,7.004,15.644,15.644l0,0C335.948,474.008,328.944,481.013,320.304,481.013z"/>
<g>
</g>
<g>
</g>
<g>
</g>
<g>
</g>
<g>
</g>
<g>
</g>
<g>
</g>
<g>
</g>
<g>
</g>
<g>
</g>
<g>
</g>
<g>
</g>
<g>
</g>
<g>
</g>
<g>
</g>
</svg>
