<?xml version="1.0" encoding="iso-8859-1"?>
<!-- Generator: Adobe Illustrator 19.0.0, SVG Export Plug-In . SVG Version: 6.00 Build 0)  -->
<svg version="1.1" id="Capa_1" xmlns="http://www.w3.org/2000/svg" xmlns:xlink="http://www.w3.org/1999/xlink" x="0px" y="0px"
	 viewBox="0 0 512 512" style="enable-background:new 0 0 512 512;" xml:space="preserve">
<circle style="fill:#70D587;" cx="256" cy="256" r="256"/>
<path style="fill:#FFFBEB;" d="M292,63.73V29h-72.448v34.923c0,4.427-2.626,8.411-6.669,10.214C175.829,90.656,150,127.811,150,171
	v7.125c0,6.696,5.429,12.125,12.125,12.125h187.75c6.696,0,12.125-5.429,12.125-12.125V171c0-43.345-26.018-80.609-63.287-97.037
	C294.646,72.17,292,68.174,292,63.73z"/>
<path style="fill:#D8E0C9;" d="M292,29h-32.448h-40v27v7.923c0,4.427-2.626,8.411-6.669,10.214C175.829,90.656,150,127.812,150,171
	v7.125c0,6.696,5.429,12.125,12.125,12.125h40c-6.696,0-12.125-5.429-12.125-12.125V171c0-43.188,25.829-80.344,62.883-96.863
	c4.043-1.802,6.669-5.787,6.669-10.214V56H292V29z"/>
<rect x="162.12" y="179.04" style="fill:#269999;" width="187.75" height="131.29"/>
<path style="fill:#31A7AB;" d="M362,295.021c0-6.754-5.475-12.229-12.229-12.229H162.229c-6.754,0-12.229,5.475-12.229,12.229
	v194.063C182.3,503.797,218.191,512,256,512s73.7-8.203,106-22.916V295.021z"/>
<path style="fill:#269999;" d="M150,295.021v194.063c12.989,5.917,26.562,10.773,40.605,14.473
	c-0.388-1.193-0.605-2.464-0.605-3.786v-204.75c0-6.754,5.475-12.229,12.229-12.229h-40C155.475,282.792,150,288.267,150,295.021z"
	/>
<path style="fill:#31A7AB;" d="M162.229,209.916H349.77c6.754,0,12.229,5.475,12.229,12.229v28.75
	c0,6.754-5.475,12.229-12.229,12.229H162.229c-6.754,0-12.229-5.475-12.229-12.229v-28.75
	C150,215.392,155.475,209.916,162.229,209.916z"/>
<path style="fill:#269999;" d="M190,250.896v-28.75c0-6.754,5.475-12.229,12.229-12.229h-40c-6.754,0-12.229,5.475-12.229,12.229
	v28.75c0,6.754,5.475,12.229,12.229,12.229h40C195.475,263.125,190,257.65,190,250.896z"/>
<path style="fill:#DD544C;" d="M294.674,46h-77.347c-5.427,0-9.826-4.399-9.826-9.826v-26c0-5.427,4.399-9.826,9.826-9.826h77.347
	c5.427,0,9.826,4.399,9.826,9.826v26C304.5,41.601,300.101,46,294.674,46z"/>
<path style="fill:#C63B38;" d="M247.5,36.174v-26c0-5.427,4.399-9.826,9.826-9.826h-40c-5.427,0-9.826,4.399-9.826,9.826v26
	c0,5.427,4.399,9.826,9.826,9.826h40C251.899,46,247.5,41.601,247.5,36.174z"/>
<path style="fill:#31A7AB;" d="M150,171v7.125c0,6.696,5.429,12.125,12.125,12.125h187.75c6.697,0,12.125-5.429,12.125-12.125V171
	c0-11.339-1.796-22.254-5.092-32.497H155.092C151.796,148.746,150,159.662,150,171z"/>
<path style="fill:#269999;" d="M190,178.125V171c0-11.338,1.796-22.254,5.092-32.497h-40C151.796,148.746,150,159.662,150,171v7.125
	c0,6.696,5.429,12.125,12.125,12.125h40C195.429,190.25,190,184.821,190,178.125z"/>
<g>
	<circle style="fill:#5FD3D3;" cx="298.33" cy="414.3" r="21.02"/>
	<circle style="fill:#5FD3D3;" cx="260.74" cy="376.7" r="11.497"/>
	<circle style="fill:#5FD3D3;" cx="326.15" cy="236.52" r="11.497"/>
</g>
<g>
</g>
<g>
</g>
<g>
</g>
<g>
</g>
<g>
</g>
<g>
</g>
<g>
</g>
<g>
</g>
<g>
</g>
<g>
</g>
<g>
</g>
<g>
</g>
<g>
</g>
<g>
</g>
<g>
</g>
</svg>
