<?xml version="1.0" encoding="iso-8859-1"?>
<!-- Generator: Adobe Illustrator 19.0.0, SVG Export Plug-In . SVG Version: 6.00 Build 0)  -->
<svg version="1.1" id="Capa_1" xmlns="http://www.w3.org/2000/svg" xmlns:xlink="http://www.w3.org/1999/xlink" x="0px" y="0px"
	 viewBox="0 0 512.001 512.001" style="enable-background:new 0 0 512.001 512.001;" xml:space="preserve">
<circle style="fill:#39375E;" cx="256" cy="256.001" r="256"/>
<path style="fill:#FFFBEB;" d="M254.637,0.661L1.764,123.147C0.685,123.669,0,124.762,0,125.961v9.417
	c0,1.727,1.4,3.127,3.127,3.127h505.747c1.727,0,3.127-1.4,3.127-3.127v-9.417c0-1.198-0.685-2.291-1.764-2.814L257.363,0.661
	C256.502,0.244,255.498,0.244,254.637,0.661z"/>
<path style="fill:#D8E0C9;" d="M62.671,115.867l192.724-93.35c0.382-0.185,0.828-0.185,1.21,0l192.724,93.35
	c1.327,0.643,0.869,2.637-0.605,2.637H63.276C61.802,118.504,61.345,116.51,62.671,115.867z"/>
<path style="fill:#C7CEB6;" d="M256.605,22.517c-0.382-0.185-0.828-0.185-1.21,0l-192.724,93.35
	c-1.327,0.643-0.869,2.637,0.605,2.637h23.951L271,29.489L256.605,22.517z"/>
<path style="fill:#FFFBEB;" d="M496.233,180.133H15.767c-2.41,0-4.365-1.954-4.365-4.365v-32.899c0-2.41,1.954-4.365,4.365-4.365
	h480.466c2.41,0,4.365,1.954,4.365,4.365v32.899C500.597,178.179,498.643,180.133,496.233,180.133z"/>
<path style="fill:#D8E0C9;" d="M496.233,138.504H15.767c-2.41,0-4.365,1.954-4.365,4.365v5.635h489.195v-5.635
	C500.597,140.458,498.643,138.504,496.233,138.504z"/>
<path style="fill:#C7CEB6;" d="M118.899,203.001H45.434c-1.713,0-3.101,1.388-3.101,3.101v3.899H122v-3.899
	C122,204.389,120.612,203.001,118.899,203.001z"/>
<path style="fill:#D8E0C9;" d="M115.21,469.841c-16.11-10.63-30.96-23.04-44.25-36.93c-7-7.33-13.58-15.07-19.68-23.18l6.33-176.17
	h49.11l0.5,14L115.21,469.841z"/>
<path style="fill:#C7CEB6;" d="M107.22,247.561H77.61l-6.65,185.35c-7-7.33-13.58-15.07-19.68-23.18l6.33-176.17h49.11
	L107.22,247.561z"/>
<g>
	<path style="fill:#D8E0C9;" d="M118.899,225.869H45.434c-1.713,0-3.101-1.388-3.101-3.101v-16.667c0-1.713,1.388-3.101,3.101-3.101
		h73.465c1.713,0,3.101,1.388,3.101,3.101v16.667C122,224.481,120.612,225.869,118.899,225.869z"/>
	<path style="fill:#D8E0C9;" d="M111.641,241.251H52.692c-1.579,0-2.859-1.28-2.859-2.859v-9.664c0-1.579,1.28-2.859,2.859-2.859
		h58.949c1.579,0,2.859,1.28,2.859,2.859v9.664C114.5,239.971,113.22,241.251,111.641,241.251z"/>
</g>
<path style="fill:#C7CEB6;" d="M111.641,225.869H52.692c-1.579,0-2.859,1.28-2.859,2.859v2.141H114.5v-2.141
	C114.5,227.149,113.22,225.869,111.641,225.869z"/>
<path style="fill:#D8E0C9;" d="M232.57,510.941c-16.58-1.5-32.69-4.59-48.2-9.1c-6.88-2-13.64-4.28-20.26-6.83l9.39-261.45h49.11
	l0.5,14L232.57,510.941z"/>
<path style="fill:#C7CEB6;" d="M223.11,247.561H193.5l-9.13,254.28c-6.88-2-13.64-4.28-20.26-6.83l9.39-261.45h49.11L223.11,247.561
	z"/>
<g>
	<path style="fill:#D8E0C9;" d="M234.788,225.869h-73.465c-1.713,0-3.101-1.388-3.101-3.101v-16.667
		c0-1.713,1.388-3.101,3.101-3.101h73.465c1.713,0,3.101,1.388,3.101,3.101v16.667C237.889,224.481,236.501,225.869,234.788,225.869
		z"/>
	<path style="fill:#D8E0C9;" d="M227.53,241.251h-58.949c-1.579,0-2.859-1.28-2.859-2.859v-9.664c0-1.579,1.28-2.859,2.859-2.859
		h58.949c1.579,0,2.859,1.28,2.859,2.859v9.664C230.389,239.971,229.109,241.251,227.53,241.251z"/>
</g>
<path style="fill:#C7CEB6;" d="M227.53,225.869h-58.949c-1.579,0-2.859,1.28-2.859,2.859v2.141h64.667v-2.141
	C230.389,227.149,229.109,225.869,227.53,225.869z"/>
<path style="fill:#D8E0C9;" d="M347.89,495.011c-15.3,5.89-31.3,10.35-47.86,13.21c-6.78,1.18-13.65,2.09-20.6,2.72l9.96-277.38
	h49.11l0.5,14L347.89,495.011z"/>
<path style="fill:#C7CEB6;" d="M339,247.561h-29.61l-9.36,260.66c-6.78,1.18-13.65,2.09-20.6,2.72l9.96-277.38h49.11L339,247.561z"
	/>
<g>
	<path style="fill:#D8E0C9;" d="M350.677,225.869h-73.465c-1.713,0-3.101-1.388-3.101-3.101v-16.667
		c0-1.713,1.388-3.101,3.101-3.101h73.465c1.713,0,3.101,1.388,3.101,3.101v16.667C353.778,224.481,352.39,225.869,350.677,225.869z
		"/>
	<path style="fill:#D8E0C9;" d="M343.419,241.251H284.47c-1.579,0-2.859-1.28-2.859-2.859v-9.664c0-1.579,1.28-2.859,2.859-2.859
		h58.949c1.579,0,2.859,1.28,2.859,2.859v9.664C346.278,239.971,344.998,241.251,343.419,241.251z"/>
</g>
<path style="fill:#C7CEB6;" d="M343.419,225.869H284.47c-1.579,0-2.859,1.28-2.859,2.859v2.141h64.667v-2.141
	C346.278,227.149,344.998,225.869,343.419,225.869z"/>
<path style="fill:#D8E0C9;" d="M460.72,409.731c-12.45,16.55-26.85,31.53-42.87,44.62c-6.74,5.51-13.77,10.68-21.06,15.49
	l8.49-236.28h49.11l0.5,14L460.72,409.731z"/>
<path style="fill:#C7CEB6;" d="M454.89,247.561h-29.61l-7.43,206.79c-6.74,5.51-13.77,10.68-21.06,15.49l8.49-236.28h49.11
	L454.89,247.561z"/>
<g>
	<path style="fill:#D8E0C9;" d="M466.566,225.869h-73.465c-1.713,0-3.101-1.388-3.101-3.101v-16.667
		c0-1.713,1.388-3.101,3.101-3.101h73.465c1.713,0,3.101,1.388,3.101,3.101v16.667C469.667,224.481,468.278,225.869,466.566,225.869
		z"/>
	<path style="fill:#D8E0C9;" d="M459.308,241.251h-58.949c-1.579,0-2.859-1.28-2.859-2.859v-9.664c0-1.579,1.28-2.859,2.859-2.859
		h58.949c1.579,0,2.859,1.28,2.859,2.859v9.664C462.167,239.971,460.887,241.251,459.308,241.251z"/>
</g>
<path style="fill:#C7CEB6;" d="M459.308,225.869h-58.949c-1.579,0-2.859,1.28-2.859,2.859v2.141h64.667v-2.141
	C462.167,227.149,460.887,225.869,459.308,225.869z"/>
<path style="fill:#FFFBEB;" d="M486.649,203.001H25.351c-1.667,0-3.017-1.351-3.017-3.017v-16.833c0-1.667,1.351-3.017,3.017-3.017
	h461.298c1.667,0,3.017,1.351,3.017,3.017v16.833C489.667,201.65,488.316,203.001,486.649,203.001z"/>
<g>
	<path style="fill:#D8E0C9;" d="M486.649,180.133H25.351c-1.667,0-3.018,1.351-3.018,3.017v4.499h467.333v-4.499
		C489.667,181.484,488.316,180.133,486.649,180.133z"/>
	<rect x="64.856" y="148.501" style="fill:#D8E0C9;" width="10" height="31.629"/>
</g>
<rect x="64.856" y="138.501" style="fill:#C7CEB6;" width="10" height="10"/>
<rect x="84.41" y="148.501" style="fill:#D8E0C9;" width="10" height="31.629"/>
<rect x="84.41" y="138.501" style="fill:#C7CEB6;" width="10" height="10"/>
<rect x="103.96" y="148.501" style="fill:#D8E0C9;" width="10" height="31.629"/>
<rect x="103.96" y="138.501" style="fill:#C7CEB6;" width="10" height="10"/>
<rect x="175.92" y="148.501" style="fill:#D8E0C9;" width="10" height="31.629"/>
<rect x="175.92" y="138.501" style="fill:#C7CEB6;" width="10" height="10"/>
<rect x="195.47" y="148.501" style="fill:#D8E0C9;" width="10" height="31.629"/>
<rect x="195.47" y="138.501" style="fill:#C7CEB6;" width="10" height="10"/>
<rect x="215.02" y="148.501" style="fill:#D8E0C9;" width="10" height="31.629"/>
<rect x="215.02" y="138.501" style="fill:#C7CEB6;" width="10" height="10"/>
<rect x="286.98" y="148.501" style="fill:#D8E0C9;" width="10" height="31.629"/>
<rect x="286.98" y="138.501" style="fill:#C7CEB6;" width="10" height="10"/>
<rect x="306.53" y="148.501" style="fill:#D8E0C9;" width="10" height="31.629"/>
<rect x="306.53" y="138.501" style="fill:#C7CEB6;" width="10" height="10"/>
<rect x="326.08" y="148.501" style="fill:#D8E0C9;" width="10" height="31.629"/>
<rect x="326.08" y="138.501" style="fill:#C7CEB6;" width="10" height="10"/>
<rect x="398.04" y="148.501" style="fill:#D8E0C9;" width="10" height="31.629"/>
<rect x="398.04" y="138.501" style="fill:#C7CEB6;" width="10" height="10"/>
<rect x="417.59" y="148.501" style="fill:#D8E0C9;" width="10" height="31.629"/>
<rect x="417.59" y="138.501" style="fill:#C7CEB6;" width="10" height="10"/>
<rect x="437.14" y="148.501" style="fill:#D8E0C9;" width="10" height="31.629"/>
<rect x="437.14" y="138.501" style="fill:#C7CEB6;" width="10" height="10"/>
<g>
</g>
<g>
</g>
<g>
</g>
<g>
</g>
<g>
</g>
<g>
</g>
<g>
</g>
<g>
</g>
<g>
</g>
<g>
</g>
<g>
</g>
<g>
</g>
<g>
</g>
<g>
</g>
<g>
</g>
</svg>
