<?xml version="1.0" encoding="iso-8859-1"?>
<!-- Generator: Adobe Illustrator 19.0.0, SVG Export Plug-In . SVG Version: 6.00 Build 0)  -->
<svg version="1.1" id="Capa_1" xmlns="http://www.w3.org/2000/svg" xmlns:xlink="http://www.w3.org/1999/xlink" x="0px" y="0px"
	 viewBox="0 0 512 512" style="enable-background:new 0 0 512 512;" xml:space="preserve">
<circle style="fill:#31A7AB;" cx="256" cy="256" r="256"/>
<path style="fill:#F3D75C;" d="M413.397,385.644H98.603c-11.396,0-20.245-11.314-18.937-24.21l23.099-227.608
	c1.112-10.955,9.256-19.222,18.937-19.222h268.597c9.681,0,17.825,8.266,18.937,19.222l23.099,227.608
	C433.642,374.33,424.793,385.644,413.397,385.644z"/>
<path style="fill:#E8C63A;" d="M432.334,361.434l-6.503-64.076H131.552l16.596-163.532c1.112-10.956,9.256-19.222,18.937-19.222
	h-45.383c-9.681,0-17.825,8.267-18.937,19.222L79.666,361.434c-1.309,12.896,7.541,24.21,18.937,24.21h45.383h269.411
	C424.793,385.644,433.642,374.33,432.334,361.434z"/>
<polygon style="fill:#DD544C;" points="87.942,279.892 424.058,279.892 416.427,204.69 95.573,204.69 "/>
<polygon style="fill:#C63B38;" points="95.573,204.69 87.942,279.892 133.324,279.892 140.956,204.69 "/>
<path style="fill:#F3D75C;" d="M505.13,315.14c-4.19,17.72-10.22,34.72-17.89,50.8c-17.12,6.04-38.59,12.13-65.17,17.33h-0.01
	c-4.16,0.82-8.45,1.61-12.86,2.37c-34.29,5.95-76.32,10.35-127.31,11.47h-0.07c-1.02,0.02-2.03,0.05-3.05,0.07
	c-7.4,0.14-14.99,0.22-22.77,0.22c-62.59,0-112.8-4.82-152.65-11.76c-4.72-0.82-9.28-1.67-13.7-2.54h-0.01
	c-26.52-5.25-47.96-11.39-65.03-17.47c-7.6-15.98-13.58-32.88-17.74-50.49L505.13,315.14L505.13,315.14z"/>
<path style="fill:#E8C63A;" d="M281.89,397.11c-1.04,0.02-2.08,0.05-3.12,0.07c-7.4,0.14-14.99,0.22-22.77,0.22
	c-62.59,0-112.8-4.82-152.65-11.76c-4.72-0.82-9.29-1.67-13.71-2.54c-26.52-5.25-47.96-11.39-65.03-17.47
	c-7.6-15.98-13.58-32.88-17.74-50.49h26.18c-7.81,0-14.15,6.34-14.15,14.15c0,4.65,2.28,9,6.11,11.63
	c8.23,5.69,25.37,15.79,54.7,25.9c19.45,6.7,44.26,13.41,75.39,18.82C189.31,391.59,231.15,395.98,281.89,397.11z"/>
<g>
</g>
<g>
</g>
<g>
</g>
<g>
</g>
<g>
</g>
<g>
</g>
<g>
</g>
<g>
</g>
<g>
</g>
<g>
</g>
<g>
</g>
<g>
</g>
<g>
</g>
<g>
</g>
<g>
</g>
</svg>
