<?xml version="1.0" encoding="iso-8859-1"?>
<!-- Generator: Adobe Illustrator 19.0.0, SVG Export Plug-In . SVG Version: 6.00 Build 0)  -->
<svg version="1.1" id="Capa_1" xmlns="http://www.w3.org/2000/svg" xmlns:xlink="http://www.w3.org/1999/xlink" x="0px" y="0px"
	 viewBox="0 0 512 512" style="enable-background:new 0 0 512 512;" xml:space="preserve">
<circle style="fill:#70D587;" cx="256" cy="256" r="256"/>
<g>
	<path style="fill:#39375E;" d="M172.733,498.141C198.839,507.116,226.848,512,256,512s57.161-4.884,83.267-13.859V188.547H172.733
		V498.141z"/>
	<polygon style="fill:#39375E;" points="348.787,188.547 163.213,188.547 134.2,41.581 377.8,41.581 	"/>
</g>
<polygon style="fill:#272749;" points="377.8,41.581 167.507,41.581 134.2,41.581 163.213,188.547 196.52,188.547 172.374,66.238 
	372.933,66.238 "/>
<path style="fill:#DD544C;" d="M380.271,55.136H131.729c-5.825,0-10.547-4.722-10.547-10.547V10.547
	C121.183,4.722,125.904,0,131.729,0h248.542c5.825,0,10.547,4.722,10.547,10.547v34.042
	C390.817,50.414,386.096,55.136,380.271,55.136z"/>
<path style="fill:#C63B38;" d="M154.489,44.589V10.547C154.489,4.722,159.211,0,165.036,0h-33.307
	c-5.825,0-10.547,4.722-10.547,10.547v34.042c0,5.825,4.722,10.546,10.547,10.546h33.307
	C159.211,55.135,154.489,50.414,154.489,44.589z"/>
<path style="fill:#272749;" d="M172.733,188.547v40.519v269.075c10.794,3.711,21.915,6.717,33.307,8.971V229.066h133.227v-40.519
	H206.04H172.733z"/>
<path style="fill:#DD544C;" d="M256,375.783L256,375.783c-13.285,0-24.055-10.77-24.055-24.055v-79.196
	c0-13.285,10.77-24.055,24.055-24.055l0,0c13.285,0,24.055,10.77,24.055,24.055v79.196C280.055,365.014,269.285,375.783,256,375.783
	z"/>
<path style="fill:#272749;" d="M256,357.151L256,357.151c-4.292,0-7.772-3.479-7.772-7.772v-74.498c0-4.292,3.479-7.772,7.772-7.772
	l0,0c4.292,0,7.772,3.479,7.772,7.772v74.498C263.772,353.672,260.292,357.151,256,357.151z"/>
<circle style="fill:#F3D75C;" cx="256" cy="271.05" r="24.05"/>
<path style="fill:#E8C63A;" d="M243.047,271.052c0-11.374,7.896-20.897,18.504-23.404c-1.783-0.421-3.64-0.651-5.551-0.651
	c-13.285,0-24.055,10.77-24.055,24.055s10.77,24.055,24.055,24.055c1.912,0,3.768-0.23,5.551-0.651
	C250.944,291.949,243.047,282.426,243.047,271.052z"/>
<path style="fill:#DD544C;" d="M347.9,217.964H164.1c-5.042,0-9.13-4.088-9.13-9.13v-36.876c0-5.042,4.088-9.13,9.13-9.13h183.8
	c5.042,0,9.13,4.088,9.13,9.13v36.876C357.03,213.876,352.943,217.964,347.9,217.964z"/>
<path style="fill:#C63B38;" d="M188.276,208.834v-36.876c0-5.042,4.088-9.13,9.13-9.13H164.1c-5.042,0-9.13,4.088-9.13,9.13v36.876
	c0,5.042,4.088,9.13,9.13,9.13h33.307C192.364,217.964,188.276,213.876,188.276,208.834z"/>
<g>
</g>
<g>
</g>
<g>
</g>
<g>
</g>
<g>
</g>
<g>
</g>
<g>
</g>
<g>
</g>
<g>
</g>
<g>
</g>
<g>
</g>
<g>
</g>
<g>
</g>
<g>
</g>
<g>
</g>
</svg>
