<?xml version="1.0" encoding="iso-8859-1"?>
<!-- Generator: Adobe Illustrator 19.0.0, SVG Export Plug-In . SVG Version: 6.00 Build 0)  -->
<svg version="1.1" id="Capa_1" xmlns="http://www.w3.org/2000/svg" xmlns:xlink="http://www.w3.org/1999/xlink" x="0px" y="0px"
	 viewBox="0 0 512 512" style="enable-background:new 0 0 512 512;" xml:space="preserve">
<circle style="fill:#31A7AB;" cx="256" cy="256" r="256"/>
<path style="fill:#39375E;" d="M463.471,338.705l-382.229-13.34c-11.752-0.41-20.947-10.27-20.537-22.022l8.866-254.04
	c0.41-11.752,10.27-20.947,22.022-20.537l382.229,13.34c11.752,0.41,20.947,10.27,20.537,22.022l-8.866,254.04
	C485.083,329.921,475.223,339.115,463.471,338.705z"/>
<path style="fill:#FFFBEB;" d="M470.035,372.862L89.557,411.764c-11.698,1.196-22.152-7.318-23.348-19.016L40.354,139.871
	c-1.196-11.698,7.318-22.152,19.016-23.348l380.478-38.902c11.698-1.196,22.152,7.318,23.348,19.016l25.855,252.877
	C490.247,361.212,481.733,371.666,470.035,372.862z"/>
<path style="fill:#DD544C;" d="M491.66,356.15c-4.75,11.18-10.28,21.94-16.5,32.23h-0.01l-347.71,89.03
	c-6.24-3.63-12.31-7.52-18.2-11.64c-1.18-0.83-2.35-1.66-3.52-2.51c-1.15-0.84-2.3-1.69-3.45-2.55c-0.02-0.01-0.05-0.03-0.07-0.05
	c-1.13-0.85-2.25-1.71-3.37-2.58c-1.1-0.86-2.2-1.73-3.29-2.6c-0.03-0.03-0.06-0.05-0.09-0.08c-1.12-0.9-2.23-1.81-3.33-2.73
	c-1.03-0.85-2.05-1.72-3.06-2.59c-1.2-1.03-2.38-2.06-3.55-3.12c-1.04-0.92-2.07-1.86-3.1-2.81c-1.02-0.94-2.03-1.89-3.04-2.84
	c-0.03-0.04-0.07-0.07-0.1-0.1c-1.02-0.98-2.03-1.96-3.04-2.95c-0.05-0.04-0.09-0.09-0.13-0.13c-0.99-0.98-1.98-1.97-2.96-2.97
	L18.3,220.98c-2.92-11.39,3.95-22.99,15.34-25.91l12.04-3.08l19.08-4.89l32.55-8.33l306.84-78.56c11.4-2.92,23,3.95,25.91,15.34
	l53.79,210.09v0.01l4.59,17.92v0.02L491.66,356.15z"/>
<path style="fill:#C63B38;" d="M170.92,466.27l-43.48,11.14c-19.97-11.61-38.23-25.85-54.3-42.25L18.3,220.98
	c-2.92-11.39,3.95-22.99,15.34-25.91l12.04-3.08l19.08-4.89l32.55-8.33c-11.39,2.92-18.26,14.52-15.34,25.91l31.19,121.8l0.41,1.61
	l4.89,19.1l6.63,25.89l4.89,19.1l3.85,15.05l2.78,10.84l4.89,19.1l3.52,13.76C147.93,462.32,159.53,469.19,170.92,466.27z"/>
<path style="fill:#F3D75C;" d="M344.607,156.367c-8.175-4.928-18.241-6.707-28.219-4.153c-19.755,5.058-31.669,25.173-26.611,44.927
	c5.058,19.755,25.173,31.669,44.928,26.611c9.977-2.555,17.95-8.953,22.751-17.203c-8.011-4.829-14.206-12.681-16.709-22.458
	C338.243,174.314,339.902,164.452,344.607,156.367z"/>
<path style="fill:#31A7AB;" d="M367.357,139.164c-9.977,2.555-17.95,8.953-22.751,17.203c8.011,4.829,14.206,12.681,16.709,22.458
	c2.503,9.777,0.844,19.64-3.86,27.725c8.175,4.928,18.241,6.708,28.218,4.153c19.755-5.058,31.669-25.173,26.611-44.928
	C407.227,146.021,387.112,134.106,367.357,139.164z"/>
<path style="fill:#70D587;" d="M344.607,156.367c-4.705,8.085-6.364,17.947-3.86,27.725c2.503,9.777,8.698,17.629,16.709,22.458
	c4.705-8.085,6.364-17.947,3.86-27.725C358.812,169.048,352.618,161.196,344.607,156.367z"/>
<path style="fill:#FFFBEB;" d="M255.151,312.188L93.008,353.702c-5.275,1.351-10.645-1.83-11.995-7.105
	c-1.351-5.275,1.83-10.645,7.105-11.995l162.142-41.514c5.275-1.351,10.645,1.83,11.995,7.105
	C263.606,305.468,260.426,310.837,255.151,312.188z"/>
<path style="fill:#D8E0C9;" d="M88.118,334.602c-5.275,1.351-8.456,6.72-7.105,11.995s6.72,8.456,11.995,7.105l25.446-6.515
	l-4.89-19.1L88.118,334.602z"/>
<path style="fill:#FFFBEB;" d="M375.33,329.359l-270.802,69.335c-5.275,1.351-10.645-1.83-11.995-7.105
	c-1.351-5.275,1.83-10.645,7.105-11.995l270.802-69.335c5.275-1.351,10.645,1.83,11.995,7.105
	C383.786,322.638,380.605,328.008,375.33,329.359z"/>
<path style="fill:#D8E0C9;" d="M99.638,379.594c-5.275,1.351-8.456,6.72-7.105,11.995s6.72,8.456,11.995,7.105l25.446-6.515
	l-4.89-19.1L99.638,379.594z"/>
<path style="fill:#FFFBEB;" d="M386.85,374.352l-270.802,69.335c-5.275,1.351-10.645-1.83-11.995-7.105
	c-1.351-5.275,1.83-10.645,7.105-11.995l270.802-69.335c5.275-1.351,10.645,1.83,11.995,7.105
	C395.306,367.631,392.125,373.001,386.85,374.352z"/>
<path style="fill:#D8E0C9;" d="M111.157,424.587c-5.275,1.351-8.456,6.72-7.105,11.995s6.72,8.456,11.995,7.105l25.446-6.515
	l-4.89-19.1L111.157,424.587z"/>
<g>
</g>
<g>
</g>
<g>
</g>
<g>
</g>
<g>
</g>
<g>
</g>
<g>
</g>
<g>
</g>
<g>
</g>
<g>
</g>
<g>
</g>
<g>
</g>
<g>
</g>
<g>
</g>
<g>
</g>
</svg>
