<?xml version="1.0" encoding="iso-8859-1"?>
<!-- Generator: Adobe Illustrator 19.0.0, SVG Export Plug-In . SVG Version: 6.00 Build 0)  -->
<svg version="1.1" id="Capa_1" xmlns="http://www.w3.org/2000/svg" xmlns:xlink="http://www.w3.org/1999/xlink" x="0px" y="0px"
	 viewBox="0 0 512 512" style="enable-background:new 0 0 512 512;" xml:space="preserve">
<circle style="fill:#F3D75C;" cx="256" cy="256" r="256"/>
<path style="fill:#39375E;" d="M455.116,138.875c-16.901-50.807-51.745-92.409-98.515-117.907l5.061-10.106
	c1.855-3.704,0.356-8.21-3.348-10.064c-3.704-1.857-8.21-0.355-10.064,3.348L150.338,399.359c-1.855,3.704-0.356,8.21,3.348,10.064
	c1.078,0.54,2.224,0.796,3.353,0.796c2.75,0,5.397-1.519,6.712-4.144l5.06-10.105c25.421,11.64,52.419,17.987,79.689,18.947v51.585
	c0,4.143,3.358,7.5,7.5,7.5s7.5-3.357,7.5-7.5v-51.591c19.732-0.734,39.48-4.28,58.736-10.686
	C432.029,367.703,491.639,248.668,455.116,138.875z M317.501,389.993c-47.005,15.637-97.122,12.945-141.97-7.443L349.88,34.388
	c43.19,23.698,75.367,62.217,91.003,109.222C474.794,245.553,419.446,356.081,317.501,389.993z"/>
<circle style="fill:#31A7AB;" cx="256" cy="205.11" r="179.03"/>
<path style="fill:#269999;" d="M240.899,367.622c-89.753-41.477-128.887-147.86-87.41-237.613
	c25.719-55.653,76.396-91.833,132.587-101.411C208.279,15.294,128.181,54.939,93.489,130.009
	c-41.477,89.753-2.343,196.135,87.41,237.613c34.099,15.758,70.597,19.87,105.026,14.001
	C270.709,379.021,255.581,374.407,240.899,367.622z"/>
<g>
	<path style="fill:#70D587;" d="M94.659,127.558l78.688,54.341c8.117,5.605,18.646,6.334,27.458,1.899l58.97-29.681
		c9.563-4.813,15.375-14.827,14.811-25.518l-1.833-34.742c-0.826-15.644,11.804-28.7,27.467-28.393
		c7.923,0.155,15.377,3.786,20.384,9.929l16.766,20.571c5.061,6.21,12.62,9.849,20.631,9.932l47.362,0.493
		c-17.722-26.868-42.895-49.296-74.26-63.79C242.173,1.502,136.93,39.553,94.659,127.558z"/>
	<path style="fill:#70D587;" d="M120.486,181.975c-10.791,2.046-18.399,11.767-17.79,22.734l1.875,33.783
		c0.265,4.773,2.084,9.329,5.18,12.971l19.824,23.324c2.733,3.216,4.479,7.152,5.028,11.336l7.497,57.153
		c11.579,9.532,24.548,17.76,38.8,24.346c28.409,13.129,58.482,18.171,87.638,16.098l23.84-65.198
		c3.806-10.409-0.763-22.022-10.642-27.046l-61.777-31.417l-57.836-27.992c-5.937-2.873-10.263-8.269-11.777-14.688l-4.46-18.912
		C143.195,187.06,132.001,179.792,120.486,181.975L120.486,181.975z"/>
</g>
<path style="fill:#63B472;" d="M240.899,367.622c-71.496-33.041-110.871-107.268-102.966-181.466
	c-4.791-3.69-11.066-5.391-17.446-4.181l0,0c-10.791,2.046-18.399,11.767-17.79,22.734l1.875,33.783
	c0.265,4.773,2.084,9.329,5.18,12.971l19.824,23.324c2.733,3.216,4.479,7.152,5.028,11.336l7.496,57.153
	c11.579,9.532,24.548,17.76,38.8,24.346c28.409,13.129,58.482,18.171,87.638,16.098l1.985-5.43
	C260.522,375.652,250.612,372.111,240.899,367.622z"/>
<path style="fill:#70D587;" d="M304.113,175.754l-10.485,47.237c-1.307,5.888-0.169,12.055,3.153,17.089l23.332,35.359
	c7.171,10.868,23.961,7.22,25.976-5.644l0,0c2.843-18.148,11.654-34.831,25.039-47.412l27.046-25.421
	c6.09-5.724,8.462-14.378,6.141-22.407l-6.693-23.157c-3.775-13.061-18.271-19.72-30.639-14.074l-50.38,23
	C310.251,163.224,305.626,168.937,304.113,175.754z"/>
<path style="fill:#272749;" d="M301.611,468.5h-91.223c-5.172,0-8.876-4.993-7.376-9.942l5.329-17.583
	c0.985-3.25,3.98-5.472,7.376-5.472h80.565c3.395,0,6.391,2.222,7.376,5.472l5.329,17.583
	C310.487,463.507,306.783,468.5,301.611,468.5z"/>
<path style="fill:#13132B;" d="M243.013,458.558l5.329-17.583c0.985-3.25,3.98-5.472,7.376-5.472h-40
	c-3.396,0-6.391,2.222-7.376,5.472l-5.329,17.583c-1.5,4.949,2.204,9.942,7.376,9.942h40
	C245.217,468.5,241.513,463.507,243.013,458.558z"/>
<path style="fill:#39375E;" d="M256,512c32.968,0,64.479-6.237,93.422-17.587l-7.015-20.52c-2.636-7.709-9.882-12.89-18.029-12.89
	H182.112c-4.852,0-9.167,3.085-10.737,7.676l-8.798,25.734C191.521,505.763,223.032,512,256,512z"/>
<path style="fill:#272749;" d="M171.376,468.679l-8.798,25.734c11.69,4.584,23.799,8.332,36.254,11.173
	c0.086-0.367,0.177-0.734,0.302-1.1l12.241-35.806c1.57-4.591,5.885-7.676,10.737-7.676h-40
	C177.26,461.003,172.945,464.088,171.376,468.679z"/>
<path style="fill:#63B472;" d="M153.489,130.009c25.719-55.653,76.396-91.833,132.587-101.411
	c-76.94-13.156-156.126,25.486-191.417,98.96l47.902,33.081C145.225,150.297,148.849,140.049,153.489,130.009z"/>
<g>
</g>
<g>
</g>
<g>
</g>
<g>
</g>
<g>
</g>
<g>
</g>
<g>
</g>
<g>
</g>
<g>
</g>
<g>
</g>
<g>
</g>
<g>
</g>
<g>
</g>
<g>
</g>
<g>
</g>
</svg>
