<?xml version="1.0" encoding="iso-8859-1"?>
<!-- Generator: Adobe Illustrator 19.0.0, SVG Export Plug-In . SVG Version: 6.00 Build 0)  -->
<svg version="1.1" id="Capa_1" xmlns="http://www.w3.org/2000/svg" xmlns:xlink="http://www.w3.org/1999/xlink" x="0px" y="0px"
	 viewBox="0 0 512 512" style="enable-background:new 0 0 512 512;" xml:space="preserve">
<circle style="fill:#70D587;" cx="256" cy="256" r="256"/>
<path style="fill:#DD544C;" d="M325.832,465.838h-48.214c-7.107,0-12.868-5.762-12.868-12.868s5.762-12.868,12.868-12.868h48.213
	c31.411,0,56.964-25.554,56.964-56.963V59.716c0-7.107,5.762-12.868,12.868-12.868c7.107,0,12.868,5.762,12.868,12.868v323.422
	C408.532,428.739,371.433,465.838,325.832,465.838z"/>
<path style="fill:#C63B38;" d="M382.795,348.332c8.975-1.964,17.592-4.894,25.736-8.676V112.635
	c-8.145-3.782-16.762-6.712-25.736-8.676V348.332z"/>
<path style="fill:#DD544C;" d="M256,253.426h-81.641v56.106c0,0,32.57,69.025,81.641,69.025s81.641-69.025,81.641-69.025v-56.106
	L256,253.426L256,253.426z"/>
<path style="fill:#C63B38;" d="M174.359,253.426v56.106c0,0,8.628,18.284,23.693,36.032c31.687-32.571,84.209-32.571,115.896,0
	c15.064-17.748,23.693-36.032,23.693-36.032v-56.106H256L174.359,253.426L174.359,253.426z"/>
<path style="fill:#39375E;" d="M356.03,116.508H155.97c-60.551,0-109.637,49.086-109.637,109.637l0,0
	c0,60.551,49.086,109.637,109.637,109.637h22.36c6.421,0,12.529-2.772,16.758-7.604l0,0c32.248-36.851,89.577-36.851,121.825,0l0,0
	c4.229,4.832,10.337,7.604,16.758,7.604h22.36c60.551,0,109.637-49.086,109.637-109.637l0,0
	C465.667,165.594,416.581,116.508,356.03,116.508z"/>
<path style="fill:#272749;" d="M87.511,226.145L87.511,226.145c0-60.551,49.086-109.637,109.637-109.637H155.97
	c-60.551,0-109.637,49.086-109.637,109.637l0,0c0,60.551,49.086,109.637,109.637,109.637h22.36c1.981,0,3.931-0.266,5.806-0.772
	C129.719,328.574,87.511,282.293,87.511,226.145z"/>
<path style="fill:#31A7AB;" d="M341.516,310.046c-3.827,0-7.535-1.46-10.247-4.16c-19.917-19.835-46.958-31.082-75.268-31.082
	c-28.311,0-55.35,11.245-75.27,31.082c-2.712,2.7-6.42,4.16-10.247,4.16H157.04c-46.192,0-84.519-36.884-84.967-83.074
	c-0.452-46.641,37.358-84.728,83.897-84.728h198.991c46.192,0,84.519,36.884,84.967,83.074
	c0.452,46.641-37.358,84.728-83.897,84.728H341.516z"/>
<path style="fill:#269999;" d="M115.414,299.216c-17.352-19.393-27.903-44.999-27.903-73.071l0,0
	c0-28.408,10.805-54.292,28.529-73.768c-26.393,14.343-44.279,42.433-43.967,74.596C72.375,258.1,89.893,284.982,115.414,299.216z"
	/>
<path style="fill:#39375E;" d="M411.098,62.118H380.23c-2.089,0-3.782-1.693-3.782-3.782V44.969c0-2.089,1.693-3.782,3.782-3.782
	h30.868c2.089,0,3.782,1.693,3.782,3.782v13.367C414.88,60.425,413.187,62.118,411.098,62.118z"/>
<path style="fill:#272749;" d="M386.742,58.336V44.969c0-2.089,1.693-3.782,3.782-3.782H380.23c-2.089,0-3.782,1.693-3.782,3.782
	v13.367c0,2.089,1.693,3.782,3.782,3.782h10.295C388.435,62.118,386.742,60.425,386.742,58.336z"/>
<path style="fill:#13132B;" d="M285.897,470.814h-29.725c-19.71,0-35.689-15.978-35.689-35.689l0,0h71.033v30.069
	C291.516,468.298,289.001,470.814,285.897,470.814z"/>
<path style="fill:#39375E;" d="M255.999,456.099c-27.906,0-52.472-14.632-59.74-35.581c-2.329-6.714,1.225-14.046,7.94-16.375
	c6.715-2.333,14.046,1.225,16.375,7.94c3.074,8.861,16.535,18.279,35.425,18.279c18.892,0,32.353-9.419,35.426-18.281
	c2.327-6.717,9.663-10.27,16.374-7.941c6.715,2.328,10.27,9.659,7.941,16.374C308.475,441.466,283.909,456.099,255.999,456.099z"/>
<path style="fill:#272749;" d="M255.999,445.804c-27.473,0-51.696-14.185-59.376-34.614c-1.238,2.855-1.464,6.157-0.363,9.328
	c7.268,20.949,31.834,35.581,59.74,35.581c27.909,0,52.475-14.633,59.741-35.585c1.1-3.171,0.874-6.473-0.364-9.327
	C307.698,431.618,283.475,445.804,255.999,445.804z"/>
<g>
	<path style="fill:#5FD3D3;" d="M370.823,143.738l-59.607,146.474c7.235,4.377,13.977,9.623,20.052,15.674
		c0.641,0.638,1.341,1.201,2.081,1.698l62.944-154.674C388.462,148.582,379.888,145.444,370.823,143.738z"/>
	<path style="fill:#5FD3D3;" d="M263.041,142.244l-59.573,146.392c15.853-8.969,33.918-13.832,52.533-13.832
		c6.003,0,11.948,0.511,17.781,1.497l54.554-134.057L263.041,142.244L263.041,142.244z"/>
</g>
<g>
</g>
<g>
</g>
<g>
</g>
<g>
</g>
<g>
</g>
<g>
</g>
<g>
</g>
<g>
</g>
<g>
</g>
<g>
</g>
<g>
</g>
<g>
</g>
<g>
</g>
<g>
</g>
<g>
</g>
</svg>
