<?xml version="1.0" encoding="iso-8859-1"?>
<!-- Generator: Adobe Illustrator 19.0.0, SVG Export Plug-In . SVG Version: 6.00 Build 0)  -->
<svg version="1.1" id="Capa_1" xmlns="http://www.w3.org/2000/svg" xmlns:xlink="http://www.w3.org/1999/xlink" x="0px" y="0px"
	 viewBox="0 0 512.001 512.001" style="enable-background:new 0 0 512.001 512.001;" xml:space="preserve">
<circle style="fill:#A279C8;" cx="256" cy="256" r="256"/>
<path style="fill:#39375E;" d="M421.417,157h-329.5l26.648-60.402C120.602,91.98,125.174,89,130.221,89h252.892
	c5.047,0,9.619,2.98,11.656,7.598L421.417,157z"/>
<path style="fill:#272749;" d="M402.005,113H154.983c-1.721,0-2.874-1.769-2.179-3.344l5.761-13.059
	C160.602,91.98,165.174,89,170.221,89h-40c-5.047,0-9.619,2.98-11.656,7.598L111.328,113l0,0l-19.412,44h40h289.5L402.005,113z"/>
<path style="fill:#39375E;" d="M382.5,337.667H512l-26.648,60.402c-2.037,4.618-6.609,7.598-11.656,7.598h-52.892
	c-5.047,0-9.619-2.98-11.656-7.598L382.5,337.667z"/>
<path style="fill:#272749;" d="M449.148,398.069L422.5,337.667h-40l26.648,60.402c2.037,4.618,6.609,7.598,11.656,7.598h40
	C455.757,405.667,451.185,402.688,449.148,398.069z"/>
<path style="fill:#39375E;" d="M0,337.667h129.5l-26.648,60.402c-2.037,4.618-6.609,7.598-11.656,7.598H38.304
	c-5.047,0-9.619-2.98-11.656-7.598L0,337.667z"/>
<path style="fill:#272749;" d="M66.648,398.069L40,337.667H0l26.648,60.402c2.037,4.618,6.609,7.598,11.656,7.598h40
	C73.257,405.667,68.685,402.688,66.648,398.069z"/>
<path style="fill:#F3D75C;" d="M496.833,389H15.167C6.79,389,0,382.21,0,373.833V138.167C0,129.79,6.79,123,15.167,123h481.667
	c8.376,0,15.167,6.79,15.167,15.167v235.667C512,382.21,505.21,389,496.833,389z"/>
<path style="fill:#E8C63A;" d="M40,373.833V138.167C40,129.79,46.79,123,55.167,123h-40C6.79,123,0,129.79,0,138.167v235.667
	C0,382.21,6.79,389,15.167,389h40C46.79,389,40,382.21,40,373.833z"/>
<path style="fill:#39375E;" d="M25,357.5v-203c0-3.59,2.91-6.5,6.5-6.5h449c3.59,0,6.5,2.91,6.5,6.5v203c0,3.59-2.91,6.5-6.5,6.5
	h-449C27.91,364,25,361.09,25,357.5z"/>
<path style="fill:#272749;" d="M480.5,148h-389h-60c-3.59,0-6.5,2.91-6.5,6.5v203c0,3.59,2.91,6.5,6.5,6.5h60h389
	c3.59,0,6.5-2.91,6.5-6.5v-203C487,150.91,484.09,148,480.5,148z M471.75,354H90.25c-2.899,0-5.25-2.35-5.25-5.25v-185.5
	c0-2.899,2.351-5.25,5.25-5.25h381.5c2.9,0,5.25,2.351,5.25,5.25v185.5C477,351.65,474.65,354,471.75,354z"/>
<path style="fill:#63B472;" d="M56.25,253.5c-4.142,0-7.5-3.357-7.5-7.5v-40c0-4.143,3.358-7.5,7.5-7.5s7.5,3.357,7.5,7.5v40
	C63.75,250.143,60.392,253.5,56.25,253.5z"/>
<g>
	<path style="fill:#70D587;" d="M111.25,198.5h-40c-4.142,0-7.5-3.357-7.5-7.5s3.358-7.5,7.5-7.5h40c4.142,0,7.5,3.357,7.5,7.5
		S115.392,198.5,111.25,198.5z"/>
	<path style="fill:#70D587;" d="M111.25,328.5h-40c-4.142,0-7.5-3.357-7.5-7.5s3.358-7.5,7.5-7.5h40c4.142,0,7.5,3.357,7.5,7.5
		S115.392,328.5,111.25,328.5z"/>
</g>
<path style="fill:#63B472;" d="M56.25,313.5c-4.142,0-7.5-3.357-7.5-7.5v-40c0-4.143,3.358-7.5,7.5-7.5s7.5,3.357,7.5,7.5v40
	C63.75,310.143,60.392,313.5,56.25,313.5z"/>
<g>
	<path style="fill:#70D587;" d="M126.25,253.5c-4.142,0-7.5-3.357-7.5-7.5v-40c0-4.143,3.358-7.5,7.5-7.5s7.5,3.357,7.5,7.5v40
		C133.75,250.143,130.392,253.5,126.25,253.5z"/>
	<path style="fill:#70D587;" d="M126.25,313.5c-4.142,0-7.5-3.357-7.5-7.5v-40c0-4.143,3.358-7.5,7.5-7.5s7.5,3.357,7.5,7.5v40
		C133.75,310.143,130.392,313.5,126.25,313.5z"/>
</g>
<g>
	<path style="fill:#63B472;" d="M71.25,198.5H85v-15H71.25c-4.142,0-7.5,3.357-7.5,7.5S67.108,198.5,71.25,198.5z"/>
	<path style="fill:#63B472;" d="M71.25,328.5H85v-15H71.25c-4.142,0-7.5,3.357-7.5,7.5S67.108,328.5,71.25,328.5z"/>
</g>
<g>
	<path style="fill:#70D587;" d="M206.25,198.5h-40c-4.142,0-7.5-3.357-7.5-7.5s3.358-7.5,7.5-7.5h40c4.142,0,7.5,3.357,7.5,7.5
		S210.392,198.5,206.25,198.5z"/>
	<path style="fill:#70D587;" d="M206.25,263.5h-40c-4.142,0-7.5-3.357-7.5-7.5s3.358-7.5,7.5-7.5h40c4.142,0,7.5,3.357,7.5,7.5
		S210.392,263.5,206.25,263.5z"/>
	<path style="fill:#70D587;" d="M206.25,328.5h-40c-4.142,0-7.5-3.357-7.5-7.5s3.358-7.5,7.5-7.5h40c4.142,0,7.5,3.357,7.5,7.5
		S210.392,328.5,206.25,328.5z"/>
	<path style="fill:#70D587;" d="M221.25,253.5c-4.142,0-7.5-3.357-7.5-7.5v-40c0-4.143,3.358-7.5,7.5-7.5s7.5,3.357,7.5,7.5v40
		C228.75,250.143,225.392,253.5,221.25,253.5z"/>
	<path style="fill:#70D587;" d="M221.25,313.5c-4.142,0-7.5-3.357-7.5-7.5v-40c0-4.143,3.358-7.5,7.5-7.5s7.5,3.357,7.5,7.5v40
		C228.75,310.143,225.392,313.5,221.25,313.5z"/>
	<path style="fill:#70D587;" d="M290.75,253.5c-4.142,0-7.5-3.357-7.5-7.5v-40c0-4.143,3.358-7.5,7.5-7.5s7.5,3.357,7.5,7.5v40
		C298.25,250.143,294.892,253.5,290.75,253.5z"/>
	<path style="fill:#70D587;" d="M345.75,198.5h-40c-4.142,0-7.5-3.357-7.5-7.5s3.358-7.5,7.5-7.5h40c4.142,0,7.5,3.357,7.5,7.5
		S349.892,198.5,345.75,198.5z"/>
	<path style="fill:#70D587;" d="M345.75,328.5h-40c-4.142,0-7.5-3.357-7.5-7.5s3.358-7.5,7.5-7.5h40c4.142,0,7.5,3.357,7.5,7.5
		S349.892,328.5,345.75,328.5z"/>
	<path style="fill:#70D587;" d="M290.75,313.5c-4.142,0-7.5-3.357-7.5-7.5v-40c0-4.143,3.358-7.5,7.5-7.5s7.5,3.357,7.5,7.5v40
		C298.25,310.143,294.892,313.5,290.75,313.5z"/>
	<path style="fill:#70D587;" d="M360.75,253.5c-4.142,0-7.5-3.357-7.5-7.5v-40c0-4.143,3.358-7.5,7.5-7.5s7.5,3.357,7.5,7.5v40
		C368.25,250.143,364.892,253.5,360.75,253.5z"/>
	<path style="fill:#70D587;" d="M360.75,313.5c-4.142,0-7.5-3.357-7.5-7.5v-40c0-4.143,3.358-7.5,7.5-7.5s7.5,3.357,7.5,7.5v40
		C368.25,310.143,364.892,313.5,360.75,313.5z"/>
	<path style="fill:#70D587;" d="M385.75,253.5c-4.142,0-7.5-3.357-7.5-7.5v-40c0-4.143,3.358-7.5,7.5-7.5s7.5,3.357,7.5,7.5v40
		C393.25,250.143,389.892,253.5,385.75,253.5z"/>
	<path style="fill:#70D587;" d="M440.75,198.5h-40c-4.142,0-7.5-3.357-7.5-7.5s3.358-7.5,7.5-7.5h40c4.142,0,7.5,3.357,7.5,7.5
		S444.892,198.5,440.75,198.5z"/>
	<path style="fill:#70D587;" d="M440.75,328.5h-40c-4.142,0-7.5-3.357-7.5-7.5s3.358-7.5,7.5-7.5h40c4.142,0,7.5,3.357,7.5,7.5
		S444.892,328.5,440.75,328.5z"/>
	<path style="fill:#70D587;" d="M385.75,313.5c-4.142,0-7.5-3.357-7.5-7.5v-40c0-4.143,3.358-7.5,7.5-7.5s7.5,3.357,7.5,7.5v40
		C393.25,310.143,389.892,313.5,385.75,313.5z"/>
	<path style="fill:#70D587;" d="M455.75,253.5c-4.142,0-7.5-3.357-7.5-7.5v-40c0-4.143,3.358-7.5,7.5-7.5s7.5,3.357,7.5,7.5v40
		C463.25,250.143,459.892,253.5,455.75,253.5z"/>
	<path style="fill:#70D587;" d="M455.75,313.5c-4.142,0-7.5-3.357-7.5-7.5v-40c0-4.143,3.358-7.5,7.5-7.5s7.5,3.357,7.5,7.5v40
		C463.25,310.143,459.892,313.5,455.75,313.5z"/>
	<path style="fill:#70D587;" d="M256,243c-4.142,0-7.5-3.357-7.5-7.5v-10c0-4.143,3.358-7.5,7.5-7.5s7.5,3.357,7.5,7.5v10
		C263.5,239.643,260.142,243,256,243z"/>
	<path style="fill:#70D587;" d="M256,294c-4.142,0-7.5-3.357-7.5-7.5v-10c0-4.143,3.358-7.5,7.5-7.5s7.5,3.357,7.5,7.5v10
		C263.5,290.643,260.142,294,256,294z"/>
</g>
<g>
</g>
<g>
</g>
<g>
</g>
<g>
</g>
<g>
</g>
<g>
</g>
<g>
</g>
<g>
</g>
<g>
</g>
<g>
</g>
<g>
</g>
<g>
</g>
<g>
</g>
<g>
</g>
<g>
</g>
</svg>
