<?xml version="1.0" encoding="iso-8859-1"?>
<!-- Generator: Adobe Illustrator 19.0.0, SVG Export Plug-In . SVG Version: 6.00 Build 0)  -->
<svg version="1.1" id="Capa_1" xmlns="http://www.w3.org/2000/svg" xmlns:xlink="http://www.w3.org/1999/xlink" x="0px" y="0px"
	 viewBox="0 0 512 512" style="enable-background:new 0 0 512 512;" xml:space="preserve">
<circle style="fill:#70D587;" cx="256" cy="256" r="256"/>
<g>
	<path style="fill:#39375E;" d="M47.609,404.726c8.097,11.316,17.208,22.13,27.371,32.293s20.977,19.275,32.293,27.371
		L47.609,404.726z"/>
	<path style="fill:#39375E;" d="M511.673,243.143c-7.54-17.31-18.376-33.518-32.514-47.656L365.883,82.212
		c-60.589-60.589-159.176-60.59-219.765,0L32.841,195.488c-14.138,14.138-24.974,30.345-32.514,47.655
		c-1.083,21.665,0.585,43.438,4.979,64.762c-0.659-36.054,12.73-72.319,40.182-99.77L158.765,94.858
		c53.616-53.616,140.854-53.616,194.471,0l113.276,113.276c27.451,27.451,40.841,63.717,40.182,99.771
		C511.088,286.581,512.755,264.808,511.673,243.143z"/>
	<path style="fill:#39375E;" d="M437.019,437.019c10.163-10.163,19.274-20.977,27.371-32.293l-59.664,59.664
		C416.043,456.294,426.856,447.182,437.019,437.019z"/>
</g>
<path style="fill:#FFFBEB;" d="M256,73.963c-127.802,0-231.407,103.604-231.407,231.407c0,34.54,7.58,67.306,21.147,96.743
	c8.549,12.271,18.295,23.961,29.24,34.906c99.974,99.974,262.064,99.974,362.039,0c10.945-10.945,20.691-22.635,29.24-34.906
	c13.567-29.438,21.147-62.203,21.147-96.743C487.406,177.568,383.802,73.963,256,73.963z M256,416.88
	c-61.585,0-111.51-49.925-111.51-111.51S194.415,193.86,256,193.86s111.51,49.925,111.51,111.51S317.585,416.88,256,416.88z"/>
<g>
	<path style="fill:#D8E0C9;" d="M44.66,211l94.008,68.956c2.447,1.795,5.325,2.639,8.177,2.59
		c4.273-20.53,14.369-40.09,30.305-56.025c10.384-10.384,22.307-18.285,35.034-23.717l-71.825-97.92
		c-17.154,9.908-33.314,22.184-47.988,36.858C71.762,162.349,55.869,185.883,44.66,211z"/>
	<path style="fill:#D8E0C9;" d="M453.532,418.844l-94.966-69.658c-5.432,12.727-13.333,24.65-23.717,35.034
		c-15.936,15.935-35.495,26.032-56.025,30.305c-0.049,2.852,0.795,5.73,2.59,8.177l55.825,76.106
		c36.469-12.17,70.747-32.755,99.781-61.789C442.871,431.168,448.366,425.096,453.532,418.844z"/>
	<path style="fill:#D8E0C9;" d="M24.593,305.37c0,34.54,7.58,67.306,21.147,96.743c8.549,12.271,18.295,23.961,29.24,34.906
		c23.072,23.072,49.457,40.807,77.619,53.23C96.584,448.016,60.365,380.927,60.365,305.37c0-121.784,94.076-221.594,213.521-230.725
		c-5.903-0.451-11.867-0.682-17.886-0.682C128.198,73.963,24.593,177.568,24.593,305.37z"/>
</g>
<path style="fill:#DD544C;" d="M220.821,213.922l-56.269,56.269c-4.691,4.691-12.103,5.257-17.452,1.334L42.473,194.78
	c-6.641-4.871-7.378-14.516-1.554-20.34l84.151-84.151c5.824-5.824,15.469-5.087,20.34,1.554l76.744,104.626
	C226.078,201.819,225.512,209.231,220.821,213.922z"/>
<path style="fill:#C63B38;" d="M72.474,194.78c-6.641-4.871-7.378-14.516-1.554-20.34l77.921-77.921l-3.43-4.676
	c-4.871-6.641-14.516-7.378-20.34-1.554L40.919,174.44c-5.824,5.824-5.087,15.469,1.554,20.34L147.1,271.525
	c5.349,3.924,12.761,3.357,17.452-1.334l4.54-4.54L72.474,194.78z"/>
<path style="fill:#DD544C;" d="M347.448,340.549l-56.269,56.269c-4.691,4.691-5.257,12.103-1.334,17.452l58.951,80.369
	c32.142-12.479,62.277-31.673,88.223-57.62c8.7-8.7,16.625-17.879,23.811-27.438l-95.93-70.365
	C359.551,335.292,352.139,335.858,347.448,340.549z"/>
<path style="fill:#C63B38;" d="M372.908,345.089l-8.008-5.874c-5.349-3.924-12.761-3.357-17.452,1.333l-56.269,56.269
	c-4.691,4.691-5.257,12.103-1.334,17.452l58.951,80.369c7.662-2.975,15.209-6.331,22.613-10.071l-51.564-70.297
	c-3.924-5.349-3.357-12.761,1.334-17.452L372.908,345.089z"/>
<path style="fill:#DD544C;" d="M347.448,270.191l-56.269-56.269c-4.691-4.691-5.257-12.103-1.334-17.452L366.59,91.844
	c4.871-6.641,14.516-7.378,20.34-1.554l84.151,84.151c5.824,5.824,5.087,15.469-1.554,20.34L364.9,271.525
	C359.551,275.448,352.139,274.882,347.448,270.191z"/>
<path style="fill:#C63B38;" d="M317.179,213.922c-4.691-4.691-5.257-12.103-1.334-17.452l75.007-102.258l-3.923-3.923
	c-5.824-5.824-15.469-5.087-20.34,1.554L289.845,196.47c-3.924,5.349-3.357,12.761,1.334,17.452l56.269,56.269
	c4.691,4.691,12.103,5.257,17.452,1.334l5.7-4.181L317.179,213.922z"/>
<path style="fill:#DD544C;" d="M164.552,340.549c-4.691-4.691-12.103-5.257-17.452-1.333l-95.93,70.365
	c7.186,9.559,15.111,18.738,23.811,27.438c25.946,25.946,56.081,45.141,88.223,57.62l58.951-80.369
	c3.924-5.349,3.357-12.761-1.334-17.452L164.552,340.549z"/>
<path style="fill:#C63B38;" d="M147.1,339.216l-95.93,70.365c4.964,6.603,10.285,13.021,15.971,19.226
	c-0.71-4.741,1.117-9.755,5.332-12.847l96.619-70.871l-4.54-4.54C159.861,335.858,152.449,335.292,147.1,339.216z"/>
<g>
</g>
<g>
</g>
<g>
</g>
<g>
</g>
<g>
</g>
<g>
</g>
<g>
</g>
<g>
</g>
<g>
</g>
<g>
</g>
<g>
</g>
<g>
</g>
<g>
</g>
<g>
</g>
<g>
</g>
</svg>
