<?xml version="1.0" encoding="iso-8859-1"?>
<!-- Generator: Adobe Illustrator 19.0.0, SVG Export Plug-In . SVG Version: 6.00 Build 0)  -->
<svg version="1.1" id="Capa_1" xmlns="http://www.w3.org/2000/svg" xmlns:xlink="http://www.w3.org/1999/xlink" x="0px" y="0px"
	 viewBox="0 0 512 512" style="enable-background:new 0 0 512 512;" xml:space="preserve">
<circle style="fill:#DE66BF;" cx="256" cy="256" r="256"/>
<path style="fill:#F291DD;" d="M351.606,110.446L351.606,110.446c0-8.284-6.716-15-15-15H166.012c-8.284,0-15,6.716-15,15l0,0
	c0,8.284-6.716,15-15,15H92.896c-8.284,0-15,6.716-15,15l0,0c0,8.284,6.716,15,15,15h4.978c8.284,0,15,6.716,15,15l0,0
	c0,8.284,6.716,15,15,15h174.045c8.284,0,15-6.716,15-15l0,0c0-8.284-6.716-15-15-15h-8.428c-8.284,0-15-6.716-15-15l0,0
	c0-8.284,6.716-15,15-15h43.116C344.89,125.446,351.606,118.73,351.606,110.446z"/>
<path style="fill:#39375E;" d="M151.904,233.125L4.983,205.546C1.722,221.859,0,238.728,0,256c0,14.546,1.232,28.802,3.563,42.686
	H172.38v-39.354C172.38,246.932,163.936,236.125,151.904,233.125z"/>
<path style="fill:#272749;" d="M151.904,233.125l-30.915-5.803c6.975,4.953,11.39,13.058,11.39,22.01v49.354h40v-39.354
	C172.38,246.932,163.936,236.125,151.904,233.125z"/>
<path style="fill:#31A7AB;" d="M65.503,427c46.865,52.174,114.844,85,190.497,85s143.632-32.826,190.497-85H65.503z"/>
<path style="fill:#39375E;" d="M486.912,366.652H25.088c16.907,35.218,41.638,65.964,71.934,90h317.956
	C445.274,432.616,470.004,401.871,486.912,366.652z"/>
<g>
	<path style="fill:#272749;" d="M447.333,366.652l-14.667,50.229c-6.882,23.569-28.491,39.771-53.045,39.771h50
		c24.554,0,46.162-16.201,53.045-39.771l14.667-50.229H447.333z"/>
	<polygon style="fill:#272749;" points="381,209.734 338.325,180.912 307,192.961 334.5,243.085 	"/>
</g>
<polygon style="fill:#13132B;" points="338.325,180.912 319.211,188.264 351,209.734 326.028,227.644 334.5,243.085 381,209.734 "/>
<path style="fill:#FFFBEB;" d="M404.646,190.355c-8.808-5.078-19.516-5.647-28.883-1.694l-85.542,36.107
	c-8.234,3.476-14.694,10.16-17.857,18.519c-6.145,16.239-20.285,42.365-47.654,42.365H1.719c2.944,25.519,9.638,49.893,19.521,72.56
	h465.351c1.656,0,3.219-0.38,4.623-1.04c2.165-5.026,4.17-10.135,6.015-15.321C495.305,309.144,482.062,234.989,404.646,190.355z"/>
<path style="fill:#D8E0C9;" d="M404.646,190.355c-8.808-5.078-19.516-5.647-28.883-1.694l-8.156,3.443
	c79.12,47.394,89.016,125.986,89.855,154.948c0.177,6.117-4.751,11.161-10.87,11.161h40c6.119,0,11.047-5.044,10.87-11.161
	C496.612,317.732,486.489,237.541,404.646,190.355z"/>
<path style="fill:#F3D75C;" d="M463.751,243.795l-102.366,42.661c-35.901,14.962-74.409,22.665-113.303,22.665H5.534
	c3.599,17.053,8.898,33.476,15.707,49.092h465.351c1.656,0,3.219-0.38,4.623-1.04c2.164-5.024,4.169-10.133,6.014-15.317
	C495.964,320.36,489.808,280.962,463.751,243.795z"/>
<path style="fill:#E8C63A;" d="M463.751,243.795l-31.609,13.173c20.919,36.265,24.808,72.414,25.32,90.084
	c0.177,6.117-4.751,11.161-10.87,11.161h40c6.121,0,11.047-5.044,10.87-11.162C496.887,327.235,492.07,284.188,463.751,243.795z"/>
<path style="fill:#39375E;" d="M342.796,180.558l-102.538,41.217c-3.526,1.417-7.55,0.709-10.381-1.826l0,0
	c-4.628-4.145-4.385-11.466,0.507-15.294l79.72-62.388c3.377-2.643,8.187-2.382,11.258,0.611l24.218,23.597
	C350.014,170.795,348.541,178.249,342.796,180.558z"/>
<path style="fill:#272749;" d="M345.58,166.474l-24.218-23.597c-3.071-2.992-7.881-3.253-11.258-0.611l-10.741,8.406l16.217,15.801
	c4.435,4.321,2.962,11.775-2.783,14.084L226.9,215.084c0.479,1.805,1.462,3.506,2.978,4.864c2.831,2.535,6.855,3.243,10.381,1.826
	l102.539-41.217C348.541,178.249,350.014,170.795,345.58,166.474z"/>
<path style="fill:#FFFBEB;" d="M30.701,377.652h450.597c6.699-12.38,12.404-25.376,17.016-38.879H13.686
	C18.297,352.276,24.002,365.272,30.701,377.652z"/>
<path style="fill:#D8E0C9;" d="M504.167,338.773h-40c4.326,0,7.833,3.507,7.833,7.833v23.212c0,4.326-3.507,7.833-7.833,7.833h40
	c4.326,0,7.833-3.507,7.833-7.833v-23.212C512,342.28,508.493,338.773,504.167,338.773z"/>
<g>
</g>
<g>
</g>
<g>
</g>
<g>
</g>
<g>
</g>
<g>
</g>
<g>
</g>
<g>
</g>
<g>
</g>
<g>
</g>
<g>
</g>
<g>
</g>
<g>
</g>
<g>
</g>
<g>
</g>
</svg>
