<?xml version="1.0" encoding="iso-8859-1"?>
<!-- Generator: Adobe Illustrator 19.0.0, SVG Export Plug-In . SVG Version: 6.00 Build 0)  -->
<svg version="1.1" id="Capa_1" xmlns="http://www.w3.org/2000/svg" xmlns:xlink="http://www.w3.org/1999/xlink" x="0px" y="0px"
	 viewBox="0 0 512 512" style="enable-background:new 0 0 512 512;" xml:space="preserve">
<path style="fill:#F3D75C;" d="M512,256c0,48.41-13.44,93.68-36.79,132.29c-2.16,3.58-4.41,7.1-6.74,10.56
	c-5.82,8.63-12.15,16.89-18.94,24.73c-41.46,47.84-100.35,80.15-166.8,87.04c-8.78,0.91-17.7,1.38-26.73,1.38
	c-73.13,0-139.09-30.66-185.74-79.83c-2.66-2.8-5.26-5.67-7.79-8.59c-6.79-7.84-13.12-16.1-18.94-24.73
	c-2.32-3.45-4.56-6.96-6.72-10.53c-0.01-0.01-0.01-0.02-0.02-0.03C13.44,349.68,0,304.41,0,256C0,170.29,42.12,94.42,106.79,47.96
	c3.92-2.82,7.92-5.53,12.01-8.12c4.8-3.06,9.71-5.95,14.72-8.69c19.24-10.51,39.99-18.61,61.83-23.92C214.79,2.5,235.1,0,256,0
	s41.21,2.5,60.65,7.23c7.95,1.93,15.75,4.23,23.38,6.89c18.82,6.53,36.64,15.2,53.17,25.72c4.09,2.59,8.09,5.3,12.01,8.12
	C469.88,94.42,512,170.29,512,256z"/>
<path style="fill:#DD544C;" d="M256,159.68V512c-73.13,0-139.09-30.66-185.74-79.83c-2.66-2.8-5.26-5.67-7.79-8.59
	c-6.79-7.84-13.12-16.1-18.94-24.73V269.49c0-12.65,3.31-24.99,9.48-35.31l20.76-34.76c21.48-35.96,33.02-78.94,33.02-123V17.95
	c0-9.91,6.78-17.95,15.14-17.95h61.28c4.83,0,9.32,2.72,12.14,7.23c0.43,0.67,0.82,1.38,1.16,2.13l14.02,30.48l9.64,20.98
	l27.38,59.54C253.09,132.42,256,145.94,256,159.68z"/>
<path style="fill:#C63B38;" d="M148.66,0c-8.36,0-15.14,8.04-15.14,17.95v58.47c0,44.06-11.54,87.04-33.02,123l-20.76,34.76
	c-6.17,10.32-9.48,22.66-9.48,35.31v162.68c-2.66-2.8-5.26-5.67-7.79-8.59c-6.79-7.84-13.12-16.1-18.94-24.73V269.49
	c0-12.65,3.31-24.99,9.48-35.31l20.76-34.76c21.48-35.96,33.02-78.94,33.02-123V17.95c0-9.91,6.78-17.95,15.14-17.95H148.66z"/>
<path style="fill:#DD544C;" d="M468.47,269.49v129.36c-5.82,8.63-12.15,16.89-18.94,24.73c-41.46,47.84-100.35,80.15-166.8,87.04
	c-8.78,0.91-17.7,1.38-26.73,1.38V159.68c0-13.74,2.91-27.26,8.45-39.32l27.38-59.54l0.49-1.07l9.15-19.91l14.02-30.48
	c0.34-0.75,0.73-1.46,1.16-2.13C319.47,2.72,323.96,0,328.79,0h61.28c8.36,0,15.14,8.04,15.14,17.95v58.47
	c0,44.06,11.54,87.04,33.02,123l20.76,34.76C465.16,244.5,468.47,256.84,468.47,269.49z"/>
<path style="fill:#C63B38;" d="M355.51,0c-5.54,0-10.64,3.59-13.29,9.36l-2.19,4.76L328.2,39.84l-9.64,20.98l-27.38,59.54
	c-5.55,12.06-8.45,25.58-8.45,39.32v350.94c-8.78,0.91-17.7,1.38-26.73,1.38V159.68c0-13.74,2.91-27.26,8.45-39.32l27.38-59.54
	l0.49-1.07l9.15-19.91l14.02-30.48c0.34-0.75,0.73-1.46,1.16-2.13C319.47,2.72,323.96,0,328.79,0H355.51z"/>
<polygon style="fill:#FFFBEB;" points="301.474,39.845 291.832,60.815 405.208,60.815 405.208,39.845 "/>
<polygon style="fill:#D8E0C9;" points="301.474,39.845 292.321,59.751 291.832,60.815 318.557,60.815 328.2,39.845 "/>
<path style="fill:#39375E;" d="M293.437,208.778h-74.873c-2.322,0-4.204-1.882-4.204-4.204v-21.747c0-2.322,1.882-4.204,4.204-4.204
	h74.873c2.322,0,4.204,1.882,4.204,4.204v21.747C297.641,206.895,295.759,208.778,293.437,208.778z"/>
<g>
	<path style="fill:#272749;" d="M241.084,204.477v-21.555c0-2.375,1.84-4.3,4.111-4.3h-26.726c-2.27,0-4.111,1.925-4.111,4.3v21.555
		c0,2.375,1.84,4.301,4.111,4.301h26.726C242.925,208.778,241.084,206.852,241.084,204.477z"/>
	<path style="fill:#272749;" d="M469.521,317.093H42.479c-3.42,0-6.192-2.772-6.192-6.192v-26.653c0-3.42,2.772-6.192,6.192-6.192
		h427.042c3.42,0,6.192,2.772,6.192,6.192v26.653C475.713,314.321,472.941,317.093,469.521,317.093z"/>
</g>
<path style="fill:#13132B;" d="M70.257,278.055H42.341c-3.344,0-6.054,2.836-6.054,6.334v26.37c0,3.498,2.71,6.334,6.054,6.334
	h27.916V278.055z"/>
<polygon style="fill:#FFFBEB;" points="106.792,60.815 220.168,60.815 210.526,39.845 106.792,39.845 "/>
<rect x="106.79" y="39.845" style="fill:#D8E0C9;" width="26.726" height="20.971"/>
<path style="fill:#FFFBEB;" d="M292.409,322.767h-72.817c-2.89,0-5.233-2.343-5.233-5.233v-39.92c0-2.89,2.343-5.233,5.233-5.233
	h72.817c2.89,0,5.233,2.343,5.233,5.233v39.92C297.641,320.424,295.298,322.767,292.409,322.767z"/>
<g>
	<path style="fill:#D8E0C9;" d="M256,285.669c8.429,0,15.262-5.949,15.262-13.287h-30.525
		C240.738,279.72,247.571,285.669,256,285.669z"/>
	<path style="fill:#D8E0C9;" d="M256,309.479c-8.429,0-15.262,5.949-15.262,13.287h30.525
		C271.262,315.428,264.429,309.479,256,309.479z"/>
</g>
<path style="fill:#272749;" d="M475.21,388.29c-2.16,3.58-4.41,7.1-6.74,10.56c-5.82,8.63-12.15,16.89-18.94,24.73H62.47
	c-6.79-7.84-13.12-16.1-18.94-24.73c-2.32-3.45-4.56-6.96-6.72-10.53c-0.01-0.01-0.01-0.02-0.02-0.03c0.3-0.71,0.73-1.35,1.27-1.89
	c0.1-0.1,0.2-0.2,0.31-0.29c0.06-0.07,0.12-0.13,0.19-0.17c0.15-0.13,0.3-0.24,0.46-0.35c0.86-0.58,1.88-0.95,2.98-1.03
	c0.16-0.01,0.32-0.02,0.48-0.02h427.04C472.07,384.54,474.26,386.08,475.21,388.29z"/>
<path style="fill:#13132B;" d="M70.26,384.54v39.04h-7.79c-6.79-7.84-13.12-16.1-18.94-24.73c-2.32-3.45-4.56-6.96-6.72-10.53
	c0.3-0.72,0.73-1.37,1.25-1.92c0.1-0.1,0.2-0.2,0.31-0.29c0.06-0.07,0.12-0.13,0.19-0.17c0.15-0.13,0.3-0.24,0.46-0.35
	c0.95-0.67,2.09-1.05,3.32-1.05L70.26,384.54L70.26,384.54z"/>
<path style="fill:#FFFBEB;" d="M292.409,429.251h-72.817c-2.89,0-5.233-2.343-5.233-5.233v-39.92c0-2.89,2.343-5.233,5.233-5.233
	h72.817c2.89,0,5.233,2.343,5.233,5.233v39.92C297.641,426.908,295.298,429.251,292.409,429.251z"/>
<g>
	<path style="fill:#D8E0C9;" d="M256,392.153c8.429,0,15.262-5.949,15.262-13.287h-30.525
		C240.738,386.204,247.571,392.153,256,392.153z"/>
	<path style="fill:#D8E0C9;" d="M256,415.964c-8.429,0-15.262,5.949-15.262,13.287h30.525
		C271.262,421.913,264.429,415.964,256,415.964z"/>
</g>
<g>
</g>
<g>
</g>
<g>
</g>
<g>
</g>
<g>
</g>
<g>
</g>
<g>
</g>
<g>
</g>
<g>
</g>
<g>
</g>
<g>
</g>
<g>
</g>
<g>
</g>
<g>
</g>
<g>
</g>
</svg>
