<?xml version="1.0" encoding="iso-8859-1"?>
<!-- Generator: Adobe Illustrator 19.0.0, SVG Export Plug-In . SVG Version: 6.00 Build 0)  -->
<svg version="1.1" id="Capa_1" xmlns="http://www.w3.org/2000/svg" xmlns:xlink="http://www.w3.org/1999/xlink" x="0px" y="0px"
	 viewBox="0 0 512 512" style="enable-background:new 0 0 512 512;" xml:space="preserve">
<circle style="fill:#39375E;" cx="256" cy="256" r="256"/>
<path style="fill:#F3D75C;" d="M356.5,359.246h-201v132.263C186.356,504.693,220.323,512,256,512s69.644-7.307,100.5-20.491V359.246
	z"/>
<g>
	<path style="fill:#E8C63A;" d="M155.5,491.509c12.828,5.481,26.197,9.935,40,13.28V359.246h-40V491.509z"/>
	<path style="fill:#E8C63A;" d="M356.884,421.179H155.116c-5.234,0-9.756-3.656-10.853-8.773l-22.759-106.133h268.993
		l-22.759,106.133C366.64,417.524,362.117,421.179,356.884,421.179z"/>
</g>
<path style="fill:#D6B52B;" d="M390.496,306.273h-44.033h-68.094H161.504h-40l22.759,106.133c1.097,5.117,5.62,8.773,10.853,8.773
	h40c-5.234,0-9.756-3.656-10.853-8.773L165.906,326.8h120.553c5.571,10.968,12.982,19.389,24.339,21.954
	c1.785,0.402,3.567,0.606,5.299,0.606c12.736,0,20.055-9.49,24.869-22.56h45.129L390.496,306.273z"/>
<path style="fill:#F3D75C;" d="M407.325,316.801h-302.65c-4.712,0-8.531-3.819-8.531-8.531v-50.673c0-4.712,3.819-8.531,8.531-8.531
	h302.649c4.712,0,8.531,3.819,8.531,8.531v50.673C415.856,312.982,412.036,316.801,407.325,316.801z"/>
<path style="fill:#E8C63A;" d="M136.144,308.27v-50.673c0-4.712,3.819-8.531,8.531-8.531h-40c-4.712,0-8.531,3.819-8.531,8.531
	v50.673c0,4.711,3.819,8.531,8.531,8.531h40C139.964,316.801,136.144,312.982,136.144,308.27z"/>
<path style="fill:#FFFBEB;" d="M256,117.968c-72.404,0-131.099,58.695-131.099,131.099h131.044l0.055,0.654
	c30.5,0,26,82.279,57,89.279s21.5-89.934,43.5-89.934h30.599C387.099,176.662,328.404,117.968,256,117.968z"/>
<path style="fill:#D8E0C9;" d="M271,118.827c-4.923-0.561-9.927-0.859-15-0.859c-72.404,0-131.099,58.695-131.099,131.099h30
	C154.901,181.736,205.662,126.271,271,118.827z"/>
<path style="fill:#F291DD;" d="M256,0c-65.262,0-118.167,52.905-118.167,118.167c0,19.12,4.541,37.179,12.603,53.158
	C161,193,172.667,208,192,210.667s26.333-23.667,57.333-5.333S276,255,315,262.667s36.597-63.11,46.565-91.344
	c8.062-15.978,12.602-34.037,12.602-53.156C374.167,52.905,321.262,0,256,0z"/>
<path style="fill:#DE66BF;" d="M325,242.667c-39-7.667-34.667-39-65.667-57.333s-38,8-57.333,5.333
	C182.667,188,171,173,160.436,151.324c-8.062-15.979-12.603-34.038-12.603-53.158c0-14.996,2.8-29.336,7.895-42.535
	c-11.336,18.138-17.895,39.569-17.895,62.535c0,19.12,4.541,37.179,12.603,53.158C161,193,172.667,208,192,210.667
	s26.333-23.667,57.333-5.333S276,255,315,262.667c18.013,3.541,27.191-9.656,32.837-27.662
	C342.364,241.392,335.063,244.645,325,242.667z"/>
<g>
</g>
<g>
</g>
<g>
</g>
<g>
</g>
<g>
</g>
<g>
</g>
<g>
</g>
<g>
</g>
<g>
</g>
<g>
</g>
<g>
</g>
<g>
</g>
<g>
</g>
<g>
</g>
<g>
</g>
</svg>
