<?xml version="1.0" encoding="iso-8859-1"?>
<!-- Generator: Adobe Illustrator 19.0.0, SVG Export Plug-In . SVG Version: 6.00 Build 0)  -->
<svg version="1.1" id="Capa_1" xmlns="http://www.w3.org/2000/svg" xmlns:xlink="http://www.w3.org/1999/xlink" x="0px" y="0px"
	 viewBox="0 0 512 512" style="enable-background:new 0 0 512 512;" xml:space="preserve">
<circle style="fill:#A279C8;" cx="256" cy="256" r="256"/>
<g>
	<path style="fill:#C3A6E2;" d="M39.928,211L39.928,211c0,8.284,6.716,15,15,15h170.594c8.284,0,15-6.716,15-15l0,0
		c0-8.284,6.716-15,15-15h43.116c8.284,0,15-6.716,15-15l0,0c0-8.284-6.716-15-15-15h-4.978c-8.284,0-15-6.716-15-15l0,0
		c0-8.284-6.716-15-15-15H89.616c-8.284,0-15,6.716-15,15l0,0c0,8.284,6.716,15,15,15h8.428c8.284,0,15,6.716,15,15l0,0
		c0,8.284-6.716,15-15,15H54.928C46.644,196,39.928,202.716,39.928,211z"/>
	<path style="fill:#C3A6E2;" d="M385.1,431.736L385.1,431.736c0-8.284,6.716-15,15-15h16.541c8.284,0,15-6.716,15-15l0,0
		c0-8.284-6.716-15-15-15H246.047c-8.284,0-15,6.716-15,15l0,0c0,8.284-6.716,15-15,15h-16.541c-8.284,0-15,6.716-15,15l0,0
		c0,8.284,6.716,15,15,15H370.1C378.384,446.736,385.1,440.02,385.1,431.736z"/>
</g>
<path style="fill:#D8E0C9;" d="M15.953,345.123h238.156h3.782h238.156c9.951-26.791,15.535-55.699,15.911-85.864L257.89,199.967
	v-0.883l-1.89,0.441l-1.891-0.441v0.883L0.041,259.259C0.418,289.424,6.002,318.332,15.953,345.123z"/>
<path style="fill:#FFFBEB;" d="M110.94,357.15c0,31.1-20.65,57.35-48.99,65.82c-7.15-8.3-13.78-17.06-19.83-26.23
	c-13.04-19.78-23.41-41.48-30.6-64.58c-3.23-10.39-5.82-21.08-7.72-32c10.97-7.4,24.19-11.73,38.42-11.73
	C80.17,288.43,110.94,319.19,110.94,357.15z"/>
<path style="fill:#C7CEB6;" d="M81.8,357.15c0,21.86-17.72,39.59-39.58,39.59h-0.1c-13.04-19.78-23.41-41.48-30.6-64.58
	c7.26-8.91,18.32-14.6,30.7-14.6C64.08,317.56,81.8,335.29,81.8,357.15z"/>
<path style="fill:#FFFBEB;" d="M306.381,97.932H205.619c-19.051,0-36.199-11.552-43.356-29.207l0,0
	c-2.552-6.296,2.081-13.173,8.874-13.173h169.726c6.793,0,11.426,6.877,8.874,13.173l0,0
	C342.58,86.38,325.432,97.932,306.381,97.932z"/>
<path style="fill:#D8E0C9;" d="M192.263,68.725c-2.552-6.296,2.081-13.173,8.874-13.173h-30c-6.793,0-11.426,6.878-8.874,13.173
	c7.157,17.655,24.305,29.207,43.356,29.207h30C216.568,97.932,199.42,86.38,192.263,68.725z"/>
<path style="fill:#FFFBEB;" d="M308.074,302.387H203.926l32.362-284.789C237.428,7.573,245.91,0,256,0l0,0
	c10.09,0,18.572,7.573,19.711,17.598L308.074,302.387z"/>
<path style="fill:#D8E0C9;" d="M266,2.72C263.051,0.995,259.634,0,256,0l0,0c-10.09,0-18.572,7.573-19.711,17.598l-32.362,284.789
	h20l32.362-284.789C257.018,11.184,260.761,5.785,266,2.72z"/>
<path style="fill:#C7CEB6;" d="M257.891,199.084L256,199.525l-1.891-0.441v0.883l-123.495,28.82
	c-1.628,8.109-2.454,16.631-2.454,25.519c0,30.568,9.848,63.219,26.601,90.817h99.348h3.782h99.348
	c16.753-27.598,26.601-60.249,26.601-90.817c0-8.887-0.826-17.41-2.454-25.519l-123.495-28.82V199.084z"/>
<path style="fill:#FFFBEB;" d="M368.84,254.306c0,65.766-50.52,142.43-112.84,142.43s-112.84-76.663-112.84-142.43
	S193.68,154.264,256,154.264S368.84,188.54,368.84,254.306z"/>
<path style="fill:#D8E0C9;" d="M183.16,254.306c0-58.564,40.06-92.156,92.84-98.812c-6.491-0.819-13.175-1.23-20-1.23
	c-62.32,0-112.84,34.275-112.84,100.042s50.52,142.43,112.84,142.43c6.825,0,13.509-0.92,20-2.644
	C223.22,380.074,183.16,312.87,183.16,254.306z"/>
<path style="fill:#39375E;" d="M326.52,284.588c-48.464,14.468-92.575,14.468-141.039,0c-4.851-1.716-8.7-6.67-8.697-10.815
	c0.012-16.692,0.025-33.384,0.037-50.076c0.003-4.145,4.087-7.488,9.122-7.469c46.705,0.149,93.409,0.149,140.114,0
	c5.036-0.019,9.119,3.324,9.122,7.469c0.012,16.692,0.025,33.384,0.037,50.076C335.22,277.918,331.371,282.872,326.52,284.588z"/>
<g>
	<path style="fill:#272749;" d="M327.079,216.274c-0.336-0.03-0.676-0.047-1.022-0.046c-18.353,0.059-36.705,0.075-55.057,0.088
		C289.693,216.328,308.386,216.309,327.079,216.274z"/>
	<path style="fill:#272749;" d="M215.481,284.588c-4.851-1.716-8.7-6.67-8.697-10.815c0.012-16.692,0.025-33.384,0.037-50.076
		c0.003-3.86,3.546-7.021,8.101-7.423c-9.659-0.018-19.319-0.015-28.978-0.046c-5.036-0.019-9.119,3.324-9.122,7.469
		c-0.012,16.692-0.025,33.384-0.037,50.076c-0.003,4.145,3.846,9.099,8.697,10.815c29.463,8.795,57.318,12.233,85.519,10.335
		C252.812,293.698,234.481,290.26,215.481,284.588z"/>
</g>
<path style="fill:#FFFBEB;" d="M508.2,300.16c-1.9,10.92-4.49,21.61-7.72,32c-7.19,23.1-17.56,44.8-30.6,64.58
	c-6.05,9.17-12.68,17.93-19.83,26.23c-28.34-8.47-48.99-34.72-48.99-65.82c0-37.96,30.77-68.72,68.72-68.72
	C484.01,288.43,497.23,292.76,508.2,300.16z"/>
<path style="fill:#C7CEB6;" d="M500.48,332.16c-7.19,23.1-17.56,44.8-30.6,64.58h-0.1c-21.86,0-39.58-17.73-39.58-39.59
	c0-21.86,17.72-39.59,39.58-39.59C482.16,317.56,493.22,323.25,500.48,332.16z"/>
<g>
</g>
<g>
</g>
<g>
</g>
<g>
</g>
<g>
</g>
<g>
</g>
<g>
</g>
<g>
</g>
<g>
</g>
<g>
</g>
<g>
</g>
<g>
</g>
<g>
</g>
<g>
</g>
<g>
</g>
</svg>
