<?xml version="1.0" encoding="iso-8859-1"?>
<!-- Generator: Adobe Illustrator 19.0.0, SVG Export Plug-In . SVG Version: 6.00 Build 0)  -->
<svg version="1.1" id="Capa_1" xmlns="http://www.w3.org/2000/svg" xmlns:xlink="http://www.w3.org/1999/xlink" x="0px" y="0px"
	 viewBox="0 0 512 512" style="enable-background:new 0 0 512 512;" xml:space="preserve">
<circle style="fill:#F3D75C;" cx="256" cy="256" r="256"/>
<path style="fill:#272749;" d="M10.216,351.082c-2.091,0-4.18-0.797-5.775-2.392c-3.189-3.189-3.189-8.36,0-11.549l72.902-72.902
	c25.214-25.213,58.736-39.099,94.393-39.099h331.455c4.511,0,8.166,3.656,8.166,8.166s-3.656,8.166-8.166,8.166H171.736
	c-31.294,0-60.715,12.186-82.843,34.315L15.991,348.69C14.396,350.285,12.306,351.082,10.216,351.082z"/>
<path style="fill:#39375E;" d="M503.191,351.082c-2.091,0-4.18-0.797-5.775-2.392l-72.902-72.902
	c-22.128-22.128-51.549-34.315-82.843-34.315H10.216c-4.511,0-8.166-3.656-8.166-8.166s3.656-8.166,8.166-8.166h331.455
	c35.657,0,69.179,13.886,94.393,39.099l72.902,72.902c3.189,3.189,3.189,8.36,0,11.549
	C507.371,350.285,505.281,351.082,503.191,351.082z"/>
<rect x="136.76" y="160.92" style="fill:#DD544C;" width="238.46" height="16.333"/>
<g>
	<path style="fill:#C63B38;" d="M10.216,260.118L10.216,260.118C4.574,260.118,0,255.544,0,249.902v-33.165
		c0-5.642,4.574-10.216,10.216-10.216l0,0c5.642,0,10.216,4.574,10.216,10.216v33.165C20.433,255.544,15.859,260.118,10.216,260.118
		z"/>
	<path style="fill:#C63B38;" d="M501.784,260.118L501.784,260.118c-5.642,0-10.216-4.574-10.216-10.216v-33.165
		c0-5.642,4.574-10.216,10.216-10.216l0,0c5.642,0,10.216,4.574,10.216,10.216v33.165C512,255.544,507.426,260.118,501.784,260.118z
		"/>
	<path style="fill:#C63B38;" d="M289.266,219.091c-0.138-0.144-14.021-14.421-33.275-14.421s-33.137,14.276-33.275,14.421
		l-11.87-11.219c0.751-0.798,18.693-19.535,45.145-19.535s44.395,18.737,45.145,19.535L289.266,219.091z"/>
</g>
<path style="fill:#DD544C;" d="M103.164,338.872c-33.148,0-61.035-16.947-76.512-46.495c-11.788-22.505-23.346-55.239-11.463-83.378
	c7.727-18.3,23.677-31.157,47.408-38.216c21.387-6.362,46.388-9.866,70.398-9.866c16.64,0,40.613,1.725,60.322,9.943
	c28.951,12.072,33.273,31.877,33.273,42.608c0,30.403-26.455,63.735-37.828,76.654c-8.569,9.734-38.729,41.892-67.047,47.041
	C115.479,338.298,109.238,338.872,103.164,338.872z"/>
<path style="fill:#39375E;" d="M210.258,213.469c0,37.938-59.525,101.818-91.465,107.626s-61.702-5.807-77.672-36.295
	s-31.214-81.302,26.133-98.361S210.258,174.805,210.258,213.469z"/>
<g>
	<path style="fill:#272749;" d="M62.899,284.799c-15.97-30.488-31.214-81.302,26.133-98.361c16.769-4.988,35.958-8.05,54.719-8.925
		c-25.059-1.243-53.127,1.973-76.496,8.925c-57.347,17.059-42.103,67.872-26.133,98.361c15.203,29.023,42.906,40.93,73.086,36.999
		C92.872,318.8,74.343,306.648,62.899,284.799z"/>
	<path style="fill:#272749;" d="M171.736,225.14c-35.657,0-69.179,13.886-94.393,39.099l-30.235,30.236
		c3.32,4.589,7.02,8.607,11.043,12.056l30.742-30.743c22.128-22.128,51.549-34.315,82.843-34.315h30.758
		c2.729-5.612,4.837-11.108,6.164-16.333L171.736,225.14L171.736,225.14z"/>
</g>
<path style="fill:#13132B;" d="M208.658,225.14H27.373c-0.944,5.302-1.041,10.801-0.509,16.333h175.631
	C205.224,235.862,207.332,230.365,208.658,225.14z"/>
<path style="fill:#DD544C;" d="M408.816,338.872c33.148,0,61.035-16.947,76.512-46.495c11.788-22.505,23.346-55.239,11.463-83.378
	c-7.727-18.3-23.677-31.157-47.408-38.216c-21.387-6.362-46.388-9.866-70.398-9.866c-16.64,0-40.613,1.725-60.322,9.943
	c-28.951,12.072-33.273,31.877-33.273,42.608c0,30.403,26.455,63.735,37.828,76.654c8.569,9.734,38.729,41.892,67.047,47.041
	C396.502,338.298,402.742,338.872,408.816,338.872z"/>
<path style="fill:#39375E;" d="M301.723,213.469c0,37.938,59.525,101.818,91.465,107.626s61.702-5.807,77.672-36.295
	s31.214-81.302-26.133-98.361S301.723,174.805,301.723,213.469z"/>
<g>
	<path style="fill:#272749;" d="M414.964,321.095c-31.94-5.807-91.465-69.687-91.465-107.626c0-22.909,30.072-34.147,66.508-35.955
		c-45.398-2.116-88.285,8.597-88.285,35.955c0,37.938,59.525,101.818,91.465,107.626c9.051,1.646,17.926,1.889,26.363,0.704
		C418.027,321.6,416.499,321.374,414.964,321.095z"/>
	<path style="fill:#272749;" d="M309.486,241.473h175.631c0.532-5.532,0.435-11.031-0.509-16.333H303.322
		C304.649,230.365,306.757,235.862,309.486,241.473z"/>
</g>
<path style="fill:#13132B;" d="M436.064,264.239c-25.214-25.213-58.736-39.099-94.393-39.099h-38.349
	c1.327,5.225,3.435,10.721,6.164,16.333h32.185c31.294,0,60.715,12.186,82.843,34.315l30.082,30.082
	c3.967-3.509,7.608-7.587,10.871-12.228L436.064,264.239z"/>
<g>
</g>
<g>
</g>
<g>
</g>
<g>
</g>
<g>
</g>
<g>
</g>
<g>
</g>
<g>
</g>
<g>
</g>
<g>
</g>
<g>
</g>
<g>
</g>
<g>
</g>
<g>
</g>
<g>
</g>
</svg>
