<?xml version="1.0" encoding="iso-8859-1"?>
<!-- Generator: Adobe Illustrator 19.0.0, SVG Export Plug-In . SVG Version: 6.00 Build 0)  -->
<svg version="1.1" id="Capa_1" xmlns="http://www.w3.org/2000/svg" xmlns:xlink="http://www.w3.org/1999/xlink" x="0px" y="0px"
	 viewBox="0 0 512 512" style="enable-background:new 0 0 512 512;" xml:space="preserve">
<circle style="fill:#70D587;" cx="256" cy="256" r="256"/>
<g>
	<path style="fill:#8DE29D;" d="M464.18,295.046L464.18,295.046c0-8.284-6.716-15-15-15H278.586c-8.284,0-15,6.716-15,15l0,0
		c0,8.284-6.716,15-15,15H205.47c-8.284,0-15,6.716-15,15l0,0c0,8.284,6.716,15,15,15h4.978c8.284,0,15,6.716,15,15l0,0
		c0,8.284,6.716,15,15,15h174.045c8.284,0,15-6.716,15-15l0,0c0-8.284-6.716-15-15-15h-8.428c-8.284,0-15-6.716-15-15l0,0
		c0-8.284,6.716-15,15-15h43.116C457.464,310.046,464.18,303.33,464.18,295.046z"/>
	<path style="fill:#8DE29D;" d="M70.612,211L70.612,211c0,8.284-6.716,15-15,15H39.071c-8.284,0-15,6.716-15,15l0,0
		c0,8.284,6.716,15,15,15h170.594c8.284,0,15-6.716,15-15l0,0c0-8.284,6.716-15,15-15h16.541c8.284,0,15-6.716,15-15l0,0
		c0-8.284-6.716-15-15-15H85.612C77.328,196,70.612,202.716,70.612,211z"/>
</g>
<polygon style="fill:#DD544C;" points="358.453,391.225 153.547,391.225 117.491,19.262 394.509,19.262 "/>
<g>
	<polygon style="fill:#C63B38;" points="117.49,19.262 153.547,391.225 183.547,391.225 147.49,19.262 	"/>
	<polygon style="fill:#C63B38;" points="121.755,63.254 390.245,63.254 394.51,19.262 117.49,19.262 	"/>
</g>
<path style="fill:#DD544C;" d="M390.485,53.254h-268.97c-6.691,0-12.115-5.424-12.115-12.115V12.115
	C109.4,5.424,114.824,0,121.515,0h268.97c6.691,0,12.115,5.424,12.115,12.115v29.023C402.6,47.829,397.176,53.254,390.485,53.254z"
	/>
<path style="fill:#C63B38;" d="M139.4,41.138V12.115C139.4,5.424,144.824,0,151.515,0h-30C114.824,0,109.4,5.424,109.4,12.115
	v29.023c0,6.691,5.424,12.115,12.115,12.115h30C144.824,53.254,139.4,47.829,139.4,41.138z"/>
<path style="fill:#D8E0C9;" d="M363,394.17v94.45C330.44,503.63,294.2,512,256,512c-23.18,0-45.64-3.08-67-8.86
	c-3.36-0.91-6.69-1.88-10-2.93c-10.3-3.24-20.31-7.12-30-11.59v-94.45c0-2.67,1.83-4.91,4.3-5.53c0.45-0.13,0.92-0.19,1.41-0.19
	h202.58c0.49,0,0.96,0.06,1.41,0.19C361.17,389.26,363,391.5,363,394.17z"/>
<path style="fill:#C7CEB6;" d="M194.71,388.45c-2.08,0-3.9,1.11-4.89,2.78c-0.52,0.86-0.82,1.86-0.82,2.94v108.97
	c-3.36-0.91-6.69-1.88-10-2.93c-10.3-3.24-20.31-7.12-30-11.59v-94.45c0-2.67,1.83-4.91,4.3-5.53c0.45-0.13,0.92-0.19,1.41-0.19
	L194.71,388.45L194.71,388.45z"/>
<path style="fill:#FFFBEB;" d="M363,456.9v31.72C330.44,503.63,294.2,512,256,512c-23.18,0-45.64-3.08-67-8.86
	c-3.36-0.91-6.69-1.88-10-2.93c-10.3-3.24-20.31-7.12-30-11.59V456.9h55.52c3.9,0,7.59,1.68,9.99,4.55l9.5,11.35
	c2.41,2.87,6.09,4.55,9.99,4.55h44c3.9,0,7.58-1.68,9.99-4.55l9.5-11.35c2.4-2.87,6.09-4.55,9.99-4.55H363z"/>
<path style="fill:#D8E0C9;" d="M179,456.9v43.31c-10.3-3.24-20.31-7.12-30-11.59V456.9H179z"/>
<circle style="fill:#F3D75C;" cx="256" cy="194.28" r="29.362"/>
<path style="fill:#E8C63A;" d="M236.638,194.285c0-14.511,10.529-26.555,24.362-28.929c-1.626-0.279-3.295-0.433-5-0.433
	c-16.216,0-29.362,13.146-29.362,29.362s13.146,29.362,29.362,29.362c1.705,0,3.374-0.154,5-0.433
	C247.167,220.839,236.638,208.795,236.638,194.285z"/>
<g>
	<path style="fill:#F3D75C;" d="M256,153.036c-4.955,0-8.971-4.017-8.971-8.971v-26.189c0-4.954,4.016-8.971,8.971-8.971
		s8.971,4.017,8.971,8.971v26.189C264.971,149.019,260.955,153.036,256,153.036z"/>
	<path style="fill:#F3D75C;" d="M256,279.665c-4.955,0-8.971-4.017-8.971-8.971v-26.189c0-4.954,4.016-8.971,8.971-8.971
		s8.971,4.017,8.971,8.971v26.189C264.971,275.648,260.955,279.665,256,279.665z"/>
	<path style="fill:#F3D75C;" d="M291.511,167.744c-2.295,0-4.592-0.876-6.344-2.628c-3.503-3.503-3.503-9.184,0-12.687
		l18.518-18.518c3.504-3.503,9.184-3.503,12.688,0c3.503,3.503,3.503,9.184,0,12.687l-18.518,18.518
		C296.103,166.868,293.807,167.744,291.511,167.744z"/>
	<path style="fill:#F3D75C;" d="M201.971,257.285c-2.295,0-4.592-0.875-6.344-2.628c-3.503-3.503-3.503-9.183,0-12.687
		l18.518-18.518c3.504-3.503,9.185-3.504,12.687,0c3.504,3.503,3.504,9.183,0.001,12.687l-18.518,18.518
		C206.563,256.409,204.266,257.285,201.971,257.285z"/>
	<path style="fill:#F3D75C;" d="M332.409,203.256H306.22c-4.955,0-8.971-4.017-8.971-8.971s4.016-8.971,8.971-8.971h26.189
		c4.955,0,8.971,4.017,8.971,8.971S337.364,203.256,332.409,203.256z"/>
	<path style="fill:#F3D75C;" d="M205.78,203.256h-26.189c-4.955,0-8.971-4.017-8.971-8.971s4.016-8.971,8.971-8.971h26.189
		c4.955,0,8.971,4.017,8.971,8.971C214.751,199.239,210.735,203.256,205.78,203.256z"/>
	<path style="fill:#F3D75C;" d="M310.029,257.285c-2.296,0-4.592-0.875-6.344-2.628l-18.518-18.518
		c-3.503-3.504-3.503-9.184,0.001-12.687c3.502-3.504,9.182-3.503,12.687,0l18.518,18.518c3.503,3.504,3.503,9.184,0,12.687
		C314.621,256.409,312.325,257.285,310.029,257.285z"/>
	<path style="fill:#F3D75C;" d="M220.489,167.744c-2.295,0-4.592-0.876-6.344-2.628l-18.518-18.518
		c-3.503-3.503-3.503-9.184,0-12.687c3.504-3.503,9.184-3.503,12.688,0l18.518,18.518c3.503,3.503,3.503,9.184,0,12.687
		C225.08,166.868,222.784,167.744,220.489,167.744z"/>
</g>
<g>
</g>
<g>
</g>
<g>
</g>
<g>
</g>
<g>
</g>
<g>
</g>
<g>
</g>
<g>
</g>
<g>
</g>
<g>
</g>
<g>
</g>
<g>
</g>
<g>
</g>
<g>
</g>
<g>
</g>
</svg>
