<?xml version="1.0" encoding="iso-8859-1"?>
<!-- Generator: Adobe Illustrator 19.0.0, SVG Export Plug-In . SVG Version: 6.00 Build 0)  -->
<svg version="1.1" id="Capa_1" xmlns="http://www.w3.org/2000/svg" xmlns:xlink="http://www.w3.org/1999/xlink" x="0px" y="0px"
	 viewBox="0 0 512 512" style="enable-background:new 0 0 512 512;" xml:space="preserve">
<path style="fill:#DD544C;" d="M512,256c0,45.96-12.12,89.09-33.33,126.38c-14.83,26.1-34.13,49.33-56.85,68.66
	c-20.31,17.28-43.35,31.45-68.38,41.75v0.01c-5.42,2.23-10.93,4.28-16.53,6.15c-3.6,1.2-7.24,2.32-10.91,3.36
	c-22.25,6.31-45.73,9.69-70,9.69s-47.75-3.38-70-9.69c-3.67-1.04-7.31-2.16-10.91-3.36c-31.46-10.47-60.21-26.89-84.91-47.91
	c-1.06-0.9-2.11-1.81-3.16-2.74c-21.35-18.77-39.55-41.04-53.69-65.92C12.12,345.09,0,301.96,0,256c0-31.06,5.53-60.83,15.67-88.37
	c13.44-36.56,34.98-69.2,62.46-95.74l0.01-0.01c3.9-3.77,7.91-7.41,12.04-10.92c24.7-21.02,53.45-37.44,84.91-47.91
	c5.72-1.9,11.54-3.61,17.43-5.11c0.01,0,0.01,0,0.01,0C212.83,2.75,234.09,0,256,0s43.18,2.75,63.48,7.94
	c5.89,1.5,11.71,3.21,17.43,5.11c3.37,1.12,6.7,2.31,10,3.57h0.01c0.01,0,0.02,0,0.02,0.01h0.01
	c27.55,10.47,52.82,25.57,74.87,44.33c33.24,28.29,59.16,64.93,74.51,106.67C506.47,195.17,512,224.94,512,256z"/>
<path style="fill:#F3D75C;" d="M241.5,87.19l-9.37,341.8c-0.87,31.72-19.15,59.45-46.13,73.32c-3.67-1.04-7.31-2.16-10.91-3.36
	c-31.46-10.47-60.21-26.89-84.91-47.91c-1.06-0.9-2.11-1.81-3.16-2.74c-21.35-18.77-39.55-41.04-53.69-65.92L15.67,167.63l-0.52-6.3
	c-3.48-42.25,10.99-81.94,37.14-111.44c10.79-12.17,23.56-22.6,37.89-30.76c0.53-0.3,1.06-0.6,1.6-0.9
	c1.06-0.59,2.14-1.17,3.23-1.73c1.09-0.57,2.18-1.13,3.28-1.66c0.16-0.08,0.31-0.16,0.47-0.23c0.2-0.1,0.4-0.2,0.6-0.29
	c1.36-0.66,2.74-1.3,4.13-1.91c0.49-0.22,0.97-0.43,1.46-0.64c0.15-0.07,0.29-0.13,0.42-0.18c0.81-0.35,1.62-0.69,2.44-1.02
	c0.1-0.04,0.2-0.08,0.3-0.12c0.1-0.05,0.21-0.09,0.31-0.13c0.42-0.17,0.84-0.33,1.26-0.5c0.16-0.06,0.31-0.12,0.47-0.18
	c0.01,0,0.02-0.01,0.04-0.01c0.11-0.05,0.23-0.09,0.34-0.14c0.26-0.09,0.52-0.19,0.77-0.29c0.44-0.16,0.87-0.32,1.31-0.48
	c0.65-0.24,1.3-0.47,1.95-0.7c0.52-0.19,1.04-0.36,1.56-0.54c0.17-0.07,0.34-0.12,0.52-0.18c0.27-0.09,0.54-0.18,0.82-0.27
	c0.1-0.04,0.19-0.07,0.29-0.09l11.71-3.29l1.02-0.24l0.23-0.05l10.63-2.03l0.23-0.04c1.12-0.17,2.25-0.33,3.38-0.47l1.93-0.24
	c0.5-0.06,0.99-0.11,1.49-0.16c0.1-0.01,0.2-0.02,0.3-0.03c0.08,0,0.16-0.01,0.24-0.02c0.32-0.03,0.63-0.05,0.95-0.08
	c0.09-0.01,0.19-0.02,0.28-0.02c0.14-0.01,0.28-0.02,0.43-0.03c0.13-0.01,0.27-0.02,0.4-0.03c0.28-0.03,0.55-0.04,0.83-0.06h0.05
	c0.1-0.01,0.21-0.01,0.31-0.02c0.22-0.01,0.44-0.02,0.66-0.03c0.05-0.01,0.1-0.01,0.14,0c0.18-0.01,0.35-0.01,0.53-0.02
	c0.04-0.01,0.09-0.01,0.13-0.01c0.18-0.01,0.35-0.02,0.51-0.02c0.07,0,0.14-0.01,0.21-0.01c0.11,0,0.21-0.01,0.31,0
	c0.17-0.01,0.34-0.01,0.51-0.01c0.28-0.02,0.56-0.02,0.83-0.02C156.21,0,156.43,0,156.65,0h0.3c0.68,0,1.37,0.01,2.05,0.03
	c0.27,0.01,0.54,0.01,0.8,0.03c0.11,0,0.22,0,0.33,0.01c0.43,0.02,0.85,0.04,1.28,0.06c0.02,0,0.03,0,0.05,0.01
	c0.09,0,0.17,0,0.26,0.01c0.76,0.04,1.53,0.09,2.29,0.16c0.69,0.06,1.39,0.12,2.07,0.2c0.63,0.07,1.25,0.15,1.87,0.23
	c0.52,0.07,1.03,0.14,1.54,0.22c0.47,0.07,0.93,0.14,1.4,0.22c0.66,0.11,1.32,0.23,1.98,0.36c0.74,0.14,1.48,0.3,2.22,0.46
	c6.07,1.34,11.91,3.34,17.43,5.94c0.01,0,0.01,0,0.01,0C221.96,21.69,242.46,51.94,241.5,87.19z"/>
<path id="SVGCleanerId_0" style="fill:#FFFBEB;" d="M175.09,2v496.95c-31.46-10.47-60.21-26.89-84.91-47.91V19.13
	c0.53-0.3,1.06-0.6,1.6-0.9c1.06-0.59,2.14-1.17,3.23-1.73c0.54-0.29,1.08-0.57,1.63-0.84c1.56-0.79,3.14-1.55,4.73-2.29
	c0.64-0.3,1.29-0.59,1.93-0.88c0.54-0.24,1.07-0.47,1.61-0.71c0.03-0.01,0.06-0.02,0.08-0.03c1.02-0.44,2.05-0.87,3.08-1.29
	c2.14-0.86,4.3-1.68,6.49-2.44c0.52-0.19,1.04-0.36,1.56-0.54c0.35-0.13,0.7-0.24,1.05-0.36c0.19-0.06,0.39-0.13,0.58-0.18
	l11.71-3.29c0.4-0.1,0.79-0.19,1.19-0.28l10.92-2.08c1.12-0.17,2.25-0.33,3.38-0.47l1.93-0.24c0.996-0.113,1.987-0.206,2.976-0.288
	c0.238-0.019,0.476-0.036,0.713-0.053c0.44-0.033,0.881-0.072,1.32-0.098c0.61-0.03,1.23-0.06,1.84-0.08
	c0.19-0.01,0.37-0.02,0.55-0.02c0.13,0,0.25-0.01,0.37,0c1.46-0.05,2.91-0.05,4.35-0.01c0.38,0.01,0.76,0.02,1.13,0.04
	c0.43,0.01,0.85,0.03,1.28,0.06c0.16,0.01,0.32,0.02,0.48,0.03c0.58,0.03,1.16,0.07,1.74,0.12c0.12,0.01,0.25,0.02,0.38,0.03
	c0.69,0.06,1.39,0.12,2.07,0.2c0.63,0.07,1.25,0.14,1.87,0.23c0.33,0.03,0.65,0.08,0.97,0.13c0.44,0.06,0.87,0.13,1.31,0.2
	c0.22,0.04,0.44,0.07,0.66,0.11c0.66,0.11,1.32,0.23,1.98,0.36C173.61,1.68,174.35,1.84,175.09,2z"/>
<path style="fill:#E8C63A;" d="M176.95,2.46c-0.62,0.12-1.24,0.25-1.86,0.39c-0.21,0.04-0.42,0.08-0.63,0.13
	c-0.48,0.1-0.97,0.21-1.45,0.32c-0.78,0.17-1.56,0.36-2.34,0.55c-0.19,0.04-0.37,0.09-0.56,0.14c-0.8,0.19-1.59,0.39-2.39,0.61
	c-0.32,0.08-0.63,0.16-0.94,0.25c-0.68,0.18-1.36,0.37-2.04,0.57c-0.54,0.15-1.08,0.31-1.61,0.48c-0.54,0.15-1.08,0.31-1.61,0.49
	c-0.3,0.08-0.59,0.18-0.89,0.28c-0.83,0.25-1.65,0.52-2.47,0.81c-0.29,0.09-0.57,0.18-0.85,0.29c-0.58,0.19-1.16,0.39-1.73,0.61
	c-0.51,0.17-1.01,0.36-1.51,0.55c-0.56,0.2-1.11,0.41-1.66,0.63c-0.5,0.18-0.99,0.37-1.48,0.58c-0.45,0.16-0.89,0.34-1.33,0.53
	c-0.48,0.19-0.96,0.39-1.44,0.6c-0.58,0.23-1.17,0.48-1.75,0.74c-0.47,0.2-0.94,0.41-1.41,0.62c-0.39,0.17-0.78,0.35-1.16,0.53
	c-0.63,0.28-1.25,0.57-1.87,0.87c-0.82,0.38-1.63,0.78-2.43,1.19c-0.62,0.3-1.24,0.61-1.85,0.94c-0.45,0.22-0.89,0.45-1.34,0.69
	c-0.39,0.2-0.78,0.41-1.17,0.63c-0.47,0.25-0.94,0.5-1.4,0.76c-0.58,0.32-1.16,0.64-1.73,0.97c-0.35,0.2-0.71,0.41-1.06,0.61
	c-0.69,0.4-1.38,0.81-2.06,1.23c-0.12,0.06-0.23,0.13-0.34,0.21c-0.78,0.46-1.56,0.94-2.32,1.43c-0.14,0.09-0.29,0.18-0.43,0.27
	c-0.84,0.54-1.68,1.08-2.51,1.64c-0.86,0.57-1.71,1.15-2.56,1.74c-0.04,0.03-0.08,0.06-0.12,0.08c-0.69,0.49-1.38,0.98-2.06,1.47
	c-0.28,0.2-0.56,0.41-0.84,0.61c-0.63,0.47-1.26,0.94-1.88,1.42c-0.13,0.08-0.26,0.18-0.38,0.28c-0.76,0.58-1.51,1.16-2.25,1.75
	c-0.09,0.07-0.18,0.14-0.26,0.21c-0.64,0.5-1.27,1.02-1.89,1.54c-0.24,0.19-0.48,0.38-0.71,0.58c-0.63,0.52-1.25,1.05-1.87,1.6
	c-0.14,0.11-0.28,0.24-0.42,0.36c-0.54,0.47-1.08,0.94-1.62,1.44c-0.69,0.6-1.37,1.23-2.05,1.87c-0.43,0.39-0.87,0.8-1.29,1.21
	c-0.71,0.66-1.4,1.34-2.09,2.02c-0.37,0.37-0.74,0.74-1.11,1.11c-0.47,0.48-0.95,0.96-1.42,1.45c-0.09,0.1-0.18,0.19-0.26,0.29
	c-0.65,0.66-1.27,1.33-1.88,2c-0.08,0.07-0.15,0.15-0.2,0.22c-0.66,0.7-1.29,1.4-1.92,2.11c-0.04,0.05-0.09,0.1-0.12,0.15
	c-0.65,0.72-1.29,1.45-1.91,2.19c-0.07,0.08-0.14,0.17-0.21,0.25c-0.62,0.73-1.23,1.47-1.83,2.21c-4.41,5.41-8.44,11.13-12.04,17.12
	l-0.01,0.01c-15.7,25.99-23.64,56.96-20.97,89.44l4.93,59.95l15.75,191.39c1.05,12.7,4.23,24.68,9.18,35.63
	c-21.35-18.77-39.55-41.04-53.69-65.92L15.67,167.63l-0.52-6.3c-3.48-42.25,10.99-81.94,37.14-111.44
	c10.79-12.17,23.56-22.6,37.89-30.76c0.53-0.3,1.06-0.6,1.6-0.9c1.06-0.59,2.14-1.17,3.23-1.73c0.54-0.29,1.08-0.57,1.63-0.84
	c1.56-0.8,3.13-1.56,4.73-2.29c0.64-0.3,1.29-0.59,1.93-0.88c0.54-0.24,1.07-0.47,1.61-0.71c0.03-0.01,0.06-0.02,0.08-0.03
	c1.02-0.44,2.05-0.87,3.08-1.29c2.14-0.86,4.3-1.68,6.49-2.44c0.52-0.19,1.04-0.36,1.56-0.54c0.54-0.19,1.09-0.37,1.63-0.54
	l11.71-3.29c0.4-0.1,0.79-0.19,1.19-0.28l10.92-2.08c1.13-0.17,2.25-0.33,3.38-0.47l1.93-0.24c2.22-0.26,4.42-0.43,6.61-0.5
	c0.08-0.01,0.16-0.02,0.24-0.02c0.19-0.01,0.37-0.02,0.55-0.02c0.13,0,0.25-0.01,0.37,0c7.02-0.18,13.86,0.53,20.44,1.99
	C175.71,2.16,176.33,2.31,176.95,2.46z"/>
<g>
	<path id="SVGCleanerId_0_1_" style="fill:#FFFBEB;" d="M175.09,2v496.95c-31.46-10.47-60.21-26.89-84.91-47.91V19.13
		c0.53-0.3,1.06-0.6,1.6-0.9c1.06-0.59,2.14-1.17,3.23-1.73c0.54-0.29,1.08-0.57,1.63-0.84c1.56-0.79,3.14-1.55,4.73-2.29
		c0.64-0.3,1.29-0.59,1.93-0.88c0.54-0.24,1.07-0.47,1.61-0.71c0.03-0.01,0.06-0.02,0.08-0.03c1.02-0.44,2.05-0.87,3.08-1.29
		c2.14-0.86,4.3-1.68,6.49-2.44c0.52-0.19,1.04-0.36,1.56-0.54c0.35-0.13,0.7-0.24,1.05-0.36c0.19-0.06,0.39-0.13,0.58-0.18
		l11.71-3.29c0.4-0.1,0.79-0.19,1.19-0.28l10.92-2.08c1.12-0.17,2.25-0.33,3.38-0.47l1.93-0.24c0.996-0.113,1.987-0.206,2.976-0.288
		c0.238-0.019,0.476-0.036,0.713-0.053c0.44-0.033,0.881-0.072,1.32-0.098c0.61-0.03,1.23-0.06,1.84-0.08
		c0.19-0.01,0.37-0.02,0.55-0.02c0.13,0,0.25-0.01,0.37,0c1.46-0.05,2.91-0.05,4.35-0.01c0.38,0.01,0.76,0.02,1.13,0.04
		c0.43,0.01,0.85,0.03,1.28,0.06c0.16,0.01,0.32,0.02,0.48,0.03c0.58,0.03,1.16,0.07,1.74,0.12c0.12,0.01,0.25,0.02,0.38,0.03
		c0.69,0.06,1.39,0.12,2.07,0.2c0.63,0.07,1.25,0.14,1.87,0.23c0.33,0.03,0.65,0.08,0.97,0.13c0.44,0.06,0.87,0.13,1.31,0.2
		c0.22,0.04,0.44,0.07,0.66,0.11c0.66,0.11,1.32,0.23,1.98,0.36C173.61,1.68,174.35,1.84,175.09,2z"/>
</g>
<path style="fill:#D8E0C9;" d="M175.091,2.842v-0.84c-8.988-1.993-18.481-2.555-28.215-1.423l0,0
	c-20.587,2.394-39.727,8.882-56.7,18.554v35.624C111.172,28.94,140.734,10.104,175.091,2.842z"/>
<path style="fill:#F3D75C;" d="M496.85,161.33l-0.52,6.3l-17.66,214.75c-14.83,26.1-34.13,49.33-56.85,68.66
	c-20.31,17.28-43.35,31.45-68.38,41.75c0.05,0.06,0.11,0.1,0.17,0.14c-0.06-0.04-0.12-0.09-0.17-0.13
	c-5.42,2.23-10.93,4.28-16.53,6.15c-3.6,1.2-7.24,2.32-10.91,3.36c-26.98-13.87-45.26-41.6-46.13-73.32l-9.37-341.8
	c-0.96-35.25,19.55-65.5,48.98-79.25c5.52-2.6,11.36-4.6,17.43-5.94c0.74-0.16,1.48-0.32,2.22-0.46c0.66-0.13,1.32-0.25,1.98-0.36
	c0.22-0.04,0.44-0.07,0.66-0.11c0.44-0.07,0.87-0.14,1.31-0.2c0.32-0.05,0.64-0.1,0.97-0.13c0.62-0.09,1.24-0.16,1.87-0.23
	c0.68-0.08,1.38-0.14,2.07-0.2c0.13-0.01,0.26-0.02,0.38-0.03c0.58-0.05,1.16-0.09,1.74-0.12c0.16-0.01,0.32-0.02,0.48-0.03
	c0.43-0.03,0.85-0.05,1.28-0.06c0.37-0.02,0.75-0.03,1.13-0.04c0.73-0.02,1.46-0.03,2.19-0.03c3.28,0,6.59,0.19,9.93,0.58
	c0.87,0.1,1.74,0.21,2.6,0.33c0.18,0.02,0.37,0.05,0.55,0.07c0.72,0.1,1.44,0.2,2.16,0.31c0.14,0.02,0.28,0.05,0.41,0.07
	c1.15,0.18,2.3,0.37,3.44,0.57c0.05,0.01,0.11,0.02,0.16,0.03c0.01,0,0.02,0,0.02,0.01c0.07,0.01,0.14,0.02,0.21,0.03l1.88,0.35
	c0.17,0.04,0.34,0.07,0.51,0.11h0.01l4.28,0.91c0.4,0.09,0.79,0.18,1.19,0.28l11.71,3.29c0.54,0.17,1.09,0.35,1.63,0.54
	c0.52,0.18,1.04,0.35,1.56,0.54c2.19,0.76,4.35,1.58,6.49,2.44c1.03,0.42,2.06,0.85,3.08,1.29c0.02,0.01,0.05,0.02,0.08,0.03
	c0.54,0.24,1.07,0.47,1.61,0.71c0.64,0.29,1.29,0.58,1.93,0.88c1.6,0.73,3.17,1.49,4.73,2.29c0.55,0.27,1.09,0.55,1.63,0.84
	c1.09,0.56,2.17,1.14,3.23,1.73c0.54,0.3,1.07,0.6,1.6,0.9C470.86,47.06,501.76,101.65,496.85,161.33z"/>
<path style="fill:#E8C63A;" d="M353.44,492.79c0.05,0.06,0.11,0.1,0.17,0.14c-0.06-0.04-0.12-0.09-0.17-0.13
	c-5.42,2.23-10.93,4.28-16.53,6.15c-3.6,1.2-7.24,2.32-10.91,3.36c-26.98-13.87-45.26-41.6-46.13-73.32l-9.37-341.8
	c-0.96-35.25,19.55-65.5,48.98-79.25c5.52-2.6,11.36-4.6,17.43-5.94c0.74-0.16,1.48-0.32,2.22-0.46c0.66-0.13,1.32-0.25,1.98-0.36
	c0.22-0.04,0.44-0.07,0.66-0.11c0.44-0.07,0.87-0.14,1.31-0.2c0.32-0.05,0.64-0.1,0.97-0.13c0.62-0.09,1.24-0.16,1.87-0.23
	c0.68-0.08,1.38-0.14,2.07-0.2c0.13-0.01,0.26-0.02,0.38-0.03c0.58-0.05,1.16-0.09,1.74-0.12c0.16-0.01,0.32-0.02,0.48-0.03
	c0.43-0.03,0.85-0.05,1.28-0.06c0.37-0.02,0.75-0.03,1.13-0.04c0.73-0.02,1.46-0.03,2.19-0.03c3.28,0,6.59,0.19,9.93,0.58
	c0.87,0.1,1.74,0.21,2.6,0.33c0.18,0.02,0.37,0.05,0.55,0.07c0.22,0.03,0.44,0.06,0.66,0.1c0.01-0.01,0.02,0,0.03,0
	c0.63,0.09,1.25,0.18,1.88,0.28c1.15,0.18,2.3,0.37,3.44,0.57c0.05,0.01,0.11,0.02,0.16,0.03c0.01,0,0.02,0,0.02,0.01
	c0.87,0.15,1.74,0.32,2.6,0.49c-0.48,0.12-0.96,0.24-1.43,0.37c-0.41,0.1-0.82,0.22-1.23,0.34c-0.55,0.15-1.09,0.3-1.62,0.47
	c-0.45,0.13-0.91,0.27-1.36,0.42c-1,0.32-2,0.66-2.98,1.02c-0.88,0.32-1.75,0.65-2.62,1c-1.25,0.49-2.47,1.02-3.68,1.58
	c-5.38,2.46-10.47,5.47-15.19,8.97c0,0,0-0.01-0.01,0c-3.56,2.63-6.92,5.54-10.03,8.69c-15.56,15.77-25.06,37.63-24.39,61.87
	l3.33,121.52l6.04,220.28c0.46,16.97,5.92,32.8,15.02,45.97c0.75,1.1,1.53,2.17,2.34,3.23c0.41,0.53,0.82,1.06,1.24,1.58
	c0.4,0.52,0.82,1.03,1.25,1.54s0.87,1.02,1.31,1.52s0.88,1,1.34,1.48c0.42,0.47,0.86,0.93,1.29,1.38l0.18,0.18
	c0.43,0.45,0.86,0.88,1.3,1.31c0.47,0.47,0.95,0.93,1.43,1.38c0.26,0.24,0.51,0.48,0.77,0.71c0.29,0.28,0.59,0.56,0.9,0.82
	c0.09,0.08,0.18,0.16,0.27,0.24c0.78,0.7,1.58,1.38,2.39,2.04C353.09,492.51,353.26,492.65,353.44,492.79z"/>
<path style="fill:#FFFBEB;" d="M421.82,19.13v431.91c-20.31,17.28-43.35,31.45-68.38,41.75c0.05,0.06,0.11,0.1,0.17,0.14
	c-0.06-0.04-0.12-0.09-0.17-0.13c-5.42,2.23-10.93,4.28-16.53,6.15V2c0.74-0.16,1.48-0.32,2.22-0.46c0.66-0.13,1.32-0.25,1.98-0.36
	c0.22-0.04,0.44-0.07,0.66-0.11c0.44-0.07,0.87-0.14,1.31-0.2c0.32-0.05,0.64-0.1,0.97-0.13c0.62-0.09,1.24-0.16,1.87-0.23
	c0.68-0.08,1.38-0.14,2.07-0.2c0.13-0.01,0.26-0.02,0.38-0.03c0.58-0.05,1.16-0.09,1.74-0.12c0.16-0.01,0.32-0.02,0.48-0.03
	c0.43-0.03,0.85-0.05,1.28-0.06c0.37-0.02,0.75-0.03,1.13-0.04c0.73-0.02,1.46-0.03,2.19-0.03c3.28,0,6.59,0.19,9.93,0.58
	c0.87,0.1,1.74,0.21,2.6,0.33c0.41,0.05,0.81,0.11,1.21,0.17c0.01-0.01,0.02,0,0.03,0l1.47,0.21c0.14,0.02,0.28,0.05,0.41,0.07
	c1.15,0.18,2.3,0.37,3.44,0.57c0.05,0.01,0.11,0.02,0.16,0.03c0.07,0.01,0.15,0.03,0.23,0.04l1.88,0.35
	c0.17,0.04,0.35,0.07,0.52,0.11l4.28,0.91c0.4,0.09,0.79,0.18,1.19,0.28l11.71,3.29c0.19,0.05,0.39,0.12,0.58,0.18
	c0.35,0.12,0.7,0.23,1.05,0.36c0.52,0.18,1.04,0.35,1.56,0.54c2.19,0.76,4.35,1.58,6.49,2.44c1.03,0.42,2.06,0.85,3.08,1.29
	c0.02,0.01,0.05,0.02,0.08,0.03c0.54,0.24,1.07,0.47,1.61,0.71c0.64,0.29,1.29,0.58,1.93,0.88c1.59,0.74,3.17,1.5,4.73,2.29
	c0.55,0.27,1.09,0.55,1.63,0.84c1.09,0.56,2.17,1.14,3.23,1.73C420.76,18.53,421.29,18.83,421.82,19.13z"/>
<g>
	<path style="fill:#D8E0C9;" d="M377.066,2.46c-3.922-0.778-7.903-1.411-11.942-1.88l0,0c-9.734-1.132-19.227-0.571-28.215,1.423
		v23.294C347.789,14.27,361.645,6.252,377.066,2.46z"/>
	<path style="fill:#D8E0C9;" d="M352.92,492.37c0.17,0.14,0.34,0.28,0.52,0.42v0.01c-5.42,2.23-10.93,4.28-16.53,6.15v-23.99
		c0.76,1.09,1.54,2.17,2.34,3.23c0.41,0.53,0.82,1.06,1.24,1.58c0.41,0.52,0.83,1.03,1.25,1.54c0.43,0.51,0.87,1.02,1.31,1.52
		s0.89,0.99,1.34,1.48c0.43,0.47,0.86,0.92,1.29,1.38l0.18,0.18c0.43,0.44,0.86,0.88,1.3,1.31c0.48,0.47,0.95,0.93,1.43,1.38
		c0.26,0.24,0.51,0.48,0.77,0.71c0.3,0.28,0.6,0.55,0.9,0.82c0.09,0.08,0.18,0.16,0.27,0.24
		C351.31,491.03,352.11,491.71,352.92,492.37z"/>
</g>
<g>
	<path style="fill:#39375E;" d="M59.995,378.502c-3.335,0-6.378-2.241-7.254-5.619c-0.456-1.756-11.114-43.63-7.418-97.149
		c2.181-31.58,8.955-60.622,20.134-86.319c14.061-32.323,35.131-59.365,62.624-80.374c2.34-1.788,5.511-2.042,8.106-0.646
		c1.066,0.573,26.364,14.5,48.602,54.458c12.845,23.082,22.11,50.256,27.54,80.771c6.729,37.817,7.558,80.943,2.463,128.181
		c-0.444,4.119-4.144,7.098-8.261,6.652c-4.118-0.444-7.097-4.143-6.652-8.261c11.064-102.595-8.89-164.804-27.577-198.925
		c-15.089-27.551-31.793-41.679-39.261-47.053c-43.729,35.332-68.2,86.625-72.752,152.548c-3.529,51.107,6.868,91.944,6.973,92.351
		c1.04,4.009-1.367,8.103-5.377,9.143C61.252,378.423,60.618,378.502,59.995,378.502z"/>
	<path style="fill:#39375E;" d="M132.633,122.5c-4.142,0-7.5-3.358-7.5-7.5V89.074c0-4.142,3.358-7.5,7.5-7.5s7.5,3.358,7.5,7.5V115
		C140.133,119.142,136.775,122.5,132.633,122.5z"/>
	<path style="fill:#39375E;" d="M452.005,378.502c-0.623,0-1.257-0.079-1.888-0.242c-4.009-1.04-6.415-5.13-5.378-9.139l0,0
		c0.105-0.41,10.553-41.626,6.943-92.794c-4.635-65.718-29.092-116.861-72.724-152.11c-7.45,5.361-24.163,19.489-39.26,47.054
		c-18.687,34.121-38.64,96.33-27.575,198.925c0.444,4.118-2.534,7.817-6.653,8.261c-4.113,0.444-7.816-2.534-8.261-6.652
		c-5.094-47.238-4.266-90.364,2.464-128.181c5.429-30.514,14.694-57.689,27.539-80.771c22.237-39.959,47.535-53.885,48.602-54.458
		c2.594-1.395,5.765-1.142,8.105,0.646c27.493,21.009,48.563,48.051,62.624,80.374c11.179,25.697,17.953,54.739,20.134,86.319
		c3.696,53.519-6.962,95.393-7.418,97.149C458.384,376.261,455.34,378.502,452.005,378.502z"/>
	<path style="fill:#39375E;" d="M379.366,122.5c-4.143,0-7.5-3.358-7.5-7.5V89.074c0-4.142,3.357-7.5,7.5-7.5s7.5,3.358,7.5,7.5V115
		C386.866,119.142,383.509,122.5,379.366,122.5z"/>
</g>
<g>
</g>
<g>
</g>
<g>
</g>
<g>
</g>
<g>
</g>
<g>
</g>
<g>
</g>
<g>
</g>
<g>
</g>
<g>
</g>
<g>
</g>
<g>
</g>
<g>
</g>
<g>
</g>
<g>
</g>
</svg>
