<?xml version="1.0" encoding="iso-8859-1"?>
<!-- Generator: Adobe Illustrator 19.0.0, SVG Export Plug-In . SVG Version: 6.00 Build 0)  -->
<svg version="1.1" id="Capa_1" xmlns="http://www.w3.org/2000/svg" xmlns:xlink="http://www.w3.org/1999/xlink" x="0px" y="0px"
	 viewBox="0 0 512 512" style="enable-background:new 0 0 512 512;" xml:space="preserve">
<circle style="fill:#F3D75C;" cx="256" cy="256" r="256"/>
<path style="fill:#FFFBEB;" d="M493.36,352.06c-5.25,12.97-11.54,25.41-18.75,37.22c-15.61,25.55-35.58,48.16-58.87,66.77H295.82
	c-5.14,0-9.64-3.46-10.97-8.43l-15.58-58.34l-8.25-30.92c-1.37-5.14-8.67-5.14-10.04,0l-8.25,30.92l-15.58,58.34
	c-1.33,4.97-5.83,8.43-10.97,8.43H96.26c-12.17-9.72-23.43-20.53-33.63-32.29c-9.33-10.74-17.78-22.27-25.24-34.48
	c-7.21-11.81-13.5-24.25-18.75-37.22l6.02-29.55l13.6-66.77l13.6-66.77l13.6-66.77l2.66-13.05c1.08-5.29,5.73-9.09,11.13-9.09h353.5
	c5.4,0,10.05,3.8,11.13,9.09l2.66,13.05l13.6,66.77l13.6,66.77l13.6,66.77L493.36,352.06z"/>
<path style="fill:#D8E0C9;" d="M137.85,100.06c-5.4,0-10.05,3.8-11.13,9.09l-2.66,13.05l-13.6,66.77l-13.6,66.77l-13.6,66.77
	l-13.6,66.77l-7.03,34.48c-9.33-10.74-17.78-22.27-25.24-34.48c-7.21-11.81-13.5-24.25-18.75-37.22l6.02-29.55l13.6-66.77
	l13.6-66.77l13.6-66.77l2.66-13.05c1.08-5.29,5.73-9.09,11.13-9.09H137.85z"/>
<polygon style="fill:#FFFBEB;" points="38.262,255.736 473.738,255.736 460.137,188.966 51.863,188.966 "/>
<path style="fill:#31A7AB;" d="M493.36,352.06c-5.25,12.97-11.54,25.41-18.75,37.22H269.27l-8.25-30.92
	c-1.37-5.14-8.67-5.14-10.04,0l-8.25,30.92H37.39c-7.21-11.81-13.5-24.25-18.75-37.22l6.02-29.55h462.68L493.36,352.06z"/>
<path style="fill:#269999;" d="M83.26,322.51l-13.6,66.77H37.39c-7.21-11.81-13.5-24.25-18.75-37.22l6.02-29.55H83.26z"/>
<polygon style="fill:#31A7AB;" points="38.262,255.736 473.738,255.736 460.137,188.966 51.863,188.966 "/>
<path style="fill:#39375E;" d="M447.4,122.196H64.6c-5.646,0-10.223-4.577-10.223-10.223V66.176c0-5.646,4.577-10.223,10.223-10.223
	h382.8c5.646,0,10.224,4.577,10.224,10.223v45.796C457.623,117.618,453.046,122.196,447.4,122.196z"/>
<path style="fill:#272749;" d="M98.328,111.972V66.176c0-5.646,4.577-10.223,10.224-10.223H64.6
	c-5.646,0-10.224,4.577-10.224,10.223v45.796c0,5.646,4.577,10.224,10.224,10.224h43.951
	C102.905,122.196,98.328,117.619,98.328,111.972z"/>
<polygon style="fill:#269999;" points="110.465,188.966 51.863,188.966 38.262,255.736 96.863,255.736 "/>
<g>
	<path style="fill:#272749;" d="M312.403,229.851c-4.142,0-7.5-3.358-7.5-7.5V89.074c0-4.142,3.358-7.5,7.5-7.5s7.5,3.358,7.5,7.5
		v133.277C319.903,226.493,316.545,229.851,312.403,229.851z"/>
	<path style="fill:#272749;" d="M199.597,229.851c-4.142,0-7.5-3.358-7.5-7.5V89.074c0-4.142,3.358-7.5,7.5-7.5s7.5,3.358,7.5,7.5
		v133.277C207.097,226.493,203.739,229.851,199.597,229.851z"/>
</g>
<g>
</g>
<g>
</g>
<g>
</g>
<g>
</g>
<g>
</g>
<g>
</g>
<g>
</g>
<g>
</g>
<g>
</g>
<g>
</g>
<g>
</g>
<g>
</g>
<g>
</g>
<g>
</g>
<g>
</g>
</svg>
