<?xml version="1.0" encoding="iso-8859-1"?>
<!-- Generator: Adobe Illustrator 19.0.0, SVG Export Plug-In . SVG Version: 6.00 Build 0)  -->
<svg version="1.1" id="Capa_1" xmlns="http://www.w3.org/2000/svg" xmlns:xlink="http://www.w3.org/1999/xlink" x="0px" y="0px"
	 viewBox="0 0 512 512" style="enable-background:new 0 0 512 512;" xml:space="preserve">
<circle style="fill:#39375E;" cx="256" cy="256" r="256"/>
<path style="fill:#DD544C;" d="M181.805,1.802c-30.247,32.161-157.733,182.949,20.163,270.355l94.313-47.837
	c0,0,31.438-50.469-2.939-94.572c-33.114-42.481-72.2-61.044-102.149-126.398C189.498-0.348,184.592-1.162,181.805,1.802z"/>
<path style="fill:#F3D75C;" d="M209.833,115.565c-20.149,22.455-79.413,99.861,13.744,145.631l51.816-26.282
	c0,0,17.272-27.728-1.615-51.958c-17.613-22.595-38.301-32.874-54.532-66.086C217.463,113.222,212.545,112.543,209.833,115.565z"/>
<path style="fill:#D8E0C9;" d="M326.416,248.279l-121.321,61.536c-3.949,2.003-8.774,0.425-10.777-3.523l-14.46-28.508
	c-2.003-3.949-0.425-8.774,3.523-10.777l121.321-61.536c3.949-2.003,8.774-0.425,10.777,3.523l14.46,28.508
	C331.942,241.451,330.365,246.276,326.416,248.279z"/>
<path style="fill:#C7CEB6;" d="M221.074,292.721l-14.46-28.508c-2.003-3.949-0.425-8.774,3.523-10.777l-26.755,13.571
	c-3.949,2.003-5.526,6.828-3.523,10.777l14.46,28.508c2.003,3.949,6.828,5.526,10.777,3.523l26.755-13.571
	C227.902,298.248,223.077,296.67,221.074,292.721z"/>
<path style="fill:#FFFBEB;" d="M397.89,469.11c-9.27,6.19-18.98,11.78-29.05,16.73c-9.05,4.46-18.4,8.4-28.02,11.77l-85.91-123.36
	l-2.88-4.14l16.77-8.51l9.98-5.06l20.9-10.61l47.66-24.17l1.64,4.78L397.89,469.11z"/>
<g>
	<path style="fill:#D8E0C9;" d="M368.84,485.84c-9.05,4.46-18.4,8.4-28.02,11.77l-85.91-123.36l-2.88-4.14l16.77-8.51l9.98-5.06
		l2.88,4.14L368.84,485.84z"/>
	<path style="fill:#D8E0C9;" d="M355.436,323.262l-106.983,54.264c-2.288,1.161-5.084,0.247-6.245-2.042l-5.749-11.334
		c-1.161-2.288-0.247-5.084,2.042-6.245l106.983-54.264c2.288-1.161,5.084-0.247,6.245,2.042l5.749,11.334
		C358.638,319.305,357.724,322.101,355.436,323.262z"/>
</g>
<path style="fill:#C7CEB6;" d="M268.963,361.914l-5.749-11.334c-1.161-2.288-0.247-5.084,2.042-6.245l-26.755,13.571
	c-2.288,1.161-3.202,3.957-2.042,6.245l5.749,11.334c1.161,2.288,3.957,3.202,6.245,2.042l26.755-13.571
	C272.92,365.116,270.124,364.202,268.963,361.914z"/>
<path style="fill:#FFFBEB;" d="M254.899,257.643l-85.7,43.469c-3.016,1.53-3.625,5.575-1.195,7.925l63.25,61.163
	c1.508,1.458,3.775,1.8,5.646,0.851l60.067-30.467l60.067-30.467c1.871-0.949,2.934-2.98,2.649-5.058l-11.985-87.166
	c-0.461-3.35-4.085-5.247-7.1-3.718L254.899,257.643z"/>
<path style="fill:#D8E0C9;" d="M258.01,356.629l-63.25-61.163c-2.431-2.35-1.821-6.396,1.195-7.925L169.2,301.112
	c-3.016,1.53-3.625,5.575-1.195,7.925l63.25,61.163c1.508,1.458,3.775,1.8,5.646,0.851l26.755-13.571
	C261.785,358.43,259.518,358.088,258.01,356.629z"/>
<g>
</g>
<g>
</g>
<g>
</g>
<g>
</g>
<g>
</g>
<g>
</g>
<g>
</g>
<g>
</g>
<g>
</g>
<g>
</g>
<g>
</g>
<g>
</g>
<g>
</g>
<g>
</g>
<g>
</g>
</svg>
