<?xml version="1.0" encoding="iso-8859-1"?>
<!-- Generator: Adobe Illustrator 19.0.0, SVG Export Plug-In . SVG Version: 6.00 Build 0)  -->
<svg version="1.1" id="Capa_1" xmlns="http://www.w3.org/2000/svg" xmlns:xlink="http://www.w3.org/1999/xlink" x="0px" y="0px"
	 viewBox="0 0 512 512" style="enable-background:new 0 0 512 512;" xml:space="preserve">
<circle style="fill:#31A7AB;" cx="256" cy="256" r="256"/>
<g>
	<path style="fill:#5FD3D3;" d="M294.218,239.234L294.218,239.234c0,8.284-6.716,15-15,15h-16.541c-8.284,0-15,6.716-15,15l0,0
		c0,8.284,6.716,15,15,15h170.594c8.284,0,15-6.716,15-15l0,0c0-8.284,6.716-15,15-15h16.541c8.284,0,15-6.716,15-15l0,0
		c0-8.284-6.716-15-15-15H309.218C300.934,224.234,294.218,230.95,294.218,239.234z"/>
	<path style="fill:#5FD3D3;" d="M401.261,76.229L401.261,76.229c0-8.284-6.716-15-15-15H165.667c-8.284,0-15,6.716-15,15l0,0
		c0,8.284-6.716,15-15,15H92.551c-8.284,0-15,6.716-15,15l0,0c0,8.284,6.716,15,15,15h4.978c8.284,0,15,6.716,15,15l0,0
		c0,8.284,6.716,15,15,15h224.045c8.284,0,15-6.716,15-15l0,0c0-8.284-6.716-15-15-15h-8.428c-8.284,0-15-6.716-15-15l0,0
		c0-8.284,6.716-15,15-15h43.116C394.546,91.229,401.261,84.513,401.261,76.229z"/>
</g>
<path style="fill:#272749;" d="M439.8,434.2c-33.12,34.15-75.68,59.1-123.46,70.64c-8.05,1.95-16.26,3.52-24.59,4.68
	c-0.25,0.04-0.5,0.08-0.75,0.11c-11.44,1.56-23.13,2.37-35,2.37c-22.55,0-44.43-2.91-65.26-8.4c-1.5-0.39-3-0.8-4.49-1.22
	c-70.64-19.96-128.88-69.49-160.48-134.36l36.84-109.03c1.7-4.22,5.8-6.98,10.35-6.98h22.81c4.4,0,8.38-2.58,10.2-6.59l37.26-82.6
	l0.01-0.01L212.72,8.83c1.03-2.26,2.68-4.18,4.77-5.53l0.11-0.08c0.26-0.17,0.52-0.32,0.79-0.47c2.88-1.58,6.22-1.99,9.34-1.21
	c1.24,0.31,2.45,0.8,3.58,1.49c2.09,1.26,3.77,3.09,4.86,5.27l49.09,98.17v0.01l50.62,101.25l39.42,78.84L439.8,434.2z"/>
<g>
	<path style="fill:#39375E;" d="M374.816,482.805c24.202-12.702,46.125-29.159,64.984-48.605l-64.5-147.63l-39.42-78.84
		l-50.62-101.25v-0.01L236.17,8.3c-1.09-2.18-2.77-4.01-4.86-5.27c-1.13-0.69-2.34-1.18-3.58-1.49
		c-1.372-0.343-2.785-0.442-4.184-0.327l-21.802,103.162c-2.56,12.114,0.856,24.72,9.183,33.883l54.727,60.225
		c7.947,8.745,11.442,20.652,9.482,32.305l-9.1,54.114c-1.529,9.095,0.254,18.438,5.027,26.33L374.816,482.805z"/>
	<path style="fill:#39375E;" d="M476.82,385.59c-9.74,16.57-21.3,31.94-34.38,45.85c-0.87,0.93-1.75,1.85-2.64,2.76
		c-33.12,34.15-75.68,59.1-123.46,70.64c-8.05,1.95-16.26,3.52-24.59,4.68c-0.25,0.04-0.5,0.08-0.75,0.11
		c-11.44,1.56-23.13,2.37-35,2.37c-22.55,0-44.43-2.91-65.26-8.4l56.36-116.32l88.78-179.55l19.01-36.33
		c1.43-2.75,3.73-4.55,6.29-5.41c0.33-0.1,0.65-0.2,0.97-0.27c0.13-0.03,0.27-0.06,0.41-0.08c0.11-0.03,0.21-0.05,0.32-0.06
		c0.08-0.02,0.15-0.03,0.22-0.04c0.16-0.02,0.33-0.05,0.51-0.07c0.05,0,0.11-0.01,0.16-0.01c0.08-0.01,0.16-0.02,0.24-0.02
		c0.25-0.02,0.51-0.03,0.76-0.03h0.05c0.24,0,0.48,0.01,0.72,0.03c0.19,0.01,0.38,0.03,0.57,0.05c0.08,0.01,0.17,0.02,0.25,0.04
		c3.36,0.45,6.55,2.41,8.37,5.87L476.82,385.59z"/>
</g>
<path style="fill:#272749;" d="M375.3,286.57c-1.62,2.61-3.43,5.14-5.43,7.54l-58.37,80.26c-9.29,11.18-14.7,25.06-15.43,39.56
	l-2.65,62.42l-1.67,33.17c-0.25,0.04-0.5,0.08-0.75,0.11c-11.44,1.56-23.13,2.37-35,2.37c-22.55,0-44.43-2.91-65.26-8.4
	l56.36-116.32l88.78-179.55l19.01-36.33c1.43-2.75,3.73-4.55,6.29-5.41c0.33-0.1,0.65-0.2,0.97-0.27c0.13-0.03,0.27-0.06,0.41-0.08
	c0.11-0.03,0.21-0.05,0.32-0.06c0.08-0.02,0.15-0.03,0.22-0.04c0.16-0.02,0.33-0.05,0.51-0.07c0.05,0,0.11-0.01,0.16-0.01
	c0.08-0.01,0.16-0.02,0.24-0.02c0.25-0.02,0.51-0.03,0.76-0.03h0.05c0.24,0,0.48,0.01,0.72,0.03c0.19,0.01,0.38,0.03,0.57,0.05
	c0.08,0.01,0.17,0.02,0.25,0.03v0.01l17.09,69.62C387.78,252.8,384.75,271.33,375.3,286.57z"/>
<path style="fill:#D8E0C9;" d="M272.741,144.64l24.674-13.848L236.17,8.3c-1.09-2.18-2.77-4.01-4.86-5.27
	c-1.13-0.69-2.34-1.18-3.58-1.49c-3.12-0.78-6.46-0.37-9.34,1.21c-0.27,0.15-0.53,0.3-0.79,0.47l-0.11,0.08
	c-2.09,1.35-3.74,3.27-4.77,5.53l-58.903,130.539l0,0l0,0c29.591-13.636,63.918-12.305,92.363,3.583l3.065,1.712
	C256.549,148.743,265.446,148.734,272.741,144.64z"/>
<path style="fill:#FFFBEB;" d="M225.916,1.236c-0.105-0.011-0.21-0.025-0.316-0.033c-0.317-0.023-0.635-0.034-0.953-0.034
	c-0.024,0-0.047-0.001-0.071-0.001c-0.344,0.002-0.687,0.017-1.029,0.045l0,0l-21.802,103.162
	c-1.889,8.94-0.514,18.144,3.678,26.039c14.129,1.244,28.033,5.43,40.758,12.537l3.065,1.712c7.303,4.079,16.201,4.07,23.495-0.024
	l24.674-13.847L236.17,8.3c-1.09-2.18-2.77-4.01-4.86-5.27c-1.13-0.69-2.34-1.18-3.58-1.49c-0.358-0.09-0.72-0.159-1.083-0.217
	C226.404,1.285,226.16,1.26,225.916,1.236z"/>
<g>
</g>
<g>
</g>
<g>
</g>
<g>
</g>
<g>
</g>
<g>
</g>
<g>
</g>
<g>
</g>
<g>
</g>
<g>
</g>
<g>
</g>
<g>
</g>
<g>
</g>
<g>
</g>
<g>
</g>
</svg>
