<?xml version="1.0" encoding="iso-8859-1"?>
<!-- Generator: Adobe Illustrator 19.0.0, SVG Export Plug-In . SVG Version: 6.00 Build 0)  -->
<svg version="1.1" id="Capa_1" xmlns="http://www.w3.org/2000/svg" xmlns:xlink="http://www.w3.org/1999/xlink" x="0px" y="0px"
	 viewBox="0 0 512 512" style="enable-background:new 0 0 512 512;" xml:space="preserve">
<circle style="fill:#DE66BF;" cx="256" cy="256" r="256"/>
<g>
	<circle style="fill:#D8E0C9;" cx="137.15" cy="105.64" r="9.733"/>
	<circle style="fill:#D8E0C9;" cx="166.86" cy="105.64" r="9.733"/>
	<circle style="fill:#D8E0C9;" cx="196.58" cy="105.64" r="9.733"/>
	<circle style="fill:#D8E0C9;" cx="226.29" cy="105.64" r="9.733"/>
	<circle style="fill:#D8E0C9;" cx="256" cy="105.64" r="9.733"/>
	<circle style="fill:#D8E0C9;" cx="285.71" cy="105.64" r="9.733"/>
	<circle style="fill:#D8E0C9;" cx="315.42" cy="105.64" r="9.733"/>
	<circle style="fill:#D8E0C9;" cx="345.14" cy="105.64" r="9.733"/>
	<circle style="fill:#D8E0C9;" cx="374.85" cy="105.64" r="9.733"/>
</g>
<path style="fill:#FFFBEB;" d="M390.885,133.091h-274.27c-7.322,0-13.257-5.935-13.257-13.257v-0.935
	c0-7.322,5.935-13.257,13.257-13.257h274.27c7.322,0,13.257,5.935,13.257,13.257v0.935
	C404.142,127.156,398.207,133.091,390.885,133.091z"/>
<rect x="138.5" y="398.39" style="fill:#D8E0C9;" width="230.5" height="37.18"/>
<g>
	<path style="fill:#FFFBEB;" d="M321.111,228.204l-34.195,12.359l87.605,242.388c11.026-5.77,21.579-12.319,31.587-19.576
		L321.111,228.204z"/>
	<path style="fill:#FFFBEB;" d="M105.892,463.374c10.008,7.257,20.56,13.806,31.587,19.576l87.605-242.388l-34.195-12.359
		L105.892,463.374z"/>
</g>
<path style="fill:#39375E;" d="M417.397,185.726c0,79.107-72.26,143.236-161.397,143.236S94.603,264.832,94.603,185.726v-43.599
	h322.794V185.726z"/>
<g>
	<path style="fill:#272749;" d="M124.603,185.726v-43.599h-30v43.599c0,79.107,72.26,143.236,161.397,143.236
		c5.059,0,10.06-0.217,15-0.621C188.897,321.623,124.603,260.343,124.603,185.726z"/>
	<path style="fill:#272749;" d="M94.603,185.726c0,0.918,0.02,1.832,0.039,2.747h322.716c0.019-0.914,0.039-1.828,0.039-2.747
		v-43.599H94.603V185.726z"/>
</g>
<path style="fill:#39375E;" d="M420.42,178.472H91.58c-4.827,0-8.739-3.913-8.739-8.739v-41.627c0-4.827,3.913-8.739,8.739-8.739
	h328.84c4.827,0,8.739,3.913,8.739,8.739v41.627C429.16,174.559,425.247,178.472,420.42,178.472z"/>
<g>
</g>
<g>
</g>
<g>
</g>
<g>
</g>
<g>
</g>
<g>
</g>
<g>
</g>
<g>
</g>
<g>
</g>
<g>
</g>
<g>
</g>
<g>
</g>
<g>
</g>
<g>
</g>
<g>
</g>
</svg>
