<?xml version="1.0" encoding="iso-8859-1"?>
<!-- Generator: Adobe Illustrator 19.0.0, SVG Export Plug-In . SVG Version: 6.00 Build 0)  -->
<svg version="1.1" id="Capa_1" xmlns="http://www.w3.org/2000/svg" xmlns:xlink="http://www.w3.org/1999/xlink" x="0px" y="0px"
	 viewBox="0 0 512 512" style="enable-background:new 0 0 512 512;" xml:space="preserve">
<circle style="fill:#DD544C;" cx="256" cy="256" r="256"/>
<path style="fill:#F3D75C;" d="M480.6,322.15v56.78c-2.54,4.65-5.23,9.21-8.06,13.67c-2.65,4.2-5.42,8.31-8.31,12.34H47.77
	c-5.54-7.73-10.66-15.78-15.33-24.12V103.05h208.4l9.92,43.05l2.6,11.27l3.97,17.21l3.04,13.19c0.27,1.18,0.57,2.34,0.91,3.49
	c2.75,9.56,7.55,18.14,13.85,25.31c6.23,7.09,13.93,12.79,22.56,16.69c8.34,3.75,17.55,5.82,27.16,5.82h72.68
	C443.41,239.08,480.6,276.27,480.6,322.15z"/>
<path style="fill:#E8C63A;" d="M480.6,327.6v51.33c-2.54,4.65-5.23,9.21-8.06,13.67c-2.65,4.2-5.42,8.31-8.31,12.34H47.77
	c-5.54-7.73-10.66-15.78-15.33-24.12V103.05h208.4l9.92,43.05l2.6,11.27H54v178.17c0,7.52,6.09,13.62,13.62,13.62h105.92
	c10.51,0,20.37,5.08,26.47,13.63l0.92,1.28c4.33,6.07,11.32,9.67,18.78,9.67h167.56c12.74,0,23.07-10.33,23.07-23.07
	s10.33-23.07,23.07-23.07H480.6z"/>
<path style="fill:#272749;" d="M472.54,392.6c-2.65,4.2-5.42,8.31-8.31,12.34c-2.22,3.1-4.51,6.15-6.86,9.15
	c-10.9,13.86-23.2,26.57-36.69,37.91h-86.83c-2.64,0-5.09-1.38-6.45-3.65l-6.96-11.56c-1.36-2.27-3.81-3.65-6.45-3.65h-42.38
	c-2.65,0-5.09,1.38-6.46,3.65l-6.95,11.56c-1.37,2.27-3.82,3.65-6.46,3.65h-65.08c-2.64,0-5.09-1.38-6.45-3.65l-6.96-11.56
	c-1.36-2.27-3.81-3.65-6.45-3.65h-42.38c-2.64,0-5.09,1.38-6.46,3.65l-6.95,11.56c-1.37,2.27-3.81,3.65-6.46,3.65H91.32
	c-13.49-11.34-25.79-24.05-36.69-37.91c-2.35-3-4.64-6.05-6.86-9.15c-5.54-7.73-10.66-15.78-15.33-24.12
	c-1.22-2.19-2.42-4.4-3.57-6.63c0.79-0.3,1.64-0.45,2.53-0.45h148.81c2.64,0,5.09,1.38,6.45,3.65l6.96,11.56
	c1.36,2.26,3.81,3.65,6.45,3.65L472.54,392.6L472.54,392.6z"/>
<path style="fill:#F3D75C;" d="M255.801,146.104H32.579c-4.81,0-8.71-3.9-8.71-8.71V68.71c0-4.81,3.9-8.71,8.71-8.71h223.222
	c4.81,0,8.71,3.9,8.71,8.71v68.684C264.511,142.205,260.612,146.104,255.801,146.104z"/>
<path style="fill:#39375E;" d="M472.54,392.6c-2.65,4.2-5.42,8.31-8.31,12.34c-2.22,3.1-4.51,6.15-6.86,9.15H54.63
	c-2.35-3-4.64-6.05-6.86-9.15c-5.54-7.73-10.66-15.78-15.33-24.12c-1.22-2.19-2.42-4.4-3.57-6.63c0.79-0.3,1.64-0.45,2.53-0.45
	h148.81c2.64,0,5.09,1.38,6.45,3.65l6.96,11.56c1.36,2.26,3.81,3.65,6.45,3.65L472.54,392.6L472.54,392.6z"/>
<path style="fill:#E8C63A;" d="M212.735,116.517H23.869V92.686h188.866c6.581,0,11.916,5.335,11.916,11.916l0,0
	C224.651,111.182,219.316,116.517,212.735,116.517z"/>
<path style="fill:#272749;" d="M258.837,191.606h-60.886v-17.023h60.886c4.701,0,8.511,3.811,8.511,8.511l0,0
	C267.348,187.796,263.538,191.606,258.837,191.606z"/>
<circle style="fill:#39375E;" cx="197.95" cy="183.09" r="16.266"/>
<path style="fill:#272749;" d="M295.299,233.596h-60.886v-17.023h60.886c4.701,0,8.511,3.811,8.511,8.511l0,0
	C303.81,229.785,300,233.596,295.299,233.596z"/>
<circle style="fill:#39375E;" cx="234.41" cy="225.08" r="16.266"/>
<g>
	<path style="fill:#272749;" d="M229.495,225.084c0-6.985,4.411-12.923,10.592-15.228c-1.769-0.66-3.675-1.038-5.674-1.038
		c-8.983,0-16.266,7.283-16.266,16.266s7.283,16.266,16.266,16.266c1.999,0,3.905-0.378,5.674-1.038
		C233.906,238.008,229.495,232.069,229.495,225.084z"/>
	<path style="fill:#272749;" d="M193.033,183.095c0-6.985,4.411-12.923,10.592-15.228c-1.769-0.66-3.675-1.038-5.674-1.038
		c-8.983,0-16.266,7.283-16.266,16.266s7.283,16.266,16.266,16.266c1.999,0,3.905-0.378,5.674-1.038
		C197.444,196.018,193.033,190.08,193.033,183.095z"/>
</g>
<g>
</g>
<g>
</g>
<g>
</g>
<g>
</g>
<g>
</g>
<g>
</g>
<g>
</g>
<g>
</g>
<g>
</g>
<g>
</g>
<g>
</g>
<g>
</g>
<g>
</g>
<g>
</g>
<g>
</g>
</svg>
