<?xml version="1.0" encoding="iso-8859-1"?>
<!-- Generator: Adobe Illustrator 19.0.0, SVG Export Plug-In . SVG Version: 6.00 Build 0)  -->
<svg version="1.1" id="Capa_1" xmlns="http://www.w3.org/2000/svg" xmlns:xlink="http://www.w3.org/1999/xlink" x="0px" y="0px"
	 viewBox="0 0 512 512" style="enable-background:new 0 0 512 512;" xml:space="preserve">
<circle style="fill:#DE66BF;" cx="256" cy="256" r="256"/>
<g>
	<path style="fill:#F291DD;" d="M269.086,246.3L269.086,246.3c0,8.284-6.716,15-15,15h-16.541c-8.284,0-15,6.716-15,15l0,0
		c0,8.284,6.716,15,15,15h170.594c8.284,0,15-6.716,15-15l0,0c0-8.284,6.716-15,15-15h16.541c8.284,0,15-6.716,15-15l0,0
		c0-8.284-6.716-15-15-15H284.086C275.801,231.3,269.086,238.016,269.086,246.3z"/>
	<path style="fill:#F291DD;" d="M346.112,122.668L346.112,122.668c0-8.284-6.716-15-15-15H160.518c-8.284,0-15,6.716-15,15l0,0
		c0,8.284-6.716,15-15,15H87.402c-8.284,0-15,6.716-15,15l0,0c0,8.284,6.716,15,15,15h4.978c8.284,0,15,6.716,15,15l0,0
		c0,8.284,6.716,15,15,15h174.045c8.284,0,15-6.716,15-15l0,0c0-8.284-6.716-15-15-15h-8.428c-8.284,0-15-6.716-15-15l0,0
		c0-8.284,6.716-15,15-15h43.116C339.396,137.668,346.112,130.953,346.112,122.668z"/>
</g>
<path style="fill:#D8E0C9;" d="M377,299L262.364,48.274L254.722,10L111.087,334.726c-0.61,1.378,0.479,2.907,1.981,2.78
	l141.653-11.939L377,299z"/>
<path style="fill:#C7CEB6;" d="M167.5,332.919l87.222-7.351L377,299L262.364,48.274C262.364,48.274,268,229.504,167.5,332.919z"/>
<path style="fill:#39375E;" d="M256,0L256,0c-4.142,0-7.5,3.358-7.5,7.5v355.05c0,4.142,3.358,7.5,7.5,7.5l0,0
	c4.142,0,7.5-3.358,7.5-7.5V7.5C263.5,3.358,260.142,0,256,0z"/>
<path style="fill:#272749;" d="M256,370.05c4.142,0,7.5-3.358,7.5-7.5V48.047l-1.136,0.227c0,0,1.733,55.738-13.864,123.03V362.55
	C248.5,366.692,251.858,370.05,256,370.05z"/>
<path style="fill:#31A7AB;" d="M65.503,427c46.865,52.174,114.844,85,190.497,85s143.632-32.826,190.497-85H65.503z"/>
<path style="fill:#39375E;" d="M512,334.57l-3.98,7.92l-5.4,10.74l-29.78,59.24c-6.1,12.14-18.33,19.96-31.84,20.48
	c-0.47,0.02-0.95,0.03-1.43,0.03H71.03C57.98,419.34,46.42,404.26,36.62,388c-1.91-3.16-3.75-6.37-5.52-9.62
	c-1.23-2.24-2.42-4.51-3.57-6.79l471.87-36.06L512,334.57z"/>
<path style="fill:#272749;" d="M512,334.57l-3.98,7.92l-5.4,10.74l-10.05,0.75L36.62,388c-1.91-3.16-3.75-6.37-5.52-9.62
	c-1.23-2.24-2.42-4.51-3.57-6.79l471.87-36.06L512,334.57z"/>
<path style="fill:#F3D75C;" d="M512,332.44v4.14c0,2.66-1.63,4.96-3.98,5.91c-0.6,0.25-1.24,0.4-1.92,0.45l-9.51,0.71L31.1,378.38
	c-1.23-2.24-2.42-4.51-3.57-6.79c-1.6-3.14-3.13-6.32-4.59-9.53l479.29-35.76l2.92-0.22C508.85,325.8,512,328.73,512,332.44z"/>
<path style="fill:#FFFBEB;" d="M263.687,47.682l148.751,252.675c1.841,3.127,0.604,7.176-2.687,8.704
	c-20.083,9.33-92.024,34.414-238.437,24.118c-1.808-0.127-2.479-2.434-1.026-3.517c24.63-18.341,143.176-116.914,92.075-281.388
	C262.105,47.443,263.245,46.931,263.687,47.682z"/>
<g>
</g>
<g>
</g>
<g>
</g>
<g>
</g>
<g>
</g>
<g>
</g>
<g>
</g>
<g>
</g>
<g>
</g>
<g>
</g>
<g>
</g>
<g>
</g>
<g>
</g>
<g>
</g>
<g>
</g>
</svg>
