<?xml version="1.0" encoding="iso-8859-1"?>
<!-- Generator: Adobe Illustrator 19.0.0, SVG Export Plug-In . SVG Version: 6.00 Build 0)  -->
<svg version="1.1" id="Capa_1" xmlns="http://www.w3.org/2000/svg" xmlns:xlink="http://www.w3.org/1999/xlink" x="0px" y="0px"
	 viewBox="0 0 512 512" style="enable-background:new 0 0 512 512;" xml:space="preserve">
<circle style="fill:#39375E;" cx="256" cy="256" r="256"/>
<path style="fill:#70D587;" d="M65.503,427c46.865,52.174,114.844,85,190.497,85s143.632-32.826,190.497-85H65.503z"/>
<path style="fill:#DD544C;" d="M426.171,249.533L383.357,138.74H231.13c-3.386,0-6.13,2.744-6.13,6.13v250.56h268.65V378v-71.563
	c0-5.28-2.605-10.22-6.962-13.203l-56.6-38.752C428.312,253.266,426.946,251.54,426.171,249.533z"/>
<path style="fill:#FFFBEB;" d="M450.93,93.3v34.81c0,5.87-4.76,10.63-10.63,10.63H231.13c-3.39,0-6.13,2.74-6.13,6.13v250.56H41.27
	c-3.68-5.66-7.15-11.47-10.38-17.43c-1.42-2.62-2.8-5.27-4.14-7.95c-8.74-17.53-15.53-36.22-20.08-55.76
	c-3.47-14.87-5.63-30.24-6.38-45.98C0.1,264.23,0,260.13,0,256c0-1.13,0.01-2.25,0.02-3.38c0.45-34.78,7.84-67.89,20.85-98
	c2.32-5.4,4.83-10.69,7.51-15.88c2.05-3.98,4.2-7.89,6.46-11.74c22.2-38,53.92-69.75,91.89-92h265.9c31.07,0,56.46,24.3,58.2,54.94
	C450.9,91.05,450.93,92.17,450.93,93.3z"/>
<path style="fill:#F3D75C;" d="M406.97,291.3c0,6.35-2.57,12.1-6.74,16.26c-4.16,4.16-9.91,6.73-16.25,6.73H6.67
	c-3.47-14.87-5.63-30.24-6.38-45.98h383.69C396.67,268.31,406.97,278.6,406.97,291.3z"/>
<polygon style="fill:#C63B38;" points="225,370.05 225,395.43 493.65,395.43 493.65,378 493.65,370.05 "/>
<path style="fill:#D8E0C9;" d="M225,370.05v25.38H41.27c-3.68-5.66-7.15-11.47-10.38-17.43c-1.42-2.62-2.8-5.27-4.14-7.95H225z"/>
<path style="fill:#DD544C;" d="M504.05,383.68v20.27c0,3.14-2.31,5.69-5.17,5.69H51.22c-2.32-3.08-4.56-6.21-6.74-9.4
	c-1.09-1.59-2.16-3.19-3.21-4.81c-3.68-5.66-7.15-11.47-10.38-17.43h467.99C501.74,378,504.05,380.54,504.05,383.68z"/>
<path style="fill:#C63B38;" d="M512,406.14v22.24c0,3.25-2.39,5.9-5.36,5.9H72.28c-7.53-7.76-14.56-15.99-21.06-24.64
	c-2.32-3.08-4.56-6.21-6.74-9.4h462.16C509.61,400.24,512,402.88,512,406.14z"/>
<circle style="fill:#39375E;" cx="378.4" cy="426.95" r="66.16"/>
<path style="fill:#272749;" d="M389.188,482.311c-36.536,0-66.155-29.619-66.155-66.155c0-15.518,5.357-29.777,14.304-41.06
	c-15.282,12.118-25.095,30.833-25.095,51.851c0,36.536,29.619,66.155,66.155,66.155c21.018,0,39.733-9.813,51.851-25.095
	C418.964,476.954,404.706,482.311,389.188,482.311z"/>
<circle style="fill:#C7CEB6;" cx="378.4" cy="426.95" r="35.04"/>
<path style="fill:#FFFBEB;" d="M378.431,410.263c-0.023,0-0.046,0-0.069,0c-2.234,0.005-4.3-1.183-5.421-3.115l-7.419-12.792
	c-4.334,1.709-8.398,4.31-11.902,7.815s-6.105,7.568-7.815,11.902l12.792,7.419c1.933,1.121,3.12,3.187,3.115,5.421
	c0,0.023,0,0.046,0,0.069c0.005,2.235-1.183,4.3-3.116,5.421l-12.791,7.419c1.709,4.334,4.31,8.398,7.815,11.902
	s7.568,6.105,11.902,7.815l7.419-12.791c1.121-1.933,3.187-3.12,5.421-3.116c0.023,0,0.046,0,0.069,0
	c2.235-0.005,4.3,1.183,5.421,3.116l7.419,12.791c4.334-1.709,8.398-4.31,11.902-7.815s6.105-7.568,7.815-11.902l-12.791-7.419
	c-1.933-1.121-3.12-3.187-3.116-5.421c0-0.023,0-0.046,0-0.069c-0.005-2.235,1.183-4.3,3.116-5.421l12.791-7.419
	c-1.709-4.334-4.31-8.398-7.815-11.902s-7.568-6.105-11.902-7.815l-7.419,12.791C382.731,409.08,380.666,410.267,378.431,410.263z"
	/>
<circle style="fill:#D8E0C9;" cx="378.4" cy="426.95" r="22.962"/>
<circle style="fill:#FFFBEB;" cx="378.4" cy="426.95" r="12.531"/>
<path style="fill:#39375E;" d="M264.182,252.615h140.96c1.281,0,2.162-1.286,1.701-2.48l-35.161-90.99
	c-1.054-2.728-3.677-4.526-6.602-4.526H264.182c-3.909,0-7.077,3.169-7.077,7.077v83.841
	C257.105,249.446,260.274,252.615,264.182,252.615z"/>
<path style="fill:#272749;" d="M277.105,245.538v-83.841c0-3.909,3.169-7.077,7.077-7.077h-20c-3.909,0-7.077,3.169-7.077,7.077
	v83.841c0,3.909,3.169,7.077,7.077,7.077h20C280.274,252.615,277.105,249.446,277.105,245.538z"/>
<path style="fill:#39375E;" d="M94.707,252.615h101.32c3.909,0,7.077-3.169,7.077-7.077v-83.841c0-3.909-3.169-7.077-7.077-7.077
	H94.707c-3.909,0-7.077,3.169-7.077,7.077v83.841C87.63,249.446,90.799,252.615,94.707,252.615z"/>
<path style="fill:#272749;" d="M107.63,245.538v-83.841c0-3.909,3.169-7.077,7.077-7.077h-20c-3.909,0-7.077,3.169-7.077,7.077
	v83.841c0,3.909,3.169,7.077,7.077,7.077h20C110.799,252.615,107.63,249.446,107.63,245.538z"/>
<g>
	<path style="fill:#39375E;" d="M72.63,161.7v83.84c0,3.91-3.17,7.08-7.08,7.08H0.02c0.45-34.78,7.84-67.89,20.85-98h44.68
		C69.46,154.62,72.63,157.79,72.63,161.7z"/>
	<path style="fill:#39375E;" d="M298.338,296.219h-24.106c-7.513,0-13.603-6.09-13.603-13.603l0,0c0-2.378,1.928-4.305,4.305-4.305
		h42.701c2.378,0,4.305,1.928,4.305,4.305l0,0C311.941,290.129,305.85,296.219,298.338,296.219z"/>
</g>
<path style="fill:#272749;" d="M276.977,282.616L276.977,282.616c0-2.378,1.928-4.305,4.305-4.305h-16.348
	c-2.378,0-4.305,1.928-4.305,4.305l0,0c0,7.513,6.09,13.603,13.603,13.603h16.348C283.067,296.219,276.977,290.129,276.977,282.616z
	"/>
<path style="fill:#39375E;" d="M125.339,296.219h-24.106c-7.513,0-13.603-6.09-13.603-13.603l0,0c0-2.378,1.928-4.305,4.305-4.305
	h42.701c2.378,0,4.305,1.928,4.305,4.305l0,0C138.942,290.129,132.852,296.219,125.339,296.219z"/>
<path style="fill:#272749;" d="M103.978,282.616L103.978,282.616c0-2.378,1.928-4.305,4.305-4.305H91.935
	c-2.378,0-4.305,1.928-4.305,4.305l0,0c0,7.513,6.09,13.603,13.603,13.603h16.348C110.069,296.219,103.978,290.129,103.978,282.616z
	"/>
<path style="fill:#F3D75C;" d="M471.265,357.464h22.385v-31.896h-50.46c-2.161,0-3.688,2.118-3.004,4.168l2.337,7.012
	C446.647,349.119,458.225,357.464,471.265,357.464z"/>
<path style="fill:#E8C63A;" d="M463.788,336.748l-2.337-7.012c-0.684-2.051,0.843-4.168,3.004-4.168H443.19
	c-2.162,0-3.688,2.118-3.004,4.168l2.337,7.012c4.124,12.371,15.701,20.716,28.742,20.716h21.264
	C479.489,357.464,467.912,349.119,463.788,336.748z"/>
<path style="fill:#D8E0C9;" d="M450.93,127v1.11c0,5.87-4.76,10.63-10.63,10.63H28.38c2.05-3.98,4.2-7.89,6.46-11.74
	C34.84,127,450.93,127,450.93,127z"/>
<g>
</g>
<g>
</g>
<g>
</g>
<g>
</g>
<g>
</g>
<g>
</g>
<g>
</g>
<g>
</g>
<g>
</g>
<g>
</g>
<g>
</g>
<g>
</g>
<g>
</g>
<g>
</g>
<g>
</g>
</svg>
