<?xml version="1.0" encoding="iso-8859-1"?>
<!-- Generator: Adobe Illustrator 19.0.0, SVG Export Plug-In . SVG Version: 6.00 Build 0)  -->
<svg version="1.1" id="Capa_1" xmlns="http://www.w3.org/2000/svg" xmlns:xlink="http://www.w3.org/1999/xlink" x="0px" y="0px"
	 viewBox="0 0 512 512" style="enable-background:new 0 0 512 512;" xml:space="preserve">
<circle style="fill:#70D587;" cx="256" cy="256" r="256"/>
<path style="fill:#D8E0C9;" d="M65.503,427c46.865,52.174,114.844,85,190.497,85s143.632-32.826,190.497-85H65.503z"/>
<path style="fill:#269999;" d="M471.2,100.31l-0.27,9.92H45.54c2.32-3.37,4.74-6.68,7.23-9.92c1.89-2.47,3.84-4.91,5.82-7.31
	c2.25-2.72,4.55-5.38,6.9-8c2.86-3.19,5.79-6.3,8.81-9.33c2.95-2.97,5.96-5.86,9.05-8.68h334.78c4.03,0,7.99,0.41,11.83,1.21
	C447.74,71.83,463.12,83.56,471.2,100.31z"/>
<path style="fill:#31A7AB;" d="M497.74,126.85v281.79H50.48c-0.83-1.11-1.65-2.22-2.45-3.34c-3.63-5.04-7.07-10.22-10.33-15.52
	c-0.7-1.13-1.39-2.27-2.06-3.42c-2.06-3.47-4.04-7-5.94-10.58c-1.01-1.89-1.99-3.81-2.95-5.73c-0.72-1.45-1.43-2.91-2.12-4.38
	c-0.51-1.04-0.99-2.09-1.47-3.14c-2.68-5.82-5.13-11.77-7.36-17.82c-1.22-3.28-2.37-6.6-3.45-9.95c-1.12-3.46-2.17-6.95-3.14-10.47
	c-3.4-12.3-5.9-24.98-7.43-37.96c-0.32-2.72-0.6-5.45-0.84-8.19c-0.36-4.2-0.61-8.43-0.76-12.68C0.06,262.32,0,259.17,0,256
	c0-4.38,0.11-8.74,0.33-13.07c0.2-4.01,0.49-7.98,0.88-11.93c3.97-41.03,17.63-79.21,38.67-112.26c1.82-2.88,3.71-5.72,5.66-8.51
	c2.32-3.37,4.74-6.68,7.23-9.92H471.2C485.87,100.31,497.74,112.19,497.74,126.85z"/>
<path style="fill:#269999;" d="M497.74,375.78v32.86H50.48c-0.83-1.11-1.65-2.22-2.45-3.34c-3.63-5.04-7.07-10.22-10.33-15.52
	c-0.7-1.13-1.39-2.27-2.06-3.42c-2.06-3.47-4.04-7-5.94-10.58L497.74,375.78L497.74,375.78z"/>
<path style="fill:#31A7AB;" d="M504.56,391.2v17.25c0,2.68-2.17,4.85-4.84,4.85H54.02c-1.2-1.54-2.39-3.09-3.54-4.66
	c-0.83-1.11-1.65-2.22-2.45-3.34c-3.63-5.04-7.07-10.22-10.33-15.52c-0.7-1.13-1.39-2.27-2.06-3.42h464.08
	C502.39,386.36,504.56,388.53,504.56,391.2z"/>
<path style="fill:#1A7C79;" d="M512,410.32v18.94c0,2.76-2.24,5.02-5.02,5.02H72.28c-1.55-1.6-3.07-3.21-4.57-4.85
	c-0.74-0.8-1.48-1.61-2.21-2.43c-3.99-4.43-7.82-9-11.48-13.7c-1.2-1.54-2.39-3.09-3.54-4.66c-0.83-1.11-1.65-2.22-2.45-3.34h458.95
	C509.76,405.3,512,407.55,512,410.32z"/>
<path style="fill:#F3D75C;" d="M475.36,366.464h22.385v-31.896h-50.46c-2.161,0-3.688,2.118-3.004,4.168l2.337,7.012
	C450.742,358.119,462.319,366.464,475.36,366.464z"/>
<path style="fill:#E8C63A;" d="M467.882,345.748l-2.337-7.012c-0.684-2.051,0.843-4.168,3.004-4.168h-21.264
	c-2.162,0-3.688,2.118-3.004,4.168l2.337,7.012c4.124,12.371,15.701,20.716,28.742,20.716h21.264
	C483.584,366.464,472.006,358.119,467.882,345.748z"/>
<path style="fill:#39375E;" d="M415.685,305.861c-17.962,0-32.522-14.561-32.522-32.522V122.192c0-1.909,1.548-3.457,3.457-3.457
	h85.246c1.909,0,3.457,1.548,3.457,3.457v180.212c0,1.909-1.548,3.457-3.457,3.457H415.685z"/>
<path style="fill:#272749;" d="M404.427,273.338V122.192c0-1.909,1.548-3.457,3.457-3.457H386.62c-1.909,0-3.457,1.548-3.457,3.457
	v151.146c0,17.962,14.561,32.522,32.522,32.522h21.264C418.988,305.861,404.427,291.3,404.427,273.338z"/>
<circle style="fill:#39375E;" cx="381.28" cy="427.92" r="65.18"/>
<path style="fill:#272749;" d="M391.91,482.47c-35.998,0-65.18-29.182-65.18-65.18c0-15.289,5.278-29.338,14.093-40.454
	c-15.057,11.939-24.725,30.378-24.725,51.086c0,35.998,29.182,65.18,65.18,65.18c20.708,0,39.147-9.669,51.086-24.725
	C421.247,477.192,407.199,482.47,391.91,482.47z"/>
<circle style="fill:#C7CEB6;" cx="381.28" cy="427.92" r="34.523"/>
<g>
	<path style="fill:#39375E;" d="M114.745,265.459h95.805c3.431,0,6.212-2.781,6.212-6.212V124.948c0-3.431-2.781-6.212-6.212-6.212
		h-95.805c-3.431,0-6.212,2.781-6.212,6.212v134.299C108.533,262.678,111.315,265.459,114.745,265.459z"/>
	<path style="fill:#39375E;" d="M92.58,124.94v134.31c0,3.42-2.78,6.21-6.2,6.21H0.18C0.06,262.32,0,259.17,0,256
		c0-4.38,0.11-8.74,0.33-13.07c0.2-4.01,0.49-7.98,0.88-11.93c3.97-41.03,17.63-79.21,38.67-112.26h46.5
		C89.8,118.74,92.58,121.52,92.58,124.94z"/>
	<path style="fill:#39375E;" d="M232.71,124.948v134.299c0,3.431,2.781,6.212,6.212,6.212h95.805c3.431,0,6.212-2.781,6.212-6.212
		V124.948c0-3.431-2.781-6.212-6.212-6.212h-95.805C235.492,118.736,232.71,121.517,232.71,124.948z"/>
</g>
<g>
	<path style="fill:#272749;" d="M129.798,259.247V124.948c0-3.431,2.781-6.212,6.212-6.212h-21.264
		c-3.431,0-6.212,2.781-6.212,6.212v134.299c0,3.431,2.781,6.212,6.212,6.212h21.264
		C132.579,265.459,129.798,262.678,129.798,259.247z"/>
	<path style="fill:#272749;" d="M253.975,259.247V124.948c0-3.431,2.781-6.212,6.212-6.212h-21.264
		c-3.431,0-6.212,2.781-6.212,6.212v134.299c0,3.431,2.781,6.212,6.212,6.212h21.264
		C256.756,265.459,253.975,262.678,253.975,259.247z"/>
</g>
<path style="fill:#FFFBEB;" d="M381.312,411.484c-0.023,0-0.046,0-0.068,0c-2.202,0.005-4.237-1.165-5.341-3.07l-7.309-12.603
	c-4.27,1.684-8.274,4.247-11.727,7.699c-3.453,3.453-6.015,7.457-7.699,11.727l12.603,7.309c1.904,1.104,3.074,3.14,3.07,5.341
	c0,0.023,0,0.046,0,0.068c0.005,2.202-1.165,4.237-3.07,5.341l-12.603,7.309c1.684,4.27,4.247,8.274,7.699,11.727
	c3.453,3.453,7.457,6.015,11.727,7.699l7.309-12.603c1.105-1.905,3.14-3.074,5.341-3.07c0.023,0,0.045,0,0.068,0
	c2.202-0.005,4.237,1.165,5.341,3.07l7.309,12.603c4.27-1.684,8.274-4.247,11.727-7.699c3.453-3.453,6.015-7.457,7.699-11.727
	l-12.603-7.309c-1.905-1.105-3.074-3.14-3.07-5.341c0-0.023,0-0.045,0-0.068c-0.004-2.202,1.165-4.237,3.07-5.341l12.603-7.309
	c-1.684-4.27-4.247-8.274-7.699-11.727c-3.453-3.453-7.457-6.015-11.727-7.699l-7.309,12.603
	C385.548,410.319,383.513,411.489,381.312,411.484z"/>
<circle style="fill:#D8E0C9;" cx="381.28" cy="427.92" r="22.624"/>
<circle style="fill:#FFFBEB;" cx="381.28" cy="427.92" r="12.346"/>
<path style="fill:#F3D75C;" d="M322.464,305.861H4.855c1.229,6.229,2.682,12.375,4.355,18.429c0.97,3.52,2.02,7.01,3.14,10.47
	c0.873,2.707,1.804,5.388,2.768,8.051h307.346c10.204,0,18.475-8.272,18.475-18.475l0,0
	C340.939,314.132,332.667,305.861,322.464,305.861z"/>
<g>
</g>
<g>
</g>
<g>
</g>
<g>
</g>
<g>
</g>
<g>
</g>
<g>
</g>
<g>
</g>
<g>
</g>
<g>
</g>
<g>
</g>
<g>
</g>
<g>
</g>
<g>
</g>
<g>
</g>
</svg>
