<?xml version="1.0" encoding="iso-8859-1"?>
<!-- Generator: Adobe Illustrator 19.0.0, SVG Export Plug-In . SVG Version: 6.00 Build 0)  -->
<svg version="1.1" id="Capa_1" xmlns="http://www.w3.org/2000/svg" xmlns:xlink="http://www.w3.org/1999/xlink" x="0px" y="0px"
	 viewBox="0 0 512 512" style="enable-background:new 0 0 512 512;" xml:space="preserve">
<circle style="fill:#31A7AB;" cx="256" cy="256" r="256"/>
<g>
	<path style="fill:#5FD3D3;" d="M464.18,295.046L464.18,295.046c0-8.284-6.716-15-15-15H278.586c-8.284,0-15,6.716-15,15l0,0
		c0,8.284-6.716,15-15,15H205.47c-8.284,0-15,6.716-15,15l0,0c0,8.284,6.716,15,15,15h4.978c8.284,0,15,6.716,15,15l0,0
		c0,8.284,6.716,15,15,15h174.045c8.284,0,15-6.716,15-15l0,0c0-8.284-6.716-15-15-15h-8.428c-8.284,0-15-6.716-15-15l0,0
		c0-8.284,6.716-15,15-15h43.116C457.464,310.046,464.18,303.33,464.18,295.046z"/>
	<path style="fill:#5FD3D3;" d="M70.612,211L70.612,211c0,8.284-6.716,15-15,15H39.071c-8.284,0-15,6.716-15,15l0,0
		c0,8.284,6.716,15,15,15h170.594c8.284,0,15-6.716,15-15l0,0c0-8.284,6.716-15,15-15h16.541c8.284,0,15-6.716,15-15l0,0
		c0-8.284-6.716-15-15-15H85.612C77.328,196,70.612,202.716,70.612,211z"/>
</g>
<g>
	<path style="fill:#272749;" d="M232.321,459.73c-3.669,0-6.876-2.695-7.414-6.433l-7.908-54.948c-0.59-4.1,2.255-7.902,6.355-8.492
		c4.098-0.594,7.902,2.255,8.492,6.355l7.908,54.948c0.59,4.1-2.255,7.902-6.355,8.492
		C233.036,459.705,232.676,459.73,232.321,459.73z"/>
	<path style="fill:#272749;" d="M279.679,459.73c-0.355,0-0.715-0.025-1.078-0.078c-4.1-0.59-6.945-4.392-6.355-8.492l7.908-54.948
		c0.59-4.099,4.389-6.944,8.492-6.355c4.1,0.59,6.945,4.392,6.355,8.492l-7.908,54.948
		C286.556,457.035,283.348,459.73,279.679,459.73z"/>
</g>
<path style="fill:#FFFBEB;" d="M407.198,240.096c9.512-19.207,15.732-41.227,16.369-67.918c0.04-1.511,0.063-3.027,0.063-4.548
	C423.631,75.051,348.58,0,256,0S88.369,75.051,88.369,167.631c0,1.521,0.023,3.036,0.063,4.548
	c0.637,26.691,6.857,48.71,16.369,67.917c6.009,12.515,13.529,24.165,22.318,34.722c32.136,40.91,75.375,71.92,93.441,122.464H256
	h35.439c18.066-50.543,61.305-81.554,93.441-122.464C393.669,264.261,401.189,252.611,407.198,240.096z"/>
<path style="fill:#D8E0C9;" d="M128.951,159.273c0-56.693,22.901-108.035,59.95-145.291
	C129.725,39.861,88.369,98.912,88.369,167.631c0,1.521,0.023,3.036,0.063,4.548c0.637,26.691,6.857,48.71,16.369,67.917
	c6.009,12.515,13.529,24.165,22.318,34.722c32.136,40.91,75.375,71.92,93.441,122.464H256h35.439
	c4.369-12.224,10.22-23.298,17.021-33.653C207.198,350.604,128.951,264.078,128.951,159.273z"/>
<path style="fill:#DD544C;" d="M353.739,240.096c6.149-19.207,10.17-41.227,10.582-67.918c0.026-1.511,0.041-3.027,0.041-4.548
	C364.361,75.051,315.846,0,256,0S147.639,75.051,147.639,167.631c0,1.521,0.015,3.036,0.041,4.548
	c0.412,26.691,4.433,48.71,10.581,67.917c3.884,12.515,8.746,24.165,14.427,34.722c20.774,40.91,48.725,71.92,60.403,122.464H256
	h22.909c11.678-50.543,39.629-81.554,60.403-122.464C344.993,264.261,349.854,252.611,353.739,240.096z"/>
<path style="fill:#C63B38;" d="M190.47,306.114c16.794,27.619,34.07,54.157,42.621,91.166H256h22.909
	c3.098-13.406,7.347-25.429,12.297-36.636C252.436,352.252,217.735,332.954,190.47,306.114z"/>
<path style="fill:#FFFBEB;" d="M288.808,240.096c2.064-19.207,3.414-41.227,3.552-67.918c0.009-1.511,0.014-3.027,0.014-4.548
	C292.373,75.051,276.089,0,256,0s-36.373,75.051-36.373,167.631c0,1.521,0.005,3.036,0.014,4.548
	c0.138,26.691,1.488,48.71,3.552,67.917c1.304,12.515,2.936,24.165,4.843,34.722c6.973,40.91,16.355,71.92,20.275,122.464H256h7.69
	c3.92-50.543,13.302-81.554,20.275-122.464C285.872,264.261,287.504,252.611,288.808,240.096z"/>
<path style="fill:#D8E0C9;" d="M241.253,342.811c2.911,16.22,5.446,33.693,7.057,54.47H256h7.69
	c1.234-15.907,3.009-29.878,5.08-42.833C259.267,351.224,250.076,347.327,241.253,342.811z"/>
<path style="fill:#F3D75C;" d="M282.106,512h-52.212c-3.376,0-6.272-2.408-6.887-5.728l-10.018-54.043h86.023l-10.018,54.043
	C288.378,509.592,285.482,512,282.106,512z"/>
<g>
	<path style="fill:#E8C63A;" d="M239.894,502c-3.376,0-6.272-2.408-6.888-5.728l-8.164-44.043h-11.854l10.018,54.043
		c0.615,3.32,3.511,5.728,6.888,5.728h52.212c3.376,0,6.272-2.408,6.887-5.728l0.792-4.272H239.894z"/>
	<path style="fill:#E8C63A;" d="M217.446,476.275h77.108l3.891-20.989c-0.61-0.109-1.234-0.176-1.876-0.176h-81.138
		c-0.641,0-1.266,0.067-1.876,0.176L217.446,476.275z"/>
</g>
<g>
	<path style="fill:#F3D75C;" d="M296.569,466.275h-81.138c-5.845,0-10.583-4.738-10.583-10.583l0,0
		c0-5.845,4.738-10.583,10.583-10.583h81.138c5.845,0,10.583,4.738,10.583,10.583l0,0
		C307.152,461.537,302.414,466.275,296.569,466.275z"/>
	<path style="fill:#F3D75C;" d="M296.569,407.863h-81.138c-5.845,0-10.583-4.738-10.583-10.582l0,0
		c0-5.845,4.738-10.583,10.583-10.583h81.138c5.845,0,10.583,4.738,10.583,10.583l0,0
		C307.152,403.125,302.414,407.863,296.569,407.863z"/>
</g>
<path style="fill:#39375E;" d="M256,459.729c-4.142,0-7.5-3.358-7.5-7.5v-54.948c0-4.142,3.358-7.5,7.5-7.5s7.5,3.358,7.5,7.5
	v54.948C263.5,456.371,260.142,459.729,256,459.729z"/>
<path style="fill:#272749;" d="M253.5,452.229v-54.948c0-3.264,2.089-6.033,5-7.064c-0.783-0.277-1.622-0.436-2.5-0.436
	c-4.142,0-7.5,3.358-7.5,7.5v54.948c0,4.142,3.358,7.5,7.5,7.5c0.878,0,1.717-0.159,2.5-0.436
	C255.589,458.262,253.5,455.493,253.5,452.229z"/>
<g>
</g>
<g>
</g>
<g>
</g>
<g>
</g>
<g>
</g>
<g>
</g>
<g>
</g>
<g>
</g>
<g>
</g>
<g>
</g>
<g>
</g>
<g>
</g>
<g>
</g>
<g>
</g>
<g>
</g>
</svg>
