<?xml version="1.0" encoding="iso-8859-1"?>
<!-- Generator: Adobe Illustrator 19.0.0, SVG Export Plug-In . SVG Version: 6.00 Build 0)  -->
<svg version="1.1" id="Capa_1" xmlns="http://www.w3.org/2000/svg" xmlns:xlink="http://www.w3.org/1999/xlink" x="0px" y="0px"
	 viewBox="0 0 512 512" style="enable-background:new 0 0 512 512;" xml:space="preserve">
<circle style="fill:#F3D75C;" cx="256" cy="256" r="256"/>
<path style="fill:#FFFBEB;" d="M408.507,115.895H103.493c-11.599,0-21.002-9.403-21.002-21.002v-54.11
	c0-11.599,9.403-21.002,21.002-21.002h305.015c11.599,0,21.002,9.403,21.002,21.002v54.11
	C429.51,106.492,420.107,115.895,408.507,115.895z"/>
<g>
	<rect x="310.67" y="19.78" style="fill:#D8E0C9;" width="43.562" height="96.11"/>
	<rect x="136.82" y="19.78" style="fill:#D8E0C9;" width="43.562" height="96.11"/>
</g>
<g>
	<path style="fill:#8E64B6;" d="M186.562,121.303h-34.971c-2.372,0-4.296-1.923-4.296-4.296V18.668c0-2.372,1.923-4.296,4.296-4.296
		h34.971c2.372,0,4.296,1.923,4.296,4.296v98.339C190.858,119.38,188.935,121.303,186.562,121.303z"/>
	<path style="fill:#8E64B6;" d="M360.409,121.303h-34.971c-2.372,0-4.296-1.923-4.296-4.296V18.668c0-2.372,1.923-4.296,4.296-4.296
		h34.971c2.372,0,4.296,1.923,4.296,4.296v98.339C364.704,119.38,362.781,121.303,360.409,121.303z"/>
</g>
<g>
	<path style="fill:#39375E;" d="M453.72,352.14v66.48c-11.96,14.53-25.5,27.72-40.35,39.31c-14.32,11.18-29.87,20.87-46.41,28.83
		V346.84h81.47C451.35,346.84,453.72,349.21,453.72,352.14z"/>
	<path style="fill:#39375E;" d="M427.558,283.294h-74.715V178.29h81.459c2.925,0,5.296,2.371,5.296,5.296v87.668
		C439.598,277.904,434.207,283.294,427.558,283.294z"/>
</g>
<path style="fill:#272749;" d="M434.302,178.29h-40.099v34.475c0,1.671,1.355,3.026,3.026,3.026h42.369v-32.205
	C439.598,180.661,437.227,178.29,434.302,178.29z"/>
<path style="fill:#39375E;" d="M84.442,283.294h74.715V178.29H77.698c-2.925,0-5.296,2.371-5.296,5.296v87.668
	C72.402,277.904,77.793,283.294,84.442,283.294z"/>
<path style="fill:#272749;" d="M77.698,178.29h40.099v34.475c0,1.671-1.355,3.026-3.026,3.026H72.402v-32.205
	C72.402,180.661,74.773,178.29,77.698,178.29z"/>
<g>
	<path style="fill:#A279C8;" d="M440.607,205.704h-43.378c-1.671,0-3.026-1.355-3.026-3.026V167.37c0-1.671,1.355-3.026,3.026-3.026
		h43.378c1.671,0,3.026,1.355,3.026,3.026v35.307C443.633,204.349,442.278,205.704,440.607,205.704z"/>
	<path style="fill:#A279C8;" d="M114.771,205.704H71.394c-1.671,0-3.026-1.355-3.026-3.026V167.37c0-1.671,1.355-3.026,3.026-3.026
		h43.377c1.671,0,3.026,1.355,3.026,3.026v35.307C117.797,204.349,116.442,205.704,114.771,205.704z"/>
</g>
<path style="fill:#39375E;" d="M145.04,346.84v139.92c-17.53-8.44-33.94-18.82-48.97-30.86c-13.85-11.09-26.52-23.59-37.79-37.28
	v-66.48c0-2.93,2.37-5.3,5.29-5.3L145.04,346.84L145.04,346.84z"/>
<path style="fill:#272749;" d="M413.374,167.544c0-42.1-34.129-76.23-76.23-76.23H172.3c-42.1,0-76.23,34.129-76.23,76.23V172l0,0
	v283.9c15.03,12.04,31.44,22.42,48.97,30.86C178.61,502.94,216.24,512,256,512s77.39-9.06,110.96-25.24
	c16.54-7.96,32.09-17.65,46.41-28.83V181.39c0.001-0.002,0.002-0.003,0.003-0.005v-13.841H413.374z"/>
<path style="fill:#1A1A35;" d="M256,485.622c-27.045,0-124.104-12.884-124.104-28.776V333.411c0-5.448,4.417-9.865,9.865-9.865
	H370.24c5.448,0,9.865,4.417,9.865,9.865v123.434C380.104,472.738,283.045,485.622,256,485.622z"/>
<path style="fill:#39375E;" d="M373.129,367.08c0,0-68.851,15.609-115.718,15.609s-118.54-15.609-118.54-15.609
	c-4.145-1.27-6.976-5.097-6.976-9.432v-32.749c0-5.448,4.417-9.865,9.865-9.865h228.48c5.448,0,9.865,4.417,9.865,9.865v32.749
	C380.104,361.983,377.274,365.811,373.129,367.08z"/>
<path style="fill:#FFFBEB;" d="M294.612,400.32H220.21c-1.887,0-3.416-1.529-3.416-3.416v-28.429c0-1.887,1.529-3.416,3.416-3.416
	h74.402c1.887,0,3.416,1.529,3.416,3.416v28.429C298.028,398.791,296.498,400.32,294.612,400.32z"/>
<path style="fill:#D8E0C9;" d="M228.308,396.904v-28.429c0-1.887,1.529-3.416,3.416-3.416H220.21c-1.887,0-3.416,1.529-3.416,3.416
	v28.429c0,1.887,1.529,3.416,3.416,3.416h11.514C229.837,400.32,228.308,398.791,228.308,396.904z"/>
<path style="fill:#1A1A35;" d="M337.144,91.315H172.3c-42.1,0-76.23,34.129-76.23,76.23v7.325
	c1.523,7.201,6.734,13.222,13.917,15.625l9.767,3.268l0.278,0.081c0.304,0.089,30.766,8.995,61.969,17.798
	c64.998,18.336,69.748,18.386,72.891,18.418l0.209,0.001c3.403,0,8.547,0,74.292-18.372c31.552-8.817,62.249-17.75,62.555-17.84
	l0.287-0.083l9.777-3.271c4.867-1.628,8.833-4.918,11.36-9.109v-13.841C413.373,125.444,379.244,91.315,337.144,91.315z"/>
<path style="fill:#272749;" d="M290.13,67.038h-15.132V40.147c0-10.504-8.545-19.049-19.049-19.049s-19.05,8.546-19.05,19.049
	v26.892h-15.132V40.147c0-18.847,15.334-34.181,34.181-34.181s34.181,15.334,34.181,34.181L290.13,67.038L290.13,67.038z"/>
<path style="fill:#39375E;" d="M387.555,178.76c0,0-122.585,35.689-132.497,35.585c-9.285-0.097-130.613-35.585-130.613-35.585
	c-7.84-2.611-13.129-9.946-13.129-18.209V67.568c0-5.4,4.377-9.777,9.777-9.777h269.814c5.4,0,9.777,4.377,9.777,9.777v92.982
	C400.684,168.814,395.395,176.149,387.555,178.76z"/>
<g>
	<path style="fill:#A279C8;" d="M359.72,123.46h-33.6c-1.82,0-3.29,1.47-3.29,3.29v277.47c0,1.93,0.76,3.78,2.11,5.15l12.75,12.96
		c2.87,2.93,7.59,2.93,10.47,0l12.75-12.96c1.35-1.37,2.1-3.22,2.1-5.15V126.75C363.01,124.93,361.54,123.46,359.72,123.46z
		 M349.03,335.14c0,3.37-2.74,6.11-6.11,6.11s-6.11-2.74-6.11-6.11c0-3.38,2.74-6.11,6.11-6.11
		C346.29,329.03,349.03,331.76,349.03,335.14z M349.03,164.34c0,3.38-2.74,6.11-6.11,6.11s-6.11-2.73-6.11-6.11
		c0-3.37,2.74-6.1,6.11-6.1C346.29,158.24,349.03,160.97,349.03,164.34z"/>
	<path style="fill:#A279C8;" d="M185.88,123.46h-33.6c-1.82,0-3.29,1.47-3.29,3.29v277.47c0,1.93,0.75,3.78,2.1,5.15l12.75,12.96
		c2.88,2.93,7.6,2.93,10.47,0l12.75-12.96c1.35-1.37,2.11-3.22,2.11-5.15V126.75C189.17,124.93,187.7,123.46,185.88,123.46z
		 M175.18,335.14c0,3.37-2.73,6.11-6.11,6.11c-3.37,0-6.11-2.74-6.11-6.11c0-3.38,2.74-6.11,6.11-6.11
		C172.45,329.03,175.18,331.76,175.18,335.14z M175.18,164.34c0,3.38-2.73,6.11-6.11,6.11c-3.37,0-6.11-2.73-6.11-6.11
		c0-3.37,2.74-6.1,6.11-6.1C172.45,158.24,175.18,160.97,175.18,164.34z"/>
</g>
<g>
	<path style="fill:#272749;" d="M189.868,130.434h-41.582c-1.471,0-2.663-1.192-2.663-2.663l0,0c0-6.236,5.055-11.292,11.292-11.292
		h24.325c6.236,0,11.292,5.055,11.292,11.292l0,0C192.531,129.241,191.339,130.434,189.868,130.434z"/>
	<path style="fill:#272749;" d="M363.714,130.434h-41.582c-1.471,0-2.663-1.192-2.663-2.663l0,0c0-6.236,5.055-11.292,11.292-11.292
		h24.325c6.236,0,11.292,5.055,11.292,11.292l0,0C366.377,129.241,365.185,130.434,363.714,130.434z"/>
</g>
<path style="fill:#D8E0C9;" d="M192.41,219.81h-46.67c-1.87,0-3.4,1.51-3.4,3.39v60.15c0,1.88,1.53,3.4,3.4,3.4h46.67
	c1.87,0,3.4-1.52,3.4-3.4V223.2C195.81,221.32,194.28,219.81,192.41,219.81z M185.72,275.02c0,0.91-0.73,1.64-1.63,1.64h-30.03
	c-0.89,0-1.63-0.73-1.63-1.64v-43.49c0-0.91,0.74-1.63,1.63-1.63h30.03c0.9,0,1.63,0.72,1.63,1.63V275.02z"/>
<path style="fill:#FFFBEB;" d="M166.911,262.861L166.911,262.861c-1.564,0-2.832-1.268-2.832-2.832v-31.698
	c0-2.76,2.238-4.998,4.998-4.998l0,0c2.76,0,4.998,2.238,4.998,4.998v27.366C174.075,259.654,170.867,262.861,166.911,262.861z"/>
<path style="fill:#D8E0C9;" d="M366.26,219.81h-46.67c-1.87,0-3.4,1.51-3.4,3.39v60.15c0,1.88,1.53,3.4,3.4,3.4h46.67
	c1.87,0,3.4-1.52,3.4-3.4V223.2C369.66,221.32,368.13,219.81,366.26,219.81z M326.28,275.02v-43.49c0-0.91,0.73-1.63,1.63-1.63
	h30.03c0.89,0,1.63,0.72,1.63,1.63v43.49c0,0.91-0.74,1.64-1.63,1.64h-30.03C327.01,276.66,326.28,275.93,326.28,275.02z"/>
<g>
	<path style="fill:#FFFBEB;" d="M340.757,262.861L340.757,262.861c-1.564,0-2.832-1.268-2.832-2.832v-31.698
		c0-2.76,2.238-4.998,4.998-4.998l0,0c2.76,0,4.998,2.238,4.998,4.998v27.366C347.921,259.654,344.713,262.861,340.757,262.861z"/>
	<path style="fill:#FFFBEB;" d="M248.509,161.303l-22.98-22.98c-4.137-4.137-4.137-10.845,0-14.982l22.98-22.98
		c4.137-4.137,10.845-4.137,14.982,0l22.98,22.98c4.137,4.137,4.137,10.845,0,14.982l-22.98,22.98
		C259.354,165.44,252.646,165.44,248.509,161.303z"/>
</g>
<path style="fill:#D8E0C9;" d="M232.828,135.146c-2.382-2.382-2.382-6.244,0-8.627l28.064-28.064
	c-3.993-2.08-9.032-1.445-12.384,1.907l-22.98,22.98c-4.137,4.137-4.137,10.845,0,14.982l22.98,22.98
	c3.352,3.352,8.391,3.986,12.384,1.907L232.828,135.146z"/>
<g>
</g>
<g>
</g>
<g>
</g>
<g>
</g>
<g>
</g>
<g>
</g>
<g>
</g>
<g>
</g>
<g>
</g>
<g>
</g>
<g>
</g>
<g>
</g>
<g>
</g>
<g>
</g>
<g>
</g>
</svg>
