<?xml version="1.0" encoding="iso-8859-1"?>
<!-- Generator: Adobe Illustrator 19.0.0, SVG Export Plug-In . SVG Version: 6.00 Build 0)  -->
<svg version="1.1" id="Capa_1" xmlns="http://www.w3.org/2000/svg" xmlns:xlink="http://www.w3.org/1999/xlink" x="0px" y="0px"
	 viewBox="0 0 512 512" style="enable-background:new 0 0 512 512;" xml:space="preserve">
<circle style="fill:#39375E;" cx="256" cy="256" r="256"/>
<path style="fill:#676789;" d="M156.649,81.335L156.649,81.335c0-8.284,6.716-15,15-15h170.594c8.284,0,15,6.716,15,15l0,0
	c0,8.284,6.716,15,15,15h43.116c8.284,0,15,6.716,15,15l0,0c0,8.284-6.716,15-15,15h-4.978c-8.284,0-15,6.716-15,15l0,0
	c0,8.284-6.716,15-15,15H206.337c-8.284,0-15-6.716-15-15l0,0c0-8.284,6.716-15,15-15h8.428c8.284,0,15-6.716,15-15l0,0
	c0-8.284-6.716-15-15-15h-43.116C163.365,96.335,156.649,89.619,156.649,81.335z"/>
<path style="fill:#31A7AB;" d="M65.503,427c46.865,52.174,114.844,85,190.497,85s143.632-32.826,190.497-85H65.503z"/>
<path style="fill:#FFFBEB;" d="M501.84,281.52l-3.93,15.42l-23.65,92.9l-10.33,40.58c-3.76,14.77-17.06,25.1-32.29,25.1H95.59
	c-48.22-38.81-82.07-94.75-92.33-158.58c-0.82-5.09-1.49-10.23-2-15.42H501.84z"/>
<g>
	<path style="fill:#D8E0C9;" d="M2.291,290.336c0.297,2.21,0.616,4.413,0.969,6.604c0.541,3.368,1.163,6.709,1.834,10.032h490.261
		l2.554-10.032l1.683-6.604H2.291z"/>
	<path style="fill:#D8E0C9;" d="M264.017,125.934H35.478c-19.965,33.777-32.387,72.534-34.96,113.965h332.155v-19.474
		l-59.862-89.784C270.851,127.7,267.551,125.934,264.017,125.934z"/>
</g>
<path style="fill:#39375E;" d="M141.474,183.461h-28.583c-2.32,0-4.2-1.88-4.2-4.2v-28.583c0-2.32,1.88-4.2,4.2-4.2h28.583
	c2.32,0,4.2,1.88,4.2,4.2v28.583C145.674,181.581,143.793,183.461,141.474,183.461z"/>
<path style="fill:#272749;" d="M118.691,179.261v-28.583c0-2.32,1.88-4.2,4.2-4.2h-10c-2.32,0-4.2,1.88-4.2,4.2v28.583
	c0,2.32,1.88,4.2,4.2,4.2h10C120.572,183.461,118.691,181.581,118.691,179.261z"/>
<path style="fill:#39375E;" d="M89.564,183.461H60.981c-2.32,0-4.2-1.88-4.2-4.2v-28.583c0-2.32,1.88-4.2,4.2-4.2h28.583
	c2.32,0,4.2,1.88,4.2,4.2v28.583C93.764,181.581,91.883,183.461,89.564,183.461z"/>
<path style="fill:#272749;" d="M66.781,179.261v-28.583c0-2.32,1.88-4.2,4.2-4.2h-10c-2.32,0-4.2,1.88-4.2,4.2v28.583
	c0,2.32,1.88,4.2,4.2,4.2h10C68.662,183.461,66.781,181.581,66.781,179.261z"/>
<path style="fill:#39375E;" d="M257.096,146.479h-87.914c-2.797,0-4.466,3.118-2.914,5.445l19.987,29.978
	c0.65,0.974,1.743,1.559,2.914,1.559h87.914c2.797,0,4.466-3.118,2.914-5.445l-19.987-29.978
	C259.361,147.064,258.267,146.479,257.096,146.479z"/>
<path style="fill:#272749;" d="M206.766,182.668l-22.281-33.418c-0.79-1.184,0.059-2.771,1.483-2.771h-16.786
	c-2.797,0-4.466,3.118-2.914,5.445l19.987,29.978c0.65,0.974,1.743,1.56,2.914,1.56h19.079
	C207.653,183.461,207.096,183.164,206.766,182.668z"/>
<path style="fill:#FFFBEB;" d="M334.498,172.916H13.795C4.86,198.97,0,226.916,0,256c0,10.453,0.642,20.756,1.86,30.881H403v-19.474
	l-59.948-89.913C341.145,174.634,337.936,172.916,334.498,172.916z"/>
<path style="fill:#DD544C;" d="M511.87,270.14l-0.31,0.99l-7.13,22.44c-0.63,2.01-2.5,3.37-4.6,3.37H3.26
	c-0.82-5.09-1.49-10.23-2-15.42c-0.49-4.91-0.84-9.87-1.04-14.87h509.1c1.07,0,1.97,0.62,2.39,1.49
	C512.01,268.73,512.09,269.44,511.87,270.14z"/>
<path style="fill:#C63B38;" d="M290.955,111.597H44.602c-4.483,6.55-8.666,13.321-12.537,20.29h251.687
	c0.984,0,1.88-0.567,2.301-1.456l7.202-15.197C294.057,113.544,292.824,111.597,290.955,111.597z"/>
<path style="fill:#39375E;" d="M327.423,192.916H195.554c-2.797,0-4.466,3.118-2.914,5.445l19.987,29.978
	c0.65,0.974,1.743,1.559,2.914,1.559H347.41c2.797,0,4.466-3.118,2.914-5.445l-19.987-29.978
	C329.687,193.501,328.594,192.916,327.423,192.916z"/>
<path style="fill:#272749;" d="M233.138,229.105l-22.281-33.418c-0.79-1.184,0.059-2.771,1.483-2.771h-16.786
	c-2.797,0-4.466,3.118-2.914,5.445l19.987,29.978c0.65,0.974,1.743,1.56,2.914,1.56h19.079
	C234.025,229.898,233.468,229.601,233.138,229.105z"/>
<path style="fill:#39375E;" d="M167.846,229.898h-28.583c-2.32,0-4.2-1.88-4.2-4.2v-28.583c0-2.32,1.88-4.2,4.2-4.2h28.583
	c2.32,0,4.2,1.88,4.2,4.2v28.583C172.046,228.018,170.165,229.898,167.846,229.898z"/>
<path style="fill:#272749;" d="M145.063,225.699v-28.583c0-2.32,1.88-4.2,4.2-4.2h-10c-2.32,0-4.2,1.88-4.2,4.2v28.583
	c0,2.32,1.88,4.2,4.2,4.2h10C146.944,229.898,145.063,228.018,145.063,225.699z"/>
<path style="fill:#39375E;" d="M115.936,229.898H87.353c-2.32,0-4.2-1.88-4.2-4.2v-28.583c0-2.32,1.88-4.2,4.2-4.2h28.583
	c2.32,0,4.2,1.88,4.2,4.2v28.583C120.136,228.018,118.255,229.898,115.936,229.898z"/>
<path style="fill:#272749;" d="M93.153,225.699v-28.583c0-2.32,1.88-4.2,4.2-4.2h-10c-2.32,0-4.2,1.88-4.2,4.2v28.583
	c0,2.32,1.88,4.2,4.2,4.2h10C95.034,229.898,93.153,228.018,93.153,225.699z"/>
<path style="fill:#39375E;" d="M64.026,229.898H35.443c-2.32,0-4.2-1.88-4.2-4.2v-28.583c0-2.32,1.88-4.2,4.2-4.2h28.583
	c2.32,0,4.2,1.88,4.2,4.2v28.583C68.226,228.018,66.345,229.898,64.026,229.898z"/>
<path style="fill:#272749;" d="M41.243,225.699v-28.583c0-2.32,1.88-4.2,4.2-4.2h-10c-2.32,0-4.2,1.88-4.2,4.2v28.583
	c0,2.32,1.88,4.2,4.2,4.2h10C43.124,229.898,41.243,228.018,41.243,225.699z"/>
<circle style="fill:#39375E;" cx="403" cy="360.09" r="31"/>
<path style="fill:#272749;" d="M382,360.091c0-15.418,11.258-28.202,26-30.593c-1.628-0.264-3.297-0.407-5-0.407
	c-17.121,0-31,13.879-31,31s13.879,31,31,31c1.703,0,3.372-0.143,5-0.407C393.258,388.292,382,375.509,382,360.091z"/>
<circle style="fill:#39375E;" cx="270.67" cy="360.09" r="31"/>
<path style="fill:#272749;" d="M249.667,360.091c0-15.418,11.258-28.202,26-30.593c-1.628-0.264-3.297-0.407-5-0.407
	c-17.121,0-31,13.879-31,31s13.879,31,31,31c1.703,0,3.372-0.143,5-0.407C260.924,388.292,249.667,375.509,249.667,360.091z"/>
<circle style="fill:#39375E;" cx="138.33" cy="360.09" r="31"/>
<path style="fill:#272749;" d="M117.333,360.091c0-15.418,11.258-28.202,26-30.593c-1.628-0.264-3.297-0.407-5-0.407
	c-17.121,0-31,13.879-31,31s13.879,31,31,31c1.703,0,3.372-0.143,5-0.407C128.591,388.292,117.333,375.509,117.333,360.091z"/>
<g>
</g>
<g>
</g>
<g>
</g>
<g>
</g>
<g>
</g>
<g>
</g>
<g>
</g>
<g>
</g>
<g>
</g>
<g>
</g>
<g>
</g>
<g>
</g>
<g>
</g>
<g>
</g>
<g>
</g>
</svg>
