<?xml version="1.0" encoding="iso-8859-1"?>
<!-- Generator: Adobe Illustrator 19.0.0, SVG Export Plug-In . SVG Version: 6.00 Build 0)  -->
<svg version="1.1" id="Capa_1" xmlns="http://www.w3.org/2000/svg" xmlns:xlink="http://www.w3.org/1999/xlink" x="0px" y="0px"
	 viewBox="0 0 512 512" style="enable-background:new 0 0 512 512;" xml:space="preserve">
<circle style="fill:#DD544C;" cx="256" cy="256" r="256"/>
<path style="fill:#FFFBEB;" d="M273.41,13.33v498.09C267.66,511.8,261.85,512,256,512s-11.66-0.2-17.41-0.59V13.33H273.41z"/>
<g>
	<rect x="238.59" y="20.423" style="fill:#D8E0C9;" width="34.811" height="19"/>
	<rect x="238.59" y="357.58" style="fill:#D8E0C9;" width="34.811" height="19"/>
</g>
<g>
	<path style="fill:#FFFBEB;" d="M279.803,12.923h-47.605c-1.568,0-2.839-1.271-2.839-2.839V3.262c0-1.568,1.271-2.839,2.839-2.839
		h47.605c1.568,0,2.839,1.271,2.839,2.839v6.822C282.641,11.652,281.37,12.923,279.803,12.923z"/>
	<path style="fill:#FFFBEB;" d="M287.812,31.923h-63.623c-1.853,0-3.355-1.502-3.355-3.355v-15.29c0-1.853,1.502-3.355,3.355-3.355
		h63.623c1.853,0,3.355,1.502,3.355,3.355v15.29C291.167,30.421,289.665,31.923,287.812,31.923z"/>
</g>
<path style="fill:#70D587;" d="M58,199.423c-17.645,0-32-14.355-32-32v-90c0-17.645,14.355-32,32-32h396c17.645,0,32,14.355,32,32
	v90c0,17.645-14.355,32-32,32H58z"/>
<path style="fill:#FFFBEB;" d="M454,181.923H58c-7.995,0-14.5-6.505-14.5-14.5v-90c0-7.995,6.505-14.5,14.5-14.5h396
	c7.995,0,14.5,6.505,14.5,14.5v90C468.5,175.418,461.995,181.923,454,181.923z M58.5,166.923h395v-89h-395V166.923z"/>
<path style="fill:#70D587;" d="M58,367.077c-17.645,0-32-14.355-32-32v-90c0-17.645,14.355-32,32-32h396c17.645,0,32,14.355,32,32
	v90c0,17.645-14.355,32-32,32H58z"/>
<g>
	<path style="fill:#FFFBEB;" d="M454,349.577H58c-7.995,0-14.5-6.505-14.5-14.5v-90c0-7.995,6.505-14.5,14.5-14.5h396
		c7.995,0,14.5,6.505,14.5,14.5v90C468.5,343.072,461.995,349.577,454,349.577z M58.5,334.577h395v-89h-395V334.577z"/>
	<path style="fill:#FFFBEB;" d="M398.387,154.402c-1.919,0-3.839-0.732-5.304-2.197c-2.929-2.929-2.929-7.678,0-10.606
		l19.176-19.176l-19.176-19.176c-2.929-2.929-2.929-7.678,0-10.606c2.931-2.929,7.679-2.929,10.607,0l24.479,24.479
		c2.929,2.929,2.929,7.678,0,10.606l-24.479,24.479C402.226,153.67,400.307,154.402,398.387,154.402z"/>
	<path style="fill:#FFFBEB;" d="M350.204,154.402c-1.919,0-3.839-0.732-5.304-2.197c-2.929-2.929-2.929-7.678,0-10.606
		l19.176-19.176L344.9,103.247c-2.929-2.929-2.929-7.678,0-10.606c2.931-2.929,7.679-2.929,10.607,0l24.479,24.479
		c2.929,2.929,2.929,7.678,0,10.606l-24.479,24.479C354.043,153.67,352.124,154.402,350.204,154.402z"/>
	<path style="fill:#FFFBEB;" d="M113.614,322.056c-1.919,0-3.839-0.732-5.303-2.197L83.832,295.38
		c-2.929-2.929-2.929-7.678,0-10.606l24.479-24.479c2.929-2.929,7.678-2.929,10.606,0c2.929,2.929,2.929,7.678,0,10.606
		l-19.176,19.176l19.176,19.176c2.929,2.929,2.929,7.678,0,10.606C117.453,321.324,115.533,322.056,113.614,322.056z"/>
	<path style="fill:#FFFBEB;" d="M161.796,322.056c-1.919,0-3.839-0.732-5.303-2.197l-24.479-24.479
		c-2.929-2.929-2.929-7.678,0-10.606l24.479-24.479c2.929-2.929,7.678-2.929,10.606,0c2.929,2.929,2.929,7.678,0,10.606
		l-19.176,19.176l19.176,19.176c2.929,2.929,2.929,7.678,0,10.606C165.635,321.324,163.716,322.056,161.796,322.056z"/>
</g>
<g>
	<path style="fill:#63B472;" d="M315.204,112.741h-230c-4.142,0-7.5-3.358-7.5-7.5s3.358-7.5,7.5-7.5h230c4.143,0,7.5,3.358,7.5,7.5
		S319.347,112.741,315.204,112.741z"/>
	<path style="fill:#63B472;" d="M315.204,147.106h-230c-4.142,0-7.5-3.358-7.5-7.5s3.358-7.5,7.5-7.5h230c4.143,0,7.5,3.358,7.5,7.5
		S319.347,147.106,315.204,147.106z"/>
	<path style="fill:#63B472;" d="M426.796,280.394h-230c-4.142,0-7.5-3.358-7.5-7.5s3.358-7.5,7.5-7.5h230c4.143,0,7.5,3.358,7.5,7.5
		S430.938,280.394,426.796,280.394z"/>
	<path style="fill:#63B472;" d="M426.796,314.76h-230c-4.142,0-7.5-3.358-7.5-7.5s3.358-7.5,7.5-7.5h230c4.143,0,7.5,3.358,7.5,7.5
		S430.938,314.76,426.796,314.76z"/>
</g>
<g>
</g>
<g>
</g>
<g>
</g>
<g>
</g>
<g>
</g>
<g>
</g>
<g>
</g>
<g>
</g>
<g>
</g>
<g>
</g>
<g>
</g>
<g>
</g>
<g>
</g>
<g>
</g>
<g>
</g>
</svg>
