<?xml version="1.0" encoding="iso-8859-1"?>
<!-- Generator: Adobe Illustrator 19.0.0, SVG Export Plug-In . SVG Version: 6.00 Build 0)  -->
<svg version="1.1" id="Capa_1" xmlns="http://www.w3.org/2000/svg" xmlns:xlink="http://www.w3.org/1999/xlink" x="0px" y="0px"
	 viewBox="0 0 512 512" style="enable-background:new 0 0 512 512;" xml:space="preserve">
<circle style="fill:#DE66BF;" cx="256" cy="256" r="256"/>
<path style="fill:#F3D75C;" d="M290.929,72.56c6.12-7.639,9.771-17.317,9.771-27.86c0-24.3-19.4-44.07-43.55-44.69
	C256.77,0,256.39,0,256,0s-0.77,0-1.15,0.01c-11.41,0.29-21.77,4.86-29.5,12.17c-0.29,0.28-0.59,0.57-0.88,0.85
	c-0.27,0.28-0.54,0.55-0.82,0.83c-0.01,0.02-0.02,0.04-0.04,0.05c-0.28,0.3-0.56,0.6-0.83,0.9c-0.84,0.91-1.62,1.86-2.36,2.84
	c-0.48,0.64-0.95,1.28-1.4,1.94c-0.02,0.04-0.05,0.08-0.08,0.12c-0.87,1.29-1.68,2.62-2.41,4c-0.06,0.11-0.12,0.22-0.18,0.34
	c-0.16,0.32-0.32,0.63-0.48,0.95c-0.18,0.37-0.36,0.75-0.53,1.12c-0.18,0.38-0.34,0.76-0.51,1.14c-0.16,0.38-0.31,0.77-0.47,1.16
	c-0.15,0.38-0.3,0.78-0.44,1.17c-0.34,0.96-0.66,1.94-0.94,2.93c-0.1,0.34-0.19,0.67-0.27,1.01c-0.08,0.3-0.15,0.59-0.22,0.89
	c-0.07,0.29-0.13,0.57-0.19,0.86c-0.11,0.5-0.21,1-0.3,1.51c-0.04,0.21-0.07,0.41-0.11,0.62c-0.04,0.26-0.08,0.52-0.12,0.78
	c-0.04,0.3-0.08,0.59-0.12,0.89c-0.03,0.27-0.07,0.54-0.09,0.82c-0.04,0.36-0.08,0.72-0.11,1.08c-0.02,0.32-0.05,0.65-0.06,0.97
	c-0.04,0.48-0.06,0.95-0.07,1.43c-0.01,0.44-0.02,0.88-0.02,1.32c0,19.61,12.64,36.27,30.22,42.29c3.21,1.1,6.6,1.85,10.1,2.19
	c1.44,0.14,2.9,0.21,4.38,0.21c0.44,0,0.88-0.01,1.32-0.02c0.45-0.01,0.9-0.03,1.34-0.06c0.37-0.02,0.74-0.05,1.1-0.08
	s0.71-0.06,1.06-0.1c0.27-0.03,0.54-0.06,0.8-0.09c0.29-0.04,0.59-0.08,0.89-0.12c0.28-0.04,0.56-0.09,0.84-0.13
	c0.68-0.11,1.35-0.24,2.01-0.38c0.31-0.07,0.61-0.14,0.91-0.21c0.3-0.07,0.6-0.14,0.9-0.22c0.19-0.05,0.39-0.1,0.58-0.15
	c0.33-0.09,0.65-0.18,0.97-0.28c0.59-0.17,1.18-0.36,1.76-0.56c0.21-0.07,0.42-0.14,0.63-0.22c0.39-0.14,0.78-0.29,1.17-0.44
	c0.77-0.3,1.54-0.63,2.3-0.98c0.37-0.17,0.75-0.35,1.12-0.53s0.74-0.37,1.1-0.56c0.37-0.2,0.73-0.39,1.09-0.59
	c1.06-0.59,2.1-1.23,3.1-1.91c0.02-0.02,0.03-0.03,0.05-0.04c0.34-0.23,0.68-0.47,1.01-0.71s0.66-0.48,0.99-0.73s0.65-0.5,0.97-0.76
	s0.63-0.52,0.95-0.79c0.62-0.53,1.23-1.08,1.82-1.64c0.02-0.02,0.04-0.03,0.05-0.04c0.29-0.27,0.57-0.54,0.83-0.82
	c0.29-0.29,0.57-0.59,0.85-0.88c0.84-0.887,1.636-1.814,2.401-2.767C290.917,72.575,290.924,72.568,290.929,72.56
	C290.93,72.56,290.93,72.56,290.929,72.56z M256,20.77c13.21,0,23.92,10.71,23.92,23.93c0,7.77-3.7,14.67-9.44,19.03
	c-4.02,3.07-9.04,4.89-14.48,4.89c-1.5,0-2.96-0.14-4.38-0.41c-3.75-0.69-7.19-2.25-10.1-4.48c-5.74-4.36-9.44-11.26-9.44-19.03
	C232.08,31.48,242.79,20.77,256,20.77z"/>
<path style="fill:#E8C63A;" d="M263.071,82.322c-24.685,0-44.696-20.011-44.696-44.696c0-10.541,3.658-20.222,9.761-27.864
	c-10.255,8.19-16.832,20.791-16.832,34.935c0,24.685,20.011,44.696,44.696,44.696c14.144,0,26.745-6.577,34.935-16.832
	C283.293,78.664,273.611,82.322,263.071,82.322z"/>
<path style="fill:#39375E;" d="M265.259,112.457h-18.518c-2.882,0-5.219-2.337-5.219-5.219V59.763c0-2.882,2.337-5.219,5.219-5.219
	h18.518c2.882,0,5.219,2.337,5.219,5.219v47.476C270.478,110.121,268.141,112.457,265.259,112.457z"/>
<path style="fill:#272749;" d="M251.623,107.239V59.763c0-2.882,2.336-5.219,5.219-5.219h-10.101c-2.882,0-5.219,2.337-5.219,5.219
	v47.476c0,2.882,2.336,5.219,5.219,5.219h10.101C253.959,112.457,251.623,110.121,251.623,107.239z"/>
<path style="fill:#F3D75C;" d="M286.409,124.242h-61.615c-1.801,0-3.261-1.46-3.261-3.261V97.2c0-1.801,1.46-3.261,3.261-3.261
	h61.615c1.801,0,3.261,1.46,3.261,3.261v23.781C289.669,122.782,288.21,124.242,286.409,124.242z"/>
<path style="fill:#E8C63A;" d="M256,106.563c-11.73,0-23.239,0.939-34.467,2.724v11.693c0,1.801,1.46,3.261,3.261,3.261h61.615
	c1.801,0,3.261-1.46,3.261-3.261v-11.825C278.695,107.453,267.452,106.563,256,106.563z"/>
<path style="fill:#39375E;" d="M289.67,119.49c-9.57-1.56-19.36-2.47-29.32-2.67c-0.56-0.01-1.12-0.02-1.67-0.03
	c-0.89-0.01-1.78-0.02-2.68-0.02c-11.74,0-23.26,0.98-34.47,2.85C123.28,136.04,48.39,221.46,48.39,324.39
	c0,49.14,17.07,94.28,45.62,129.84c14.69,12.02,30.74,22.44,47.89,30.99C176.25,502.36,215,512,256,512
	c61.46,0,117.86-21.66,161.99-57.77c28.55-35.56,45.62-80.7,45.62-129.84C463.61,221.18,388.32,135.57,289.67,119.49z"/>
<path style="fill:#272749;" d="M65.56,324.39c0,64.86,29.74,122.77,76.34,160.83c-17.15-8.55-33.2-18.97-47.89-30.99
	c-28.55-35.56-45.62-80.7-45.62-129.84c0-102.93,74.89-188.35,173.14-204.77c11.21-1.87,22.73-2.85,34.47-2.85
	c0.9,0,1.79,0.01,2.68,0.02c0.55,0.01,1.11,0.02,1.67,0.03c1.41,0.04,2.83,0.09,4.24,0.14c-14.54,0.59-28.69,2.68-42.3,6.11
	C132.23,145.76,65.56,227.28,65.56,324.39z"/>
<g>
	<circle style="fill:#FFFBEB;" cx="256" cy="324.39" r="168.3"/>
	<circle style="fill:#FFFBEB;" cx="256" cy="324.39" r="168.3"/>
</g>
<path style="fill:#D8E0C9;" d="M408.137,324.386c0,90.239-71.022,163.884-160.217,168.101c2.678,0.126,5.371,0.197,8.081,0.197
	c92.948,0,168.298-75.35,168.298-168.298S348.948,156.088,256,156.088c-2.71,0-5.402,0.07-8.081,0.197
	C337.114,160.502,408.137,234.147,408.137,324.386z"/>
<circle style="fill:#39375E;" cx="256" cy="324.39" r="42.577"/>
<path style="fill:#D8E0C9;" d="M358.278,218.427l-122.309,85.927l-85.927,122.309c-1.702,2.422,1.258,5.382,3.68,3.68
	l122.309-85.927l85.927-122.309C363.66,219.685,360.7,216.725,358.278,218.427z"/>
<path style="fill:#C7CEB6;" d="M358.278,218.427l-122.309,85.927l-85.927,122.309c-0.851,1.211-0.536,2.557,0.294,3.387
	l211.329-211.329C360.835,217.891,359.489,217.576,358.278,218.427z"/>
<path style="fill:#DD544C;" d="M358.278,218.427l-122.309,85.927L256,324.386l20.031,20.031l85.927-122.309
	C363.66,219.685,360.7,216.725,358.278,218.427z"/>
<path style="fill:#C63B38;" d="M358.278,218.427l-122.309,85.927L256,324.386l105.665-105.665
	C360.835,217.891,359.489,217.576,358.278,218.427z"/>
<circle style="fill:#39375E;" cx="256" cy="196.16" r="19.866"/>
<path style="fill:#272749;" d="M252.053,210.203c-7.758-7.758-7.758-20.337,0-28.095c2.582-2.582,5.702-4.285,8.997-5.148
	c-6.604-1.731-13.922-0.028-19.098,5.148c-7.758,7.758-7.758,20.337,0,28.095c5.176,5.176,12.494,6.879,19.098,5.148
	C257.756,214.488,254.635,212.785,252.053,210.203z"/>
<circle style="fill:#39375E;" cx="384.23" cy="324.39" r="19.866"/>
<path style="fill:#272749;" d="M380.283,338.433c-7.758-7.758-7.758-20.337,0-28.095c2.582-2.582,5.702-4.285,8.997-5.148
	c-6.604-1.731-13.922-0.028-19.098,5.148c-7.758,7.758-7.758,20.337,0,28.095c5.176,5.176,12.494,6.879,19.098,5.148
	C385.986,342.718,382.865,341.015,380.283,338.433z"/>
<circle style="fill:#39375E;" cx="256" cy="452.62" r="19.866"/>
<path style="fill:#272749;" d="M252.053,466.663c-7.758-7.758-7.758-20.337,0-28.095c2.582-2.582,5.702-4.285,8.997-5.148
	c-6.604-1.731-13.922-0.028-19.098,5.148c-7.758,7.758-7.758,20.337,0,28.095c5.176,5.176,12.494,6.879,19.098,5.148
	C257.756,470.948,254.635,469.245,252.053,466.663z"/>
<circle style="fill:#39375E;" cx="127.77" cy="324.39" r="19.866"/>
<path style="fill:#272749;" d="M123.823,338.433c-7.758-7.758-7.758-20.337,0-28.095c2.582-2.582,5.702-4.285,8.997-5.148
	c-6.604-1.731-13.922-0.028-19.098,5.148c-7.758,7.758-7.758,20.337,0,28.095c5.176,5.176,12.494,6.879,19.098,5.148
	C129.526,342.718,126.405,341.015,123.823,338.433z"/>
<g>
</g>
<g>
</g>
<g>
</g>
<g>
</g>
<g>
</g>
<g>
</g>
<g>
</g>
<g>
</g>
<g>
</g>
<g>
</g>
<g>
</g>
<g>
</g>
<g>
</g>
<g>
</g>
<g>
</g>
</svg>
