<?xml version="1.0" encoding="iso-8859-1"?>
<!-- Generator: Adobe Illustrator 19.0.0, SVG Export Plug-In . SVG Version: 6.00 Build 0)  -->
<svg version="1.1" id="Capa_1" xmlns="http://www.w3.org/2000/svg" xmlns:xlink="http://www.w3.org/1999/xlink" x="0px" y="0px"
	 viewBox="0 0 512 512" style="enable-background:new 0 0 512 512;" xml:space="preserve">
<circle style="fill:#A279C8;" cx="256" cy="256" r="256"/>
<g>
	<path style="fill:#C3A6E2;" d="M278.882,204L278.882,204c0,8.284-6.716,15-15,15h-16.541c-8.284,0-15,6.716-15,15l0,0
		c0,8.284,6.716,15,15,15h170.594c8.284,0,15-6.716,15-15l0,0c0-8.284,6.716-15,15-15h16.541c8.284,0,15-6.716,15-15l0,0
		c0-8.284-6.716-15-15-15H293.882C285.598,189,278.882,195.716,278.882,204z"/>
	<path style="fill:#C3A6E2;" d="M392.855,70.668L392.855,70.668c0-8.284-6.716-15-15-15H207.261c-8.284,0-15,6.716-15,15l0,0
		c0,8.284-6.716,15-15,15h-43.116c-8.284,0-15,6.716-15,15l0,0c0,8.284,6.716,15,15,15h4.978c8.284,0,15,6.716,15,15l0,0
		c0,8.284,6.716,15,15,15h174.045c8.284,0,15-6.716,15-15l0,0c0-8.284-6.716-15-15-15h-8.428c-8.284,0-15-6.716-15-15l0,0
		c0-8.284,6.716-15,15-15h43.116C386.139,85.668,392.855,78.953,392.855,70.668z"/>
</g>
<path style="fill:#39375E;" d="M65.503,427c46.865,52.174,114.844,85,190.497,85s143.632-32.826,190.497-85H65.503z"/>
<path style="fill:#FFFBEB;" d="M486.289,367.926c-11.194-132.216-122.04-236.04-257.152-236.04H32.065
	C11.645,168.652,0,210.963,0,256c0,49.125,13.848,95.01,37.837,133.987h448.451v-22.061H486.289z"/>
<path style="fill:#F3D75C;" d="M486.29,374.25v15.74H37.84c-3.11-5.05-6.04-10.21-8.8-15.48c-0.5-0.96-1-1.91-1.48-2.87
	c-0.15-0.29-0.29-0.58-0.43-0.87c-0.58-1.13-1.14-2.27-1.69-3.41c-0.55-1.12-1.08-2.25-1.61-3.38c-0.51-1.1-1.01-2.2-1.51-3.31
	c-0.33-0.73-0.66-1.47-0.98-2.21c-0.95-2.18-1.88-4.38-2.77-6.6c-0.24-0.58-0.47-1.16-0.7-1.75c-0.27-0.66-0.53-1.32-0.78-1.99
	c-0.2-0.5-0.39-1-0.58-1.51c-0.24-0.62-0.48-1.25-0.7-1.88c-0.27-0.72-0.53-1.43-0.79-2.15c-0.77-2.15-1.52-4.32-2.23-6.49
	c-0.29-0.87-0.57-1.74-0.84-2.61c-0.11-0.33-0.21-0.65-0.3-0.97c-0.23-0.7-0.45-1.41-0.66-2.12c-0.37-1.22-0.74-2.45-1.09-3.68
	c-1.2-4.19-2.3-8.42-3.29-12.69c-0.02-0.1-0.05-0.21-0.07-0.32c-0.25-1.09-0.5-2.19-0.74-3.29c-0.23-1.1-0.47-2.2-0.69-3.3
	c-0.22-1.11-0.44-2.22-0.65-3.33s-0.41-2.22-0.61-3.34c-0.58-3.34-1.1-6.71-1.56-10.1C253.05,300.1,403.77,333.06,486.29,374.25z"/>
<path style="fill:#DD544C;" d="M280.678,137.051l0.35,6.125c2.817,49.292,24.044,95.303,59.771,129.556
	c35.838,34.36,82.91,53.622,132.545,54.239l6.132,0.076C455.484,231.307,378.031,156.785,280.678,137.051z"/>
<path style="fill:#39375E;" d="M473.593,306.972c-26.971-79.447-91.585-141.499-172.597-164.937
	C306.212,233.293,381.301,305.826,473.593,306.972z"/>
<path style="fill:#272749;" d="M332.007,153.236c-10.025-4.362-20.372-8.123-31.011-11.201
	c5.216,91.258,80.305,163.79,172.597,164.937c-0.361-1.064-0.756-2.112-1.131-3.17C398.548,289.55,341.198,228.831,332.007,153.236z
	"/>
<path style="fill:#39375E;" d="M500.67,389.79v31.02H60.1c-2.72-3.23-5.36-6.53-7.91-9.89c-6.08-7.98-11.7-16.33-16.82-25.01h461.42
	C498.93,385.91,500.67,387.64,500.67,389.79z"/>
<g>
	<path style="fill:#DD544C;" d="M512,415.46v10.26c0,16.46-13.34,29.8-29.8,29.8H95.59c-12.92-10.4-24.81-22.03-35.49-34.71
		c-2.72-3.23-5.36-6.53-7.91-9.89h455.27C509.97,410.92,512,412.96,512,415.46z"/>
	<path style="fill:#DD544C;" d="M261.345,342.257c6.207-9.215,7.42-20.863,3.245-31.159l-49.178-121.282
		C210.286,177.171,198.156,169,184.511,169H15.183C5.364,196.16,0,225.452,0,256c0,35.861,7.387,69.991,20.704,100.972H233.69
		C244.799,356.972,255.138,351.471,261.345,342.257z"/>
</g>
<path style="fill:#39375E;" d="M246.056,318.613L196.878,197.33c-2.042-5.035-6.933-8.33-12.366-8.33H8.874
	C3.094,210.355,0,232.815,0,256c0,28.301,4.605,55.523,13.088,80.972H233.69C243.157,336.972,249.613,327.387,246.056,318.613z"/>
<path style="fill:#272749;" d="M246.056,318.613L196.878,197.33c-2.042-5.035-6.933-8.33-12.366-8.33h-20
	c5.434,0,10.325,3.295,12.366,8.33l49.178,121.283c3.558,8.774-2.899,18.359-12.366,18.359h20
	C243.157,336.972,249.613,327.387,246.056,318.613z"/>
<g>
</g>
<g>
</g>
<g>
</g>
<g>
</g>
<g>
</g>
<g>
</g>
<g>
</g>
<g>
</g>
<g>
</g>
<g>
</g>
<g>
</g>
<g>
</g>
<g>
</g>
<g>
</g>
<g>
</g>
</svg>
