<?xml version="1.0" encoding="iso-8859-1"?>
<!-- Generator: Adobe Illustrator 19.0.0, SVG Export Plug-In . SVG Version: 6.00 Build 0)  -->
<svg version="1.1" id="Capa_1" xmlns="http://www.w3.org/2000/svg" xmlns:xlink="http://www.w3.org/1999/xlink" x="0px" y="0px"
	 viewBox="0 0 512 512" style="enable-background:new 0 0 512 512;" xml:space="preserve">
<circle style="fill:#DE66BF;" cx="256" cy="256" r="256"/>
<g>
	<path style="fill:#70D587;" d="M30,93.479V346.41l0.4-0.12l13.475,49.835L62.94,414.12l114.39,21.81V116.07L37.278,87.458
		C33.5,86.737,30,89.633,30,93.479z"/>
	<polygon style="fill:#70D587;" points="177.333,435.931 334.667,395.931 334.667,76.069 177.333,116.069 	"/>
	<path style="fill:#70D587;" d="M477.019,105.12L334.67,76.07v319.86l111.65,21.29c0,0,12.25-4.38,17.76-12.07
		c0.99-1.37,1.96-2.76,2.92-4.15c9.81-14.24,15-45.65,15-45.65V111.141C482,108.199,479.909,105.671,477.019,105.12z"/>
</g>
<g>
	<path style="fill:#63B472;" d="M482,111.141V355.35c0,0-5.19,31.41-15,45.65c-0.96,1.39-1.93,2.78-2.92,4.15
		c-5.51,7.69-17.76,12.07-17.76,12.07l-111.65-21.29V76.07l142.349,29.05C479.909,105.671,482,108.199,482,111.141z"/>
	<path style="fill:#63B472;" d="M177.33,116.07v319.86L62.94,414.12l-19.065-17.995L30.4,346.29l-0.4,0.12V93.479
		c0-3.846,3.5-6.742,7.278-6.021L177.33,116.07z"/>
</g>
<path style="fill:#39375E;" d="M479,174.82l-217.742-2.396c-4.479-0.049-7.916,3.959-7.183,8.378l15.06,90.832
	c0.712,4.297,5.047,6.983,9.212,5.708L467,219.6l12-3.67v33.27l-12,3.67l-269.177,82.387c-5.243,1.605-6.841,8.248-2.9,12.061
	l55.937,54.122l11.37,11l-36.44,9.01l-11.16-10.8l-60.187-58.236c-1.884-1.823-4.609-2.478-7.115-1.711L34.91,385.12
	c-0.82-1.39-1.62-2.8-2.41-4.21v-28.32l81.098-24.827c5.243-1.605,6.84-8.248,2.899-12.061L32.5,234.43v-44.28l124.477,120.446
	c1.884,1.823,4.609,2.478,7.115,1.711l69.667-21.324c3.448-1.055,5.584-4.498,4.998-8.056L210.44,110.98l30.86-8.24l5.15,31.739
	c0.561,3.457,3.527,6.009,7.029,6.047L479,143V174.82z"/>
<g>
	<path style="fill:#272749;" d="M177.33,374.559v-66.304l-13.238,4.052c-2.506,0.767-5.231,0.112-7.115-1.711L32.5,190.15v44.28
		l83.998,81.272c3.941,3.813,2.344,10.456-2.899,12.061L32.5,352.59v28.314c0,0.001,0.001,0.002,0.001,0.004
		c0.79,1.411,1.589,2.822,2.409,4.212l112.418-34.416c2.506-0.767,5.232-0.112,7.115,1.711L177.33,374.559z"/>
	<polygon style="fill:#272749;" points="479,249.2 479,215.93 467,219.6 334.67,260.103 334.67,293.372 467,252.87 	"/>
	<polygon style="fill:#272749;" points="334.67,173.232 479,174.82 479,143 334.67,141.417 	"/>
</g>
<path style="fill:#FFFBEB;" d="M328.327,67.683l-144.653,36.775c-4.178,1.062-8.538,1.194-12.772,0.387L27.278,77.458
	C23.5,76.737,20,79.633,20,83.479V356.41l0.4-0.12c4.24,9.95,9.09,19.58,14.51,28.83c8.12,13.89,17.52,26.94,28.03,39
	l107.961,20.584c4.234,0.807,8.594,0.675,12.772-0.387l144.654-36.775c4.178-1.062,8.538-1.194,12.773-0.387l105.22,20.065
	c6.31-7.01,12.25-14.38,17.76-22.07l-124.73-23.78c-1.55-0.29-3.12-0.44-4.68-0.44c-2.07,0-4.14,0.26-6.16,0.77l-151.18,38.43
	l-0.77,0.2L45,395.25V111.139c0-2.517,2.291-4.412,4.763-3.94L172.65,130.63c1.55,0.29,3.12,0.44,4.68,0.44
	c2.07,0,4.14-0.26,6.16-0.77l151.18-38.43l0.77-0.2l128.3,24.459c1.892,0.361,3.26,2.015,3.26,3.94V401
	c9.81-14.24,18.21-29.52,25-45.65V101.141c0-2.943-2.091-5.47-4.982-6.021L341.099,67.296
	C336.865,66.489,332.505,66.621,328.327,67.683z"/>
<g>
	<path style="fill:#D8E0C9;" d="M45,395.25V111.139c0-2.517,2.291-4.412,4.763-3.94L172.65,130.63c1.55,0.29,3.12,0.44,4.68,0.44
		v-25.719c-2.149,0.067-4.305-0.101-6.429-0.506L27.278,77.458C23.5,76.737,20,79.633,20,83.479V356.41l0.4-0.12
		c4.24,9.95,9.09,19.58,14.51,28.83c8.12,13.89,17.52,26.94,28.03,39l107.961,20.584c2.124,0.405,4.28,0.573,6.429,0.506v-25.08
		l-0.77,0.2L45,395.25z"/>
	<path style="fill:#D8E0C9;" d="M487.019,95.12l-145.92-27.824c-2.125-0.405-4.281-0.573-6.429-0.506v25.08l0.77-0.2l128.3,24.459
		c1.892,0.361,3.26,2.015,3.26,3.94V401c9.81-14.24,18.21-29.52,25-45.65V101.141C492,98.199,489.909,95.671,487.019,95.12z"/>
</g>
<path style="fill:#DD544C;" d="M334.667,0C305.16,0,281.24,23.92,281.24,53.426c0,40.006,38.966,70.333,50.343,78.334
	c1.853,1.303,4.314,1.303,6.167,0c11.377-8.002,50.343-38.328,50.343-78.334C388.093,23.92,364.173,0,334.667,0z"/>
<path style="fill:#C63B38;" d="M298.336,53.426c0-26.596,19.436-48.644,44.878-52.737C340.43,0.241,337.577,0,334.667,0
	c-29.506,0-53.426,23.92-53.426,53.426c0,40.006,38.966,70.333,50.343,78.334c1.853,1.303,4.314,1.303,6.167,0
	c1.43-1.006,3.296-2.364,5.465-4.05C328.124,115.983,298.336,88.405,298.336,53.426z"/>
<circle style="fill:#FFFBEB;" cx="334.67" cy="53.43" r="25.04"/>
<path style="fill:#D8E0C9;" d="M323.441,53.426c0-11.434,7.665-21.071,18.135-24.071c-2.195-0.629-4.511-0.973-6.909-0.973
	c-13.831,0-25.043,11.212-25.043,25.044c0,13.831,11.212,25.044,25.043,25.044c2.398,0,4.713-0.344,6.909-0.973
	C331.106,74.497,323.441,64.86,323.441,53.426z"/>
<path style="fill:#DD544C;" d="M103.31,215.93c-22.336,0-40.443,18.107-40.443,40.443c0,30.284,29.497,53.241,38.109,59.298
	c1.403,0.987,3.265,0.987,4.668,0c8.612-6.057,38.109-29.014,38.109-59.298C143.753,234.037,125.646,215.93,103.31,215.93z"/>
<path style="fill:#C63B38;" d="M75.809,256.373c0-20.133,14.713-36.823,33.972-39.921c-2.108-0.339-4.267-0.522-6.471-0.522
	c-22.336,0-40.443,18.107-40.443,40.443c0,30.284,29.497,53.241,38.109,59.298c1.403,0.987,3.265,0.987,4.668,0
	c1.082-0.761,2.495-1.79,4.137-3.066C98.357,303.728,75.809,282.851,75.809,256.373z"/>
<circle style="fill:#FFFBEB;" cx="103.31" cy="256.37" r="18.958"/>
<path style="fill:#D8E0C9;" d="M94.812,256.373c0-8.655,5.802-15.95,13.728-18.221c-1.662-0.476-3.415-0.736-5.23-0.736
	c-10.47,0-18.958,8.488-18.958,18.958s8.488,18.958,18.958,18.958c1.815,0,3.568-0.26,5.23-0.736
	C100.615,272.323,94.812,265.028,94.812,256.373z"/>
<g>
</g>
<g>
</g>
<g>
</g>
<g>
</g>
<g>
</g>
<g>
</g>
<g>
</g>
<g>
</g>
<g>
</g>
<g>
</g>
<g>
</g>
<g>
</g>
<g>
</g>
<g>
</g>
<g>
</g>
</svg>
