<?xml version="1.0" encoding="iso-8859-1"?>
<!-- Generator: Adobe Illustrator 19.0.0, SVG Export Plug-In . SVG Version: 6.00 Build 0)  -->
<svg version="1.1" id="Capa_1" xmlns="http://www.w3.org/2000/svg" xmlns:xlink="http://www.w3.org/1999/xlink" x="0px" y="0px"
	 viewBox="0 0 512 512" style="enable-background:new 0 0 512 512;" xml:space="preserve">
<circle style="fill:#70D587;" cx="256" cy="256" r="256"/>
<path style="fill:#272749;" d="M377.762,71.266H272.41c-4.506,0-8.604,2.614-10.502,6.701l-20.552,44.238v20.384h167.462v-20.384
	l-20.552-44.238C386.366,73.88,382.269,71.266,377.762,71.266z"/>
<path style="fill:#39375E;" d="M480.085,122.21h-1.305H33.22h-1.305c-9.872,0-17.875,8.003-17.875,17.875v1.305V339.8
	c4.95,14.32,11.14,28.06,18.44,41.09c12.43,22.2,28.07,42.36,46.29,59.84h354.46c14.41-13.83,27.2-29.32,38.07-46.18
	c10.95-16.98,19.94-35.33,26.66-54.75V141.39v-1.305C497.96,130.213,489.957,122.21,480.085,122.21z"/>
<g>
	<path style="fill:#272749;" d="M160.49,122.2v318.53H78.77c-18.22-17.48-33.86-37.64-46.29-59.84
		c-7.3-13.03-13.49-26.77-18.44-41.09V141.39c0-0.35,0.01-0.7,0.03-1.05c0.04-0.76,0.13-1.51,0.26-2.25
		c0.03-0.25,0.08-0.5,0.14-0.75c0.01-0.05,0.02-0.1,0.03-0.15c0.06-0.3,0.14-0.59,0.22-0.88c0.07-0.29,0.16-0.57,0.26-0.85
		c0.07-0.22,0.14-0.45,0.23-0.67c0.1-0.29,0.22-0.58,0.34-0.87c0.11-0.26,0.22-0.52,0.34-0.77c0.03-0.05,0.06-0.11,0.08-0.16
		c0.12-0.25,0.25-0.49,0.38-0.73c0.56-1.04,1.22-2.03,1.97-2.95c0.12-0.15,0.25-0.3,0.37-0.44c0.51-0.6,1.06-1.16,1.64-1.68
		c0.34-0.31,0.69-0.61,1.05-0.89c0.36-0.29,0.74-0.56,1.12-0.82c0.7-0.48,1.43-0.9,2.19-1.28c0.19-0.09,0.37-0.18,0.55-0.26
		c0.05-0.03,0.1-0.05,0.15-0.07c0.19-0.08,0.38-0.16,0.58-0.24c0.72-0.31,1.46-0.56,2.22-0.76c0.27-0.07,0.54-0.14,0.81-0.2
		c0.27-0.06,0.55-0.11,0.82-0.16c0.28-0.05,0.56-0.09,0.84-0.13c0.83-0.12,1.69-0.18,2.56-0.18H160.49z"/>
	<circle style="fill:#272749;" cx="325.09" cy="282.4" r="133.75"/>
</g>
<path style="fill:#A279C8;" d="M497.96,339.8V190.24H110.93v184.31h372.015C488.769,363.423,493.802,351.818,497.96,339.8z"/>
<g>
	<rect x="110.93" y="190.24" style="fill:#8E64B6;" width="49.56" height="184.31"/>
	<path style="fill:#8E64B6;" d="M191.332,282.399c0,35.717,14.001,68.162,36.812,92.151H422.03
		c22.811-23.989,36.812-56.435,36.812-92.151c0-35.72-14.004-68.169-36.818-92.159H228.15
		C205.335,214.23,191.332,246.678,191.332,282.399z"/>
</g>
<path style="fill:#39375E;" d="M147.75,115.92v305.63c0,10.6-8.58,19.18-19.18,19.18h-49.8c-18.22-17.48-33.86-37.64-46.29-59.84
	c-7.3-13.03-13.49-26.77-18.44-41.09V115.92c0-10.6,8.59-19.18,19.18-19.18h95.35C139.17,96.74,147.75,105.32,147.75,115.92z"/>
<path style="fill:#272749;" d="M100.052,77.633h-38.31c-6.008,0-10.878,4.87-10.878,10.878v8.331h60.066v-8.331
	C110.93,82.503,106.06,77.633,100.052,77.633z"/>
<circle style="fill:#39375E;" cx="325.09" cy="282.4" r="123.88"/>
<circle style="fill:#FFFBEB;" cx="325.09" cy="282.4" r="101.66"/>
<circle style="fill:#D8E0C9;" cx="325.09" cy="282.4" r="95.53"/>
<circle style="fill:#272749;" cx="325.09" cy="282.4" r="62.3"/>
<g>
	<circle style="fill:#FFFBEB;" cx="360.81" cy="246.67" r="30.392"/>
	<path style="fill:#FFFBEB;" d="M356.923,99.94h-63.674c-4.143,0-7.5-3.358-7.5-7.5s3.357-7.5,7.5-7.5h63.674
		c4.143,0,7.5,3.358,7.5,7.5S361.065,99.94,356.923,99.94z"/>
</g>
<g>
</g>
<g>
</g>
<g>
</g>
<g>
</g>
<g>
</g>
<g>
</g>
<g>
</g>
<g>
</g>
<g>
</g>
<g>
</g>
<g>
</g>
<g>
</g>
<g>
</g>
<g>
</g>
<g>
</g>
</svg>
