<?xml version="1.0" encoding="iso-8859-1"?>
<!-- Generator: Adobe Illustrator 19.0.0, SVG Export Plug-In . SVG Version: 6.00 Build 0)  -->
<svg version="1.1" id="Capa_1" xmlns="http://www.w3.org/2000/svg" xmlns:xlink="http://www.w3.org/1999/xlink" x="0px" y="0px"
	 viewBox="0 0 512 512" style="enable-background:new 0 0 512 512;" xml:space="preserve">
<circle style="fill:#DD544C;" cx="256" cy="256" r="256"/>
<path style="fill:#39375E;" d="M324.564,108.634h-26.582V67.688c0-2.194-1.785-3.978-3.979-3.978h-76.006
	c-2.194,0-3.978,1.785-3.978,3.978v40.945h-26.582V67.688c0-16.851,13.709-30.56,30.56-30.56h76.006
	c16.852,0,30.561,13.709,30.561,30.56V108.634z"/>
<path style="fill:#272749;" d="M305.15,108.634V64.76c0-4.69-3.802-8.493-8.493-8.493h-81.313c-4.691,0-8.493,3.802-8.493,8.493
	v43.874h7.168V67.688c0-2.197,1.781-3.978,3.978-3.978h76.006c2.198,0,3.979,1.781,3.979,3.979v40.945H305.15z"/>
<path style="fill:#FFFBEB;" d="M220.411,91.887h-39.367c-1.451,0-2.628,1.176-2.628,2.628V118.5c0,1.451,1.176,2.628,2.628,2.628
	h39.367c1.451,0,2.628-1.176,2.628-2.628V94.514C223.038,93.063,221.862,91.887,220.411,91.887z"/>
<path style="fill:#D8E0C9;" d="M199.145,91.887h-18.101c-1.451,0-2.628,1.176-2.628,2.628V118.5c0,1.451,1.176,2.628,2.628,2.628
	h18.101c1.451,0,2.628-1.176,2.628-2.628V94.514C201.773,93.063,200.596,91.887,199.145,91.887z"/>
<path style="fill:#FFFBEB;" d="M330.956,91.887h-39.367c-1.451,0-2.628,1.176-2.628,2.628V118.5c0,1.451,1.176,2.628,2.628,2.628
	h39.367c1.451,0,2.628-1.176,2.628-2.628V94.514C333.583,93.063,332.407,91.887,330.956,91.887z"/>
<path style="fill:#D8E0C9;" d="M309.69,91.887h-18.101c-1.451,0-2.628,1.176-2.628,2.628V118.5c0,1.451,1.176,2.628,2.628,2.628
	h18.101c1.451,0,2.628-1.176,2.628-2.628V94.514C312.318,93.063,311.141,91.887,309.69,91.887z"/>
<path style="fill:#F3D75C;" d="M498.43,121.38v217.07c-3.07,9.02-6.62,17.81-10.64,26.34c-15.23,32.42-37.08,61.12-63.79,84.37
	c-2.44,2.13-4.92,4.21-7.44,6.24c-0.52,0.42-1.04,0.84-1.57,1.25c-0.73,0.59-1.47,1.17-2.22,1.74c-4.78,3.72-9.7,7.26-14.75,10.63
	H113.98c-5.05-3.37-9.97-6.91-14.75-10.63c-0.75-0.57-1.49-1.15-2.22-1.74c-3.06-2.43-6.07-4.92-9.01-7.49
	c-2.53-2.19-5.01-4.44-7.44-6.73C57.22,420.46,38,394.15,24.21,364.79c-4.02-8.53-7.57-17.32-10.64-26.34V121.38
	c0-2.32,1-4.4,2.59-5.84c1.41-1.29,3.27-2.06,5.31-2.06h469.06c2.04,0,3.9,0.77,5.31,2.06
	C497.43,116.98,498.43,119.06,498.43,121.38z"/>
<g>
	<path style="fill:#E8C63A;" d="M99.23,458.39c4.78,3.72,9.7,7.26,14.75,10.63h284.04c5.05-3.37,9.97-6.91,14.75-10.63H99.23z
		 M495.84,115.54c-1.41-1.29-3.27-2.06-5.31-2.06H21.47c-2.04,0-3.9,0.77-5.31,2.06c-1.59,1.44-2.59,3.52-2.59,5.84v217.07
		c3.07,9.02,6.62,17.81,10.64,26.34V132.01c0-2.32,1-4.4,2.58-5.85c1.41-1.27,3.27-2.05,5.31-2.05h447.8c2.04,0,3.9,0.78,5.31,2.05
		c1.58,1.45,2.58,3.53,2.58,5.85v232.78c4.02-8.53,7.57-17.32,10.64-26.34V121.38C498.43,119.06,497.43,116.98,495.84,115.54z"/>
	<path style="fill:#E8C63A;" d="M416.56,113.48V455.4c-0.52,0.42-1.04,0.84-1.57,1.25c-0.73,0.59-1.47,1.17-2.22,1.74
		c-4.78,3.72-9.7,7.26-14.75,10.63h-50.61V113.48H416.56z"/>
</g>
<circle style="fill:#FFFBEB;" cx="342.14" cy="197.86" r="41.503"/>
<path style="fill:#D8E0C9;" d="M347.406,156.701v82.318c20.434-2.588,36.239-20.022,36.239-41.159
	C383.645,176.723,367.84,159.29,347.406,156.701z"/>
<circle style="fill:#70D587;" cx="342.14" cy="197.86" r="32.29"/>
<path style="fill:#63B472;" d="M347.406,166.007v63.708c15.327-2.514,27.024-15.815,27.024-31.854S362.733,168.521,347.406,166.007z
	"/>
<path style="fill:#E8C63A;" d="M149.71,113.48v355.54h-35.73c-5.05-3.37-9.97-6.91-14.75-10.63c-0.75-0.57-1.49-1.15-2.22-1.74
	c-3.06-2.43-6.07-4.92-9.01-7.49c-2.53-2.19-5.01-4.44-7.44-6.73V113.48H149.71z"/>
<path style="fill:#FFFBEB;" d="M156.942,307.838L56.378,257.545c-1.117-0.558-1.569-1.916-1.011-3.033l36.7-73.385
	c0.558-1.117,1.916-1.569,3.033-1.011l100.565,50.293c1.117,0.558,1.569,1.916,1.011,3.033l-36.7,73.385
	C159.417,307.944,158.059,308.396,156.942,307.838z"/>
<path style="fill:#D8E0C9;" d="M80.559,269.638l69.149,34.582v-96.793L95.1,180.117c-1.117-0.559-2.475-0.106-3.033,1.011
	l-11.508,23.011V269.638z"/>
<path style="fill:#DD544C;" d="M152.902,293.928L69.93,252.434c-0.723-0.361-1.016-1.24-0.654-1.963l27.901-55.791
	c0.361-0.723,1.24-1.016,1.963-0.654l82.971,41.494c0.723,0.361,1.016,1.24,0.654,1.963l-27.901,55.791
	C154.503,293.997,153.624,294.29,152.902,293.928z"/>
<path style="fill:#C63B38;" d="M80.559,257.75l69.149,34.582v-73.017L99.14,194.026c-0.723-0.361-1.602-0.069-1.963,0.654
	l-16.618,33.23C80.559,227.91,80.559,257.75,80.559,257.75z"/>
<g>
	<path style="fill:#272749;" d="M154.52,107.63H90.63c-1.45,0-2.63,1.18-2.63,2.63v338.9c2.94,2.57,5.95,5.06,9.01,7.49
		c0.73,0.59,1.47,1.17,2.22,1.74c4.78,3.72,9.7,7.26,14.75,10.63c3.01,2.01,6.07,3.96,9.17,5.85h31.37c1.45,0,2.63-1.17,2.63-2.63
		V110.26C157.15,108.81,155.97,107.63,154.52,107.63z M122.58,431.61c-6.13,0-11.1-4.97-11.1-11.09c0-6.13,4.97-11.09,11.1-11.09
		c6.12,0,11.09,4.96,11.09,11.09C133.67,426.64,128.7,431.61,122.58,431.61z M122.58,250.11c-6.13,0-11.1-4.97-11.1-11.09
		c0-6.13,4.97-11.09,11.1-11.09c6.12,0,11.09,4.96,11.09,11.09C133.67,245.14,128.7,250.11,122.58,250.11z M122.58,177.1
		c-6.13,0-11.1-4.97-11.1-11.09c0-6.13,4.97-11.1,11.1-11.1c6.12,0,11.09,4.97,11.09,11.1C133.67,172.13,128.7,177.1,122.58,177.1z"
		/>
	<path style="fill:#272749;" d="M354.85,110.26v361.98c0,1.46,1.18,2.63,2.63,2.63h31.37c3.1-1.89,6.16-3.84,9.17-5.85
		c5.05-3.37,9.97-6.91,14.75-10.63c0.75-0.57,1.49-1.15,2.22-1.74c3.06-2.43,6.07-4.92,9.01-7.49v-338.9c0-1.45-1.18-2.63-2.63-2.63
		h-63.89C356.03,107.63,354.85,108.81,354.85,110.26z M378.33,420.52c0-6.13,4.97-11.09,11.09-11.09c6.13,0,11.1,4.96,11.1,11.09
		c0,6.12-4.97,11.09-11.1,11.09C383.3,431.61,378.33,426.64,378.33,420.52z M378.33,239.02c0-6.13,4.97-11.09,11.09-11.09
		c6.13,0,11.1,4.96,11.1,11.09c0,6.12-4.97,11.09-11.1,11.09C383.3,250.11,378.33,245.14,378.33,239.02z M378.33,166.01
		c0-6.13,4.97-11.1,11.09-11.1c6.13,0,11.1,4.97,11.1,11.1c0,6.12-4.97,11.09-11.1,11.09C383.3,177.1,378.33,172.13,378.33,166.01z"
		/>
</g>
<path style="fill:#39375E;" d="M363.86,107.63v367.24h24.99c3.1-1.89,6.16-3.84,9.17-5.85c5.05-3.37,9.97-6.91,14.75-10.63
	c0.75-0.57,1.49-1.15,2.22-1.74V107.63H363.86z M378.33,420.52c0-6.13,4.97-11.09,11.09-11.09c6.13,0,11.1,4.96,11.1,11.09
	c0,6.12-4.97,11.09-11.1,11.09C383.3,431.61,378.33,426.64,378.33,420.52z M378.33,239.02c0-6.13,4.97-11.09,11.09-11.09
	c6.13,0,11.1,4.96,11.1,11.09c0,6.12-4.97,11.09-11.1,11.09C383.3,250.11,378.33,245.14,378.33,239.02z M378.33,166.01
	c0-6.13,4.97-11.1,11.09-11.1c6.13,0,11.1,4.97,11.1,11.1c0,6.12-4.97,11.09-11.1,11.09C383.3,177.1,378.33,172.13,378.33,166.01z"
	/>
<path style="fill:#D8E0C9;" d="M421.824,284.81h-64.797c-2.596,0-4.721,2.096-4.721,4.707v83.513c0,2.61,2.124,4.721,4.721,4.721
	h64.797c2.596,0,4.72-2.11,4.72-4.721v-83.513C426.544,286.906,424.42,284.81,421.824,284.81z M366.315,361.464v-60.382
	c0-1.263,1.013-2.263,2.263-2.263h41.694c1.236,0,2.263,1,2.263,2.263v60.382c0,1.263-1.027,2.277-2.263,2.277h-41.694
	C367.329,363.741,366.315,362.727,366.315,361.464z"/>
<g>
	<path style="fill:#FFFBEB;" d="M386.418,344.583L386.418,344.583c-2.171,0-3.931-1.76-3.931-3.931v-44.01
		c0-3.832,3.107-6.939,6.939-6.939l0,0c3.832,0,6.939,3.107,6.939,6.939v37.995C396.364,340.129,391.911,344.583,386.418,344.583z"
		/>
	<path style="fill:#FFFBEB;" d="M39.238,135.986h31.251c1.451,0,2.628-1.176,2.628-2.628v-23.099c0-1.451-1.176-2.628-2.628-2.628
		H10.883c-1.451,0-2.628,1.176-2.628,2.628v59.605c0,1.451,1.176,2.628,2.628,2.628h23.099c1.451,0,2.628-1.176,2.628-2.628v-31.251
		C36.61,137.162,37.786,135.986,39.238,135.986z"/>
	<path style="fill:#FFFBEB;" d="M472.762,135.986h-31.251c-1.451,0-2.628-1.176-2.628-2.628v-23.099
		c0-1.451,1.176-2.628,2.628-2.628h59.605c1.451,0,2.628,1.176,2.628,2.628v59.605c0,1.451-1.176,2.628-2.628,2.628h-23.099
		c-1.451,0-2.628-1.176-2.628-2.628v-31.251C475.39,137.162,474.214,135.986,472.762,135.986z"/>
</g>
<path style="fill:#39375E;" d="M97.01,107.63v349.02c0.73,0.59,1.47,1.17,2.22,1.74c4.78,3.72,9.7,7.26,14.75,10.63
	c3.01,2.01,6.07,3.96,9.17,5.85h24.99V107.63H97.01z M122.58,431.61c-6.13,0-11.1-4.97-11.1-11.09c0-6.13,4.97-11.09,11.1-11.09
	c6.12,0,11.09,4.96,11.09,11.09C133.67,426.64,128.7,431.61,122.58,431.61z M122.58,250.11c-6.13,0-11.1-4.97-11.1-11.09
	c0-6.13,4.97-11.09,11.1-11.09c6.12,0,11.09,4.96,11.09,11.09C133.67,245.14,128.7,250.11,122.58,250.11z M122.58,177.1
	c-6.13,0-11.1-4.97-11.1-11.09c0-6.13,4.97-11.1,11.1-11.1c6.12,0,11.09,4.97,11.09,11.1C133.67,172.13,128.7,177.1,122.58,177.1z"
	/>
<g>
	<path style="fill:#D8E0C9;" d="M501.117,107.631h-59.605c-1.451,0-2.628,1.176-2.628,2.628v23.099c0,1.451,1.176,2.628,2.628,2.628
		h31.251c0.726,0,1.382,0.294,1.858,0.77l28.354-28.354C502.499,107.926,501.842,107.631,501.117,107.631z"/>
	<path style="fill:#D8E0C9;" d="M8.256,169.864c0,1.451,1.176,2.628,2.628,2.628h23.099c1.451,0,2.628-1.176,2.628-2.628v-31.251
		c0-0.726,0.294-1.382,0.77-1.858L9.025,108.401c-0.476,0.475-0.77,1.132-0.77,1.858v59.605H8.256z"/>
</g>
<path style="fill:#FFFBEB;" d="M243.906,393.787c-3.785,0-7.495-1.545-10.18-4.238c-2.697-2.707-4.174-6.313-4.161-10.154
	l0.259-72.127c0.029-7.879,6.462-14.289,14.341-14.289c2.515,0,5.005,0.676,7.202,1.955l62.334,36.288
	c4.478,2.607,7.141,7.257,7.122,12.438c-0.019,5.182-2.714,9.812-7.211,12.386l-62.593,35.838
	C248.846,393.129,246.385,393.787,243.906,393.787z"/>
<path style="fill:#31A7AB;" d="M278.256,320.428l31.167,18.144c3.876,2.256,3.856,7.862-0.036,10.091l-31.297,17.92l-31.297,17.92
	c-3.892,2.228-8.737-0.592-8.721-5.077l0.13-36.064l0.13-36.064c0.016-4.485,4.881-7.27,8.757-5.014L278.256,320.428z"/>
<path style="fill:#D8E0C9;" d="M154.974,284.81H90.177c-2.596,0-4.721,2.096-4.721,4.707v83.513c0,2.61,2.124,4.721,4.721,4.721
	h64.797c2.596,0,4.72-2.11,4.72-4.721v-83.513C159.694,286.906,157.57,284.81,154.974,284.81z M99.465,361.464v-60.382
	c0-1.263,1.014-2.263,2.263-2.263h41.694c1.236,0,2.263,1,2.263,2.263v60.382c0,1.263-1.027,2.277-2.263,2.277h-41.694
	C100.479,363.741,99.465,362.727,99.465,361.464z"/>
<path style="fill:#FFFBEB;" d="M119.568,344.583L119.568,344.583c-2.171,0-3.931-1.76-3.931-3.931v-44.01
	c0-3.832,3.107-6.939,6.939-6.939l0,0c3.832,0,6.939,3.107,6.939,6.939v37.995C129.514,340.129,125.061,344.583,119.568,344.583z"/>
<g>
</g>
<g>
</g>
<g>
</g>
<g>
</g>
<g>
</g>
<g>
</g>
<g>
</g>
<g>
</g>
<g>
</g>
<g>
</g>
<g>
</g>
<g>
</g>
<g>
</g>
<g>
</g>
<g>
</g>
</svg>
