<?xml version="1.0" encoding="iso-8859-1"?>
<!-- Generator: Adobe Illustrator 19.0.0, SVG Export Plug-In . SVG Version: 6.00 Build 0)  -->
<svg version="1.1" id="Capa_1" xmlns="http://www.w3.org/2000/svg" xmlns:xlink="http://www.w3.org/1999/xlink" x="0px" y="0px"
	 viewBox="0 0 512 512" style="enable-background:new 0 0 512 512;" xml:space="preserve">
<circle style="fill:#31A7AB;" cx="256" cy="256" r="256"/>
<g>
	<path style="fill:#5FD3D3;" d="M75.495,255.721L75.495,255.721c0,8.284-6.716,15-15,15H43.954c-8.284,0-15,6.716-15,15l0,0
		c0,8.284,6.716,15,15,15h170.594c8.284,0,15-6.716,15-15l0,0c0-8.284,6.716-15,15-15h16.541c8.284,0,15-6.716,15-15l0,0
		c0-8.284-6.716-15-15-15H90.495C82.211,240.721,75.495,247.437,75.495,255.721z"/>
	<path style="fill:#5FD3D3;" d="M455.108,134.661L455.108,134.661c0-8.284-6.716-15-15-15H269.514c-8.284,0-15,6.716-15,15l0,0
		c0,8.284-6.716,15-15,15h-43.116c-8.284,0-15,6.716-15,15l0,0c0,8.284,6.716,15,15,15h4.978c8.284,0,15,6.716,15,15l0,0
		c0,8.284,6.716,15,15,15h174.045c8.284,0,15-6.716,15-15l0,0c0-8.284-6.716-15-15-15h-8.428c-8.284,0-15-6.716-15-15l0,0
		c0-8.284,6.716-15,15-15h43.116C448.392,149.661,455.108,142.946,455.108,134.661z"/>
</g>
<g>
	<path style="fill:#39375E;" d="M159.019,40.109l-18.996,3.894l-6.633-32.358c-1.075-5.246,2.306-10.37,7.551-11.445l0,0
		c5.246-1.075,10.37,2.306,11.445,7.551L159.019,40.109z"/>
	<path style="fill:#39375E;" d="M243.363,451.783l-55.5-270.956c-1.075-5.246-6.199-8.627-11.445-7.551s-8.627,6.199-7.551,11.445
		l55.216,269.573C230.591,453.766,237.023,452.927,243.363,451.783z"/>
</g>
<path style="fill:#272749;" d="M176.418,173.276c-5.246,1.075-8.627,6.199-7.551,11.445l6.266,30.568l0.009,0.003l18.988-3.892
	l-6.267-30.572C186.788,175.582,181.663,172.201,176.418,173.276z"/>
<path style="fill:#70D587;" d="M347.053,129.365L2.268,200.038C-13.041,125.353,50.771,49.104,145.014,29.015
	c0.583-0.127,1.172-0.255,1.757-0.375c0.584-0.12,1.177-0.234,1.762-0.346C243.081,9.685,331.744,54.681,347.053,129.365z"/>
<path style="fill:#FFFBEB;" d="M312.503,136.447L36.817,192.956C21.534,118.393,69.876,45.396,144.991,29.019
	c0.59-0.128,1.188-0.258,1.78-0.38c0.592-0.121,1.192-0.237,1.785-0.351C224.058,13.793,297.219,61.884,312.503,136.447z"/>
<path style="fill:#70D587;" d="M262.994,146.595L86.327,182.808C70.923,107.66,97.988,38.639,146.771,28.64
	S247.59,71.448,262.994,146.595z"/>
<path style="fill:#FFFBEB;" d="M209.566,157.547l-69.812,14.31c-15.403-75.147-12.26-139.265,7.017-143.217
	S194.163,82.399,209.566,157.547z"/>
<path style="fill:#D8E0C9;" d="M198.726,192.48l-35.262,7.228c-9.541,1.956-18.86-4.193-20.816-13.734l-2.894-14.118l69.812-14.31
	l2.894,14.118C214.415,181.205,208.267,190.525,198.726,192.48z"/>
<path style="fill:#63B472;" d="M252.153,181.529l-18.878,3.869c-9.541,1.956-18.86-4.193-20.816-13.734l-2.894-14.118l53.427-10.951
	l2.894,14.118C267.843,170.254,261.694,179.573,252.153,181.529z"/>
<path style="fill:#D8E0C9;" d="M301.663,171.381l-14.96,3.066c-9.541,1.956-18.86-4.193-20.816-13.734l-2.894-14.118l49.509-10.148
	l2.894,14.118C317.352,160.106,311.203,169.425,301.663,171.381z"/>
<g>
	<path style="fill:#63B472;" d="M336.213,164.299L336.213,164.299c-9.541,1.956-18.86-4.193-20.816-13.734l-2.894-14.118
		l34.55-7.082l2.894,14.118C351.902,153.024,345.753,162.343,336.213,164.299z"/>
	<path style="fill:#63B472;" d="M25.977,227.889L25.977,227.889c-9.541,1.956-18.86-4.193-20.816-13.734l-2.894-14.118l34.55-7.082
		l2.894,14.118C41.667,216.614,35.518,225.934,25.977,227.889z"/>
	<path style="fill:#63B472;" d="M128.914,206.79l-18.878,3.869c-9.541,1.956-18.86-4.193-20.816-13.734l-2.894-14.118l53.427-10.951
		l2.894,14.118C144.604,195.515,138.455,204.834,128.914,206.79z"/>
</g>
<path style="fill:#D8E0C9;" d="M75.487,217.741l-14.96,3.066c-9.541,1.956-18.86-4.193-20.816-13.734l-2.894-14.118l49.509-10.148
	l2.894,14.118C91.176,206.466,85.027,215.786,75.487,217.741z"/>
<path style="fill:#F3D75C;" d="M65.503,427c46.865,52.174,114.844,85,190.497,85s143.632-32.826,190.497-85H65.503z"/>
<g>
	<path style="fill:#FFFBEB;" d="M229.073,435.182c-1.001,0-2.02-0.202-2.996-0.628c-3.796-1.657-5.531-6.078-3.874-9.874
		l75.887-173.875c1.657-3.796,6.078-5.531,9.874-3.874c3.796,1.657,5.531,6.078,3.874,9.874L235.951,430.68
		C234.72,433.5,231.964,435.182,229.073,435.182z"/>
	<path style="fill:#FFFBEB;" d="M361.073,435.182c-1.001,0-2.02-0.202-2.996-0.628c-3.796-1.657-5.531-6.078-3.874-9.874
		l75.887-173.875c1.657-3.796,6.078-5.531,9.874-3.874c3.796,1.657,5.531,6.078,3.874,9.874L367.951,430.68
		C366.72,433.5,363.965,435.182,361.073,435.182z"/>
</g>
<path style="fill:#DD544C;" d="M417.353,362.548l17.228-39.677c0.646-1.488-0.445-3.15-2.066-3.15H246.342
	c-2.321,0-4.421,1.377-5.345,3.507l-17.228,39.677c-0.646,1.488,0.445,3.15,2.066,3.15h186.173
	C414.329,366.055,416.429,364.677,417.353,362.548z"/>
<path style="fill:#C63B38;" d="M243.769,362.904l17.228-39.677c0.924-2.129,3.024-3.507,5.345-3.507h-20
	c-2.321,0-4.421,1.377-5.345,3.507l-17.228,39.677c-0.646,1.488,0.445,3.15,2.066,3.15h20
	C244.213,366.055,243.123,364.392,243.769,362.904z"/>
<path style="fill:#DD544C;" d="M443.985,301.215l19.218-44.26c0.646-1.488-0.445-3.15-2.066-3.15H274.963
	c-2.321,0-4.421,1.377-5.345,3.507l-19.218,44.26c-0.646,1.488,0.445,3.15,2.066,3.15h186.173
	C440.96,304.721,443.06,303.344,443.985,301.215z"/>
<path style="fill:#C63B38;" d="M270.4,301.571l19.218-44.26c0.924-2.129,3.024-3.507,5.345-3.507h-20
	c-2.321,0-4.421,1.377-5.345,3.507l-19.218,44.26c-0.646,1.488,0.445,3.15,2.066,3.15h20
	C270.845,304.721,269.754,303.059,270.4,301.571z"/>
<path style="fill:#DD544C;" d="M214.365,384.561L197.01,424.53c-0.646,1.488,0.445,3.15,2.066,3.15H385.25
	c2.321,0,4.421-1.377,5.345-3.507l17.355-39.969c0.646-1.488-0.445-3.15-2.066-3.15H219.711
	C217.389,381.055,215.29,382.432,214.365,384.561z"/>
<g>
	<path style="fill:#C63B38;" d="M217.01,424.53l17.355-39.969c0.924-2.129,3.024-3.507,5.345-3.507h-20
		c-2.321,0-4.421,1.377-5.345,3.507L197.01,424.53c-0.646,1.488,0.445,3.15,2.066,3.15h20
		C217.455,427.68,216.364,426.018,217.01,424.53z"/>
	<path style="fill:#C63B38;" d="M408.14,428.74c0,11.46-8.36,20.96-19.31,22.73c-1.21,0.21-2.46,0.31-3.73,0.31H91.05
		c-2.89-2.44-5.73-4.94-8.51-7.5c-12.65-11.67-24.13-24.6-34.22-38.58H385.1c6.36,0,12.12,2.58,16.29,6.75
		C405.56,416.62,408.14,422.38,408.14,428.74z"/>
</g>
<path style="fill:#FFFBEB;" d="M388.85,451.78c0,4.15-3.36,7.5-7.5,7.5H100.38c-3.17-2.43-6.28-4.93-9.33-7.5
	c-2.89-2.44-5.73-4.94-8.51-7.5h298.81c4.04,0,7.33,3.19,7.48,7.19C388.85,451.57,388.85,451.68,388.85,451.78z"/>
<g>
</g>
<g>
</g>
<g>
</g>
<g>
</g>
<g>
</g>
<g>
</g>
<g>
</g>
<g>
</g>
<g>
</g>
<g>
</g>
<g>
</g>
<g>
</g>
<g>
</g>
<g>
</g>
<g>
</g>
</svg>
