<?xml version="1.0" encoding="iso-8859-1"?>
<!-- Generator: Adobe Illustrator 19.0.0, SVG Export Plug-In . SVG Version: 6.00 Build 0)  -->
<svg version="1.1" id="Capa_1" xmlns="http://www.w3.org/2000/svg" xmlns:xlink="http://www.w3.org/1999/xlink" x="0px" y="0px"
	 viewBox="0 0 512 512" style="enable-background:new 0 0 512 512;" xml:space="preserve">
<circle style="fill:#39375E;" cx="256" cy="256" r="256"/>
<path style="fill:#63B472;" d="M57,139.25v-87.5C57,45.813,61.813,41,67.75,41h376.5c5.937,0,10.75,4.813,10.75,10.75v87.5
	c0,5.937-4.813,10.75-10.75,10.75H67.75C61.813,150,57,145.187,57,139.25z"/>
<path style="fill:#F9E7CD;" d="M439.426,102.814H72.574c-2.526,0-4.574-2.048-4.574-4.574V65.76c0-2.526,2.048-4.574,4.574-4.574
	h366.853c2.526,0,4.574,2.048,4.574,4.574v32.48C444,100.766,441.952,102.814,439.426,102.814z"/>
<path style="fill:#70D587;" d="M455,92.75v324.3C408.07,474.97,336.36,512,256,512c-42.56,0-82.69-10.39-118-28.77
	c-31.36-16.31-58.93-38.93-81-66.18V92.75C57,86.81,61.81,82,67.75,82h376.5C450.19,82,455,86.81,455,92.75z"/>
<g>
	<path style="fill:#63B472;" d="M138,82v401.23c-31.36-16.31-58.93-38.93-81-66.18V90.33c0-4.6,3.73-8.33,8.33-8.33H138z"/>
	<path style="fill:#63B472;" d="M395.722,268.913c3.593-10.565,5.543-21.883,5.543-33.648s-1.95-23.083-5.543-33.648
		c-0.096-0.348-0.214-0.687-0.357-1.013c-14.34-40.785-53.24-70.104-98.864-70.104c-45.442,0-84.213,29.085-98.692,69.615
		c-0.352,0.664-0.604,1.388-0.744,2.152c-3.453,10.38-5.329,21.474-5.329,32.998c0,11.765,1.95,23.083,5.543,33.648
		c0.096,0.348,0.214,0.687,0.357,1.013c14.34,40.785,53.24,70.104,98.864,70.104s84.524-29.319,98.864-70.104
		C395.508,269.6,395.625,269.261,395.722,268.913z M386.265,235.265c0,8.362-1.153,16.458-3.302,24.144h-36.716
		c0.86-7.821,1.308-15.911,1.308-24.144s-0.448-16.323-1.308-24.144h36.717C385.112,218.806,386.265,226.903,386.265,235.265z
		 M260.446,235.265c0-8.492,0.495-16.564,1.388-24.144h69.333c0.893,7.579,1.388,15.652,1.388,24.144s-0.495,16.564-1.388,24.144
		h-69.333C260.941,251.829,260.446,243.757,260.446,235.265z M377.269,196.121h-33.245c-2.271-12.039-5.598-23.131-9.882-32.698
		c-2.058-4.596-4.297-8.742-6.692-12.422C349.291,159.048,367.166,175.359,377.269,196.121z M296.5,145.5
		c12.419,0,25.862,19.564,32.257,50.621h-64.513C270.638,165.064,284.081,145.5,296.5,145.5z M265.549,151.001
		c-2.395,3.68-4.634,7.827-6.692,12.422c-4.284,9.568-7.611,20.66-9.882,32.698H215.73
		C225.834,175.359,243.709,159.048,265.549,151.001z M210.037,211.121h36.717c-0.86,7.821-1.308,15.911-1.308,24.144
		s0.448,16.323,1.308,24.144h-36.716c-2.149-7.685-3.302-15.782-3.302-24.144C206.735,226.903,207.888,218.806,210.037,211.121z
		 M215.745,274.408h33.231c2.271,12.039,5.598,23.131,9.882,32.698c2.058,4.596,4.297,8.742,6.692,12.422
		C243.711,311.482,225.848,295.167,215.745,274.408z M296.5,325.029c-12.419,0-25.862-19.564-32.257-50.621h64.513
		C322.362,305.465,308.919,325.029,296.5,325.029z M327.451,319.529c2.395-3.68,4.634-7.827,6.692-12.422
		c4.284-9.568,7.611-20.66,9.882-32.698h33.231C367.152,295.167,349.289,311.482,327.451,319.529z"/>
	<path style="fill:#63B472;" d="M404.401,393.5H188.599c-4.142,0-7.5-3.358-7.5-7.5s3.358-7.5,7.5-7.5h215.803
		c4.142,0,7.5,3.358,7.5,7.5S408.543,393.5,404.401,393.5z"/>
	<path style="fill:#63B472;" d="M379.401,434.5H213.599c-4.142,0-7.5-3.358-7.5-7.5s3.358-7.5,7.5-7.5h165.803
		c4.142,0,7.5,3.358,7.5,7.5S383.543,434.5,379.401,434.5z"/>
</g>
<g>
	<circle style="fill:#FFFBEB;" cx="97.5" cy="181.5" r="16.5"/>
	<circle style="fill:#FFFBEB;" cx="97.5" cy="372.5" r="16.5"/>
</g>
<g>
</g>
<g>
</g>
<g>
</g>
<g>
</g>
<g>
</g>
<g>
</g>
<g>
</g>
<g>
</g>
<g>
</g>
<g>
</g>
<g>
</g>
<g>
</g>
<g>
</g>
<g>
</g>
<g>
</g>
</svg>
