<?xml version="1.0" encoding="iso-8859-1"?>
<!-- Generator: Adobe Illustrator 19.0.0, SVG Export Plug-In . SVG Version: 6.00 Build 0)  -->
<svg version="1.1" id="Layer_1" xmlns="http://www.w3.org/2000/svg" xmlns:xlink="http://www.w3.org/1999/xlink" x="0px" y="0px"
	 viewBox="0 0 509.287 509.287" style="enable-background:new 0 0 509.287 509.287;" xml:space="preserve">
<circle style="fill:#FF553E;" cx="254.644" cy="254.644" r="254.644"/>
<path style="fill:#74594E;" d="M257.695,78.665c-6.442-6.442-17.293-6.442-23.735,0L5.425,307.2
	c6.442,31.195,18.988,60.694,35.942,86.464l253.626-253.627c6.442-6.442,6.442-17.293,0-23.735L257.695,78.665z"/>
<rect x="155.243" y="102.291" transform="matrix(-0.7071 -0.7071 0.7071 -0.7071 247.1521 426.3091)" style="fill:#D6D6D8;" width="113.249" height="119.353"/>
<path style="fill:#F1F3F7;" d="M282.109,433.335c-16.954-54.591-43.062-120.371-72.223-189.203
	c28.143-28.143,56.286-56.286,84.429-84.429c68.832,29.499,134.612,55.269,189.203,72.223
	C445.881,323.136,373.319,395.698,282.109,433.335z"/>
<path style="fill:#FCFCFD;" d="M483.518,232.265c-6.103-2.034-12.207-3.73-18.31-6.103
	c-37.298,84.09-104.774,151.226-188.864,188.864c2.034,6.103,4.069,12.546,6.103,18.31
	C373.319,395.698,445.881,323.136,483.518,232.265z"/>
<g>
</g>
<g>
</g>
<g>
</g>
<g>
</g>
<g>
</g>
<g>
</g>
<g>
</g>
<g>
</g>
<g>
</g>
<g>
</g>
<g>
</g>
<g>
</g>
<g>
</g>
<g>
</g>
<g>
</g>
</svg>
