<?xml version="1.0" encoding="iso-8859-1"?>
<!-- Generator: Adobe Illustrator 19.0.0, SVG Export Plug-In . SVG Version: 6.00 Build 0)  -->
<svg version="1.1" id="Layer_1" xmlns="http://www.w3.org/2000/svg" xmlns:xlink="http://www.w3.org/1999/xlink" x="0px" y="0px"
	 viewBox="0 0 509.287 509.287" style="enable-background:new 0 0 509.287 509.287;" xml:space="preserve">
<path style="fill:#FBD303;" d="M0,254.644C0,113.928,113.928,0,254.644,0s254.644,113.928,254.644,254.644
	c0,18.988-2.034,37.298-6.103,54.93H6.103C2.034,291.942,0,273.632,0,254.644z"/>
<path style="fill:#3EB9E3;" d="M503.184,309.573c-25.091,114.268-126.813,199.714-248.54,199.714S31.195,423.841,6.103,309.573
	H503.184z"/>
<g>
	<path style="fill:#4DCCEF;" d="M373.658,357.044h77.987c2.374,0,4.069-1.695,4.069-4.069c0-2.373-1.695-4.069-4.069-4.069h-77.987
		c-2.374,0-4.069,1.695-4.069,4.069C369.589,355.009,371.624,357.044,373.658,357.044z"/>
	<path style="fill:#4DCCEF;" d="M57.642,332.63h77.987c2.374,0,4.069-1.695,4.069-4.069c0-2.373-1.695-4.069-4.069-4.069H57.642
		c-2.374,0-4.069,1.695-4.069,4.069C53.574,330.935,55.269,332.63,57.642,332.63z"/>
	<path style="fill:#4DCCEF;" d="M172.588,332.63h77.987c2.374,0,4.069-1.695,4.069-4.069c0-2.373-1.695-4.069-4.069-4.069h-77.987
		c-2.374,0-4.069,1.695-4.069,4.069C168.519,330.935,170.215,332.63,172.588,332.63z"/>
	<path style="fill:#4DCCEF;" d="M132.577,371.624h77.987c2.374,0,4.069-1.695,4.069-4.069c0-2.373-1.695-4.069-4.069-4.069h-77.987
		c-2.374,0-4.069,1.695-4.069,4.069C128.509,369.928,130.204,371.624,132.577,371.624z"/>
	<path style="fill:#4DCCEF;" d="M318.05,332.63h77.987c2.374,0,4.069-1.695,4.069-4.069c0-2.373-1.695-4.069-4.069-4.069H318.05
		c-2.374,0-4.069,1.695-4.069,4.069C313.981,330.935,316.016,332.63,318.05,332.63z"/>
	<path style="fill:#4DCCEF;" d="M283.465,406.548h77.987c4.408,0,8.138-3.73,8.138-8.138s-3.73-8.138-8.138-8.138h-77.987
		c-4.408,0-8.138,3.73-8.138,8.138S279.057,406.548,283.465,406.548z"/>
	<path style="fill:#4DCCEF;" d="M313.303,447.576h77.987c6.781,0,12.207-5.425,12.207-12.207c0-6.781-5.425-12.207-12.207-12.207
		h-77.987c-6.781,0-12.207,5.425-12.207,12.207C301.097,441.812,306.522,447.576,313.303,447.576z"/>
	<path style="fill:#4DCCEF;" d="M116.641,447.576h145.462c6.781,0,12.207-5.425,12.207-12.207c0-6.781-5.425-12.207-12.207-12.207
		H116.641c-6.781,0-12.207,5.425-12.207,12.207C104.434,441.812,109.86,447.576,116.641,447.576z"/>
	<path style="fill:#4DCCEF;" d="M217.685,489.282h74.935c9.155,0,16.615-7.46,16.615-16.615c0-9.155-7.46-16.615-16.615-16.615
		h-74.935c-9.155,0-16.615,7.46-16.615,16.615C201.409,481.823,208.53,489.282,217.685,489.282z"/>
	<path style="fill:#4DCCEF;" d="M414.008,406.548h8.138c4.408,0,8.138-3.73,8.138-8.138s-3.73-8.138-8.138-8.138h-8.138
		c-4.408,0-8.138,3.73-8.138,8.138S409.261,406.548,414.008,406.548z"/>
	<path style="fill:#4DCCEF;" d="M81.717,406.548h77.987c4.408,0,8.138-3.73,8.138-8.138s-3.73-8.138-8.138-8.138H81.717
		c-4.408,0-8.138,3.73-8.138,8.138S77.309,406.548,81.717,406.548z"/>
	<path style="fill:#4DCCEF;" d="M249.897,375.693h21.023c2.374,0,4.069-1.695,4.069-4.069s-1.695-4.069-4.069-4.069h-21.023
		c-2.374,0-4.069,1.695-4.069,4.069S247.523,375.693,249.897,375.693z"/>
	<path style="fill:#4DCCEF;" d="M79.004,371.624h21.362c2.374,0,4.069-1.695,4.069-4.069c0-2.373-1.695-4.069-4.069-4.069H79.343
		c-2.374,0-4.069,1.695-4.069,4.069C74.935,369.928,76.63,371.624,79.004,371.624z"/>
</g>
<g>
	<circle style="fill:#FFFFFC;" cx="343.481" cy="188.185" r="44.758"/>
	<rect x="338.395" y="100.705" style="fill:#FFFFFC;" width="10.172" height="30.517"/>
	<rect x="338.395" y="244.811" style="fill:#FFFFFC;" width="10.172" height="30.517"/>
	<rect x="256.339" y="183.099" style="fill:#FFFFFC;" width="30.517" height="10.172"/>
	<rect x="400.106" y="183.099" style="fill:#FFFFFC;" width="30.517" height="10.172"/>
	
		<rect x="287.652" y="122.103" transform="matrix(0.7071 -0.7071 0.7071 0.7071 -11.3883 247.229)" style="fill:#FFFFFC;" width="10.172" height="30.516"/>
	
		<rect x="389.351" y="223.67" transform="matrix(0.7071 -0.7071 0.7071 0.7071 -53.4199 348.8894)" style="fill:#FFFFFC;" width="10.172" height="30.516"/>
	
		<rect x="277.297" y="233.886" transform="matrix(0.7071 -0.7071 0.7071 0.7071 -83.2914 276.8614)" style="fill:#FFFFFC;" width="30.516" height="10.172"/>
	
		<rect x="379.121" y="131.992" transform="matrix(0.7071 -0.7071 0.7071 0.7071 18.5825 319.0173)" style="fill:#FFFFFC;" width="30.516" height="10.172"/>
</g>
<g>
	<path style="fill:#FFFFFF;" d="M179.37,202.426c-5.086-24.752-26.787-43.74-53.234-43.74s-48.487,18.988-53.234,44.079
		c-16.275,2.374-29.16,15.936-30.856,32.551h172.927C212.26,217.685,197.679,203.783,179.37,202.426z"/>
	<path style="fill:#FFFFFF;" d="M249.219,57.642c-2.713-14.241-15.258-24.752-30.177-24.752c-14.919,0-27.465,10.85-30.177,25.091
		c-9.155,1.356-16.615,8.816-17.632,18.31h97.992C267.868,66.119,259.73,57.981,249.219,57.642z"/>
</g>
<g>
</g>
<g>
</g>
<g>
</g>
<g>
</g>
<g>
</g>
<g>
</g>
<g>
</g>
<g>
</g>
<g>
</g>
<g>
</g>
<g>
</g>
<g>
</g>
<g>
</g>
<g>
</g>
<g>
</g>
</svg>
