<?xml version="1.0" encoding="iso-8859-1"?>
<!-- Generator: Adobe Illustrator 19.0.0, SVG Export Plug-In . SVG Version: 6.00 Build 0)  -->
<svg version="1.1" id="Layer_1" xmlns="http://www.w3.org/2000/svg" xmlns:xlink="http://www.w3.org/1999/xlink" x="0px" y="0px"
	 viewBox="0 0 509.287 509.287" style="enable-background:new 0 0 509.287 509.287;" xml:space="preserve">
<path style="fill:#BDBDBE;" d="M33.568,381.118c43.74,76.63,126.474,128.17,221.076,128.17s176.996-51.539,221.076-128.17H33.568z"
	/>
<path style="fill:#F1F3F7;" d="M509.287,254.644C509.287,113.928,395.359,0,254.644,0S0,113.928,0,254.644
	c0,46.114,12.207,89.176,33.568,126.474H475.38C497.081,343.82,509.287,300.758,509.287,254.644z"/>
<polygon style="fill:#646B79;" points="399.767,229.213 399.767,300.079 109.521,300.079 109.521,101.383 72.223,101.383 
	72.223,407.905 109.521,407.905 109.521,356.705 399.767,356.705 399.767,407.905 437.065,407.905 437.065,229.213 "/>
<rect x="178.691" y="250.575" style="fill:#FAD404;" width="205.478" height="144.445"/>
<circle style="fill:#F8B517;" cx="145.462" cy="270.58" r="20.005"/>
<g>
</g>
<g>
</g>
<g>
</g>
<g>
</g>
<g>
</g>
<g>
</g>
<g>
</g>
<g>
</g>
<g>
</g>
<g>
</g>
<g>
</g>
<g>
</g>
<g>
</g>
<g>
</g>
<g>
</g>
</svg>
