<?xml version="1.0" encoding="iso-8859-1"?>
<!-- Generator: Adobe Illustrator 19.0.0, SVG Export Plug-In . SVG Version: 6.00 Build 0)  -->
<svg version="1.1" id="Layer_1" xmlns="http://www.w3.org/2000/svg" xmlns:xlink="http://www.w3.org/1999/xlink" x="0px" y="0px"
	 viewBox="0 0 509.287 509.287" style="enable-background:new 0 0 509.287 509.287;" xml:space="preserve">
<circle style="fill:#29B36F;" cx="254.644" cy="254.644" r="254.644"/>
<rect x="235.995" y="65.441" style="fill:#F1F3F7;" width="40.689" height="103.756"/>
<g>
	<polygon style="fill:#4485C5;" points="235.995,77.987 277.022,94.262 277.022,82.056 235.995,65.441 	"/>
	<polygon style="fill:#4485C5;" points="235.995,102.739 277.022,119.354 277.022,107.147 235.995,90.532 	"/>
	<polygon style="fill:#4485C5;" points="235.995,127.83 277.022,144.106 277.022,131.899 235.995,115.285 	"/>
	<polygon style="fill:#4485C5;" points="235.995,152.583 277.022,169.197 277.022,156.991 235.995,140.376 	"/>
	<polygon style="fill:#4485C5;" points="235.995,177.674 277.022,193.95 277.022,181.743 235.995,165.128 	"/>
</g>
<path style="fill:#FBD303;" d="M32.551,378.744v-19.666c0-23.735,19.327-43.062,43.062-43.062h358.061
	c23.735,0,43.062,19.327,43.062,43.062v19.666c-43.74,77.648-126.813,130.204-222.093,130.204
	C159.025,509.287,75.952,456.731,32.551,378.744z"/>
<path style="fill:#F6CEB0;" d="M147.497,211.581c9.494,5.764,11.189,22.379,22.379,23.396c1.695,0,3.391-0.339,5.086,0.339
	c5.764,1.356,6.442,9.833,10.511,14.241c5.086,5.764,15.258,3.391,20.344-2.374c5.425-5.425,7.799-13.224,11.528-20.005
	c4.069-6.781,10.85-12.885,18.31-11.868c10.172,1.356,14.241,13.563,16.615,23.396c2.713,9.833,9.155,21.701,19.327,20.005
	c6.442-1.017,10.85-7.121,14.919-12.546c4.069-5.086,10.85-10.172,16.954-7.46c4.747,2.374,7.121,8.816,12.207,10.172
	c6.781,1.356,11.189-7.46,10.85-14.241c-0.339-6.781-2.374-14.58,2.034-20.344c4.408-5.764,13.563-5.425,20.344-2.034
	c6.781,3.391,11.528,9.155,17.971,12.546c8.816,4.747,20.005,4.747,29.16,0.678v89.854H113.25v-95.279
	C124.779,215.311,137.325,205.478,147.497,211.581z"/>
<path style="fill:#F0582F;" d="M144.106,169.197h221.076c16.954,0,30.856,13.902,30.856,30.856v25.77
	c-9.155,4.069-20.344,4.069-29.16-0.678c-6.442-3.391-11.528-9.155-17.971-12.546s-15.597-3.73-20.344,2.034
	c-4.069,5.425-2.373,13.224-2.034,20.344c0.339,6.781-4.069,15.936-10.85,14.241c-5.425-1.017-7.46-7.799-12.207-10.172
	c-6.103-2.713-12.885,2.374-16.954,7.46c-4.069,5.086-8.138,11.528-14.919,12.546c-10.172,1.356-16.615-10.172-19.327-20.005
	c-2.034-9.833-6.103-22.04-16.276-23.396c-7.799-1.017-14.58,5.086-18.31,11.868c-4.069,6.781-6.442,14.241-11.528,20.005
	c-5.425,5.425-15.258,8.138-20.344,2.374c-4.069-4.408-4.408-12.885-10.511-14.241c-1.695-0.339-3.391,0-5.086-0.339
	c-11.189-0.678-12.885-17.632-22.379-23.396c-10.511-6.103-22.718,3.73-34.585,8.477v-20.005
	C113.25,183.099,126.813,169.197,144.106,169.197z"/>
<g>
	<path style="fill:#E6BD20;" d="M439.099,339.073v89.515c0,0.339,0,1.017,0,1.356c-10.511,11.189-22.04,21.362-34.585,30.517
		c-16.276-1.356-29.16-15.258-29.16-31.873V387.56c0,17.632-14.241,31.873-31.873,31.873c-17.632,0-31.873-14.241-31.873-31.873
		v-48.487h63.407L439.099,339.073L439.099,339.073z"/>
	<path style="fill:#E6BD20;" d="M261.764,404.514c0,17.632-14.241,31.873-31.873,31.873s-31.873-14.241-31.873-31.873v-65.102
		h64.085v65.102H261.764z"/>
	<path style="fill:#E6BD20;" d="M70.188,429.944v-90.872h63.746h0.339h63.746v21.701c0,17.632-14.241,31.873-31.873,31.873l0,0
		c-16.275,0-29.838-12.207-31.873-27.804v84.768c0,9.155-4.069,17.632-10.172,23.396C104.095,461.139,86.124,446.559,70.188,429.944
		z"/>
</g>
<g>
	<path style="fill:#FCFCFD;" d="M439.099,316.016v89.515c0,17.632-14.241,31.873-31.873,31.873
		c-17.632,0-31.873-14.241-31.873-31.873v-41.028c0,17.632-14.241,31.873-31.873,31.873c-17.632,0-31.873-14.241-31.873-31.873
		v-48.487h63.407H439.099z"/>
	<path style="fill:#FCFCFD;" d="M261.764,381.118c0,17.632-14.241,31.873-31.873,31.873s-31.873-14.241-31.873-31.873v-65.102
		h64.085v65.102H261.764z"/>
	<path style="fill:#FCFCFD;" d="M133.934,316.016H70.188v110.538c0,1.356,0,2.374,0.339,3.73
		c9.833,10.172,20.344,19.666,31.873,28.482c17.632,0,31.873-14.241,31.873-31.873v-84.768
		c2.034,15.597,15.597,27.804,31.873,27.804l0,0c17.632,0,31.873-14.241,31.873-31.873v-21.701h-64.085V316.016z"/>
</g>
<path style="fill:#FBD303;" d="M241.081,43.401c0,8.477,7.121,15.597,15.597,15.597c8.477,0,15.597-7.121,15.597-15.597
	s-15.597-28.143-15.597-28.143S241.081,34.585,241.081,43.401z"/>
<g>
</g>
<g>
</g>
<g>
</g>
<g>
</g>
<g>
</g>
<g>
</g>
<g>
</g>
<g>
</g>
<g>
</g>
<g>
</g>
<g>
</g>
<g>
</g>
<g>
</g>
<g>
</g>
<g>
</g>
</svg>
