<?xml version="1.0" encoding="iso-8859-1"?>
<!-- Generator: Adobe Illustrator 19.0.0, SVG Export Plug-In . SVG Version: 6.00 Build 0)  -->
<svg version="1.1" id="Layer_1" xmlns="http://www.w3.org/2000/svg" xmlns:xlink="http://www.w3.org/1999/xlink" x="0px" y="0px"
	 viewBox="0 0 509.626 509.626" style="enable-background:new 0 0 509.626 509.626;" xml:space="preserve">
<circle style="fill:#FBD303;" cx="254.813" cy="254.644" r="254.644"/>
<g>
	<path style="fill:#FFFFFF;" d="M102.57,153.939c-0.339,0-0.678,0-1.017,0c-2.374-6.781-8.816-11.868-16.275-11.868
		c-7.46,0-13.902,4.747-16.275,11.528c-1.695-1.017-3.73-1.356-5.764-1.356c-7.46,0-13.224,6.103-13.224,13.224
		c0,7.46,6.103,13.224,13.224,13.224c1.695,0,3.73-0.339,5.086-1.017c2.034,4.408,6.781,7.799,12.207,7.799
		c5.764,0,10.511-3.73,12.546-8.816c2.374,2.374,5.764,3.73,9.494,3.73c7.46,0,13.224-6.103,13.224-13.224
		C116.132,160.042,110.029,153.939,102.57,153.939z"/>
	<path style="fill:#FFFFFF;" d="M243.624,51.878c-0.339,0-0.678,0-1.356,0c-3.052-9.494-11.868-16.275-22.718-16.275
		c-10.172,0-18.988,6.781-22.379,15.936c-2.374-1.356-5.086-2.034-7.799-2.034c-10.172,0-18.649,8.138-18.649,18.649
		c0,10.511,8.138,18.649,18.649,18.649c2.713,0,5.086-0.678,7.121-1.356c3.052,6.442,9.494,10.511,16.615,10.511
		c8.138,0,14.919-5.086,17.293-12.207c3.391,3.391,7.799,5.086,12.885,5.086c10.172,0,18.649-8.138,18.649-18.649
		C261.934,60.355,253.796,51.878,243.624,51.878z"/>
	<path style="fill:#FFFFFF;" d="M423.332,120.032c-0.339,0-0.678,0-1.356,0c-3.052-9.494-11.868-16.275-22.718-16.275
		c-10.172,0-18.988,6.781-22.379,15.936c-2.374-1.356-5.086-2.034-8.138-2.034c-10.172,0-18.649,8.138-18.649,18.649
		c0,10.172,8.138,18.649,18.649,18.649c2.713,0,5.086-0.678,7.121-1.356c3.052,6.442,9.494,10.511,16.615,10.511
		c8.138,0,14.919-5.086,17.293-12.207c3.391,3.391,7.799,5.086,12.885,5.086c10.172,0,18.649-8.138,18.649-18.649
		C441.642,128.17,433.505,120.032,423.332,120.032z"/>
</g>
<g>
	<path style="fill:#4485C5;" d="M471.142,388.917l-30.177-87.82l-20.005,72.562l-21.362-79.343l-46.114,37.976L245.997,509.287
		c3.052,0,5.764,0.339,8.816,0.339C346.024,509.287,426.045,461.139,471.142,388.917z"/>
	<path style="fill:#4485C5;" d="M477.923,377.388c4.069-7.121,7.46-14.241,10.85-21.701l-6.103-23.057L477.923,377.388z"/>
</g>
<path style="fill:#257DC0;" d="M484.705,313.642l-2.034,18.988l6.103,23.057c4.747-10.85,8.816-22.04,11.868-33.907L484.705,313.642
	z"/>
<path style="fill:#F1F3F7;" d="M444.016,183.438L482.67,332.63l2.034-18.988l15.936,8.138c3.052-11.189,5.425-22.718,6.781-34.246
	L444.016,183.438z"/>
<path style="fill:#FFFFFF;" d="M482.67,332.63l-38.654-149.192l-90.532,148.514l46.114-37.976l21.362,79.343l20.005-72.562
	l30.177,87.82c2.373-3.73,4.747-7.46,6.781-11.529L482.67,332.63z"/>
<polygon style="fill:#34B1D2;" points="106.977,347.889 74.087,330.596 73.07,338.056 102.909,445.542 166.654,445.542 "/>
<path style="fill:#3EB9E3;" d="M68.323,382.135l-20.344-58.999L36.111,365.86l-12.207-46.792l-12.546,10.511
	c13.902,45.436,40.35,85.446,75.274,115.963h16.275L73.07,337.717L68.323,382.135z"/>
<polygon style="fill:#F1F3F7;" points="74.087,330.596 106.977,347.889 50.013,254.305 73.07,338.056 "/>
<path style="fill:#FFFFFF;" d="M8.985,321.441c0.678,2.713,1.356,5.425,2.374,8.138l12.546-10.511L36.45,365.86l11.868-42.723
	l20.344,58.999l4.747-44.079l-23.057-83.751L8.985,321.441z"/>
<path style="fill:#34B1D2;" d="M318.22,353.992l-55.947-29.16l-1.356,12.207l45.775,166.824
	c29.838-6.103,57.303-17.632,82.395-32.89L318.22,353.992z"/>
<path style="fill:#3EB9E3;" d="M254.813,509.287c17.971,0,35.264-1.695,51.878-5.425l-46.114-166.824l-7.799,74.935l-34.246-99.687
	l-19.666,71.883l-21.023-79.004l-45.775,37.637L75.783,435.03C121.558,481.144,184.964,509.287,254.813,509.287z"/>
<polygon style="fill:#F1F3F7;" points="261.934,324.832 318.22,353.992 221.584,195.306 260.577,337.038 "/>
<polygon style="fill:#FFFFFF;" points="198.866,384.17 218.532,312.286 252.779,411.634 260.577,337.038 221.584,195.306 
	131.73,343.142 177.505,305.505 "/>
<path style="fill:#FFFFFC;" d="M349.076,175.64H162.924c-16.275,0-29.16,13.224-29.16,29.16v150.887
	c0,16.276,13.224,29.16,29.16,29.16h186.151c16.275,0,29.16-13.224,29.16-29.16V204.8
	C378.236,188.864,365.351,175.64,349.076,175.64z"/>
<path style="fill:#F0582F;" d="M133.764,308.217v47.47c0,16.276,13.224,29.16,29.16,29.16h186.151
	c16.275,0,29.16-13.224,29.16-29.16v-47.47H133.764z"/>
<g>
	<rect x="161.568" y="202.766" style="fill:#3EB9E3;" width="84.09" height="86.464"/>
	<rect x="266.342" y="202.766" style="fill:#3EB9E3;" width="84.09" height="86.464"/>
</g>
<rect x="245.997" y="128.17" style="fill:#646B79;" width="20.344" height="47.47"/>
<path style="fill:#4F5565;" d="M34.077,128.17h441.812c-1.695-3.052-3.73-6.442-5.764-9.494H39.502
	C37.807,121.727,35.772,124.779,34.077,128.17z"/>
<rect x="215.82" y="109.521" style="fill:#333842;" width="80.36" height="13.902"/>
<g>
</g>
<g>
</g>
<g>
</g>
<g>
</g>
<g>
</g>
<g>
</g>
<g>
</g>
<g>
</g>
<g>
</g>
<g>
</g>
<g>
</g>
<g>
</g>
<g>
</g>
<g>
</g>
<g>
</g>
</svg>
