<?xml version="1.0" encoding="iso-8859-1"?>
<!-- Generator: Adobe Illustrator 19.0.0, SVG Export Plug-In . SVG Version: 6.00 Build 0)  -->
<svg version="1.1" id="Layer_1" xmlns="http://www.w3.org/2000/svg" xmlns:xlink="http://www.w3.org/1999/xlink" x="0px" y="0px"
	 viewBox="0 0 509.287 509.287" style="enable-background:new 0 0 509.287 509.287;" xml:space="preserve">
<path style="fill:#FBD303;" d="M509.287,254.813c0-140.715-113.928-254.644-254.644-254.644S0,114.098,0,254.813
	c0,40.35,9.494,78.326,26.109,111.894h457.409C499.793,333.139,509.287,295.163,509.287,254.813z"/>
<path style="fill:#F6CEB0;" d="M26.109,366.707c41.367,84.429,128.17,142.411,228.535,142.411s187.168-57.981,228.535-142.411
	H26.109z"/>
<rect x="333.987" y="338.903" style="fill:#74594E;" width="33.907" height="93.245"/>
<g>
	<polygon style="fill:#11A34D;" points="441.134,149.701 350.94,59.168 260.747,149.701 	"/>
	<polygon style="fill:#11A34D;" points="464.869,250.405 350.94,136.816 237.012,250.405 	"/>
	<polygon style="fill:#11A34D;" points="482.162,358.909 350.94,228.026 219.719,358.909 	"/>
</g>
<path style="fill:#74594E;" d="M182.082,438.252h20.683l-17.293-104.434h12.885v-20.344H91.889v20.344h12.885L87.481,438.252h20.683
	l4.408-27.804h64.763L182.082,438.252z M115.963,390.103l9.155-56.625h39.672l9.155,56.625L115.963,390.103L115.963,390.103z"/>
<g>
</g>
<g>
</g>
<g>
</g>
<g>
</g>
<g>
</g>
<g>
</g>
<g>
</g>
<g>
</g>
<g>
</g>
<g>
</g>
<g>
</g>
<g>
</g>
<g>
</g>
<g>
</g>
<g>
</g>
</svg>
