<?xml version="1.0" encoding="iso-8859-1"?>
<!-- Generator: Adobe Illustrator 19.0.0, SVG Export Plug-In . SVG Version: 6.00 Build 0)  -->
<svg version="1.1" id="Layer_1" xmlns="http://www.w3.org/2000/svg" xmlns:xlink="http://www.w3.org/1999/xlink" x="0px" y="0px"
	 viewBox="0 0 509.287 509.287" style="enable-background:new 0 0 509.287 509.287;" xml:space="preserve">
<path style="fill:#FFFFFF;" d="M309.913,250.236c-2.374-24.413-22.718-43.062-47.47-43.062c-18.988,0-35.264,11.189-43.062,27.126
	c-2.034-1.017-4.069-1.695-6.442-1.695c-7.121,0-13.224,5.764-13.224,13.224c0,1.695,0.339,3.052,1.017,4.747
	c-14.241,0.339-25.43,11.868-25.43,26.109c0,14.58,11.868,26.109,26.109,26.109H307.2c14.58,0,26.109-11.868,26.109-26.109
	C333.648,262.442,323.475,251.253,309.913,250.236z"/>
<circle style="fill:#FBD303;" cx="254.644" cy="254.644" r="254.644"/>
<g>
	
		<rect x="134.585" y="254.326" transform="matrix(0.5139 -0.8579 0.8579 0.5139 -163.7186 278.7367)" style="fill:#DCE2EA;" width="59.001" height="59.001"/>
	
		<rect x="247.652" y="213.621" transform="matrix(0.5139 -0.8579 0.8579 0.5139 -73.8354 355.9462)" style="fill:#DCE2EA;" width="59.001" height="59.001"/>
</g>
<path style="fill:#BF3C28;" d="M166.485,227.518c1.017-20.005,2.713-28.143-6.781-45.097L102.061,80.36
	c-3.052-5.425-1.017-11.868,4.069-14.919l22.379-12.546c5.425-3.052,11.868-1.017,14.919,4.069l57.642,102.061
	c9.494,16.954,17.293,19.666,34.924,29.16c17.632,9.494,31.873,23.396,41.367,40.35l93.245,165.128
	c4.408,7.46,1.695,17.293-6.103,21.362l-70.188,39.672c-7.46,4.408-17.293,1.695-21.362-6.103l-93.245-165.128
	C170.215,266.85,165.468,247.523,166.485,227.518z"/>
<path style="fill:#333842;" d="M106.13,65.441l22.379-12.546c5.425-3.052,11.868-1.017,14.919,4.069l30.517,54.252l-41.367,23.396
	L102.061,80.36C99.009,75.274,101.044,68.493,106.13,65.441z"/>
<rect x="211.028" y="250.491" transform="matrix(0.8707 -0.4918 0.4918 0.8707 -124.9219 173.3046)" style="fill:#611A21;" width="112.232" height="147.496"/>
<ellipse transform="matrix(0.4918 0.8707 -0.8707 0.4918 418.2473 -67.6537)" style="fill:#8E342D;" cx="267.08" cy="324.47" rx="51.878" ry="33.907"/>
<rect x="237.552" y="254.394" transform="matrix(0.5139 -0.8579 0.8579 0.5139 -113.7224 367.1022)" style="fill:#F1F3F7;" width="59.001" height="59.001"/>
<g>
	<path style="fill:#414753;" d="M403.497,366.199c-6.103-1.017-10.172-6.442-9.155-12.546l4.747-30.177h1.017l0,0
		c0-6.103,5.086-10.85,10.85-10.85h27.126c6.103,0,10.85,5.086,10.85,10.85l0,0c0,6.103-5.086,10.85-10.85,10.85h-9.155
		c-5.425,0-10.172,4.069-10.85,9.155l-2.034,13.224C415.025,362.808,409.261,366.877,403.497,366.199L403.497,366.199z"/>
	<path style="fill:#414753;" d="M105.791,366.199c6.103-1.017,10.172-6.442,9.155-12.546l-4.408-30.177h-1.017l0,0
		c0-6.103-5.086-10.85-10.85-10.85H71.544c-6.103,0-10.85,5.086-10.85,10.85l0,0c0,6.103,5.086,10.85,10.85,10.85h9.155
		c5.425,0,10.172,4.069,10.85,9.155l2.034,13.224C94.262,362.808,100.026,366.877,105.791,366.199L105.791,366.199z"/>
</g>
<path style="fill:#3EB9E3;" d="M105.452,266.511h298.723c8.477,0,14.919,6.442,13.563,13.563l-40.011,197.34
	c-36.281,20.005-78.326,31.534-122.744,31.534s-86.464-11.528-122.744-31.534l-40.35-197.001
	C90.532,273.293,96.975,266.511,105.452,266.511z"/>
<polygon style="fill:#DCE2EA;" points="396.037,266.511 384.509,238.029 329.579,259.73 332.63,266.511 "/>
<polygon style="fill:#F1F3F7;" points="362.808,266.511 341.446,224.466 288.551,251.253 296.689,266.511 "/>
<path style="fill:#4DD0EF;" d="M416.721,283.126c-1.695-4.408-6.781-8.138-12.885-8.138H105.452c-6.103,0-11.189,3.391-12.885,8.138
	l-0.678-2.713c-1.356-7.121,5.086-13.563,13.563-13.563h298.723c8.477,0,14.919,6.442,13.563,13.563L416.721,283.126z"/>
<rect x="133.595" y="264.138" style="fill:#FFFFFF;" width="133.595" height="125.118"/>
<g>
</g>
<g>
</g>
<g>
</g>
<g>
</g>
<g>
</g>
<g>
</g>
<g>
</g>
<g>
</g>
<g>
</g>
<g>
</g>
<g>
</g>
<g>
</g>
<g>
</g>
<g>
</g>
<g>
</g>
</svg>
