<?xml version="1.0" encoding="iso-8859-1"?>
<!-- Generator: Adobe Illustrator 19.0.0, SVG Export Plug-In . SVG Version: 6.00 Build 0)  -->
<svg version="1.1" id="Layer_1" xmlns="http://www.w3.org/2000/svg" xmlns:xlink="http://www.w3.org/1999/xlink" x="0px" y="0px"
	 viewBox="0 0 509.287 509.287" style="enable-background:new 0 0 509.287 509.287;" xml:space="preserve">
<circle style="fill:#FBD303;" cx="254.644" cy="254.644" r="254.644"/>
<g>
	<circle style="fill:#FFFFFF;" cx="327.544" cy="224.805" r="67.476"/>
	<rect x="320.424" y="74.596" style="fill:#FFFFFF;" width="13.902" height="64.085"/>
	<rect x="413.33" y="218.024" style="fill:#FFFFFF;" width="64.085" height="13.902"/>
	
		<rect x="403.919" y="109.085" transform="matrix(-0.7071 -0.7071 0.7071 -0.7071 601.6063 531.4482)" style="fill:#FFFFFF;" width="13.902" height="64.084"/>
	
		<rect x="378.726" y="301.306" transform="matrix(-0.7071 -0.7071 0.7071 -0.7071 483.2543 816.6835)" style="fill:#FFFFFF;" width="64.084" height="13.902"/>
	
		<rect x="211.948" y="134.338" transform="matrix(-0.7071 -0.7071 0.7071 -0.7071 316.6113 413.7228)" style="fill:#FFFFFF;" width="64.084" height="13.902"/>
</g>
<path style="fill:#3EB9E3;" d="M319.068,252.27c-2.713,0-5.086,0.339-7.46,0.678c1.017-2.373,1.356-5.086,1.356-8.138
	c0-13.224-10.85-24.074-24.074-24.074c-4.747,0-9.155,1.356-13.224,4.069c-5.764-35.264-36.281-62.389-72.901-62.389
	c-37.637,0-68.832,28.143-73.24,64.763c-7.121-2.374-14.919-3.391-22.718-3.391c-41.367,0-74.935,33.568-74.935,74.935
	s33.568,74.935,74.935,74.935l0,0h212.26c33.568,0,60.694-27.126,60.694-60.694S352.636,252.27,319.068,252.27z"/>
<g>
</g>
<g>
</g>
<g>
</g>
<g>
</g>
<g>
</g>
<g>
</g>
<g>
</g>
<g>
</g>
<g>
</g>
<g>
</g>
<g>
</g>
<g>
</g>
<g>
</g>
<g>
</g>
<g>
</g>
</svg>
