<?xml version="1.0" encoding="iso-8859-1"?>
<!-- Generator: Adobe Illustrator 19.0.0, SVG Export Plug-In . SVG Version: 6.00 Build 0)  -->
<svg version="1.1" id="Layer_1" xmlns="http://www.w3.org/2000/svg" xmlns:xlink="http://www.w3.org/1999/xlink" x="0px" y="0px"
	 viewBox="0 0 509.287 509.287" style="enable-background:new 0 0 509.287 509.287;" xml:space="preserve">
<circle style="fill:#896C5E;" cx="254.644" cy="254.644" r="254.644"/>
<circle style="fill:#FAD404;" cx="378.066" cy="145.801" r="77.309"/>
<g>
	<path style="fill:#F8B517;" d="M325.171,120.371c-4.069-2.374-9.155-0.339-10.85,4.069c-2.374,6.781-3.391,13.563-3.391,21.023
		c0,7.46,1.356,14.58,3.391,21.023c1.356,4.408,6.781,6.442,10.85,4.069l32.551-18.649c5.086-2.713,5.086-10.172,0-12.885
		L325.171,120.371z"/>
	<path style="fill:#F8B517;" d="M430.962,170.893c4.069,2.374,9.155,0.339,10.85-4.069c2.374-6.781,3.391-13.563,3.391-21.023
		c0-7.46-1.356-14.58-3.391-21.023c-1.356-4.408-6.781-6.442-10.85-4.069l-32.551,18.649c-5.086,2.713-5.086,10.172,0,12.885
		L430.962,170.893z"/>
	<path style="fill:#F8B517;" d="M394.003,131.221l32.551-18.649c4.069-2.374,5.086-7.799,1.695-11.528
		c-9.494-10.511-22.04-17.971-36.281-21.023c-4.747-1.017-9.155,2.713-9.155,7.121v37.298
		C382.813,130.543,388.917,133.934,394.003,131.221z"/>
	<path style="fill:#F8B517;" d="M382.813,166.485v37.298c0,4.747,4.408,8.138,9.155,7.121c14.241-3.052,27.126-10.511,36.281-21.023
		c3.052-3.391,2.374-9.155-1.695-11.528l-32.551-18.649C388.917,157.33,382.813,160.721,382.813,166.485z"/>
	<path style="fill:#F8B517;" d="M362.469,160.042l-32.551,18.649c-4.069,2.374-5.086,7.799-1.695,11.528
		c9.494,10.511,22.04,17.971,36.281,21.023c4.747,1.017,9.155-2.713,9.155-7.121v-37.298
		C373.319,160.721,367.216,157.33,362.469,160.042z"/>
	<path style="fill:#F8B517;" d="M373.319,124.779V87.481c0-4.747-4.408-8.138-9.155-7.121
		c-14.241,3.052-27.126,10.511-36.281,21.023c-3.052,3.391-2.374,9.155,1.695,11.528l32.551,18.649
		C367.216,133.934,373.319,130.543,373.319,124.779z"/>
</g>
<rect x="94.561" y="-9.047" transform="matrix(-0.7071 0.7071 -0.7071 -0.7071 255.0191 107.5189)" style="fill:#F1F3F7;" width="21.361" height="231.245"/>
<g>
	<polygon style="fill:#F0582F;" points="51.539,37.637 50.183,66.458 29.838,46.114 31.195,17.293 	"/>
	<polygon style="fill:#F0582F;" points="89.176,75.274 87.82,104.095 67.475,83.751 68.832,54.93 	"/>
	<polygon style="fill:#F0582F;" points="127.152,113.25 125.796,142.072 105.452,121.388 106.808,92.906 	"/>
	<polygon style="fill:#F0582F;" points="164.789,150.887 163.433,179.709 143.089,159.364 144.445,130.543 	"/>
	<polygon style="fill:#F0582F;" points="202.766,188.864 201.409,217.346 180.726,197.001 182.082,168.18 	"/>
</g>
<g>
	<rect x="241.081" y="317.033" style="fill:#F1F3F7;" width="26.787" height="182.421"/>
	<path style="fill:#F1F3F7;" d="M204.122,504.201c16.276,3.391,33.229,5.086,50.522,5.086s34.246-1.695,50.522-5.086
		c-14.58-9.155-31.873-14.58-50.522-14.58S218.702,495.046,204.122,504.201z"/>
</g>
<polygon style="fill:#FCFCFD;" points="81.038,145.801 254.644,350.262 428.249,145.801 "/>
<polygon style="fill:#3EB9E3;" points="169.875,217.346 254.644,317.033 339.412,217.346 "/>
<g>
</g>
<g>
</g>
<g>
</g>
<g>
</g>
<g>
</g>
<g>
</g>
<g>
</g>
<g>
</g>
<g>
</g>
<g>
</g>
<g>
</g>
<g>
</g>
<g>
</g>
<g>
</g>
<g>
</g>
</svg>
