<?xml version="1.0" encoding="iso-8859-1"?>
<!-- Generator: Adobe Illustrator 19.0.0, SVG Export Plug-In . SVG Version: 6.00 Build 0)  -->
<svg version="1.1" id="Layer_1" xmlns="http://www.w3.org/2000/svg" xmlns:xlink="http://www.w3.org/1999/xlink" x="0px" y="0px"
	 viewBox="0 0 509.287 509.287" style="enable-background:new 0 0 509.287 509.287;" xml:space="preserve">
<path style="fill:#EE4A68;" d="M509.287,254.813c0-140.715-113.928-254.644-254.644-254.644S0,114.098,0,254.813
	c0,44.758,11.528,86.803,31.873,123.423h445.203C497.759,341.616,509.287,299.571,509.287,254.813z"/>
<path style="fill:#646B79;" d="M32.212,378.236c43.401,77.987,126.813,130.882,222.432,130.882s179.03-52.895,222.432-130.882
	H32.212z"/>
<polygon style="fill:#F1F3F7;" points="49.505,311.099 330.935,311.099 330.935,153.091 401.123,153.091 461.139,252.779 
	461.139,311.099 475.38,311.099 475.38,339.921 49.505,339.921 "/>
<polygon style="fill:#3EB9E3;" points="417.06,232.095 352.297,232.095 352.297,184.964 392.985,184.964 "/>
<path style="fill:#4F5565;" d="M375.354,263.29h-18.649c-2.374,0-4.408-2.034-4.408-4.408c0-2.374,2.034-4.408,4.408-4.408h18.649
	c2.374,0,4.408,2.034,4.408,4.408C379.762,261.256,377.727,263.29,375.354,263.29z"/>
<rect x="49.505" y="131.391" style="fill:#FBD303;" width="257.695" height="162.755"/>
<g>
	<circle style="fill:#414753;" cx="119.015" cy="344.668" r="33.568"/>
	<circle style="fill:#414753;" cx="394.342" cy="344.668" r="33.568"/>
</g>
<g>
	<circle style="fill:#F1F3F7;" cx="394.342" cy="344.668" r="16.276"/>
	<circle style="fill:#F1F3F7;" cx="119.015" cy="344.668" r="16.276"/>
</g>
<g>
	<rect x="76.97" y="150.379" style="fill:#E6BD20;" width="18.988" height="124.44"/>
	<rect x="122.744" y="150.379" style="fill:#E6BD20;" width="18.988" height="124.44"/>
	<rect x="168.858" y="150.379" style="fill:#E6BD20;" width="18.988" height="124.44"/>
	<rect x="214.633" y="150.379" style="fill:#E6BD20;" width="18.988" height="124.44"/>
	<rect x="260.408" y="150.379" style="fill:#E6BD20;" width="18.988" height="124.44"/>
</g>
<g>
</g>
<g>
</g>
<g>
</g>
<g>
</g>
<g>
</g>
<g>
</g>
<g>
</g>
<g>
</g>
<g>
</g>
<g>
</g>
<g>
</g>
<g>
</g>
<g>
</g>
<g>
</g>
<g>
</g>
</svg>
