<?xml version="1.0" encoding="iso-8859-1"?>
<!-- Generator: Adobe Illustrator 19.0.0, SVG Export Plug-In . SVG Version: 6.00 Build 0)  -->
<svg version="1.1" id="Layer_1" xmlns="http://www.w3.org/2000/svg" xmlns:xlink="http://www.w3.org/1999/xlink" x="0px" y="0px"
	 viewBox="0 0 509.287 509.287" style="enable-background:new 0 0 509.287 509.287;" xml:space="preserve">
<circle style="fill:#F0582F;" cx="254.644" cy="254.644" r="254.644"/>
<path style="fill:#4F5565;" d="M465.886,235.995H43.401c-7.46,0-13.563,8.138-13.563,18.649c0,10.172,6.103,18.649,13.563,18.649
	h422.485c7.46,0,13.563-8.138,13.563-18.649C479.449,244.472,473.346,235.995,465.886,235.995z"/>
<g>
	<path style="fill:#F1F3F7;" d="M127.491,120.371c-12.546,0-22.379,10.172-22.379,22.379v38.315
		c0-12.546-10.172-22.379-22.379-22.379s-22.379,10.172-22.379,22.379v147.158c0,12.546,10.172,22.379,22.379,22.379
		s22.379-10.172,22.379-22.379v38.315c0,12.546,10.172,22.379,22.379,22.379s22.379-10.172,22.379-22.379V142.75
		C149.87,130.543,140.037,120.371,127.491,120.371z"/>
	<path style="fill:#F1F3F7;" d="M381.796,388.917c12.546,0,22.379-10.172,22.379-22.379v-38.315
		c0,12.546,10.172,22.379,22.379,22.379c12.546,0,22.379-10.172,22.379-22.379V181.065c0-12.546-10.172-22.379-22.379-22.379
		c-12.546,0-22.379,10.172-22.379,22.379V142.75c0-12.546-10.172-22.379-22.379-22.379c-12.546,0-22.379,10.172-22.379,22.379
		v223.449C359.417,378.744,369.25,388.917,381.796,388.917z"/>
</g>
<g>
</g>
<g>
</g>
<g>
</g>
<g>
</g>
<g>
</g>
<g>
</g>
<g>
</g>
<g>
</g>
<g>
</g>
<g>
</g>
<g>
</g>
<g>
</g>
<g>
</g>
<g>
</g>
<g>
</g>
</svg>
