<?xml version="1.0" encoding="iso-8859-1"?>
<!-- Generator: Adobe Illustrator 19.0.0, SVG Export Plug-In . SVG Version: 6.00 Build 0)  -->
<svg version="1.1" id="Layer_1" xmlns="http://www.w3.org/2000/svg" xmlns:xlink="http://www.w3.org/1999/xlink" x="0px" y="0px"
	 viewBox="0 0 509.287 509.287" style="enable-background:new 0 0 509.287 509.287;" xml:space="preserve">
<path style="fill:#4B5AA7;" d="M509.287,254.644C509.287,113.928,395.359,0,254.644,0S0,113.928,0,254.644
	c0,49.166,13.902,94.94,37.976,133.934h432.996C495.385,349.584,509.287,303.809,509.287,254.644z"/>
<path style="fill:#80C35B;" d="M38.315,388.577c44.758,72.223,125.118,120.71,216.328,120.71s171.571-48.148,216.328-120.71
	L38.315,388.577L38.315,388.577z"/>
<g>
	<circle style="fill:#9C9ACC;" cx="72.562" cy="220.736" r="7.46"/>
	<circle style="fill:#9C9ACC;" cx="283.465" cy="89.854" r="7.46"/>
	<circle style="fill:#9C9ACC;" cx="388.577" cy="163.772" r="7.46"/>
	<circle style="fill:#9C9ACC;" cx="262.103" cy="191.576" r="7.46"/>
	<circle style="fill:#9C9ACC;" cx="115.285" cy="93.923" r="7.46"/>
	<circle style="fill:#9C9ACC;" cx="48.826" cy="302.453" r="7.46"/>
</g>
<path style="fill:#D6D6D8;" d="M305.844,388.577c-27.465-24.074-48.487-51.2-64.424-79.004h5.425v-17.971h-14.919
	c-10.172-20.683-17.971-41.706-23.735-61.711h5.086v-12.207H204.8C187.846,151.566,191.915,98.67,191.915,98.67h5.086V77.987
	h-11.868V63.068h-5.425V50.861h-4.747v12.207h-5.425v14.919h-11.868V98.67h5.086c0,0,4.069,52.895-12.546,119.015h-8.477v12.207
	h5.086c-5.764,20.005-13.563,41.028-23.735,61.711h-14.919v17.971h5.425c-15.936,27.804-36.959,54.93-64.424,79.004h57.642
	c0,0,9.494-12.885,21.362-33.907c12.207-13.563,29.838-22.04,49.844-22.04c18.988,0,35.942,7.799,47.809,20.005
	c12.546,22.379,22.718,36.281,22.718,36.281h57.303V388.577z M177.335,190.898c0,8.816,0.678,17.971,1.695,26.787h-3.052
	C176.657,208.869,177.335,200.053,177.335,190.898z M173.944,230.23h6.781c3.391,21.701,9.494,42.723,16.615,61.711H157.33
	C164.45,272.615,170.554,251.931,173.944,230.23z M146.479,318.05c1.356-2.713,2.374-5.425,3.73-8.477H204.8
	c1.356,2.713,2.374,5.764,3.73,8.477H146.479z"/>
<path style="fill:#F1F3F7;" d="M460.122,201.748H316.694c-6.103,0-11.189,5.086-11.189,11.189v231.248
	c0,6.103,5.086,11.189,11.189,11.189h94.601c23.735-18.31,43.74-41.028,59.677-66.458V212.938
	C470.972,206.834,466.225,201.748,460.122,201.748z"/>
<path style="fill:#3EB9E3;" d="M310.93,423.502h133.934c7.46-8.477,14.58-17.293,20.683-26.787V227.518H310.93V423.502z"/>
<path style="fill:#4485C5;" d="M447.915,420.45H310.93v3.391h133.934C445.881,422.485,446.898,421.468,447.915,420.45z"/>
<path style="fill:#BDBDBE;" d="M401.123,212.599h-25.091c-1.356,0-2.374,1.017-2.374,2.374c0,1.356,1.017,2.374,2.374,2.374h25.091
	c1.356,0,2.374-1.017,2.374-2.374C403.497,213.955,402.14,212.599,401.123,212.599z"/>
<circle style="fill:#FBE166;" cx="347.889" cy="214.972" r="3.052"/>
<circle style="fill:#DEDEDF;" cx="388.577" cy="438.76" r="10.511"/>
<g>
	<polygon style="fill:#FCFCFD;" points="362.13,299.062 375.693,299.062 375.693,292.281 355.348,292.281 355.348,312.625 
		362.13,312.625 	"/>
	<polygon style="fill:#FCFCFD;" points="401.123,292.281 401.123,299.062 414.686,299.062 414.686,312.625 421.468,312.625 
		421.468,292.281 	"/>
	<polygon style="fill:#FCFCFD;" points="414.686,351.958 401.123,351.958 401.123,358.739 421.468,358.739 421.468,338.395 
		414.686,338.395 	"/>
	<polygon style="fill:#FCFCFD;" points="362.13,338.395 355.348,338.395 355.348,358.739 375.693,358.739 375.693,351.958 
		362.13,351.958 	"/>
	<polygon style="fill:#FCFCFD;" points="405.531,328.901 405.531,322.119 391.968,322.119 391.968,308.556 385.187,308.556 
		385.187,322.119 371.285,322.119 371.285,328.901 385.187,328.901 385.187,342.464 391.968,342.464 391.968,328.901 	"/>
</g>
<g>
</g>
<g>
</g>
<g>
</g>
<g>
</g>
<g>
</g>
<g>
</g>
<g>
</g>
<g>
</g>
<g>
</g>
<g>
</g>
<g>
</g>
<g>
</g>
<g>
</g>
<g>
</g>
<g>
</g>
</svg>
