<?xml version="1.0" encoding="iso-8859-1"?>
<!-- Generator: Adobe Illustrator 19.0.0, SVG Export Plug-In . SVG Version: 6.00 Build 0)  -->
<svg version="1.1" id="Layer_1" xmlns="http://www.w3.org/2000/svg" xmlns:xlink="http://www.w3.org/1999/xlink" x="0px" y="0px"
	 viewBox="0 0 509.287 509.287" style="enable-background:new 0 0 509.287 509.287;" xml:space="preserve">
<circle style="fill:#FF553E;" cx="254.644" cy="254.644" r="254.644"/>
<path style="fill:#646B79;" d="M85.107,444.525c45.097,40.011,104.434,64.763,169.536,64.763s124.44-24.413,169.536-64.763V75.952
	H85.107V444.525z"/>
<rect x="85.107" y="75.952" style="fill:#6C747F;" width="338.734" height="12.207"/>
<path style="fill:#BDBDBE;" d="M129.526,476.397c36.959,20.683,79.682,32.89,125.118,32.89s88.159-11.868,125.118-32.89V165.128
	H129.526V476.397z"/>
<g>
	<path style="fill:#DEDEDF;" d="M147.158,485.552c30.177,14.241,63.746,22.379,99.348,23.735V181.404h-99.348V485.552z"/>
	<path style="fill:#DEDEDF;" d="M262.781,508.948c35.264-1.017,68.832-9.494,99.348-23.735V181.404h-99.348V508.948z"/>
</g>
<g>
	<rect x="392.985" y="264.138" style="fill:#FBD303;" width="12.546" height="12.546"/>
	<rect x="392.985" y="289.568" style="fill:#FBD303;" width="12.546" height="12.546"/>
	<rect x="392.985" y="314.999" style="fill:#FBD303;" width="12.546" height="12.546"/>
	<rect x="392.985" y="340.09" style="fill:#FBD303;" width="12.546" height="12.546"/>
	<rect x="392.985" y="365.521" style="fill:#FBD303;" width="12.546" height="12.546"/>
	<rect x="392.985" y="390.951" style="fill:#FBD303;" width="12.546" height="12.546"/>
</g>
<rect x="234.299" y="97.314" style="fill:#333842;" width="40.689" height="40.689"/>
<path style="fill:#F6EB12;" d="M264.477,115.624h-15.258v-7.799h15.258v-4.408h-19.666v28.482l0,0h19.666l0,0l0,0V115.624z
	 M260.069,127.491h-10.85v-7.799h10.85V127.491z"/>
<g>
</g>
<g>
</g>
<g>
</g>
<g>
</g>
<g>
</g>
<g>
</g>
<g>
</g>
<g>
</g>
<g>
</g>
<g>
</g>
<g>
</g>
<g>
</g>
<g>
</g>
<g>
</g>
<g>
</g>
</svg>
