<?xml version="1.0" encoding="iso-8859-1"?>
<!-- Generator: Adobe Illustrator 19.0.0, SVG Export Plug-In . SVG Version: 6.00 Build 0)  -->
<svg version="1.1" id="Layer_1" xmlns="http://www.w3.org/2000/svg" xmlns:xlink="http://www.w3.org/1999/xlink" x="0px" y="0px"
	 viewBox="0 0 509.287 509.287" style="enable-background:new 0 0 509.287 509.287;" xml:space="preserve">
<circle style="fill:#29B36F;" cx="254.644" cy="254.644" r="254.644"/>
<rect x="115.624" y="121.049" style="fill:#F1F3F7;" width="32.551" height="267.189"/>
<path style="fill:#FAD404;" d="M115.624,121.049L57.642,93.245C21.701,137.324,0,193.272,0,254.644s21.701,117.319,57.642,161.399
	l57.981-27.804V121.049z"/>
<polygon style="fill:#BDBDBE;" points="231.926,311.947 148.175,388.238 148.175,121.049 231.926,197.34 "/>
<path style="fill:#DEDEDF;" d="M231.926,312.286h270.58c4.408-18.649,6.781-37.637,6.781-57.642c0-19.666-2.374-38.993-6.781-57.642
	h-270.58V312.286z"/>
<rect x="231.926" y="197.001" style="fill:#333842;" width="49.844" height="114.946"/>
<path style="fill:#FFFFFF;" d="M391.29,254.644c0-9.833,8.138-17.971,17.971-17.971H376.71c-9.833,0-17.971,8.138-17.971,17.971
	c0,9.833,8.138,17.971,17.971,17.971h32.551C399.089,272.615,391.29,264.477,391.29,254.644z"/>
<path style="fill:#333842;" d="M449.611,254.644c0-9.833-8.138-17.971-17.971-17.971h-22.379c-9.833,0-17.971,8.138-17.971,17.971
	c0,9.833,8.138,17.971,17.971,17.971h22.379C441.473,272.615,449.611,264.477,449.611,254.644z"/>
<g>
</g>
<g>
</g>
<g>
</g>
<g>
</g>
<g>
</g>
<g>
</g>
<g>
</g>
<g>
</g>
<g>
</g>
<g>
</g>
<g>
</g>
<g>
</g>
<g>
</g>
<g>
</g>
<g>
</g>
</svg>
