<?xml version="1.0" encoding="iso-8859-1"?>
<!-- Generator: Adobe Illustrator 19.0.0, SVG Export Plug-In . SVG Version: 6.00 Build 0)  -->
<svg version="1.1" id="Layer_1" xmlns="http://www.w3.org/2000/svg" xmlns:xlink="http://www.w3.org/1999/xlink" x="0px" y="0px"
	 viewBox="0 0 509.626 509.626" style="enable-background:new 0 0 509.626 509.626;" xml:space="preserve">
<circle style="fill:#F0582F;" cx="254.813" cy="254.644" r="254.644"/>
<path style="fill:#FFFFFF;" d="M438.93,156.991H70.697v273.632c46.453,48.487,111.555,79.004,184.117,79.004
	s137.664-30.177,184.117-79.004V156.991z"/>
<rect x="125.626" y="82.734" style="fill:#F1F3F7;" width="258.374" height="74.257"/>
<g>
	<rect x="109.012" y="203.444" style="fill:#3EB9E3;" width="49.844" height="81.377"/>
	<rect x="189.372" y="203.444" style="fill:#3EB9E3;" width="49.844" height="81.377"/>
	<rect x="270.072" y="203.444" style="fill:#3EB9E3;" width="49.844" height="81.377"/>
	<rect x="350.771" y="203.444" style="fill:#3EB9E3;" width="49.844" height="81.377"/>
	<rect x="109.012" y="314.321" style="fill:#3EB9E3;" width="49.844" height="81.377"/>
	<rect x="189.372" y="314.321" style="fill:#3EB9E3;" width="49.844" height="81.377"/>
	<rect x="270.072" y="314.321" style="fill:#3EB9E3;" width="49.844" height="81.377"/>
	<rect x="350.771" y="314.321" style="fill:#3EB9E3;" width="49.844" height="81.377"/>
	<path style="fill:#3EB9E3;" d="M109.012,463.173c15.597,10.85,32.212,20.005,49.844,27.126v-65.441h-49.844V463.173z"/>
	<path style="fill:#3EB9E3;" d="M189.372,500.811c9.155,2.374,18.649,4.408,28.482,5.764h21.701v-81.377h-50.183V500.811z"/>
	<path style="fill:#3EB9E3;" d="M270.072,506.575h21.701c9.833-1.356,19.327-3.391,28.482-5.764v-75.613h-50.183V506.575z"/>
	<path style="fill:#3EB9E3;" d="M350.771,490.638c17.632-7.121,34.585-16.276,49.844-27.126v-37.976h-49.844V490.638z"/>
</g>
<g>
	<rect x="151.057" y="111.216" style="fill:#4484C5;" width="28.821" height="45.436"/>
	<rect x="210.734" y="111.216" style="fill:#4484C5;" width="28.821" height="45.436"/>
	<rect x="270.072" y="111.216" style="fill:#4484C5;" width="28.821" height="45.436"/>
	<rect x="329.748" y="111.216" style="fill:#4484C5;" width="28.821" height="45.436"/>
</g>
<g>
	<path style="fill:#FFFFFF;" d="M136.138,76.97V43.062h5.764v14.58h16.615v-14.58h5.764V76.97h-5.764V63.068h-16.615V76.97H136.138z
		"/>
	<path style="fill:#FFFFFF;" d="M267.698,46.114c5.086,4.408,4.069,14.58,0,17.971c-2.374,2.034-6.103,2.713-11.189,2.713h-6.103
		v9.833h-5.764V42.723h11.868C261.595,43.062,265.324,44.079,267.698,46.114z M263.629,60.016c2.713-2.034,2.374-8.816-0.339-10.172
		c-1.356-1.017-3.73-1.356-6.781-1.356h-5.764V62.05h6.781C260.238,61.711,262.273,61.033,263.629,60.016z"/>
	<path style="fill:#FFFFFF;" d="M277.87,43.062h5.764V76.97h-5.764V43.062z"/>
	<path style="fill:#FFFFFF;" d="M305.674,48.487V76.97h-5.764V48.487h-10.172v-5.086h26.109v5.086
		C315.846,48.487,305.674,48.487,305.674,48.487z"/>
	<path style="fill:#FFFFFF;" d="M324.323,69.171l-3.391,7.799h-6.103l14.919-33.907h6.103l14.919,33.907h-6.103l-3.391-7.799
		H324.323z M338.903,64.085L332.8,50.183l-6.103,13.902H338.903z"/>
	<path style="fill:#FFFFFF;" d="M355.518,76.97V43.062h5.764v28.482h15.258v5.425H355.518z"/>
</g>
<rect x="125.626" y="145.462" style="opacity:0.2;fill:#4F5565;enable-background:new    ;" width="258.374" height="11.528"/>
<g>
	<path style="fill:#FFFFFF;" d="M189.372,42.384c-9.833,0-17.632,7.799-17.632,17.632s7.799,17.632,17.632,17.632
		c9.833,0,17.632-7.799,17.632-17.632S199.205,42.384,189.372,42.384z M189.372,72.223c-6.442,0-11.868-5.425-11.868-12.207
		s5.425-12.207,11.868-12.207c6.442,0,11.868,5.425,11.868,12.207S196.154,72.223,189.372,72.223z"/>
	<path style="fill:#FFFFFF;" d="M237.181,46.453l-3.052,4.408c0,0-13.224-7.46-14.919,0.678c-0.678,3.052,3.052,4.747,7.799,5.764
		c0,0,12.885,2.374,11.189,11.189c-1.695,9.155-13.224,13.902-26.109,3.391l3.73-4.408c0,0,4.408,4.069,9.494,4.408
		c5.086,0.339,7.121-2.374,7.121-4.408c0-1.695-2.713-4.408-6.781-5.086c-4.069-0.678-12.885-2.034-12.207-11.189
		C214.464,40.35,228.026,38.993,237.181,46.453z"/>
</g>
<g>
</g>
<g>
</g>
<g>
</g>
<g>
</g>
<g>
</g>
<g>
</g>
<g>
</g>
<g>
</g>
<g>
</g>
<g>
</g>
<g>
</g>
<g>
</g>
<g>
</g>
<g>
</g>
<g>
</g>
</svg>
