<?xml version="1.0" encoding="iso-8859-1"?>
<!-- Generator: Adobe Illustrator 19.0.0, SVG Export Plug-In . SVG Version: 6.00 Build 0)  -->
<svg version="1.1" id="Layer_1" xmlns="http://www.w3.org/2000/svg" xmlns:xlink="http://www.w3.org/1999/xlink" x="0px" y="0px"
	 viewBox="0 0 509.287 509.287" style="enable-background:new 0 0 509.287 509.287;" xml:space="preserve">
<path style="fill:#0090FF;" d="M509.287,254.644C509.287,113.928,395.359,0,254.644,0S0,113.928,0,254.644
	c0,38.315,8.477,74.257,23.396,106.808h462.156C500.811,328.901,509.287,292.959,509.287,254.644z"/>
<path style="fill:#80C35B;" d="M23.735,361.452c40.35,87.142,128.509,147.836,230.909,147.836s190.559-60.355,230.909-147.836
	L23.735,361.452L23.735,361.452z"/>
<rect x="83.412" y="89.854" style="fill:#FBD303;" width="342.464" height="320.763"/>
<g>
	<rect x="83.412" y="244.132" style="fill:#E6BD20;" width="342.464" height="21.362"/>
	<rect x="83.412" y="89.854" style="fill:#E6BD20;" width="342.464" height="36.959"/>
</g>
<g>
	<rect x="76.291" y="380.44" style="fill:#F1F3F7;" width="356.705" height="30.177"/>
	<rect x="76.291" y="241.42" style="fill:#F1F3F7;" width="356.705" height="17.971"/>
	<rect x="76.291" y="89.854" style="fill:#F1F3F7;" width="356.705" height="30.177"/>
</g>
<path style="fill:#E6BD20;" d="M127.83,215.311V146.14c0,0,12.207-7.121,25.77-7.121c12.546,0,25.77,7.121,25.77,7.121v69.51H127.83
	V215.311z"/>
<g>
	<path style="fill:#F1F3F7;" d="M173.605,177.335c0-9.155,0-18.31,0-27.465c-12.546-6.442-27.465-6.442-39.672,0
		c0,9.155,0,18.31,0,27.465L173.605,177.335L173.605,177.335z"/>
	<path style="fill:#F1F3F7;" d="M133.595,184.117c0,8.477,0,16.954,0,25.43c13.224,0,26.448,0,39.672,0c0-8.477,0-16.954,0-25.43
		H133.595z"/>
	<rect x="123.423" y="215.311" style="fill:#F1F3F7;" width="60.355" height="10.511"/>
</g>
<g>
	<polygon style="fill:#E6BD20;" points="123.423,226.162 183.777,231.926 183.777,226.162 	"/>
	<path style="fill:#E6BD20;" d="M232.265,215.311V146.14c0,0,12.207-7.121,25.77-7.121c12.546,0,25.77,7.121,25.77,7.121v69.51
		h-51.539V215.311z"/>
</g>
<g>
	<path style="fill:#F1F3F7;" d="M278.04,177.335c0-9.155,0-18.31,0-27.465c-12.546-6.442-27.465-6.442-39.672,0
		c0,9.155,0,18.31,0,27.465L278.04,177.335L278.04,177.335z"/>
	<path style="fill:#F1F3F7;" d="M238.368,184.117c0,8.477,0,16.954,0,25.43c13.224,0,26.448,0,39.672,0c0-8.477,0-16.954,0-25.43
		H238.368z"/>
	<rect x="228.196" y="215.311" style="fill:#F1F3F7;" width="60.355" height="10.511"/>
</g>
<g>
	<polygon style="fill:#E6BD20;" points="228.196,226.162 288.212,231.926 288.212,226.162 	"/>
	<path style="fill:#E6BD20;" d="M337.038,215.311V146.14c0,0,12.207-7.121,25.77-7.121c12.546,0,25.77,7.121,25.77,7.121v69.51
		h-51.539V215.311z"/>
</g>
<g>
	<path style="fill:#F1F3F7;" d="M382.813,177.335c0-9.155,0-18.31,0-27.465c-12.546-6.442-27.465-6.442-39.672,0
		c0,9.155,0,18.31,0,27.465L382.813,177.335L382.813,177.335z"/>
	<path style="fill:#F1F3F7;" d="M342.803,184.117c0,8.477,0,16.954,0,25.43c13.224,0,26.448,0,39.672,0c0-8.477,0-16.954,0-25.43
		H342.803z"/>
	<rect x="332.63" y="215.311" style="fill:#F1F3F7;" width="60.355" height="10.511"/>
</g>
<g>
	<polygon style="fill:#E6BD20;" points="332.63,226.162 392.985,231.926 392.985,226.162 	"/>
	<path style="fill:#E6BD20;" d="M127.83,361.791v-69.51c0,0,12.207-7.121,25.77-7.121c12.546,0,25.77,7.121,25.77,7.121v69.51
		H127.83z"/>
</g>
<g>
	<path style="fill:#F1F3F7;" d="M173.605,323.475c0-9.155,0-18.31,0-27.465c-12.546-6.442-27.465-6.442-39.672,0
		c0,9.155,0,18.31,0,27.465H173.605z"/>
	<path style="fill:#F1F3F7;" d="M133.595,330.257c0,8.477,0,16.954,0,25.43c13.224,0,26.448,0,39.672,0c0-8.477,0-16.954,0-25.43
		H133.595z"/>
	<rect x="123.423" y="361.791" style="fill:#F1F3F7;" width="60.355" height="10.511"/>
</g>
<g>
	<polygon style="fill:#E6BD20;" points="123.423,372.302 183.777,378.405 183.777,372.302 	"/>
	<path style="fill:#E6BD20;" d="M337.038,361.791v-69.51c0,0,12.207-7.121,25.77-7.121c12.546,0,25.77,7.121,25.77,7.121v69.51
		H337.038z"/>
</g>
<g>
	<path style="fill:#F1F3F7;" d="M382.813,323.475c0-9.155,0-18.31,0-27.465c-12.546-6.442-27.465-6.442-39.672,0
		c0,9.155,0,18.31,0,27.465H382.813z"/>
	<path style="fill:#F1F3F7;" d="M342.803,330.257c0,8.477,0,16.954,0,25.43c13.224,0,26.448,0,39.672,0c0-8.477,0-16.954,0-25.43
		H342.803z"/>
	<rect x="332.63" y="361.791" style="fill:#F1F3F7;" width="60.355" height="10.511"/>
</g>
<g>
	<polygon style="fill:#E6BD20;" points="332.63,372.302 392.985,378.405 392.985,372.302 	"/>
	<rect x="203.783" y="289.907" style="fill:#E6BD20;" width="101.383" height="120.71"/>
</g>
<rect x="214.633" y="301.775" style="fill:#F1F3F7;" width="80.36" height="108.842"/>
<path style="fill:#F0582F;" d="M320.424,290.585c-13.563-22.379-37.976-37.298-65.78-37.298c-28.143,0-52.556,14.919-65.78,37.298
	H320.424z"/>
<path style="fill:#FCFCFD;" d="M306.861,290.585c-10.85-22.379-30.177-37.298-52.217-37.298s-41.706,14.919-52.217,37.298H306.861z"
	/>
<path style="fill:#F0582F;" d="M293.298,290.585c-7.799-22.379-22.379-37.298-38.654-37.298c-16.615,0-30.856,14.919-38.654,37.298
	H293.298z"/>
<path style="fill:#FCFCFD;" d="M278.04,290.585c-4.747-22.379-13.563-37.298-23.396-37.298c-9.833,0-18.649,14.919-23.396,37.298
	H278.04z"/>
<g>
	<path style="fill:#F0582F;" d="M263.799,290.585c-2.034-22.379-5.425-37.298-9.155-37.298s-7.46,14.919-9.155,37.298H263.799z"/>
	<rect x="168.858" y="51.2" style="fill:#F0582F;" width="171.571" height="53.913"/>
</g>
<g>
	<path style="fill:#FFFFFC;" d="M201.409,63.068h6.781v30.517h-6.781V81.377h-12.207v12.207h-6.781V63.068h6.781v12.885h12.207
		V63.068z"/>
	<path style="fill:#FFFFFC;" d="M241.759,89.515c-3.052,3.052-6.781,4.408-11.528,4.408c-4.408,0-8.477-1.356-11.528-4.408
		c-3.052-3.052-4.747-6.781-4.747-11.189s1.695-8.138,4.747-11.189c3.052-3.052,6.781-4.408,11.528-4.408
		c4.408,0,8.477,1.356,11.528,4.408c3.052,3.052,4.747,6.781,4.747,11.189S244.811,86.464,241.759,89.515z M239.385,78.326
		c0-2.713-1.017-5.086-2.713-7.121s-4.069-3.052-6.442-3.052c-2.374,0-4.747,1.017-6.442,3.052
		c-1.695,2.034-2.713,4.408-2.713,7.121c0,2.713,1.017,5.086,2.713,7.121c1.695,2.034,4.069,2.713,6.442,2.713
		c2.374,0,4.747-1.017,6.442-2.713C238.707,83.412,239.385,81.038,239.385,78.326z"/>
	<path style="fill:#FFFFFC;" d="M264.477,68.832v24.752h-6.781V68.832h-8.816v-5.764h24.413v6.103h-8.816V68.832z"/>
	<path style="fill:#FFFFFC;" d="M300.419,63.068v6.103H285.16v6.442h13.902v5.764H285.16v6.442h15.936v5.764h-22.718V63.068H300.419
		z"/>
	<path style="fill:#FFFFFC;" d="M306.861,93.584V63.068h6.781V87.82h13.224v5.764H306.861z"/>
</g>
<g>
</g>
<g>
</g>
<g>
</g>
<g>
</g>
<g>
</g>
<g>
</g>
<g>
</g>
<g>
</g>
<g>
</g>
<g>
</g>
<g>
</g>
<g>
</g>
<g>
</g>
<g>
</g>
<g>
</g>
</svg>
