<?xml version="1.0" encoding="iso-8859-1"?>
<!-- Generator: Adobe Illustrator 19.0.0, SVG Export Plug-In . SVG Version: 6.00 Build 0)  -->
<svg version="1.1" id="Layer_1" xmlns="http://www.w3.org/2000/svg" xmlns:xlink="http://www.w3.org/1999/xlink" x="0px" y="0px"
	 viewBox="0 0 509.287 509.287" style="enable-background:new 0 0 509.287 509.287;" xml:space="preserve">
<path style="fill:#4485C5;" d="M0.339,265.494c5.764,135.629,117.319,243.793,254.305,243.793s248.54-108.164,254.305-243.793
	C508.948,265.494,0.339,265.494,0.339,265.494z"/>
<g>
	<path style="fill:#6EB1E1;" d="M166.485,413.33H83.751c-2.034,0-3.391-1.356-3.391-3.391s1.356-3.391,3.391-3.391h83.073
		c2.034,0,3.391,1.356,3.391,3.391C169.876,411.634,168.519,413.33,166.485,413.33z"/>
	<path style="fill:#6EB1E1;" d="M223.449,469.277h-82.734c-2.034,0-3.391-1.356-3.391-3.391s1.356-3.391,3.391-3.391h83.073
		c2.034,0,3.391,1.356,3.391,3.391C226.84,467.921,225.483,469.277,223.449,469.277z"/>
	<path style="fill:#6EB1E1;" d="M415.025,290.924h-83.073c-2.034,0-3.391-1.356-3.391-3.391c0-2.034,1.356-3.391,3.391-3.391h83.073
		c2.034,0,3.391,1.356,3.391,3.391C418.416,289.229,416.721,290.924,415.025,290.924z"/>
	<path style="fill:#6EB1E1;" d="M480.127,290.924h-83.073c-2.034,0-3.391-1.356-3.391-3.391c0-2.034,1.356-3.391,3.391-3.391h83.073
		c2.034,0,3.391,1.356,3.391,3.391C483.518,289.229,482.162,290.924,480.127,290.924z"/>
</g>
<path style="fill:#3EB9E3;" d="M509.287,254.644C509.287,113.928,395.359,0,254.644,0S0,113.928,0,254.644
	c0,3.73,0,7.121,0.339,10.85h508.609C508.948,261.764,509.287,258.374,509.287,254.644z"/>
<path style="fill:#FCFCFD;" d="M317.372,129.526l55.947-55.947c-71.883-47.131-165.807-47.131-237.351,0l55.947,55.947
	C231.248,109.521,278.04,109.521,317.372,129.526z"/>
<g>
	<path style="fill:#E95341;" d="M353.653,155.634c10.85,10.85,19.666,23.057,26.109,36.281l55.947-55.947
		c-8.138-12.207-17.293-23.735-28.143-34.246c-10.85-10.85-22.379-20.005-34.246-28.143l-55.947,55.947
		C330.596,135.968,342.803,144.784,353.653,155.634z"/>
	<path style="fill:#E95341;" d="M155.634,353.653c-10.85-10.85-19.666-23.057-26.109-36.281l-55.947,55.947
		c8.138,12.207,17.293,23.735,28.143,34.246c10.85,10.85,22.379,20.005,34.246,28.143l55.947-55.947
		C178.691,373.319,166.485,364.503,155.634,353.653z"/>
	<path style="fill:#E95341;" d="M435.709,373.319l-55.947-55.947c-6.442,13.224-15.258,25.43-26.109,36.281
		c-10.85,10.85-23.057,19.666-36.281,26.109l55.947,55.947c12.207-8.138,23.735-17.293,34.246-28.143
		C418.416,397.054,427.91,385.526,435.709,373.319z"/>
	<path style="fill:#E95341;" d="M155.634,155.634c10.85-10.85,23.057-19.666,36.281-26.109l-55.947-55.947
		c-12.207,8.138-23.735,17.293-34.246,28.143c-10.85,10.85-20.005,22.379-28.143,34.246l55.947,55.947
		C135.968,178.691,144.784,166.485,155.634,155.634z"/>
</g>
<g>
	<path style="fill:#FCFCFD;" d="M379.762,317.372l55.947,55.947c47.131-71.883,47.131-165.807,0-237.351l-55.947,55.947
		C399.767,231.248,399.767,278.04,379.762,317.372z"/>
	<path style="fill:#FCFCFD;" d="M129.526,191.915l-55.947-55.947c-47.131,71.883-47.131,165.807,0,237.351l55.947-55.947
		C109.521,278.04,109.521,231.248,129.526,191.915z"/>
	<path style="fill:#FCFCFD;" d="M191.915,379.762l-55.947,55.947c71.883,47.131,165.807,47.131,237.351,0l-55.947-55.947
		C278.04,399.767,231.248,399.767,191.915,379.762z"/>
</g>
<path style="fill:#F1F3F7;" d="M191.915,129.526c39.332-19.666,86.124-19.666,125.796,0l19.327-19.327
	c-50.861-28.821-113.928-28.821-164.789,0L191.915,129.526z"/>
<g>
	<path style="fill:#D64E3C;" d="M353.653,155.634c10.85,10.85,19.666,23.057,26.109,36.281l19.327-19.327
		c-7.121-12.546-16.276-24.752-27.126-35.603c-10.85-10.85-22.718-19.666-35.603-27.126l-18.988,19.666
		C330.596,135.968,342.803,144.784,353.653,155.634z"/>
	<path style="fill:#D64E3C;" d="M155.634,353.653c-10.85-10.85-19.666-23.057-26.109-36.281l-19.327,19.327
		c7.121,12.546,16.275,24.752,27.126,35.603s22.718,19.666,35.603,27.126l19.327-19.327
		C178.691,373.319,166.485,364.503,155.634,353.653z"/>
	<path style="fill:#D64E3C;" d="M399.428,337.038l-19.327-19.327c-6.442,13.224-15.258,25.43-26.109,36.281
		s-23.057,19.666-36.281,26.109l19.327,19.327c12.546-7.121,24.752-16.276,35.603-27.126
		C383.152,361.452,392.307,349.584,399.428,337.038z"/>
	<path style="fill:#D64E3C;" d="M155.634,155.634c10.85-10.85,23.057-19.666,36.281-26.109l-19.327-19.327
		c-12.546,7.121-24.752,16.275-35.603,27.126s-19.666,22.718-27.126,35.603l19.327,19.327
		C135.968,178.691,144.784,166.485,155.634,155.634z"/>
</g>
<g>
	<path style="fill:#F1F3F7;" d="M379.762,191.915c19.666,39.332,19.666,86.124,0,125.796l19.327,19.327
		c28.821-50.861,28.821-113.928,0-164.789L379.762,191.915z"/>
	<path style="fill:#F1F3F7;" d="M317.372,379.762c-39.332,19.666-86.125,19.666-125.796,0l-19.327,19.327
		c50.861,28.821,113.928,28.821,164.789,0L317.372,379.762z"/>
	<path style="fill:#F1F3F7;" d="M129.526,317.372c-19.666-39.332-19.666-86.125,0-125.796l-19.327-19.327
		c-28.821,50.861-28.821,113.928,0,164.789L129.526,317.372z"/>
</g>
<g>
	<path style="fill:#6EB1E1;" d="M197.001,305.505h-61.033c-2.034,0-3.391-1.356-3.391-3.391c0-2.034,1.356-3.391,3.391-3.391h61.033
		c2.034,0,3.391,1.356,3.391,3.391C200.392,304.148,199.036,305.505,197.001,305.505z"/>
	<path style="fill:#6EB1E1;" d="M328.901,347.55H191.576c-2.034,0-3.391-1.356-3.391-3.391c0-2.034,1.356-3.391,3.391-3.391h137.325
		c2.034,0,3.391,1.356,3.391,3.391C332.291,345.854,330.596,347.55,328.901,347.55z"/>
	<path style="fill:#6EB1E1;" d="M320.085,314.999h-22.04c-2.034,0-3.391-1.356-3.391-3.391c0-2.034,1.356-3.391,3.391-3.391h22.04
		c2.034,0,3.391,1.356,3.391,3.391C323.475,313.642,322.119,314.999,320.085,314.999z"/>
</g>
<g>
</g>
<g>
</g>
<g>
</g>
<g>
</g>
<g>
</g>
<g>
</g>
<g>
</g>
<g>
</g>
<g>
</g>
<g>
</g>
<g>
</g>
<g>
</g>
<g>
</g>
<g>
</g>
<g>
</g>
</svg>
