<?xml version="1.0" encoding="iso-8859-1"?>
<!-- Generator: Adobe Illustrator 19.0.0, SVG Export Plug-In . SVG Version: 6.00 Build 0)  -->
<svg version="1.1" id="Layer_1" xmlns="http://www.w3.org/2000/svg" xmlns:xlink="http://www.w3.org/1999/xlink" x="0px" y="0px"
	 viewBox="0 0 509.287 509.287" style="enable-background:new 0 0 509.287 509.287;" xml:space="preserve">
<path style="fill:#4D52A3;" d="M509.287,254.644C509.287,113.928,395.359,0,254.644,0S0,113.928,0,254.644
	c0,50.183,14.58,96.975,39.672,136.646h429.605C494.707,351.619,509.287,304.827,509.287,254.644z"/>
<path style="fill:#6EB1E1;" d="M39.672,391.29c45.097,70.866,124.44,117.997,214.972,117.997S424.18,462.156,469.616,391.29H39.672z
	"/>
<rect x="208.191" y="109.86" style="fill:#3EB9E3;" width="92.567" height="52.217"/>
<rect x="203.444" y="97.653" style="fill:#333842;" width="102.4" height="12.207"/>
<path style="fill:#BDBDBE;" d="M254.644,50.861L254.644,50.861c-23.735,0-42.723,18.988-42.723,42.723v4.069h85.446v-4.069
	C297.367,70.188,278.379,50.861,254.644,50.861z"/>
<rect x="203.444" y="162.077" style="fill:#333842;" width="102.4" height="12.546"/>
<rect x="250.575" y="35.942" style="fill:#BDBDBE;" width="7.799" height="21.701"/>
<g>
	<polygon style="fill:#EEF0EC;" points="203.444,260.069 197.34,305.844 311.947,305.844 305.844,260.069 	"/>
	<polygon style="fill:#EEF0EC;" points="294.654,174.623 214.633,174.623 208.869,217.685 300.419,217.685 	"/>
	<polygon style="fill:#EEF0EC;" points="186.151,391.29 323.136,391.29 317.711,347.889 191.576,347.889 	"/>
</g>
<g>
	<polygon style="fill:#DF6C65;" points="300.419,217.685 208.869,217.685 203.444,260.069 305.844,260.069 	"/>
	<polygon style="fill:#DF6C65;" points="191.576,347.889 317.711,347.889 311.947,305.844 197.34,305.844 	"/>
</g>
<g>
	<path style="fill:#646B79;" d="M254.644,273.971c-5.764,0-10.85,4.747-10.85,10.85v21.023h21.362v-21.023
		C265.494,278.718,260.408,273.971,254.644,273.971z"/>
	<path style="fill:#646B79;" d="M254.644,353.992c-6.781,0-12.546,5.764-12.546,12.546v24.752h25.091v-24.752
		C267.189,359.417,261.425,353.992,254.644,353.992z"/>
</g>
<g>
	<circle style="fill:#9C9ACC;" cx="142.072" cy="182.082" r="7.46"/>
	<circle style="fill:#9C9ACC;" cx="437.065" cy="254.644" r="7.46"/>
	<circle style="fill:#9C9ACC;" cx="373.319" cy="182.082" r="7.46"/>
	<circle style="fill:#9C9ACC;" cx="381.118" cy="82.056" r="7.46"/>
	<circle style="fill:#9C9ACC;" cx="149.87" cy="334.665" r="7.46"/>
	<circle style="fill:#9C9ACC;" cx="63.746" cy="254.644" r="7.46"/>
	<circle style="fill:#9C9ACC;" cx="165.128" cy="74.257" r="7.46"/>
	<circle style="fill:#9C9ACC;" cx="366.538" cy="319.407" r="7.46"/>
</g>
<g>
</g>
<g>
</g>
<g>
</g>
<g>
</g>
<g>
</g>
<g>
</g>
<g>
</g>
<g>
</g>
<g>
</g>
<g>
</g>
<g>
</g>
<g>
</g>
<g>
</g>
<g>
</g>
<g>
</g>
</svg>
