<?xml version="1.0" encoding="iso-8859-1"?>
<!-- Generator: Adobe Illustrator 19.0.0, SVG Export Plug-In . SVG Version: 6.00 Build 0)  -->
<svg version="1.1" id="Layer_1" xmlns="http://www.w3.org/2000/svg" xmlns:xlink="http://www.w3.org/1999/xlink" x="0px" y="0px"
	 viewBox="0 0 509.287 509.287" style="enable-background:new 0 0 509.287 509.287;" xml:space="preserve">
<circle style="fill:#76D95B;" cx="254.644" cy="254.644" r="254.644"/>
<path style="fill:#F0582F;" d="M243.793,401.801H70.866c-6.103,0-10.85-4.747-10.85-10.85V117.997c0-6.103,4.747-10.85,10.85-10.85
	h172.927c6.103,0,10.85,4.747,10.85,10.85v272.954C254.644,397.054,249.897,401.801,243.793,401.801z"/>
<path style="fill:#D64E3C;" d="M438.421,401.801H265.494c-6.103,0-10.85-4.747-10.85-10.85V117.997c0-6.103,4.747-10.85,10.85-10.85
	h172.927c6.103,0,10.85,4.747,10.85,10.85v272.954C449.271,397.054,444.185,401.801,438.421,401.801z"/>
<rect x="77.987" y="126.813" style="fill:#FFFFFF;" width="176.657" height="255.661"/>
<rect x="254.644" y="126.813" style="fill:#F1F1F3;" width="176.657" height="255.661"/>
<g>
	<rect x="386.204" y="156.991" style="fill:#CED5D7;" width="26.109" height="13.224"/>
	<rect x="273.632" y="156.991" style="fill:#CED5D7;" width="78.665" height="13.224"/>
	<rect x="273.632" y="185.134" style="fill:#CED5D7;" width="53.234" height="13.224"/>
	<rect x="386.204" y="234.299" style="fill:#CED5D7;" width="26.109" height="13.224"/>
	<rect x="273.632" y="234.299" style="fill:#CED5D7;" width="78.665" height="13.224"/>
	<rect x="273.632" y="262.103" style="fill:#CED5D7;" width="53.234" height="13.224"/>
	<rect x="386.204" y="311.269" style="fill:#CED5D7;" width="26.109" height="13.224"/>
	<rect x="273.632" y="311.269" style="fill:#CED5D7;" width="78.665" height="13.224"/>
	<rect x="273.632" y="339.073" style="fill:#CED5D7;" width="53.234" height="13.224"/>
</g>
<g>
	<path style="fill:#FCCE68;" d="M132.917,182.421c0-0.678,0.678-1.356,1.356-1.356c1.017,0,1.695,0.678,1.695,1.695l0.339,28.482
		c0,1.017,1.017,2.034,2.034,2.034s2.034-1.017,2.034-2.034l-0.339-28.482c0-1.017,0.678-1.695,1.695-1.695h0.678
		c1.017,0,1.695,0.678,1.695,1.695l0.339,28.482c0,1.017,1.017,2.034,2.034,2.034l0,0c1.017,0,2.034-1.017,2.034-2.034
		l-0.678-28.821c0-1.017,0.678-1.695,1.695-1.695c0.678,0,1.356,0.678,1.695,1.356c1.017,6.442,5.425,34.585,4.408,41.367
		c-0.678,4.408-5.086,7.121-8.477,8.138l4.747,85.785c0.339,6.103-3.391,11.189-8.477,11.189s-9.155-5.086-8.816-11.189
		l3.391-85.446c-3.73-1.017-8.138-3.391-8.816-8.138C128.17,217.346,131.899,188.864,132.917,182.421z"/>
	<path style="fill:#FCCE68;" d="M203.783,210.903c0-14.241-8.138-29.838-18.649-29.838c-10.511,0-18.988,15.258-18.988,29.499
		c0,12.207,6.103,19.666,14.241,21.701l-4.747,84.768c-0.339,6.103,3.73,11.189,8.816,11.189l0,0c5.086,0,9.155-5.086,8.816-11.189
		l-4.069-84.429C197.34,230.57,203.444,223.11,203.783,210.903z"/>
</g>
<g>
</g>
<g>
</g>
<g>
</g>
<g>
</g>
<g>
</g>
<g>
</g>
<g>
</g>
<g>
</g>
<g>
</g>
<g>
</g>
<g>
</g>
<g>
</g>
<g>
</g>
<g>
</g>
<g>
</g>
</svg>
