<?xml version="1.0" encoding="iso-8859-1"?>
<!-- Generator: Adobe Illustrator 19.0.0, SVG Export Plug-In . SVG Version: 6.00 Build 0)  -->
<svg version="1.1" id="Layer_1" xmlns="http://www.w3.org/2000/svg" xmlns:xlink="http://www.w3.org/1999/xlink" x="0px" y="0px"
	 viewBox="0 0 509.287 509.287" style="enable-background:new 0 0 509.287 509.287;" xml:space="preserve">
<circle style="fill:#F0582F;" cx="254.644" cy="254.644" r="254.644"/>
<circle style="fill:#FAD404;" cx="204.8" cy="294.315" r="168.858"/>
<path style="fill:#FCFCFD;" d="M314.66,7.121c-47.809,20.683-82.395,66.119-88.159,120.032
	c81.717,10.511,144.784,79.343,146.819,163.433l0,0c57.642,0,107.486-32.89,131.899-81.038
	C487.248,110.199,411.974,30.856,314.66,7.121z"/>
<path style="fill:#D54232;" d="M485.213,146.819L485.213,146.819c9.155,19.327,15.936,40.689,19.666,62.728
	c-24.413,48.148-74.257,81.038-131.899,81.038l0,0c0,1.356,0,2.374,0,3.73c0,8.816-0.678,17.293-2.034,25.43
	c6.103,0.678,12.546,1.356,18.988,1.356c48.827,0,91.889-23.396,118.675-60.016c0-2.034,0-4.408,0-6.442
	C509.287,215.989,500.472,179.709,485.213,146.819z"/>
<circle style="fill:#E6BD20;" cx="204.8" cy="294.315" r="136.985"/>
<circle style="fill:#FAD404;" cx="204.8" cy="294.315" r="116.641"/>
<path style="fill:#E6BD20;" d="M199.714,390.951v-16.954c-21.362-2.034-40.35-10.511-57.303-25.43l16.954-20.344
	c12.885,11.189,26.448,17.971,40.35,20.344v-45.436c-17.632-4.069-30.517-9.833-38.654-16.615
	c-8.138-6.781-12.207-16.954-12.207-30.517c0-13.563,4.747-24.413,14.241-32.89c9.494-8.477,21.701-13.224,36.62-13.902v-11.528
	h14.919v11.868c16.954,1.356,33.229,7.121,48.487,17.632l-15.258,21.362c-10.172-7.46-21.362-11.868-33.229-13.563v43.74h0.678
	c17.971,4.069,30.856,9.833,39.332,16.954s12.546,17.632,12.546,31.195c0,13.563-4.747,24.752-14.58,33.229
	c-9.494,8.477-22.379,13.224-38.315,13.902v16.615h-14.58V390.951z M183.099,240.403c-4.069,3.391-6.103,7.799-6.103,12.885
	c0,5.086,1.695,9.155,4.747,12.207c3.052,3.052,9.155,6.103,17.632,8.816v-40.011C192.593,234.977,187.168,237.012,183.099,240.403z
	 M232.265,342.803c4.408-3.73,6.442-8.138,6.442-13.563c0-5.425-1.695-9.833-5.086-12.885s-9.833-6.103-18.988-8.816v42.045
	C222.093,348.567,227.857,346.193,232.265,342.803z"/>
<path style="fill:#D54232;" d="M373.319,290.585L373.319,290.585c0,1.356,0,2.374,0,3.73c0,93.245-75.613,168.858-168.858,168.858
	c-57.303,0-107.825-28.482-138.342-72.223c25.77,60.355,85.446,102.739,155.295,102.739c93.245,0,168.858-75.613,168.858-168.858
	c0-11.868-1.356-23.735-3.73-34.925C382.474,290.246,377.727,290.585,373.319,290.585z"/>
<path style="fill:#DEDEDF;" d="M361.452,23.396c-57.303,5.764-102.739,51.878-107.486,109.521
	c59.338,17.971,104.774,67.815,116.641,129.865c1.017,0,2.034,0,3.052,0c59.677,0,109.181-43.74,118.336-100.705
	C467.921,100.705,420.789,50.861,361.452,23.396z"/>
<path style="fill:#FFFFFC;" d="M474.024,125.118c-19.327-32.551-45.436-60.355-76.63-81.717c-7.46-1.695-15.597-2.713-23.735-2.713
	c-55.269,0-100.026,43.74-102.061,98.67c45.097,19.327,79.682,57.981,94.601,105.113c2.374,0.339,5.086,0.339,7.46,0.339
	c56.286,0,102.061-45.775,102.061-102.061C475.38,136.985,474.702,130.882,474.024,125.118z"/>
<path style="fill:#DEDEDF;" d="M393.324,186.49c-5.086,2.713-11.189,4.069-18.31,4.069c-14.58,0-25.091-6.781-32.551-20.683h45.775
	v-16.954h-51.2c-0.339-3.052-0.678-6.103-0.678-9.155c0-3.391,0-5.764,0.339-7.121h51.539v-16.954h-47.47
	c3.052-7.46,7.799-13.224,13.902-17.293c6.103-4.069,13.224-6.103,20.683-6.103c7.799,0,14.241,1.356,19.327,3.73
	s10.85,6.781,16.615,13.224l14.241-17.971c-12.207-15.258-29.16-22.718-50.183-22.718c-14.241,0-26.787,4.408-37.976,12.885
	c-11.189,8.477-18.988,20.005-23.396,34.246h-20.344v16.954h17.632c0,1.356-0.339,3.73-0.339,7.121c0,3.052,0.339,6.442,0.678,9.494
	h-14.919c21.701,14.241,40.35,33.229,53.574,55.947c7.799,3.391,15.936,5.086,24.752,5.086c20.005,0,36.281-7.46,48.827-22.718
	L409.6,174.623C403.836,179.37,398.411,183.777,393.324,186.49z"/>
<g>
</g>
<g>
</g>
<g>
</g>
<g>
</g>
<g>
</g>
<g>
</g>
<g>
</g>
<g>
</g>
<g>
</g>
<g>
</g>
<g>
</g>
<g>
</g>
<g>
</g>
<g>
</g>
<g>
</g>
</svg>
