<?xml version="1.0" encoding="iso-8859-1"?>
<!-- Generator: Adobe Illustrator 19.0.0, SVG Export Plug-In . SVG Version: 6.00 Build 0)  -->
<svg version="1.1" id="Layer_1" xmlns="http://www.w3.org/2000/svg" xmlns:xlink="http://www.w3.org/1999/xlink" x="0px" y="0px"
	 viewBox="0 0 509.287 509.287" style="enable-background:new 0 0 509.287 509.287;" xml:space="preserve">
<path style="fill:#FAD404;" d="M509.287,254.644C509.287,113.928,395.359,0,254.644,0S0,113.928,0,254.644
	c0,35.603,7.121,69.171,20.344,100.026h468.26C501.828,323.815,509.287,290.246,509.287,254.644z"/>
<path style="fill:#FBE166;" d="M377.727,279.057l-63.407-33.229c2.034-6.103,3.391-12.885,4.069-19.666l71.544-5.764l-71.544-5.764
	c-0.339-6.103-1.695-12.207-3.391-17.971l64.085-32.212l-68.493,21.023c-3.052-6.103-6.781-11.528-10.85-16.615l46.114-54.93
	l-54.591,46.453c-4.747-4.069-9.833-7.46-15.258-10.172l22.718-68.154l-33.229,63.407c-6.103-2.034-12.885-3.391-19.666-4.069
	l-5.764-71.544l-5.764,71.544c-6.103,0.339-12.207,1.695-17.971,3.391l-32.212-64.085l21.362,68.493
	c-6.103,3.052-11.528,6.781-16.615,10.85l-55.269-46.114l46.453,54.591c-4.069,4.747-7.46,9.833-10.172,15.258l-68.493-22.379
	l63.407,33.229c-2.034,6.103-3.391,12.885-4.069,19.666l-71.544,5.764l71.544,5.764c0.339,6.103,1.695,12.207,3.391,17.971
	l-63.746,32.551l68.493-21.362c3.052,6.103,6.781,11.528,10.85,16.615l-46.114,54.591l54.591-46.114
	c4.747,4.069,9.833,7.46,15.258,10.172L180.726,358.4l33.229-63.407c6.103,2.034,12.885,3.391,19.666,4.069l5.764,71.544
	l5.764-71.544c6.103-0.339,12.207-1.695,17.971-3.391l32.212,64.085l-21.362-68.493c6.103-3.052,11.528-6.781,16.615-10.85
	l54.591,46.453l-45.775-55.269c4.069-4.747,7.46-9.833,10.172-15.258L377.727,279.057z"/>
<path style="fill:#F6CEB0;" d="M20.344,354.67c38.993,90.872,129.187,154.617,234.299,154.617S449.95,445.542,488.943,354.67
	C488.943,354.67,20.344,354.67,20.344,354.67z"/>
<polygon style="fill:#4485C5;" points="351.279,272.954 325.171,197.34 310.252,252.27 294.315,192.254 259.391,221.075 
	178.013,354.67 391.29,354.67 356.705,221.415 "/>
<polygon style="fill:#257DC0;" points="400.784,229.213 358.4,207.174 356.705,221.415 391.29,354.67 477.076,354.67 "/>
<polygon style="fill:#F1F3F7;" points="358.4,207.174 400.784,229.213 327.544,108.842 356.705,221.415 "/>
<polygon style="fill:#FFFFFF;" points="310.252,252.27 325.171,197.34 351.279,272.954 356.705,221.415 327.544,108.842 
	259.391,221.075 294.315,192.254 "/>
<polygon style="fill:#34B1D2;" points="205.817,257.017 172.588,239.725 171.91,246.845 201.409,354.67 265.155,354.67 "/>
<polygon style="fill:#3EB9E3;" points="167.163,290.924 146.819,232.265 135.29,274.649 122.744,228.196 95.619,250.575 
	32.212,354.67 201.409,354.67 171.91,246.845 "/>
<polygon style="fill:#F1F3F7;" points="172.588,239.725 205.817,257.017 148.853,163.094 171.91,246.845 "/>
<polygon style="fill:#FFFFFF;" points="135.29,274.649 146.819,232.265 167.163,290.924 171.91,246.845 148.853,163.094 
	95.619,250.575 122.744,228.196 "/>
<ellipse style="fill:#7CC259;" cx="449.95" cy="310.252" rx="32.551" ry="36.62"/>
<polygon style="fill:#611A21;" points="467.921,322.119 463.174,317.372 453.001,327.205 453.001,296.689 446.22,296.689 
	446.22,320.085 436.387,313.981 432.996,319.746 446.22,327.883 446.22,368.911 453.001,368.911 453.001,336.699 "/>
<ellipse style="fill:#7CC259;" cx="57.642" cy="322.797" rx="25.43" ry="28.821"/>
<polygon style="fill:#611A21;" points="71.544,332.291 67.815,328.223 60.016,336.021 60.016,312.286 54.591,312.286 
	54.591,330.257 46.792,325.849 44.079,330.257 54.591,336.699 54.591,368.911 60.016,368.911 60.016,343.481 "/>
<g>
</g>
<g>
</g>
<g>
</g>
<g>
</g>
<g>
</g>
<g>
</g>
<g>
</g>
<g>
</g>
<g>
</g>
<g>
</g>
<g>
</g>
<g>
</g>
<g>
</g>
<g>
</g>
<g>
</g>
</svg>
