<?xml version="1.0" encoding="iso-8859-1"?>
<!-- Generator: Adobe Illustrator 19.0.0, SVG Export Plug-In . SVG Version: 6.00 Build 0)  -->
<svg version="1.1" id="Layer_1" xmlns="http://www.w3.org/2000/svg" xmlns:xlink="http://www.w3.org/1999/xlink" x="0px" y="0px"
	 viewBox="0 0 509.287 509.287" style="enable-background:new 0 0 509.287 509.287;" xml:space="preserve">
<circle style="fill:#F3572F;" cx="254.644" cy="254.644" r="254.644"/>
<path style="fill:#4957B8;" d="M410.956,101.383c0-12.207-9.833-22.04-22.04-22.04H120.371c-12.207,0-22.04,9.833-22.04,22.04
	v353.992c43.062,33.568,97.314,53.913,156.313,53.913s113.25-20.005,156.313-53.913V101.383z"/>
<g>
	<path style="fill:#FFFFFF;" d="M186.829,417.06c0,20.683-19.666,24.074-29.499,24.074h-8.816v18.649h-14.919v-67.475h23.735
		C167.502,392.646,186.829,394.681,186.829,417.06z M171.232,416.042c0-9.494-9.494-10.85-14.58-10.85h-8.477v22.718h10.172
		C163.433,428.249,171.232,424.858,171.232,416.042z"/>
	<path style="fill:#FFFFFF;" d="M242.437,459.783l-6.103-14.58h-28.143l-6.103,14.58h-15.936l29.16-67.475h14.58l29.16,67.475
		H242.437z M222.093,412.652l-8.477,19.666h16.954L222.093,412.652z"/>
	<path style="fill:#FFFFFF;" d="M282.109,415.364c1.695,1.356,18.649,4.747,27.126,11.189c11.528,8.816,4.069,34.246-19.327,34.246
		c-10.511,0-20.344-4.069-28.821-11.868l8.816-10.85c7.121,6.442,13.902,9.494,20.005,9.494c8.816,0.339,10.511-8.816,6.442-11.528
		c-1.695-1.017-19.327-4.747-27.126-10.85c-3.73-3.052-5.425-7.799-5.425-14.241c0-16.615,17.293-20.005,24.074-20.005
		c12.207,0,22.04,6.103,25.43,8.816l-7.46,10.85c-5.764-4.408-11.868-6.442-17.971-6.781
		C279.396,404.175,276.683,411.295,282.109,415.364z"/>
	<path style="fill:#FFFFFF;" d="M343.481,415.364c1.695,1.356,18.649,4.747,27.126,11.189c11.529,8.816,4.069,34.246-19.327,34.246
		c-10.511,0-20.344-4.069-28.821-11.868l8.816-10.85c7.121,6.442,13.902,9.494,20.005,9.494c8.816,0.339,10.511-8.816,6.442-11.528
		c-1.695-1.017-19.327-4.747-27.126-10.85c-3.73-3.052-5.425-7.799-5.425-14.241c0-16.615,17.293-20.005,24.074-20.005
		c12.207,0,22.04,6.103,25.43,8.816l-7.46,10.85c-5.764-4.408-11.868-6.442-17.971-6.781
		C341.107,404.175,338.056,411.295,343.481,415.364z"/>
	<path style="fill:#FFFFFF;" d="M254.644,142.411c-57.642,0-104.434,46.792-104.434,104.434S197.001,350.94,254.644,350.94
		s104.095-46.792,104.095-104.095C358.739,189.203,312.286,142.411,254.644,142.411z M345.176,239.724h-29.838
		c-1.017-31.195-9.833-58.321-23.057-75.952C321.441,177.335,342.464,206.156,345.176,239.724z M247.862,156.991v83.073h-40.35
		C209.208,198.019,226.501,163.094,247.862,156.991z M247.862,253.287v83.073c-21.362-6.103-38.654-41.367-40.35-83.073H247.862z
		 M261.425,336.36v-83.073h40.35C300.079,295.332,282.787,330.257,261.425,336.36z M261.425,239.724v-82.734
		c21.362,6.103,38.654,41.028,40.35,83.073h-40.35V239.724z M217.346,164.111c-13.224,17.632-22.04,44.758-23.057,75.952H164.45
		C166.824,206.156,187.846,177.335,217.346,164.111z M164.111,253.287h29.838c1.017,31.195,9.833,58.321,23.396,75.952
		C187.507,316.016,166.485,287.195,164.111,253.287z M291.942,329.24c13.224-17.632,22.04-44.758,23.396-75.952h29.838
		C342.803,287.195,321.78,316.016,291.942,329.24z"/>
</g>
<g>
</g>
<g>
</g>
<g>
</g>
<g>
</g>
<g>
</g>
<g>
</g>
<g>
</g>
<g>
</g>
<g>
</g>
<g>
</g>
<g>
</g>
<g>
</g>
<g>
</g>
<g>
</g>
<g>
</g>
</svg>
