<?xml version="1.0" encoding="iso-8859-1"?>
<!-- Generator: Adobe Illustrator 19.0.0, SVG Export Plug-In . SVG Version: 6.00 Build 0)  -->
<svg version="1.1" id="Layer_1" xmlns="http://www.w3.org/2000/svg" xmlns:xlink="http://www.w3.org/1999/xlink" x="0px" y="0px"
	 viewBox="0 0 509.287 509.287" style="enable-background:new 0 0 509.287 509.287;" xml:space="preserve">
<circle style="fill:#62C090;" cx="254.644" cy="254.644" r="254.644"/>
<path style="fill:#FCFCFD;" d="M509.287,254.644c0-49.505-14.241-95.958-38.993-135.29H91.889c-9.494,0-17.293,7.799-17.293,17.293
	v261.425c0,9.494,7.799,17.293,17.293,17.293h359.756C487.587,371.963,509.287,315.677,509.287,254.644z"/>
<path style="fill:#4F5565;" d="M509.287,254.644c0-26.448-4.069-52.217-11.528-76.291H74.596v204.122h400.106
	C496.742,345.176,509.287,301.436,509.287,254.644z"/>
<g>
	<circle style="opacity:0.3;fill:#393D47;enable-background:new    ;" cx="303.809" cy="293.637" r="120.371"/>
	<circle style="fill:#393D47;" cx="303.809" cy="280.413" r="120.371"/>
</g>
<circle style="fill:#333842;" cx="303.809" cy="280.413" r="97.992"/>
<circle style="fill:#4F5565;" cx="303.809" cy="280.413" r="79.004"/>
<circle style="fill:#4485C5;" cx="303.809" cy="280.413" r="53.913"/>
<ellipse transform="matrix(-0.7071 -0.7071 0.7071 -0.7071 298.1642 640.2575)" style="fill:#6EB1E1;" cx="281.684" cy="258.377" rx="13.563" ry="21.361"/>
<path style="fill:#4485C5;" d="M465.547,135.29H435.03c-8.477,0-15.258,6.781-15.258,15.258l0,0c0,8.477,6.781,15.258,15.258,15.258
	h30.517c8.477,0,15.258-6.781,15.258-15.258l0,0C480.805,142.072,473.685,135.29,465.547,135.29z"/>
<path style="fill:#BDBDBE;" d="M190.559,98.331H139.02c-5.086,0-9.155,4.069-9.155,9.155v11.868h69.849v-11.868
	C199.714,102.4,195.645,98.331,190.559,98.331z"/>
<rect x="153.6" y="82.734" style="fill:#4F5565;" width="22.04" height="15.936"/>
<path style="fill:#F1F3F7;" d="M378.066,119.354l-24.752-37.298c5.764-0.678,10.511-5.425,10.511-11.528
	c0-6.442-5.086-11.528-11.529-11.528h-20.344v6.442h20.344c2.713,0,5.086,2.374,5.086,5.086c0,2.713-2.374,5.086-5.086,5.086h-76.63
	h-4.408h-15.936c-2.713,0-5.086-2.374-5.086-5.086c0-2.713,2.374-5.086,5.086-5.086h20.344v-6.442h-20.344
	c-6.442,0-11.528,5.086-11.528,11.528c0,6.103,4.747,10.85,10.511,11.528l-24.752,37.298H378.066z"/>
<circle style="fill:#F0582F;" cx="141.732" cy="213.616" r="11.868"/>
<g>
</g>
<g>
</g>
<g>
</g>
<g>
</g>
<g>
</g>
<g>
</g>
<g>
</g>
<g>
</g>
<g>
</g>
<g>
</g>
<g>
</g>
<g>
</g>
<g>
</g>
<g>
</g>
<g>
</g>
</svg>
