<?xml version="1.0" encoding="iso-8859-1"?>
<!-- Generator: Adobe Illustrator 19.0.0, SVG Export Plug-In . SVG Version: 6.00 Build 0)  -->
<svg version="1.1" id="Layer_1" xmlns="http://www.w3.org/2000/svg" xmlns:xlink="http://www.w3.org/1999/xlink" x="0px" y="0px"
	 viewBox="0 0 509.287 509.287" style="enable-background:new 0 0 509.287 509.287;" xml:space="preserve">
<circle style="fill:#886C60;" cx="254.644" cy="254.644" r="254.644"/>
<path style="fill:#FCFCFD;" d="M462.156,164.789H47.131c-8.477,0-15.597,7.121-15.597,15.597v148.175
	c0,8.477,7.121,15.597,15.597,15.597h415.364c8.477,0,15.597-7.121,15.597-15.597V180.387
	C477.754,171.91,470.972,164.789,462.156,164.789z"/>
<g>
	<rect x="370.946" y="171.91" style="fill:#DEDEDF;" width="58.999" height="114.946"/>
	<rect x="53.574" y="302.792" style="fill:#DEDEDF;" width="376.371" height="28.143"/>
</g>
<rect x="50.861" y="302.792" style="fill:#BDBDBE;" width="287.195" height="28.143"/>
<rect x="50.861" y="323.136" style="fill:#A8A8A8;" width="287.195" height="7.799"/>
<g>
	<rect x="398.072" y="302.792" style="fill:#646B79;" width="4.069" height="28.143"/>
	<rect x="367.216" y="302.792" style="fill:#646B79;" width="4.069" height="28.143"/>
	<rect x="336.021" y="302.792" style="fill:#646B79;" width="4.069" height="28.143"/>
	<rect x="304.827" y="302.792" style="fill:#646B79;" width="4.069" height="28.143"/>
	<rect x="273.632" y="302.792" style="fill:#646B79;" width="4.069" height="28.143"/>
	<rect x="242.776" y="302.792" style="fill:#646B79;" width="4.069" height="28.143"/>
	<rect x="211.581" y="302.792" style="fill:#646B79;" width="4.069" height="28.143"/>
	<rect x="180.387" y="302.792" style="fill:#646B79;" width="4.069" height="28.143"/>
	<rect x="149.531" y="302.792" style="fill:#646B79;" width="4.069" height="28.143"/>
	<rect x="118.336" y="302.792" style="fill:#646B79;" width="4.069" height="28.143"/>
	<rect x="87.142" y="302.792" style="fill:#646B79;" width="4.069" height="28.143"/>
	<rect x="55.947" y="302.792" style="fill:#646B79;" width="4.069" height="28.143"/>
	<circle style="fill:#646B79;" cx="400.106" cy="229.552" r="25.77"/>
</g>
<g>
	<polygon style="fill:#FAD404;" points="391.629,217.685 389.256,214.972 386.882,217.685 386.882,226.84 389.256,229.552 
		391.629,226.84 	"/>
	<polygon style="fill:#FAD404;" points="391.629,232.265 389.256,229.552 386.882,232.265 386.882,241.42 389.256,244.132 
		391.629,241.42 	"/>
	<polygon style="fill:#FAD404;" points="399.767,219.38 397.393,217.007 395.02,219.38 395.02,227.179 397.393,229.552 
		399.767,227.179 	"/>
	<polygon style="fill:#FAD404;" points="399.767,231.587 397.393,229.552 395.02,231.587 395.02,239.724 397.393,241.759 
		399.767,239.724 	"/>
	<polygon style="fill:#FAD404;" points="413.33,231.587 411.295,229.552 408.922,231.587 408.922,239.724 411.295,241.759 
		413.669,239.724 	"/>
	<polygon style="fill:#FAD404;" points="408.244,231.587 410.617,229.552 408.244,227.179 400.445,227.179 398.072,229.552 
		400.445,231.587 	"/>
	<polygon style="fill:#FAD404;" points="408.244,244.132 410.617,241.759 408.244,239.724 400.445,239.724 398.072,241.759 
		400.445,244.132 	"/>
	<polygon style="fill:#FAD404;" points="408.244,219.38 410.617,217.007 408.244,214.633 400.445,214.633 398.072,217.007 
		400.445,219.38 	"/>
</g>
<g>
</g>
<g>
</g>
<g>
</g>
<g>
</g>
<g>
</g>
<g>
</g>
<g>
</g>
<g>
</g>
<g>
</g>
<g>
</g>
<g>
</g>
<g>
</g>
<g>
</g>
<g>
</g>
<g>
</g>
</svg>
