<?xml version="1.0" encoding="iso-8859-1"?>
<!-- Generator: Adobe Illustrator 19.0.0, SVG Export Plug-In . SVG Version: 6.00 Build 0)  -->
<svg version="1.1" id="Layer_1" xmlns="http://www.w3.org/2000/svg" xmlns:xlink="http://www.w3.org/1999/xlink" x="0px" y="0px"
	 viewBox="0 0 509.287 509.287" style="enable-background:new 0 0 509.287 509.287;" xml:space="preserve">
<circle style="fill:#00A650;" cx="254.644" cy="254.644" r="254.644"/>
<path style="fill:#FFFFFF;" d="M93.584,120.71l-14.58,9.494l14.58,9.494l-14.58,9.494l14.58,9.494l-14.58,9.494l14.58,9.494
	l-14.58,9.494l14.58,9.494l-14.58,9.494l14.58,9.494l-14.58,10.172l14.58,9.494l-14.58,9.494l14.58,9.494l-14.58,9.494l14.58,9.494
	l-14.58,10.172l14.58,9.494l-14.58,9.494l14.58,9.494l-14.58,9.494l14.58,9.494l-14.58,9.494l14.58,9.494l-14.58,9.494l14.58,9.494
	l-14.58,9.494l14.58,10.172l-12.885,8.477h385.187c27.465-40.689,43.401-89.515,43.401-142.411
	c0-52.556-15.936-101.722-43.401-142.411H80.699L93.584,120.71z"/>
<path style="fill:#058946;" d="M97.653,397.054l12.885,8.477l-12.885,8.477H453.34c4.408-5.425,8.477-11.189,12.546-16.954H97.653z"
	/>
<path style="fill:#DDDEE6;" d="M279.396,256v-14.919l-14.919-8.477v-11.189h-8.816v6.103l-33.907-19.666l1.017-32.89
	c0.339-8.477-6.442-15.597-14.919-15.597s-15.258,7.121-14.919,15.597l1.017,32.89l-33.907,19.666v-6.103h-8.816v11.189
	l-14.919,8.477V256l58.66-13.224l1.017,37.637l-28.143,18.649v12.207l40.011-13.563l40.011,13.563v-12.207l-28.143-18.649
	l1.356-37.637L279.396,256z"/>
<g>
	<path style="fill:#F0582F;" d="M149.192,341.107v24.074h-4.747v-24.074h-8.477v-4.408h22.04v4.408H149.192z"/>
	<path style="fill:#F0582F;" d="M162.755,336.699h4.747v28.482h-4.747V336.699z"/>
	<path style="fill:#F0582F;" d="M205.478,336.699h4.747v13.902l12.885-13.902h6.103l-11.528,12.546l11.528,15.936h-5.764
		l-9.494-12.546l-4.069,4.408v8.138h-4.408V336.699z"/>
	<path style="fill:#F0582F;" d="M254.305,336.699v4.408h-15.258v7.46h13.563v4.408h-13.563v7.46h15.597v4.408h-20.344V336.36h20.005
		V336.699z"/>
	<path style="fill:#F0582F;" d="M271.597,341.107v24.074h-4.747v-24.074h-8.477v-4.408h21.701v4.408H271.597z"/>
</g>
<g>
	<rect x="330.257" y="128.509" style="fill:#DDDEE6;" width="6.781" height="27.465"/>
	<rect x="330.257" y="173.266" style="fill:#DDDEE6;" width="6.781" height="27.465"/>
	<rect x="330.257" y="218.363" style="fill:#DDDEE6;" width="6.781" height="27.465"/>
	<rect x="330.257" y="263.46" style="fill:#DDDEE6;" width="6.781" height="27.465"/>
	<rect x="330.257" y="308.217" style="fill:#DDDEE6;" width="6.781" height="27.465"/>
	<rect x="330.257" y="353.314" style="fill:#DDDEE6;" width="6.781" height="27.465"/>
	<path style="fill:#DDDEE6;" d="M494.029,167.502H383.83v17.632h115.963C497.759,179.03,496.064,173.266,494.029,167.502z"/>
	<path style="fill:#DDDEE6;" d="M383.491,263.46h125.457c0-3.052,0-5.764,0-8.816s0-5.764,0-8.816H383.491V263.46z"/>
	<path style="fill:#DDDEE6;" d="M499.454,324.154H383.491v17.632H493.69C496.064,336.021,497.759,330.257,499.454,324.154z"/>
</g>
<path style="fill:#F0582F;" d="M188.524,360.774c4.408,0,6.781-2.374,8.138-3.391l3.052,3.052c-3.052,3.391-6.781,5.086-10.85,5.086
	c-4.408,0-14.919-3.052-14.919-14.58c0-5.086,3.391-14.919,15.258-14.919c4.408,0,8.138,1.695,11.189,4.747l-3.052,3.391
	c-1.356-1.356-3.73-3.391-8.138-3.391c-8.477,0-10.172,7.121-10.172,9.833C178.691,358.739,185.812,360.774,188.524,360.774z"/>
<g>
</g>
<g>
</g>
<g>
</g>
<g>
</g>
<g>
</g>
<g>
</g>
<g>
</g>
<g>
</g>
<g>
</g>
<g>
</g>
<g>
</g>
<g>
</g>
<g>
</g>
<g>
</g>
<g>
</g>
</svg>
