<?xml version="1.0" encoding="iso-8859-1"?>
<!-- Generator: Adobe Illustrator 19.0.0, SVG Export Plug-In . SVG Version: 6.00 Build 0)  -->
<svg version="1.1" id="Layer_1" xmlns="http://www.w3.org/2000/svg" xmlns:xlink="http://www.w3.org/1999/xlink" x="0px" y="0px"
	 viewBox="0 0 509.287 509.287" style="enable-background:new 0 0 509.287 509.287;" xml:space="preserve">
<path style="fill:#F0582F;" d="M505.897,258.034c0-138.681-112.572-251.253-251.253-251.253
	C115.963,7.121,3.391,119.354,3.391,258.034c0,68.493,27.465,130.204,71.544,175.64h358.739
	C478.432,388.577,505.897,326.527,505.897,258.034z"/>
<path style="fill:#646B79;" d="M75.274,433.674c45.436,46.453,109.181,75.613,179.37,75.613s133.934-28.821,179.37-75.613H75.274z"
	/>
<path style="fill:#FCFCFD;" d="M55.608,410.956c6.103,8.138,12.885,15.597,19.666,22.718h358.739
	c7.121-7.121,13.563-14.919,19.666-22.718V105.452c-7.121-9.155-14.58-17.632-22.718-25.77H77.987
	c-8.138,8.138-15.597,16.615-22.718,25.77v305.505H55.608z"/>
<g>
	<path style="fill:#F1F3F7;" d="M54.591,176.318c12.207-5.764,20.683-17.971,20.683-32.212v-13.563H54.591V176.318z"/>
	<path style="fill:#F1F3F7;" d="M75.274,144.106c0,19.666,15.936,35.942,35.942,35.942c19.666,0,35.942-15.936,35.942-35.942
		v-13.563H75.274V144.106z"/>
	<path style="fill:#F1F3F7;" d="M147.158,144.106c0,19.666,15.936,35.942,35.942,35.942c19.666,0,35.942-15.936,35.942-35.942
		v-13.563h-71.883V144.106z"/>
	<path style="fill:#F1F3F7;" d="M218.702,144.106c0,19.666,15.936,35.942,35.942,35.942c19.666,0,35.942-15.936,35.942-35.942
		v-13.563h-71.883V144.106z"/>
	<path style="fill:#F1F3F7;" d="M290.585,144.106c0,19.666,15.936,35.942,35.942,35.942c19.666,0,35.942-15.936,35.942-35.942
		v-13.563h-71.883V144.106z"/>
	<path style="fill:#F1F3F7;" d="M362.13,144.106c0,19.666,15.936,35.942,35.942,35.942c19.666,0,35.942-15.936,35.942-35.942
		v-13.563H362.13V144.106z"/>
	<path style="fill:#F1F3F7;" d="M434.013,130.543v13.563c0,14.241,8.477,26.448,20.683,32.212v-45.775H434.013z"/>
</g>
<path style="fill:#D64E3C;" d="M3.391,109.86v13.563c0,19.666,15.936,35.942,35.942,35.942c19.666,0,35.942-15.936,35.942-35.942
	V109.86L3.391,109.86L3.391,109.86z"/>
<path style="fill:#DEDEDF;" d="M75.274,109.86v13.563c0,19.666,15.936,35.942,35.942,35.942c19.666,0,35.942-15.936,35.942-35.942
	V109.86L75.274,109.86L75.274,109.86z"/>
<path style="fill:#D64E3C;" d="M147.158,109.86v13.563c0,19.666,15.936,35.942,35.942,35.942s35.942-15.936,35.942-35.942V109.86
	L147.158,109.86L147.158,109.86z"/>
<path style="fill:#DEDEDF;" d="M218.702,109.86v13.563c0,19.666,15.936,35.942,35.942,35.942c19.666,0,35.942-15.936,35.942-35.942
	V109.86L218.702,109.86L218.702,109.86z"/>
<path style="fill:#D64E3C;" d="M290.585,109.86v13.563c0,19.666,15.936,35.942,35.942,35.942c19.666,0,35.942-15.936,35.942-35.942
	V109.86L290.585,109.86L290.585,109.86z"/>
<path style="fill:#DEDEDF;" d="M362.13,109.86v13.563c0,19.666,15.936,35.942,35.942,35.942c19.666,0,35.942-15.936,35.942-35.942
	V109.86L362.13,109.86L362.13,109.86z"/>
<path style="fill:#D64E3C;" d="M434.013,109.86v13.563c0,19.666,15.936,35.942,35.942,35.942c19.666,0,35.942-15.936,35.942-35.942
	V109.86L434.013,109.86L434.013,109.86z"/>
<polygon style="fill:#F0582F;" points="67.136,0 120.71,0 75.274,109.86 3.391,109.86 "/>
<polygon style="fill:#FCFCFD;" points="120.71,0 174.283,0 147.158,109.86 75.274,109.86 "/>
<polygon style="fill:#F0582F;" points="174.283,0 227.857,0 218.702,109.86 147.158,109.86 "/>
<polygon style="fill:#FCFCFD;" points="227.857,0 281.43,0 290.585,109.86 218.702,109.86 "/>
<polygon style="fill:#F0582F;" points="281.43,0 335.004,0 362.13,109.86 290.585,109.86 "/>
<polygon style="fill:#FCFCFD;" points="335.004,0 388.577,0 434.013,109.86 362.13,109.86 "/>
<polygon style="fill:#F0582F;" points="388.577,0 442.151,0 505.897,109.86 434.013,109.86 "/>
<g>
	<rect x="89.515" y="213.955" style="fill:#4F5565;" width="130.882" height="219.719"/>
	<rect x="241.759" y="213.955" style="fill:#4F5565;" width="177.674" height="127.491"/>
</g>
<g>
	<rect x="104.774" y="228.535" style="fill:#3EB9E3;" width="100.705" height="205.139"/>
	<rect x="256" y="227.518" style="fill:#3EB9E3;" width="149.192" height="100.366"/>
</g>
<g>
	<rect x="104.774" y="228.535" style="fill:#4BCCEF;" width="100.705" height="11.189"/>
	<rect x="256" y="227.518" style="fill:#4BCCEF;" width="149.192" height="12.207"/>
</g>
<g>
</g>
<g>
</g>
<g>
</g>
<g>
</g>
<g>
</g>
<g>
</g>
<g>
</g>
<g>
</g>
<g>
</g>
<g>
</g>
<g>
</g>
<g>
</g>
<g>
</g>
<g>
</g>
<g>
</g>
</svg>
