<?xml version="1.0" encoding="iso-8859-1"?>
<!-- Generator: Adobe Illustrator 19.0.0, SVG Export Plug-In . SVG Version: 6.00 Build 0)  -->
<svg version="1.1" id="Layer_1" xmlns="http://www.w3.org/2000/svg" xmlns:xlink="http://www.w3.org/1999/xlink" x="0px" y="0px"
	 viewBox="0 0 509.287 509.287" style="enable-background:new 0 0 509.287 509.287;" xml:space="preserve">
<circle style="fill:#4B5AA7;" cx="254.644" cy="254.644" r="254.644"/>
<path style="fill:#F1F3F7;" d="M405.87,33.568c0-10.85-8.816-19.327-19.327-19.327H122.744c-10.85,0-19.327,8.816-19.327,19.327
	v425.875c42.384,31.195,94.601,49.844,151.227,49.844s109.181-18.649,151.226-49.844V33.568z"/>
<path style="fill:#FCFCFD;" d="M386.543,13.902H122.744c-10.85,0-19.327,8.816-19.327,19.327V43.74
	c0-10.85,8.816-19.327,19.327-19.327h263.799c10.85,0,19.327,8.816,19.327,19.327V33.229
	C405.87,22.718,397.393,13.902,386.543,13.902z"/>
<rect x="121.388" y="60.016" style="fill:#6EB1E1;" width="266.85" height="382.135"/>
<rect x="121.388" y="432.996" style="fill:#67ACD6;" width="266.85" height="9.155"/>
<g>
	<path style="fill:#646B79;" d="M276.344,33.907h-43.401c-2.713,0-4.747,2.034-4.747,4.747l0,0c0,2.713,2.034,4.747,4.747,4.747
		h43.401c2.713,0,4.747-2.034,4.747-4.747l0,0C281.091,36.281,279.057,33.907,276.344,33.907z"/>
	<circle style="fill:#646B79;" cx="254.644" cy="475.041" r="21.701"/>
</g>
<path style="fill:#F0582F;" d="M346.872,194.289c0,50.861-92.228,173.944-92.228,173.944s-92.228-123.083-92.228-173.944
	s41.367-92.228,92.228-92.228C305.505,102.4,346.872,143.428,346.872,194.289z"/>
<circle style="fill:#DEDEDF;" cx="254.644" cy="194.289" r="50.522"/>
<g>
</g>
<g>
</g>
<g>
</g>
<g>
</g>
<g>
</g>
<g>
</g>
<g>
</g>
<g>
</g>
<g>
</g>
<g>
</g>
<g>
</g>
<g>
</g>
<g>
</g>
<g>
</g>
<g>
</g>
</svg>
