<?xml version="1.0" encoding="iso-8859-1"?>
<!-- Generator: Adobe Illustrator 19.0.0, SVG Export Plug-In . SVG Version: 6.00 Build 0)  -->
<svg version="1.1" id="Layer_1" xmlns="http://www.w3.org/2000/svg" xmlns:xlink="http://www.w3.org/1999/xlink" x="0px" y="0px"
	 viewBox="0 0 509.287 509.287" style="enable-background:new 0 0 509.287 509.287;" xml:space="preserve">
<circle style="fill:#29B36F;" cx="254.644" cy="254.644" r="254.644"/>
<path style="fill:#4F5565;" d="M377.388,60.016H131.899c-10.511,0-18.988,8.477-18.988,18.988v350.94
	c0,10.511,8.477,18.988,18.988,18.988h245.828c10.511,0,18.988-8.477,18.988-18.988V79.343
	C396.715,68.832,387.899,60.016,377.388,60.016z"/>
<circle style="fill:#DEDEDF;" cx="254.644" cy="153.261" r="60.016"/>
<circle style="fill:#BDBDBE;" cx="254.644" cy="153.261" r="48.826"/>
<circle style="fill:#333842;" cx="254.644" cy="153.261" r="15.936"/>
<circle style="fill:#DEDEDF;" cx="254.644" cy="330.935" r="101.722"/>
<circle style="fill:#BDBDBE;" cx="254.644" cy="330.935" r="83.412"/>
<circle style="fill:#333842;" cx="254.644" cy="330.935" r="25.77"/>
<g>
	<circle style="fill:#DEDEDF;" cx="139.02" cy="85.107" r="8.477"/>
	<circle style="fill:#DEDEDF;" cx="370.268" cy="85.107" r="8.477"/>
	<circle style="fill:#DEDEDF;" cx="139.02" cy="424.18" r="8.477"/>
	<circle style="fill:#DEDEDF;" cx="370.268" cy="424.18" r="8.477"/>
</g>
<g>
</g>
<g>
</g>
<g>
</g>
<g>
</g>
<g>
</g>
<g>
</g>
<g>
</g>
<g>
</g>
<g>
</g>
<g>
</g>
<g>
</g>
<g>
</g>
<g>
</g>
<g>
</g>
<g>
</g>
</svg>
