<?xml version="1.0" encoding="iso-8859-1"?>
<!-- Generator: Adobe Illustrator 19.0.0, SVG Export Plug-In . SVG Version: 6.00 Build 0)  -->
<svg version="1.1" id="Layer_1" xmlns="http://www.w3.org/2000/svg" xmlns:xlink="http://www.w3.org/1999/xlink" x="0px" y="0px"
	 viewBox="0 0 509.287 509.287" style="enable-background:new 0 0 509.287 509.287;" xml:space="preserve">
<circle style="fill:#474D5A;" cx="254.644" cy="254.644" r="254.644"/>
<path style="fill:#D6D6D8;" d="M188.864,169.536V80.021c0-7.799,6.442-14.241,14.241-14.241h102.739
	c7.799,0,14.241,6.442,14.241,14.241v89.515h20.344V80.021c0-18.988-15.597-34.585-34.585-34.585H203.105
	c-18.988,0-34.585,15.597-34.585,34.585v89.515H188.864z"/>
<path style="fill:#EE4A68;" d="M377.727,167.841H131.56c-14.241,0-26.109,11.528-26.109,26.109v267.189
	c42.045,30.177,93.245,48.148,148.853,48.148s107.147-17.971,148.853-48.148V193.95C403.497,179.37,391.968,167.841,377.727,167.841
	z"/>
<path style="fill:#DD4062;" d="M342.803,268.546H166.485c-10.172,0-18.649,8.477-18.649,18.649v198.697
	c32.551,14.919,68.493,23.396,106.808,23.396s74.257-8.477,106.808-23.396V287.195C361.452,276.683,352.975,268.546,342.803,268.546
	z"/>
<path style="fill:#F1F3F7;" d="M288.551,38.654h-67.815c-3.391,0-6.442,2.713-6.442,6.442v21.701c0,3.391,2.713,6.442,6.442,6.442
	h67.815c3.391,0,6.442-2.713,6.442-6.442V45.097C294.993,41.367,291.942,38.654,288.551,38.654z"/>
<rect x="147.836" y="330.596" style="fill:#BC2F54;" width="213.616" height="10.511"/>
<path style="fill:#FFFFFF;" d="M148.175,163.433c-7.799,3.73-13.224,12.207-13.224,21.023c0,3.391,0.678,6.442,2.374,8.816
	c0.678,1.017,1.695,1.695,2.713,1.695c0.678,0,1.356-0.339,1.695-0.678c1.695-1.017,2.034-3.052,1.017-4.747
	s-1.356-3.73-1.356-5.086c0-6.103,4.069-12.207,9.494-14.919c1.356-0.678,13.902-5.764,17.632-7.799V153.6
	C164.45,156.652,150.209,162.755,148.175,163.433z"/>
<path style="fill:#FAD404;" d="M163.094,214.294l-4.069-28.482c0-1.017-0.678-2.034-1.695-2.374l-9.833-6.442
	c-1.017-0.678-2.034-0.678-3.052-0.339l-27.804,8.477c-0.678,0.339-1.356,0.678-2.034,1.356l-30.856,48.487
	c-1.017,1.695-0.678,3.73,1.017,4.747l42.045,26.787c1.695,1.017,3.73,0.678,4.747-1.017l30.856-48.487
	C162.755,215.989,163.094,215.311,163.094,214.294z M138.681,201.748c-3.73-2.374-5.086-7.46-2.713-11.528
	c2.374-3.73,7.46-5.086,11.528-2.713c3.73,2.374,5.086,7.46,2.713,11.528C147.497,203.105,142.411,204.122,138.681,201.748z"/>
<rect x="102.434" y="206.765" transform="matrix(-0.8449 -0.535 0.535 -0.8449 102.1885 486.2265)" style="fill:#E6BD20;" width="38.317" height="43.064"/>
<path style="fill:#FFFFFF;" d="M192.932,142.411c-1.356-1.017-2.713-1.356-4.069-2.034v7.46l0,0
	c5.086,3.391,5.086,11.868,5.086,15.258l0,0c-0.339,4.408-7.799,12.207-10.511,13.224c0,0-25.43,14.241-28.821,15.258
	c-4.069,1.356-9.494,1.356-11.868-2.034c-1.017-1.695-3.052-2.034-4.747-1.017c-1.695,1.017-2.034,3.052-1.017,4.747
	c2.713,4.408,7.799,6.103,12.546,6.103c2.374,0,5.086-0.339,7.121-1.356c4.069-1.356,24.413-13.902,28.482-15.258
	c3.391-1.356,14.58-8.477,15.258-19.327l0,0C201.07,158.008,200.731,147.836,192.932,142.411z"/>
<g>
</g>
<g>
</g>
<g>
</g>
<g>
</g>
<g>
</g>
<g>
</g>
<g>
</g>
<g>
</g>
<g>
</g>
<g>
</g>
<g>
</g>
<g>
</g>
<g>
</g>
<g>
</g>
<g>
</g>
</svg>
