<?xml version="1.0" encoding="iso-8859-1"?>
<!-- Generator: Adobe Illustrator 19.0.0, SVG Export Plug-In . SVG Version: 6.00 Build 0)  -->
<svg version="1.1" id="Layer_1" xmlns="http://www.w3.org/2000/svg" xmlns:xlink="http://www.w3.org/1999/xlink" x="0px" y="0px"
	 viewBox="0 0 509.287 509.287" style="enable-background:new 0 0 509.287 509.287;" xml:space="preserve">
<circle style="fill:#4D5AA8;" cx="254.644" cy="254.644" r="254.644"/>
<rect x="242.437" y="188.524" style="fill:#DEDEDF;" width="24.413" height="264.138"/>
<rect x="204.122" y="428.588" style="fill:#FCFCFD;" width="101.044" height="24.413"/>
<path style="fill:#F0582F;" d="M463.173,221.754c-22.379-94.601-107.147-165.128-208.53-165.128S68.493,127.152,46.114,221.754
	H463.173z"/>
<path style="fill:#FFFFFC;" d="M436.387,221.754C417.06,127.152,343.142,56.625,254.644,56.625S92.567,127.152,72.901,221.754
	H436.387z"/>
<path style="fill:#F0582F;" d="M368.572,221.754c-12.207-94.601-58.66-165.128-113.928-165.128s-101.722,70.527-113.928,165.128
	H368.572z"/>
<path style="fill:#FFFFFC;" d="M299.062,221.754c-4.747-94.601-22.718-165.128-44.419-165.128s-39.672,70.527-44.419,165.128
	H299.062z"/>
<g>
</g>
<g>
</g>
<g>
</g>
<g>
</g>
<g>
</g>
<g>
</g>
<g>
</g>
<g>
</g>
<g>
</g>
<g>
</g>
<g>
</g>
<g>
</g>
<g>
</g>
<g>
</g>
<g>
</g>
</svg>
