<?xml version="1.0" encoding="iso-8859-1"?>
<!-- Generator: Adobe Illustrator 19.0.0, SVG Export Plug-In . SVG Version: 6.00 Build 0)  -->
<svg version="1.1" id="Layer_1" xmlns="http://www.w3.org/2000/svg" xmlns:xlink="http://www.w3.org/1999/xlink" x="0px" y="0px"
	 viewBox="0 0 509.287 509.287" style="enable-background:new 0 0 509.287 509.287;" xml:space="preserve">
<circle style="fill:#3EB9E3;" cx="254.644" cy="254.644" r="254.644"/>
<path style="fill:#F4732F;" d="M138.342,371.963l-75.613,49.505c1.695,2.034,3.73,4.069,5.425,6.103h373.658
	c1.695-2.034,3.73-4.069,5.425-6.103l-75.613-49.505H138.342z"/>
<g>
	<polygon style="fill:#F1F3F7;" points="138.342,371.963 370.946,371.963 356.366,317.711 152.922,317.711 	"/>
	<path style="fill:#F1F3F7;" d="M296.011,94.94c-5.425-20.005-22.379-33.907-41.367-33.907s-35.942,13.902-41.367,33.907
		l-5.425,20.344h93.923L296.011,94.94z"/>
	<polygon style="fill:#F1F3F7;" points="189.542,182.082 170.893,251.253 338.395,251.253 319.746,182.082 	"/>
</g>
<polygon style="fill:#FCFCFD;" points="359.078,327.544 356.366,317.711 152.922,317.711 150.209,327.544 "/>
<path style="fill:#FFFFFC;" d="M213.277,105.791c5.425-20.005,22.379-33.907,41.367-33.907s35.942,13.902,41.367,33.907l2.713,9.494
	h3.052L296.35,94.94c-5.425-20.005-22.379-33.907-41.367-33.907s-35.942,13.902-41.367,33.907l-5.425,20.344h3.052L213.277,105.791z
	"/>
<polygon style="fill:#FCFCFD;" points="322.797,194.289 319.746,182.082 189.542,182.082 186.49,194.289 "/>
<g>
	<polygon style="fill:#F4732F;" points="301.436,115.285 207.852,115.285 189.542,182.082 319.746,182.082 	"/>
	<polygon style="fill:#F4732F;" points="152.922,317.711 356.366,317.711 338.395,251.253 170.893,251.253 	"/>
</g>
<g>
</g>
<g>
</g>
<g>
</g>
<g>
</g>
<g>
</g>
<g>
</g>
<g>
</g>
<g>
</g>
<g>
</g>
<g>
</g>
<g>
</g>
<g>
</g>
<g>
</g>
<g>
</g>
<g>
</g>
</svg>
