<?xml version="1.0" encoding="iso-8859-1"?>
<!-- Generator: Adobe Illustrator 19.0.0, SVG Export Plug-In . SVG Version: 6.00 Build 0)  -->
<svg version="1.1" id="Layer_1" xmlns="http://www.w3.org/2000/svg" xmlns:xlink="http://www.w3.org/1999/xlink" x="0px" y="0px"
	 viewBox="0 0 509.295 509.295" style="enable-background:new 0 0 509.295 509.295;" xml:space="preserve">
<path style="fill:#3EB9E3;" d="M509.295,254.648c0-140.715-113.928-254.644-254.644-254.644S0.008,113.932,0.008,254.648
	c0,52.895,16.275,102.061,43.74,142.75h421.807C493.02,356.709,509.295,307.543,509.295,254.648z"/>
<path style="fill:#F1F1F2;" d="M43.748,397.397c45.775,67.475,123.083,111.894,210.903,111.894s165.128-44.419,210.903-111.894
	H43.748L43.748,397.397z"/>
<path style="fill:#BDBDBE;" d="M507.261,222.097c-120.371,0-261.764,0-318.728,0c-88.837,0-155.295,99.009-175.979,133.934
	c88.498-119.354,187.507-119.354,187.507-119.354h308.217C508.278,231.93,507.6,227.183,507.261,222.097z"/>
<path style="fill:#F0582F;" d="M486.238,360.777c-135.968,0-274.649,0-314.66,0c-64.085,0-138.681,22.379-170.893,33.229
	c5.086,22.379,41.028,22.379,41.028,22.379h49.844l26.109-22.379h349.923C474.71,383.495,480.813,372.306,486.238,360.777z"/>
<g>
	<path style="fill:#FFFFFC;" d="M12.554,356.03c-4.408,7.46-6.781,11.868-6.781,11.868c-5.425,10.85-6.781,19.327-5.086,25.77
		c32.212-10.85,106.808-33.229,170.893-33.229c39.672,0,178.352,0,314.66,0c14.919-32.212,23.057-68.154,23.057-106.13
		c0-6.103-0.339-11.868-0.678-17.971H200.061C200.061,236.677,115.632,222.097,12.554,356.03z"/>
	<path style="fill:#FFFFFC;" d="M508.617,236.677c-0.339-4.747-0.678-9.494-1.356-14.58c-120.371,0-261.764,0-318.728,0
		c-88.837,0-155.295,99.009-175.979,133.934c13.224-17.632,26.448-32.551,39.672-45.436c-12.885,12.885-26.109,27.804-39.672,45.436
		c-4.408,7.46-6.781,11.868-6.781,11.868c-5.425,10.85-6.781,19.327-5.086,25.77c32.212-10.85,106.808-33.229,170.893-33.229
		c39.672,0,178.352,0,314.66,0c14.919-32.212,23.057-68.154,23.057-106.13C509.295,248.544,508.956,242.78,508.617,236.677z"/>
</g>
<path style="fill:#FCFCFD;" d="M188.532,222.097c12.207,0,28.143,0,46.792,0V98.674h-98.67v134.612
	C152.93,226.505,170.222,222.097,188.532,222.097z"/>
<path style="fill:#DDDEE6;" d="M154.625,227.183v-8.816h9.155v6.781c1.017-0.339,2.374-0.339,3.391-0.678v-6.103h10.172v4.747
	c1.017,0,2.374-0.339,3.391-0.339v-4.408h10.172v4.069c1.017,0,2.374,0,3.391,0v-4.069h10.172v4.069c1.017,0,2.374,0,3.391,0v-4.069
	h9.155v4.069c1.017,0,2.373,0,3.391,0V111.898h-69.171V228.2C152.252,227.861,153.608,227.522,154.625,227.183z M208.199,115.289
	h9.155v28.821h-9.155V115.289z M208.199,147.501h9.155v31.873h-9.155V147.501z M208.199,182.764h9.155v31.873h-9.155V182.764z
	 M194.636,115.289h10.172v28.821h-10.172V115.289z M194.636,147.501h10.172v31.873h-10.172V147.501z M194.636,182.764h10.172v31.873
	h-10.172V182.764z M180.734,115.289h10.172v28.821h-10.172V115.289z M180.734,147.501h10.172v31.873h-10.172V147.501z
	 M180.734,182.764h10.172v31.873h-10.172V182.764z M167.171,115.289h10.172v28.821h-10.172V115.289z M167.171,147.501h10.172v31.873
	h-10.172V147.501z M167.171,182.764h10.172v31.873h-10.172V182.764z M154.625,115.289h9.155v28.821h-9.155V115.289z
	 M154.625,147.501h9.155v31.873h-9.155V147.501z M154.625,182.764h9.155v31.873h-9.155V182.764z"/>
<g>
	<rect x="180.734" y="147.501" style="fill:#6EB1E1;" width="10.172" height="31.873"/>
	<rect x="180.734" y="182.764" style="fill:#6EB1E1;" width="10.172" height="31.873"/>
	<rect x="180.734" y="115.289" style="fill:#6EB1E1;" width="10.172" height="28.821"/>
	<rect x="194.636" y="115.289" style="fill:#6EB1E1;" width="10.172" height="28.821"/>
	<rect x="194.636" y="147.501" style="fill:#6EB1E1;" width="10.172" height="31.873"/>
	<rect x="208.199" y="115.289" style="fill:#6EB1E1;" width="9.155" height="28.821"/>
	<rect x="154.625" y="147.501" style="fill:#6EB1E1;" width="9.155" height="31.873"/>
	<rect x="208.199" y="147.501" style="fill:#6EB1E1;" width="9.155" height="31.873"/>
	<rect x="194.636" y="182.764" style="fill:#6EB1E1;" width="10.172" height="31.873"/>
	<rect x="208.199" y="182.764" style="fill:#6EB1E1;" width="9.155" height="31.873"/>
	<path style="fill:#6EB1E1;" d="M194.636,218.028v4.069c3.052,0,6.781,0,10.172,0v-4.069H194.636z"/>
	<path style="fill:#6EB1E1;" d="M180.734,218.028v4.408c-0.339,0-0.339,0-0.678,0c2.713-0.339,5.425-0.339,8.477-0.339
		c0.678,0,1.695,0,2.713,0v-4.069L180.734,218.028L180.734,218.028z"/>
	<path style="fill:#6EB1E1;" d="M208.199,218.028v4.069c3.052,0,5.764,0,9.155,0v-4.069H208.199z"/>
	<rect x="167.171" y="115.289" style="fill:#6EB1E1;" width="10.172" height="28.821"/>
	<rect x="167.171" y="182.764" style="fill:#6EB1E1;" width="10.172" height="31.873"/>
	<rect x="154.625" y="182.764" style="fill:#6EB1E1;" width="9.155" height="31.873"/>
	<path style="fill:#6EB1E1;" d="M154.625,227.183c-0.678,0-1.017,0.339-1.695,0.339c8.138-2.374,16.275-4.069,24.752-4.747h-0.339
		v-4.747h-10.172v6.103c-1.017,0.339-2.374,0.339-3.391,0.678v-6.781h-9.155V227.183z"/>
	<rect x="154.625" y="115.289" style="fill:#6EB1E1;" width="9.155" height="28.821"/>
	<rect x="167.171" y="147.501" style="fill:#6EB1E1;" width="10.172" height="31.873"/>
</g>
<path style="opacity:0.2;fill:#4F5565;enable-background:new    ;" d="M406.217,258.716h-46.792
	c-8.477,0-15.258,6.781-15.258,15.258v120.032h77.309V273.975C421.475,265.837,414.355,258.716,406.217,258.716z"/>
<g>
	<path style="fill:#646B79;" d="M200.061,277.705H152.93c-57.642,0-105.452,73.579-105.452,73.579
		c29.838-19.666,102.4-18.31,102.4-18.31h49.844c5.764,0,10.511-4.747,10.511-10.511v-33.907
		C210.572,282.452,205.825,277.705,200.061,277.705z"/>
	<path style="fill:#646B79;" d="M312.972,277.705h-66.797c-5.764,0-10.85,4.747-10.85,10.85v34.585c0,5.764,4.747,10.85,10.85,10.85
		h67.136c5.764,0,10.85-4.747,10.85-10.85v-34.585C323.822,282.452,319.075,277.705,312.972,277.705z"/>
	<path style="fill:#646B79;" d="M452.331,277.705c-5.764,0-10.85,4.747-10.85,10.85v34.585c0,5.764,4.747,10.85,10.85,10.85h44.419
		c5.764-17.971,9.833-36.62,11.528-55.947h-55.947V277.705z"/>
	<path style="fill:#646B79;" d="M394.01,277.705h-22.718c-5.764,0-10.85,4.747-10.85,10.85v34.585c0,5.764,4.747,10.85,10.85,10.85
		h22.718c5.764,0,10.85-4.747,10.85-10.85v-34.585C404.861,282.452,400.114,277.705,394.01,277.705z"/>
</g>
<path style="fill:#4F5565;" d="M467.589,394.007H117.666l-26.109,22.379h359.756C457.078,409.265,462.503,401.805,467.589,394.007z"
	/>
<g>
	<circle style="fill:#393D47;" cx="151.234" cy="423.167" r="22.04"/>
	<circle style="fill:#393D47;" cx="298.731" cy="423.167" r="22.04"/>
</g>
<g>
	
		<line style="fill:none;stroke:#4485C5;stroke-width:4;stroke-miterlimit:10;" x1="123.43" y1="457.074" x2="243.462" y2="457.074"/>
	
		<line style="fill:none;stroke:#4485C5;stroke-width:4;stroke-miterlimit:10;" x1="273.301" y1="457.074" x2="392.993" y2="457.074"/>
</g>
<rect x="235.324" y="58.324" style="fill:#F1F3F7;" width="164.111" height="164.45"/>
<path style="fill:#A8D490;" d="M410.625,144.11c-3.73,0-7.46,0.339-11.189,1.017v76.97c25.43,0,51.539,0,76.97,0
	c0.678-3.73,1.017-7.46,1.017-11.189C477.422,173.948,447.584,144.11,410.625,144.11z"/>
<g>
	<rect x="250.583" y="73.583" style="fill:#3EB9E3;" width="33.568" height="15.936"/>
	<rect x="300.765" y="73.583" style="fill:#3EB9E3;" width="33.568" height="15.936"/>
	<rect x="350.948" y="73.583" style="fill:#3EB9E3;" width="33.568" height="15.936"/>
	<rect x="250.583" y="103.082" style="fill:#3EB9E3;" width="33.568" height="15.936"/>
	<rect x="300.765" y="103.082" style="fill:#3EB9E3;" width="33.568" height="15.936"/>
	<rect x="350.948" y="103.082" style="fill:#3EB9E3;" width="33.568" height="15.936"/>
	<rect x="250.583" y="132.581" style="fill:#3EB9E3;" width="33.568" height="15.936"/>
	<rect x="300.765" y="132.581" style="fill:#3EB9E3;" width="33.568" height="15.936"/>
	<rect x="350.948" y="132.581" style="fill:#3EB9E3;" width="33.568" height="15.936"/>
	<rect x="250.583" y="162.081" style="fill:#3EB9E3;" width="33.568" height="15.936"/>
	<rect x="300.765" y="162.081" style="fill:#3EB9E3;" width="33.568" height="15.936"/>
	<rect x="350.948" y="162.081" style="fill:#3EB9E3;" width="33.568" height="15.936"/>
	<rect x="250.583" y="191.58" style="fill:#3EB9E3;" width="33.568" height="15.936"/>
	<rect x="300.765" y="191.58" style="fill:#3EB9E3;" width="33.568" height="15.936"/>
	<rect x="350.948" y="191.58" style="fill:#3EB9E3;" width="33.568" height="15.936"/>
</g>
<g>
</g>
<g>
</g>
<g>
</g>
<g>
</g>
<g>
</g>
<g>
</g>
<g>
</g>
<g>
</g>
<g>
</g>
<g>
</g>
<g>
</g>
<g>
</g>
<g>
</g>
<g>
</g>
<g>
</g>
</svg>
