<?xml version="1.0" encoding="iso-8859-1"?>
<!-- Generator: Adobe Illustrator 19.0.0, SVG Export Plug-In . SVG Version: 6.00 Build 0)  -->
<svg version="1.1" id="Layer_1" xmlns="http://www.w3.org/2000/svg" xmlns:xlink="http://www.w3.org/1999/xlink" x="0px" y="0px"
	 viewBox="0 0 509.287 509.287" style="enable-background:new 0 0 509.287 509.287;" xml:space="preserve">
<circle style="fill:#69B4ED;" cx="254.644" cy="254.644" r="254.644"/>
<path style="fill:#886C60;" d="M419.433,158.686H89.854c-12.207,0-22.379,9.833-22.379,22.379v223.11
	c0,12.207,9.833,22.379,22.379,22.379h329.579c12.207,0,22.379-9.833,22.379-22.379v-223.11
	C441.812,168.858,431.64,158.686,419.433,158.686z"/>
<polygon style="fill:#A8D490;" points="308.556,158.686 331.274,104.434 179.37,41.028 130.204,158.686 "/>
<path style="fill:#7CC259;" d="M353.653,43.74l-67.475,41.706l45.097,18.649l-22.718,54.591h110.877
	c2.034,0,4.069,0.339,6.103,0.678L353.653,43.74z"/>
<path style="fill:#FFFFFC;" d="M361.113,89.854c-11.868,7.46-27.465,3.73-34.585-8.138l-20.005,12.207l24.413,10.172l-22.718,54.591
	h79.004c2.034-4.408,5.086-8.138,9.494-10.85L361.113,89.854z"/>
<path style="fill:#74594E;" d="M368.911,251.592c-22.718,0-41.028,18.31-41.028,41.028s18.31,41.028,41.028,41.028h72.901v-82.056
	H368.911z"/>
<circle style="fill:#FAD404;" cx="369.589" cy="292.62" r="20.005"/>
<path style="fill:#FFFFFC;" d="M287.873,158.686l8.138-19.666c-13.563-5.764-20.005-21.362-14.241-34.924l-67.136-28.143
	c-5.764,13.563-21.362,20.005-34.924,14.241l-28.482,68.154h136.646V158.686z"/>
<circle style="fill:#A8D490;" cx="233.282" cy="125.457" r="13.563"/>
<circle style="fill:#7CC259;" cx="348.567" cy="138.003" r="12.546"/>
<g>
</g>
<g>
</g>
<g>
</g>
<g>
</g>
<g>
</g>
<g>
</g>
<g>
</g>
<g>
</g>
<g>
</g>
<g>
</g>
<g>
</g>
<g>
</g>
<g>
</g>
<g>
</g>
<g>
</g>
</svg>
