<?xml version="1.0" encoding="iso-8859-1"?>
<!-- Generator: Adobe Illustrator 19.0.0, SVG Export Plug-In . SVG Version: 6.00 Build 0)  -->
<svg version="1.1" id="Layer_1" xmlns="http://www.w3.org/2000/svg" xmlns:xlink="http://www.w3.org/1999/xlink" x="0px" y="0px"
	 viewBox="0 0 509.287 509.287" style="enable-background:new 0 0 509.287 509.287;" xml:space="preserve">
<circle style="fill:#3EB9E3;" cx="254.644" cy="254.644" r="254.644"/>
<path style="fill:#646B79;" d="M86.124,103.078c0-9.494,7.799-17.293,17.293-17.293H405.87c9.494,0,17.293,7.799,17.293,17.293
	v69.849H86.124V103.078z"/>
<path style="fill:#F1F3F7;" d="M423.163,172.927v232.604c0,9.494-7.799,17.293-17.293,17.293H103.417
	c-9.494,0-17.293-7.799-17.293-17.293V172.927H423.163z"/>
<circle style="fill:#D6D6D8;" cx="254.644" cy="308.556" r="87.481"/>
<circle style="fill:#4F5565;" cx="254.644" cy="297.706" r="87.481"/>
<circle style="fill:#4484C5;" cx="254.644" cy="297.706" r="61.033"/>
<g>
	<circle style="fill:#FFFFFF;" cx="364.503" cy="129.187" r="15.936"/>
	<circle style="fill:#FFFFFF;" cx="144.784" cy="129.187" r="15.936"/>
</g>
<circle style="fill:#F0582F;" cx="271.936" cy="129.187" r="6.103"/>
<circle style="fill:#FBD303;" cx="237.351" cy="129.187" r="6.103"/>
<g>
	<circle style="fill:#414753;" cx="378.405" cy="434.013" r="10.85"/>
	<circle style="fill:#414753;" cx="130.882" cy="434.013" r="10.85"/>
</g>
<g>
</g>
<g>
</g>
<g>
</g>
<g>
</g>
<g>
</g>
<g>
</g>
<g>
</g>
<g>
</g>
<g>
</g>
<g>
</g>
<g>
</g>
<g>
</g>
<g>
</g>
<g>
</g>
<g>
</g>
</svg>
