<?xml version="1.0" encoding="iso-8859-1"?>
<!-- Generator: Adobe Illustrator 19.0.0, SVG Export Plug-In . SVG Version: 6.00 Build 0)  -->
<svg version="1.1" id="Layer_1" xmlns="http://www.w3.org/2000/svg" xmlns:xlink="http://www.w3.org/1999/xlink" x="0px" y="0px"
	 viewBox="0 0 509.287 509.287" style="enable-background:new 0 0 509.287 509.287;" xml:space="preserve">
<path style="fill:#11A34D;" d="M254.644,509.287c103.756,0,192.932-62.05,232.604-150.887l-19.327-19.327
	c-33.568,84.768-116.302,145.123-213.277,145.123S74.935,424.18,41.367,339.073L22.04,358.4
	C61.711,447.237,150.887,509.287,254.644,509.287z"/>
<path style="fill:#FFFFFC;" d="M254.644,462.495c-91.211,0-168.519-58.66-196.323-140.376l-16.615,16.615
	c33.568,84.768,116.302,145.123,213.277,145.123s179.709-60.016,213.277-145.123l-16.615-16.615
	C423.163,403.836,345.854,462.495,254.644,462.495z"/>
<path style="fill:#474D5A;" d="M254.644,0C113.928,0,0,113.928,0,254.644c0,36.959,7.799,71.883,22.04,103.756l232.604-232.604
	L487.248,358.4c14.241-31.534,22.04-66.797,22.04-103.756C509.287,113.928,395.359,0,254.644,0z"/>
<path style="fill:#F54947;" d="M254.644,462.495c91.211,0,168.519-58.66,196.323-140.376L254.644,125.796L58.321,322.119
	C86.125,403.836,163.433,462.495,254.644,462.495z"/>
<g>
	<path style="fill:#393D47;" d="M125.457,350.601c-4.408,2.373-9.833,1.017-12.207-3.391c-2.374-4.408-1.017-9.833,3.391-12.207
		s15.258-0.339,15.936,1.017C133.256,337.378,129.865,348.228,125.457,350.601z"/>
	<path style="fill:#393D47;" d="M185.134,403.836c-2.374,4.408-7.799,5.764-12.207,3.391c-4.408-2.374-5.764-7.799-3.391-12.207
		c2.374-4.408,12.885-8.138,14.58-7.121C185.473,388.577,187.846,399.767,185.134,403.836z"/>
	<path style="fill:#393D47;" d="M263.121,420.111c0,4.747-3.73,8.477-8.477,8.477c-4.747,0-8.477-3.73-8.477-8.477
		c0-4.747,6.781-12.546,8.477-12.546C256,407.227,263.121,415.364,263.121,420.111z"/>
	<path style="fill:#393D47;" d="M339.751,395.02c2.374,4.408,1.017,9.833-3.391,12.546c-4.408,2.374-9.833,1.017-12.546-3.391
		c-2.374-4.408-0.339-15.597,1.017-16.276C326.188,386.882,337.378,390.612,339.751,395.02z"/>
	<path style="fill:#393D47;" d="M392.646,335.682c4.069,2.374,5.425,7.46,3.052,11.528s-7.46,5.425-11.528,3.052
		s-7.46-12.207-6.781-13.563C377.727,335.343,388.577,333.309,392.646,335.682z"/>
	<path style="fill:#393D47;" d="M145.462,302.453c-5.086,1.356-10.172-2.034-11.528-7.121c-1.356-5.086,2.034-10.172,7.121-11.529
		c5.086-1.356,15.597,4.069,15.936,5.764C157.33,290.924,150.548,301.097,145.462,302.453z"/>
	<path style="fill:#393D47;" d="M178.352,351.958c-3.73,3.73-9.833,3.391-13.563-0.339s-3.391-9.833,0.339-13.563
		c3.73-3.73,15.597-4.408,16.954-3.052C183.099,336.36,182.082,348.567,178.352,351.958z"/>
	<path style="fill:#393D47;" d="M231.587,378.744c-1.356,5.086-6.781,7.799-11.868,6.442c-5.086-1.356-7.799-6.781-6.442-11.868
		s11.528-11.529,13.224-10.85C227.857,362.808,232.943,373.658,231.587,378.744z"/>
	<path style="fill:#393D47;" d="M291.264,375.015c1.356,5.086-2.034,10.172-7.121,11.529s-10.172-2.034-11.528-7.121
		c-1.356-5.086,4.069-15.597,5.764-15.936C280.074,363.147,289.907,369.928,291.264,375.015z"/>
	<path style="fill:#393D47;" d="M341.107,342.125c3.73,3.73,3.391,9.833-0.339,13.563s-9.833,3.391-13.563-0.339
		s-4.408-15.597-3.052-16.954C325.171,337.378,337.378,338.395,341.107,342.125z"/>
	<path style="fill:#393D47;" d="M367.555,288.89c5.086,1.356,7.799,6.781,6.442,11.868s-6.781,7.799-11.868,6.442
		c-5.086-1.356-11.528-11.529-10.85-13.224C351.619,292.62,362.469,287.195,367.555,288.89z"/>
</g>
<g>
</g>
<g>
</g>
<g>
</g>
<g>
</g>
<g>
</g>
<g>
</g>
<g>
</g>
<g>
</g>
<g>
</g>
<g>
</g>
<g>
</g>
<g>
</g>
<g>
</g>
<g>
</g>
<g>
</g>
</svg>
