<?xml version="1.0" encoding="iso-8859-1"?>
<!-- Generator: Adobe Illustrator 19.0.0, SVG Export Plug-In . SVG Version: 6.00 Build 0)  -->
<svg version="1.1" id="Layer_1" xmlns="http://www.w3.org/2000/svg" xmlns:xlink="http://www.w3.org/1999/xlink" x="0px" y="0px"
	 viewBox="0 0 509.287 509.287" style="enable-background:new 0 0 509.287 509.287;" xml:space="preserve">
<circle style="fill:#29B36F;" cx="254.644" cy="254.644" r="254.644"/>
<g>
	<path style="fill:#FBD303;" d="M254.644,478.771c-9.494,0-16.954-7.46-16.954-16.954V288.212c0-9.494,7.46-16.954,16.954-16.954
		s16.954,7.46,16.954,16.954v173.605C271.597,471.311,264.138,478.771,254.644,478.771z"/>
	<circle style="fill:#FBD303;" cx="254.644" cy="254.644" r="40.689"/>
</g>
<g>
	<path style="fill:#FFFFFC;" d="M182.082,327.205c-40.011-40.011-40.011-105.113,0-145.123c6.781-6.781,17.293-6.781,24.074,0
		c6.781,6.781,6.781,17.293,0,24.074c-26.787,26.787-26.787,70.188,0,96.975c6.781,6.781,7.46,17.971,0,24.074
		C197.679,333.987,185.473,330.596,182.082,327.205z"/>
	<path style="fill:#FFFFFC;" d="M303.131,327.205c-7.121-6.103-6.781-17.293,0-24.074c26.787-26.787,26.787-70.188,0-96.975
		c-6.781-6.781-6.781-17.293,0-24.074c6.781-6.781,17.293-6.781,24.074,0c40.011,40.011,40.011,105.113,0,145.123
		C323.815,330.596,311.608,334.665,303.131,327.205z"/>
	<path style="fill:#FFFFFC;" d="M140.037,369.25c-63.407-63.407-63.407-166.146,0-229.552c6.781-6.781,17.293-6.781,24.074,0
		c6.781,6.781,6.781,17.293,0,24.074c-50.183,50.183-50.183,131.56-0.339,181.743c6.781,6.781,7.46,18.31,0,24.074
		C154.617,376.371,143.089,372.641,140.037,369.25z"/>
	<path style="fill:#FFFFFC;" d="M345.515,369.25c-7.121-6.103-6.781-17.293,0-24.074c50.183-50.183,50.183-131.56,0-181.404
		c-6.781-6.781-6.781-17.293,0-24.074s17.293-6.781,24.074,0c63.407,63.407,63.407,166.146,0,229.552
		C366.199,372.641,354.67,377.727,345.515,369.25z"/>
	<path style="fill:#FFFFFC;" d="M102.061,407.226c-84.09-84.09-84.09-221.075,0-305.505c6.781-6.781,17.293-6.781,24.074,0
		c6.781,6.781,6.781,17.293,0,24.074c-70.866,70.866-70.866,186.49,0,257.356c6.781,6.781,7.121,17.971,0,24.074
		C116.641,415.025,105.113,410.617,102.061,407.226z"/>
	<path style="fill:#FFFFFC;" d="M383.491,407.226c-6.781-6.442-6.781-17.293,0-24.074c70.866-70.866,70.866-186.49,0-257.356
		c-6.781-6.781-6.781-17.293,0-24.074c6.781-6.781,17.293-6.781,24.074,0c84.09,84.09,84.09,221.075,0,305.505
		C404.175,410.617,391.629,415.364,383.491,407.226z"/>
</g>
<g>
</g>
<g>
</g>
<g>
</g>
<g>
</g>
<g>
</g>
<g>
</g>
<g>
</g>
<g>
</g>
<g>
</g>
<g>
</g>
<g>
</g>
<g>
</g>
<g>
</g>
<g>
</g>
<g>
</g>
</svg>
