<?xml version="1.0" encoding="iso-8859-1"?>
<!-- Generator: Adobe Illustrator 19.0.0, SVG Export Plug-In . SVG Version: 6.00 Build 0)  -->
<svg version="1.1" id="Layer_1" xmlns="http://www.w3.org/2000/svg" xmlns:xlink="http://www.w3.org/1999/xlink" x="0px" y="0px"
	 viewBox="0 0 509.287 509.287" style="enable-background:new 0 0 509.287 509.287;" xml:space="preserve">
<path style="fill:#FED304;" d="M509.287,254.644C509.287,113.928,395.359,0,254.644,0S0,113.928,0,254.644
	c0,47.809,13.224,92.567,36.281,130.882h436.726C496.064,347.211,509.287,302.453,509.287,254.644z"/>
<path style="fill:#474D5B;" d="M36.281,385.526c44.419,74.257,125.796,123.762,218.363,123.762s173.944-49.505,218.363-123.762
	L36.281,385.526L36.281,385.526z"/>
<path style="fill:#FCFCFD;" d="M377.388,332.97c30.517-3.73,54.591-35.603,54.591-74.596c0-10.172-1.695-20.005-4.747-28.821
	H314.999c-3.052,8.816-4.747,18.649-4.747,28.821c0,38.654,24.074,70.527,54.591,74.596v80.699
	c-16.615,1.017-30.856,6.781-38.315,14.58h89.176c-7.46-7.799-21.701-13.563-38.315-14.58V332.97z"/>
<path style="fill:#F0582F;" d="M318.389,270.58c4.408,30.856,26.448,54.252,52.895,54.252c26.448,0,48.148-23.396,52.895-54.252
	H318.389z"/>
<path style="fill:#BF3C28;" d="M316.016,198.358c-10.85-17.293-16.615-23.735-16.615-43.74V34.246
	c0-6.103-5.086-11.189-11.189-11.189h-26.448c-6.103,0-11.189,5.086-11.189,11.189v120.371c0,20.005-5.764,26.448-16.615,43.74
	c-10.85,17.293-16.615,36.959-16.615,56.964v195.306c0,8.816,7.121,16.276,16.276,16.276h83.073c8.816,0,16.276-7.121,16.276-16.276
	V255.322C332.63,235.656,326.866,215.989,316.016,198.358z"/>
<path style="fill:#333842;" d="M288.212,23.057h-26.448c-6.103,0-11.189,5.086-11.189,11.189v64.085h48.826V34.246
	C299.401,28.143,294.315,23.057,288.212,23.057z"/>
<rect x="217.346" y="260.408" style="fill:#611A21;" width="115.624" height="151.905"/>
<ellipse style="fill:#8E342D;" cx="274.988" cy="336.021" rx="34.585" ry="53.234"/>
<path style="fill:#FCFCFD;" d="M189.542,371.624c30.517-3.73,54.591-35.603,54.591-74.596c0-10.172-1.695-20.005-4.747-28.821
	H127.152c-3.052,8.816-4.747,18.649-4.747,28.821c0,38.654,24.074,70.527,54.591,74.596v80.699
	c-16.615,1.017-30.856,6.781-38.315,14.58h89.176c-7.46-7.799-21.701-13.563-38.315-14.58V371.624z"/>
<path style="fill:#F0582F;" d="M130.543,309.234c4.408,30.856,26.448,54.252,52.895,54.252s48.148-23.396,52.895-54.252H130.543z"/>
<g>
</g>
<g>
</g>
<g>
</g>
<g>
</g>
<g>
</g>
<g>
</g>
<g>
</g>
<g>
</g>
<g>
</g>
<g>
</g>
<g>
</g>
<g>
</g>
<g>
</g>
<g>
</g>
<g>
</g>
</svg>
